<?xml version="1.0" encoding="utf-8"?>
<!-- Generator: Adobe Illustrator 24.0.1, SVG Export Plug-In . SVG Version: 6.00 Build 0)  -->
<svg version="1.1" id="图层_1" xmlns="http://www.w3.org/2000/svg" xmlns:xlink="http://www.w3.org/1999/xlink" x="0px" y="0px"
	 viewBox="0 0 200 200" style="enable-background:new 0 0 200 200;" xml:space="preserve">
<style type="text/css">
	.st0{fill:#A8CBEF;}
	.st1{fill:#965D5D;}
	.st2{fill:#31945A;}
	.st3{fill:#93C59D;}
	.st4{fill:#FFFFFF;}
	.st5{fill:#A59D92;}
	.st6{fill:#FCF8D1;}
	.st7{fill:#F4DE26;}
	.st8{fill:#F6E568;}
	.st9{fill:#A59D92;stroke:#A59D92;stroke-width:0.1;stroke-miterlimit:10;}
	.st10{fill:#53A875;}
	.st11{opacity:0.15;fill:#E6F1E8;}
	.st12{fill:#5EB983;}
	.st13{fill:#95B4A0;}
	.st14{opacity:0.15;fill:#D5EBDB;}
	.st15{fill:#F9D896;}
	.st16{opacity:0.19;fill:#D97938;}
	.st17{opacity:0.6;fill:#D57C40;}
	.st18{fill:#D79867;}
	.st19{fill:#943023;}
	.st20{fill:#D7A96E;}
	.st21{fill:#D69D3A;}
	.st22{fill:#E5D5B7;}
	.st23{fill:#F5CD1F;}
	.st24{fill:#529B6F;}
	.st25{fill:none;stroke:#529B6F;stroke-width:0.2;stroke-miterlimit:10;}
	.st26{fill:#979696;}
	.st27{fill:#3B7050;}
	.st28{fill:#D33A51;}
	.st29{opacity:0.5;fill:#ED93A3;}
	.st30{opacity:0.3;fill:#ED93A3;}
	.st31{fill:#5EBA81;}
	.st32{fill:#B9D24F;}
	.st33{fill:#F5C352;}
	.st34{fill:#B39977;}
	.st35{fill:#96C95B;}
	.st36{fill:#8BC66B;}
	.st37{fill:#68BB6B;}
	.st38{fill:#F4D321;}
	.st39{fill:none;stroke:#B9D24F;stroke-width:0.25;stroke-miterlimit:10;}
	.st40{fill:#D3AE7E;}
	.st41{fill:#AD9479;}
	.st42{fill:#C29869;}
	.st43{fill:#E4BA7E;}
	.st44{fill:#BEB4AE;}
	.st45{fill:#D9CDBC;}
	.st46{fill:#DACF88;}
	.st47{fill:#F0DDCB;}
	.st48{fill:url(#SVGID_1_);}
	.st49{fill:#EFD0A0;}
	.st50{fill:#DDA68C;}
	.st51{fill:#BFB5AF;}
	.st52{fill:#C4BCCE;}
	.st53{fill:#DCD6E5;}
	.st54{fill:#C1D5E5;}
	.st55{fill:#BABBBC;}
	.st56{fill:#89CCC4;}
	.st57{fill:url(#SVGID_2_);}
	.st58{fill:url(#SVGID_3_);}
	.st59{fill:#B186B2;}
	.st60{fill:#DDC3DC;stroke:#C18DC9;stroke-miterlimit:10;}
	.st61{opacity:0.3;fill:#FFFFFF;}
	.st62{fill:url(#SVGID_4_);}
	.st63{fill:url(#SVGID_5_);}
	.st64{opacity:0.57;fill:#FFFFFF;}
	.st65{fill:url(#SVGID_6_);}
	.st66{fill:url(#SVGID_7_);}
	.st67{fill:url(#SVGID_8_);}
	.st68{fill:url(#SVGID_9_);}
	.st69{fill:url(#SVGID_10_);}
	.st70{fill:url(#SVGID_11_);}
	.st71{fill:url(#SVGID_12_);}
	.st72{fill:url(#SVGID_13_);}
	.st73{fill:url(#SVGID_14_);}
	.st74{fill:url(#SVGID_15_);}
	.st75{fill:url(#SVGID_16_);}
	.st76{fill:url(#SVGID_17_);}
	.st77{fill:url(#SVGID_18_);}
	.st78{fill:url(#SVGID_19_);}
	.st79{fill:url(#SVGID_20_);}
	.st80{fill:url(#SVGID_21_);}
	.st81{fill:url(#SVGID_22_);}
	.st82{fill:url(#SVGID_23_);}
	.st83{fill:url(#SVGID_24_);}
	.st84{fill:url(#SVGID_25_);}
	.st85{fill:url(#SVGID_26_);}
	.st86{fill:url(#SVGID_27_);}
	.st87{fill:url(#SVGID_28_);}
	.st88{fill:url(#SVGID_29_);}
	.st89{fill:#AF9D95;}
	.st90{fill:#CCD6E2;}
	.st91{opacity:0.55;fill:#8DC1E2;}
</style>
<g>
	<g>
		<path class="st1" d="M99.2,118.5l-0.3,10.3c0,1.4-0.1,3-0.2,4.4c-1,7.3-1.7,9.5-1.6,14.8c0.1,10.9-0.9,24.9-0.1,32.8
			c0,0,0.5-15.8,0.8-32.6c0.1-3,1.9-14.5,2.1-17.3c0.5-9.2,0.1-11.7,0.3-12.4L99.2,118.5z"/>
		<path class="st1" d="M96.5,180.8c-0.5-4.9-0.3-12-0.1-19.5c0.1-4.5,0.2-9.1,0.2-13.3c0-3.8,0.3-5.9,0.8-9.5
			c0.2-1.5,0.5-3.2,0.8-5.4c0.2-1.4,0.3-2.9,0.2-4.3l0.3-10.7l1.8,0.1l-0.1,0.4c0,0.2,0,0.6,0,1.3c0,1.5,0.1,4.8-0.3,11.1
			c-0.1,1.3-0.5,4.3-0.9,7.4c-0.5,3.8-1.1,8.2-1.2,9.8c-0.4,16.6-0.8,32.4-0.8,32.6L96.5,180.8z M99.6,118.9l-0.3,9.9
			c0,1.5-0.1,3-0.3,4.4c-0.3,2.2-0.6,3.9-0.8,5.4c-0.5,3.2-0.8,5.2-0.8,8.3c0.2-2.1,0.6-5.4,1.1-8.7c0.4-3.2,0.9-6.1,0.9-7.4
			c0.4-6.3,0.3-9.5,0.3-11c0-0.5,0-0.8,0-1L99.6,118.9z"/>
	</g>
	<path class="st2" d="M100.6,101.3c0,0-8.9-21-20.3-27.7C80.4,73.6,87.5,95.1,100.6,101.3z"/>
	<path class="st2" d="M100.9,94.6c0,0,13.9-9.4,16.9-18.2C117.8,76.5,103.4,84.8,100.9,94.6z"/>
	<path class="st2" d="M99.4,70l-0.6-0.4c0.1-0.1,8.6-11.1,14.2-20.6l0.7,0.4C108.1,58.8,99.5,69.9,99.4,70z"/>
	<g>
		<path class="st1" d="M99.1,132.6c0,0-2.6,6.9-6.1,9c0,0,3.1-1.1,5.8-6.6L99.1,132.6z"/>
		<path class="st1" d="M89.7,143.2l3.2-1.9c3.3-2,5.9-8.7,5.9-8.8l1-2.7l-0.5,5.4c-2.8,5.6-5.9,6.7-6.1,6.8L89.7,143.2z"/>
	</g>
	<g>
		<path class="st1" d="M99,122.8c0,0-2.6,6.9-6.1,9c0,0,3.1-1.1,5.8-6.6L99,122.8z"/>
		<path class="st1" d="M89.6,133.5l3.2-1.9c3.3-2,5.9-8.7,5.9-8.8l1-2.7l-0.5,5.4c-2.8,5.6-5.9,6.7-6.1,6.8L89.6,133.5z"/>
	</g>
	<g>
		<path class="st1" d="M99.2,147.4c0,0,3.8,1.8,6.2,1.3c0,0-1.8,0.8-5.4-0.5L99.2,147.4z"/>
		<path class="st1" d="M103.8,149.3c-0.9,0-2.3-0.2-4-0.8l-0.1-0.1l-2.4-2.3l2.1,1c0,0,3.7,1.7,5.9,1.3l3.7-0.7l-3.5,1.4
			C105.5,149,104.9,149.3,103.8,149.3z"/>
	</g>
	<g>
		<path class="st1" d="M97.5,136.2c0,0-3.5,2.2-5.9,2c0,0,1.9,0.5,5.3-1.1L97.5,136.2z"/>
		<path class="st1" d="M92.4,138.6c-0.6,0-1-0.1-1-0.1l-3.6-1l3.8,0.3c2.3,0.2,5.7-1.9,5.7-1.9l1.8-1.1l-2,2.6
			C94.9,138.4,93.3,138.6,92.4,138.6z"/>
	</g>
	<g>
		<path class="st1" d="M97.9,145.6c0,0,2.6,4.5,6.5,6c0,0-3.3-0.5-7.1-5.4L97.9,145.6z"/>
		<path class="st1" d="M108,152.6l-3.7-0.6c-0.1,0-3.5-0.6-7.3-5.6l-0.2-0.3L98,145l0.2,0.4c0,0,2.6,4.4,6.3,5.8L108,152.6z"/>
	</g>
	<g>
		<path class="st2" d="M100.3,107.5l-9.1-0.8c0,0-55,16.5-78.3-4.6c-3.4-3.1-2.4-6.6,0.7-8.5c8.4-5,29-11,70.8,7.1
			c2.5,1.1,4.9,2.5,7.1,4.2v0l9.1,1.2L100.3,107.5z"/>
		<path class="st3" d="M99.8,106.8c-20.5-2.7-48.8-5.4-68.9-7.3c-11.7-1.1-19.9-1.8-20-1.8l0-0.1c0.1,0,8.2,0.7,20,1.8
			c20.2,1.9,48.5,4.6,68.9,7.3L99.8,106.8z"/>
		<path class="st3" d="M30.8,99.5c-5.4-6-11-8.4-11.1-8.4l0.1-0.1c0.1,0,5.7,2.4,11.1,8.4L30.8,99.5z"/>
		<path class="st3" d="M44.7,100.7c-6.4-8.4-13.1-11.8-13.2-11.8l0.1-0.1c0.1,0,6.8,3.4,13.2,11.9L44.7,100.7z"/>
		<path class="st3" d="M26.3,108.6l-0.1-0.1c5.5-6.1,11.2-8.5,11.2-8.5l0.1,0.1C37.4,100.2,31.8,102.6,26.3,108.6z"/>
		<path class="st3" d="M77,104.1c-4.8-6.9-9.8-9.7-9.8-9.7l0.1-0.1c0.1,0,5.1,2.8,9.9,9.8L77,104.1z"/>
		<path class="st3" d="M69,111.2l-0.1-0.1c6.2-4.7,12.6-6.6,12.7-6.6l0,0.1C81.6,104.6,75.2,106.5,69,111.2z"/>
		<path class="st3" d="M34.4,111.6l-0.1-0.1c11.4-6.7,15.4-10.3,15.4-10.3l0.1,0.1C49.8,101.3,45.9,104.9,34.4,111.6z"/>
		<path class="st3" d="M62.9,102.6C55.6,93.5,48.1,89.8,48,89.8l0.1-0.1c0.1,0,7.6,3.7,14.9,12.9L62.9,102.6z"/>
		<path class="st3" d="M51.2,112.7l-0.1-0.1C63.6,106.4,68,103,68,103l0.1,0.1C68.1,103.2,63.7,106.5,51.2,112.7z"/>
	</g>
	<g>
		<path class="st2" d="M100.4,111.5l-6.4,0.7c-1.7,0.2-3.4,0.6-5.1,1.2l-5.9,2.2c0,0-39.3,40.1-70.5,33.1c-3.6-0.8-5.3-4.6-3.6-7.7
			c4.7-8.4,19.5-23.3,65.2-27.4c2.8-0.2,5.6-0.1,8.3,0.3h0l6.2-2.1c1.6-0.5,3.2-0.9,4.8-1l7.1-0.6L100.4,111.5z"/>
		<g>
			<path class="st3" d="M9.4,146.7l-0.1-0.1c0.1,0,6.7-3.1,16.2-7.4c16.4-7.4,39.6-17.7,56.6-24.6l0.1,0.1
				c-17.1,7-40.2,17.2-56.6,24.6C16.1,143.6,9.5,146.6,9.4,146.7z"/>
			<path class="st3" d="M25.6,139.3c-7.3-1.7-14.9-0.9-15-0.9l0-0.1c0.1,0,7.7-0.8,15.1,0.9L25.6,139.3z"/>
			<path class="st3" d="M36.9,134.1c-9-2.8-18.5-2.9-19.4-2.9c0,0-0.1,0-0.1,0l0-0.1c0,0,0,0,0.1,0c0.9,0,10.4,0.1,19.4,2.9
				L36.9,134.1z"/>
			<path class="st3" d="M25.6,148.9l-0.1-0.1c4.3-6.6,5.5-11.9,5.5-12l0.2,0C31.1,136.9,29.8,142.3,25.6,148.9z"/>
			<path class="st3" d="M66.9,121.1c-6.7-2.8-20.3-3-20.4-3l0-0.1c0.1,0,13.7,0.2,20.5,3L66.9,121.1z"/>
			<path class="st3" d="M66.1,129.5l-0.2,0c0.9-4.9,5.7-10.5,5.7-10.5l0.1,0.1C71.8,119.1,67,124.6,66.1,129.5z"/>
			<path class="st3" d="M36.4,146.3l-0.1-0.1c5.2-9.4,4.8-13.9,4.8-13.9l0.2,0C41.2,132.4,41.5,136.9,36.4,146.3z"/>
			<path class="st3" d="M51.8,127.7c-10.4-3.1-21.2-4.1-21.3-4.1l0-0.1c0.1,0,10.9,1,21.4,4.1L51.8,127.7z"/>
			<path class="st3" d="M51,139.7l-0.1-0.1c6.2-9.5,5.1-13.8,5-13.9l0.2,0C56.1,125.7,57.3,130.1,51,139.7z"/>
		</g>
	</g>
	<g>
		<path class="st2" d="M100.7,113.6l-4.7,4.3c-1.3,1.2-2.4,2.5-3.3,3.9l-3.3,5.2c0,0-5.7,54.8-34.8,67.5c-3.3,1.5-7.2-0.5-7.7-4
			c-1.6-9.4,0.6-29.9,34.3-59.9c2-1.8,4.3-3.4,6.8-4.6l0,0l3.6-5.3c0.9-1.3,2-2.5,3.2-3.6l5.2-4.6L100.7,113.6z"/>
		<g>
			<path class="st3" d="M52.2,194.7l-0.1-0.1c0-0.1,3.2-6.3,7.9-15.4c8-15.5,19.4-37.2,28.2-52.9l0.1,0.1
				c-8.9,15.7-20.2,37.4-28.2,52.9C55.4,188.4,52.3,194.6,52.2,194.7z"/>
			<path class="st3" d="M47.2,187.9l-0.1-0.1c0.1-0.1,5.7-5.4,12.9-8.6l0.1,0.1C52.9,182.5,47.3,187.8,47.2,187.9z"/>
			<path class="st3" d="M47.7,178.3l-0.1-0.1c0.1-0.1,8.1-6.2,17.9-9.7l0.1,0.1C55.8,172.1,47.7,178.3,47.7,178.3z"/>
			<path class="st3" d="M66.1,185.8c-1.3-7.5-3.5-11.6-3.5-11.6l0.1-0.1c0,0,2.2,4.1,3.5,11.6L66.1,185.8z"/>
			<path class="st3" d="M62.3,150.6l-0.1-0.1c0.1-0.1,10.7-8.1,18.2-10.1l0,0.1C73,142.6,62.4,150.5,62.3,150.6z"/>
			<path class="st3" d="M84.5,150.2c-3.2-4.7-2.7-12.1-2.7-12.2l0.2,0c0,0.1-0.5,7.4,2.7,12.1L84.5,150.2z"/>
			<path class="st3" d="M73.3,176.6c-2.6-10.1-5.7-11.8-5.7-11.8l0.1-0.1c0.1,0.1,3.2,1.7,5.8,11.9L73.3,176.6z"/>
			<path class="st3" d="M52.6,164.6l-0.1-0.1c0.1-0.1,9.7-5.9,20.4-10l0.1,0.1C62.3,158.7,52.7,164.6,52.6,164.6z"/>
			<path class="st3" d="M80.3,162.4c-1.8-10.8-5.3-11.6-5.3-11.7l0-0.1c0.1,0,3.6,0.8,5.5,11.8L80.3,162.4z"/>
		</g>
	</g>
	<g>
		<g>
			<path class="st2" d="M100.3,107.5l9.1-0.8c0,0,55,16.5,78.3-4.6c3.4-3.1,2.4-6.6-0.7-8.5c-8.4-5-29-11-70.8,7.1
				c-2.5,1.1-4.9,2.5-7.1,4.2h0l-9.1,1.2L100.3,107.5z"/>
			<path class="st3" d="M100.9,106.8l0-0.1c20.5-2.7,48.8-5.4,68.9-7.3c11.7-1.1,19.9-1.8,20-1.8l0,0.1c-0.1,0-8.2,0.7-20,1.8
				C149.7,101.4,121.3,104.2,100.9,106.8z"/>
			<path class="st3" d="M169.9,99.5l-0.1-0.1c5.4-6,11.1-8.4,11.1-8.4l0.1,0.1C180.9,91.2,175.3,93.6,169.9,99.5z"/>
			<path class="st3" d="M155.9,100.7l-0.1-0.1c6.5-8.5,13.2-11.8,13.2-11.9l0.1,0.1C169,88.9,162.3,92.3,155.9,100.7z"/>
			<path class="st3" d="M174.3,108.7c-5.5-6-11.1-8.4-11.2-8.5l0.1-0.1c0.1,0,5.8,2.4,11.2,8.5L174.3,108.7z"/>
			<path class="st3" d="M123.6,104.1l-0.1-0.1c4.8-7,9.8-9.7,9.9-9.8l0.1,0.1C133.4,94.4,128.4,97.2,123.6,104.1z"/>
			<path class="st3" d="M131.6,111.3c-6.2-4.7-12.6-6.6-12.7-6.6l0-0.1c0.1,0,6.5,1.9,12.7,6.6L131.6,111.3z"/>
			<path class="st3" d="M166.2,111.7c-11.4-6.7-15.4-10.3-15.5-10.3l0.1-0.1c0,0,4,3.6,15.4,10.3L166.2,111.7z"/>
			<path class="st3" d="M137.7,102.7l-0.1-0.1c7.3-9.2,14.9-12.9,14.9-12.9l0.1,0.1C152.5,89.8,145,93.5,137.7,102.7z"/>
			<path class="st3" d="M149.4,112.8c-12.5-6.2-16.9-9.6-16.9-9.6l0.1-0.1c0,0,4.4,3.3,16.9,9.6L149.4,112.8z"/>
		</g>
		<g>
			<path class="st2" d="M100.2,111.5l6.4,0.7c1.7,0.2,3.4,0.6,5.1,1.2l5.9,2.2c0,0,39.3,40.1,70.5,33.1c3.6-0.8,5.3-4.6,3.6-7.7
				c-4.7-8.4-19.5-23.3-65.2-27.4c-2.8-0.2-5.6-0.1-8.3,0.3h0l-6.2-2.1c-1.6-0.5-3.2-0.9-4.8-1l-7.1-0.6L100.2,111.5z"/>
			<g>
				<path class="st3" d="M191.2,146.7c-0.1,0-6.7-3.1-16.2-7.4c-16.4-7.4-39.5-17.6-56.6-24.6l0.1-0.1c17.1,7,40.3,17.3,56.6,24.6
					c9.6,4.3,16.2,7.3,16.2,7.4L191.2,146.7z"/>
				<path class="st3" d="M175.1,139.4l0-0.1c7.3-1.7,15-0.9,15.1-0.9l0,0.1C190,138.5,182.4,137.6,175.1,139.4z"/>
				<path class="st3" d="M163.7,134.2l0-0.1c9-2.8,18.5-2.9,19.4-2.9c0,0,0.1,0,0.1,0l0,0.1c0,0,0,0-0.1,0
					C182.2,131.3,172.7,131.4,163.7,134.2z"/>
				<path class="st3" d="M174.9,148.9c-4.3-6.6-5.4-11.9-5.4-12l0.2,0c0,0.1,1.1,5.4,5.3,11.9L174.9,148.9z"/>
				<path class="st3" d="M133.7,121.1l-0.1-0.1c6.7-2.8,20.3-3,20.5-3l0,0.1C154,118.1,140.4,118.3,133.7,121.1z"/>
				<path class="st3" d="M137.4,131.8c-1-5.5-6.4-11.8-6.4-11.8l0.1-0.1c0.1,0.1,5.5,6.4,6.5,11.9L137.4,131.8z"/>
				<path class="st3" d="M164.3,146.3c-5.2-9.4-4.8-14-4.8-14l0.2,0c0,0-0.4,4.5,4.8,13.9L164.3,146.3z"/>
				<path class="st3" d="M148.8,127.7l0-0.1c10.4-3.1,21.3-4.1,21.4-4.1l0,0.1C170,123.6,159.2,124.6,148.8,127.7z"/>
				<path class="st3" d="M149.6,139.7c-6.3-9.6-5.1-14-5.1-14l0.2,0c0,0-1.2,4.4,5,13.9L149.6,139.7z"/>
			</g>
		</g>
		<g>
			<path class="st2" d="M99.9,113.6l4.7,4.3c1.3,1.2,2.4,2.5,3.3,3.9l3.3,5.2c0,0,5.7,54.8,34.8,67.5c3.3,1.5,7.2-0.5,7.7-4
				c1.6-9.4-0.6-29.9-34.3-59.9c-2-1.8-4.3-3.4-6.8-4.6h0l-3.6-5.3c-0.9-1.3-2-2.5-3.2-3.6l-5.2-4.6L99.9,113.6z"/>
			<g>
				<path class="st3" d="M148.4,194.7c0-0.1-3.2-6.3-7.9-15.4c-8-15.5-19.4-37.3-28.2-52.9l0.1-0.1c8.8,15.6,20.2,37.4,28.2,52.9
					c4.7,9,7.8,15.3,7.9,15.4L148.4,194.7z"/>
				<path class="st3" d="M153.4,187.9c-0.1-0.1-5.7-5.3-12.9-8.5l0.1-0.1c7.2,3.2,12.8,8.5,12.9,8.6L153.4,187.9z"/>
				<path class="st3" d="M153,178.3c-0.1-0.1-8.1-6.2-17.9-9.7l0.1-0.1c9.8,3.6,17.8,9.7,17.9,9.7L153,178.3z"/>
				<path class="st3" d="M134.5,185.8l-0.2,0c1.3-7.5,3.5-11.6,3.5-11.6l0.1,0.1C138,174.3,135.8,178.3,134.5,185.8z"/>
				<path class="st3" d="M138.3,150.6c-0.1-0.1-10.7-8-18.2-10.1l0-0.1c7.5,2,18.1,10,18.2,10.1L138.3,150.6z"/>
				<path class="st3" d="M116.2,150.2l-0.1-0.1c3.2-4.7,2.7-12,2.7-12.1l0.2,0C118.9,138.1,119.3,145.5,116.2,150.2z"/>
				<path class="st3" d="M127.3,176.6l-0.2,0c2.6-10.2,5.7-11.9,5.8-11.9l0.1,0.1C133,164.8,129.9,166.5,127.3,176.6z"/>
				<path class="st3" d="M148,164.7c-0.1-0.1-9.6-5.9-20.3-10l0.1-0.1c10.7,4.1,20.3,9.9,20.4,10L148,164.7z"/>
				<path class="st3" d="M120.3,162.4l-0.2,0c1.8-11,5.3-11.8,5.4-11.8l0,0.1C125.6,150.8,122.1,151.6,120.3,162.4z"/>
			</g>
		</g>
	</g>
	<path class="st2" d="M100.5,118.6l-1.8-0.1c4.5-37.7-0.3-96.3-0.3-96.3l1.3,0C99.6,22.2,104.2,89.3,100.5,118.6"/>
	<g>
		<g>
			<g>
				<path class="st4" d="M100.7,21c0,0-4.5-17.2-12.9-14.6c-3.7,1.2-4.6,5-3.5,7.4c1,2.2,4.7,5.7,13.6,10.1L100.7,21z"/>
				<path class="st5" d="M98,24.2l-0.2-0.1c-10.1-5-12.9-8.5-13.7-10.2c-0.7-1.4-0.7-3.1,0-4.6c0.7-1.5,1.9-2.6,3.6-3.2
					c1.6-0.5,3.2-0.3,4.8,0.5c5.5,3.1,8.3,13.8,8.4,14.3l0,0.1L98,24.2z M89.9,6.3c-0.7,0-1.3,0-2,0.2c-2,0.6-2.9,1.9-3.3,2.9
					c-0.6,1.4-0.6,3,0,4.2c0.6,1.3,3.2,4.8,13.3,9.9l2.5-2.7c-0.3-1.2-3.2-11-8.2-13.8C91.5,6.7,90.7,6.4,89.9,6.3z"/>
			</g>
			<g>
				<path class="st4" d="M101,22.3c0,0,10.1-1.6,12.6-9.3c1.1-3.4-2.4-7.7-6.9-5.4c-2.1,1.1-5,2.6-8.4,12L101,22.3z"/>
				<path class="st5" d="M100.9,22.5l-2.9-2.9l0-0.1c3.4-9.4,6.3-10.9,8.4-12.1c2-1.1,4-0.9,5.6,0.3c1.6,1.3,2.3,3.5,1.7,5.3
					c-2.5,7.8-12.7,9.5-12.8,9.5L100.9,22.5z M98.5,19.5l2.6,2.6c1.1-0.2,10-2.1,12.3-9.2c0.5-1.7-0.1-3.7-1.6-4.8
					c-1.4-1.1-3.2-1.2-5-0.3C104.6,8.9,101.8,10.3,98.5,19.5z"/>
			</g>
			<g>
				<path class="st4" d="M96.1,20.1c0,0-15.3,2.9-12.8,10.5c0.7,2.2,3.1,4.5,6.5,3.7c2.3-0.5,4.3-3.1,9-11.5L96.1,20.1z"/>
				<path class="st5" d="M89.8,34.6C89.8,34.6,89.8,34.6,89.8,34.6c-3.5,0.8-6-1.5-6.8-3.9c-0.5-1.6-0.4-3,0.5-4.4
					c2.8-4.5,12.1-6.3,12.5-6.4l0.1,0l2.9,2.9L99,22.9C94.2,31.5,92.2,34,89.8,34.6z M95.6,20.4c-2,0.4-9.3,2.3-11.7,6.1
					c-0.8,1.2-0.9,2.6-0.4,4c0.7,2.2,3,4.3,6.2,3.6c0,0,0,0,0,0c2.2-0.5,4.1-2.9,8.8-11.2L96,20.4C95.9,20.4,95.8,20.4,95.6,20.4z"
					/>
			</g>
			<g>
				<path class="st4" d="M98.1,22.3c0,0,0.6,9.2,8.8,13.7c3.4,1.9,7.4-0.6,7.5-4.2c0.2-4-4.5-7.1-13.1-11.4L98.1,22.3z"/>
				<path class="st5" d="M104.2,34.5c-5.8-4.8-6.4-12.1-6.4-12.2l0-0.1l3.4-2.1l0.1,0.1c8.5,4.3,13.4,7.5,13.2,11.7
					c-0.1,1.8-1.1,3.5-2.8,4.4c-1.6,0.9-3.4,0.8-5-0.1C105.8,35.7,105,35.1,104.2,34.5z M98.3,22.4c0.1,1.1,1.3,9.3,8.6,13.4
					c1.5,0.8,3.1,0.8,4.6,0.1c1.5-0.8,2.5-2.4,2.6-4c0.2-3.8-4.6-7-12.9-11.2L98.3,22.4z"/>
			</g>
		</g>
		<g>
			<ellipse class="st6" cx="98.6" cy="20.8" rx="4.5" ry="4.3"/>
			<path class="st7" d="M97.1,20.6c0,0-2.9-3.1-3.3-2C93.4,19.6,97.1,20.6,97.1,20.6z"/>
			<path class="st7" d="M97.1,20.7c0,0-4.2-0.9-3.9,0.2C93.4,22,97.1,20.7,97.1,20.7z"/>
			<path class="st7" d="M97.5,21.7c0,0-4.8,0-3.9,1.1C94.5,24,97.5,21.7,97.5,21.7z"/>
			<path class="st7" d="M97.6,21.8c0,0-3.2,2.7-1.8,3.3C97.1,25.7,97.6,21.8,97.6,21.8z"/>
			<path class="st7" d="M100.6,20.9c0,0,2.5,3.3,3.1,2.3C104.2,22.3,100.6,20.9,100.6,20.9z"/>
			<path class="st7" d="M100.6,20.8c0,0,4.1,1.3,3.9,0.1C104.4,19.8,100.6,20.8,100.6,20.8z"/>
			<path class="st7" d="M100.3,19.8c0,0,4.8,0.5,4-0.8C103.6,17.8,100.3,19.8,100.3,19.8z"/>
			<path class="st7" d="M100.3,19.6c0,0,3.4-2.4,2.1-3.1C101.1,15.8,100.3,19.6,100.3,19.6z"/>
			<path class="st7" d="M99.1,19.1c0,0,1.6-3.8,0.4-3.7C98.4,15.4,99.1,19.1,99.1,19.1z"/>
			<path class="st7" d="M98,19.4c0,0,0.8-4.6-0.5-3.9C96.2,16.1,98,19.4,98,19.4z"/>
			<path class="st7" d="M97.8,19.4c0,0-2.2-3.4-3.1-2.3C93.9,18.3,97.8,19.4,97.8,19.4z"/>
			<path class="st7" d="M98.1,22.5c0,0-1.1,4,0.1,3.8C99.4,26,98.1,22.5,98.1,22.5z"/>
			<path class="st7" d="M99.2,22.1c0,0-0.2,4.6,1,3.8C101.5,25.1,99.2,22.1,99.2,22.1z"/>
			<path class="st7" d="M99.8,22.1c0,0,2,3.6,2.9,2.4C103.7,23.5,99.8,22.1,99.8,22.1z"/>
			<path class="st8" d="M98.4,21.3c0,0-1.3,2.1-0.6,2.2S98.4,21.3,98.4,21.3z"/>
			<path class="st8" d="M98.6,21c0,0-0.3,1.2,0,1.1C99,22,98.6,21,98.6,21z"/>
			<path class="st8" d="M98.5,20.8c0,0-1.3,0.2-1.1,0.5C97.7,21.6,98.5,20.8,98.5,20.8z"/>
			<path class="st8" d="M98.4,20.7c0,0-0.8-0.9-1-0.6C97.3,20.3,98.4,20.7,98.4,20.7z"/>
			<path class="st8" d="M98.8,20.7c0,0,1.2,0.4,1.2,0.1S98.8,20.7,98.8,20.7z"/>
			<path class="st8" d="M98.6,20.6c0,0,0-0.9-0.2-0.8S98.6,20.6,98.6,20.6z"/>
			<path class="st8" d="M98.7,20.6c0,0,0.2,0.8,0.4,0.7S98.7,20.6,98.7,20.6z"/>
			<path class="st8" d="M98.9,20.5c0,0,0.9-0.2,0.7-0.3C99.5,20,98.9,20.5,98.9,20.5z"/>
			<path class="st8" d="M98.6,20.7c0,0-0.9-0.1-0.8,0.1C97.9,21,98.6,20.7,98.6,20.7z"/>
			<path class="st8" d="M98.8,20.5c0,0,0.7-1,0.4-1.1S98.8,20.5,98.8,20.5z"/>
			<path class="st8" d="M98.9,21.1c0,0-0.1,2.7,0.6,2.3C100.3,22.9,98.9,21.1,98.9,21.1z"/>
			<path class="st8" d="M99.2,20.9c0,0,1.2,2.1,1.7,1.4C101.4,21.7,99.2,20.9,99.2,20.9z"/>
			<path class="st8" d="M97.8,20.3c0,0-1.8-1.7-2.1-1C95.5,19.9,97.8,20.3,97.8,20.3z"/>
			<path class="st8" d="M98,20.6c0,0-2.8-0.6-2.4,0.1C95.9,21.5,98,20.6,98,20.6z"/>
			<path class="st8" d="M98.1,21.1c0,0-2.4,0.5-1.9,1.2C96.6,23,98.1,21.1,98.1,21.1z"/>
			<path class="st8" d="M99.1,20.4c0,0,1.6-1.9,0.9-2C99.4,18.2,99.1,20.4,99.1,20.4z"/>
			<path class="st8" d="M99.3,20.5c0,0,2.5-0.4,2.1-1S99.3,20.5,99.3,20.5z"/>
			<path class="st8" d="M99.6,20.9c0,0,2.4,0.7,2.3,0S99.6,20.9,99.6,20.9z"/>
			<path class="st8" d="M98.7,20.2c0,0,0.6-2.7-0.2-2.3C97.7,18.3,98.7,20.2,98.7,20.2z"/>
			<path class="st8" d="M98.3,20.3c0,0-0.4-2.4-1.2-1.9S98.3,20.3,98.3,20.3z"/>
		</g>
	</g>
	<g>
		<g>
			<g>
				<path class="st4" d="M95.2,39.4c0,0-5.7-15.9-13.9-12.9c-3.7,1.3-4.2,5.1-2.9,7.3c1.2,2,5.1,5.1,14.3,8.6L95.2,39.4z"/>
				<path class="st5" d="M92.7,42.5l-0.2-0.1c-10.4-4-13.5-7.1-14.4-8.7c-0.8-1.2-0.9-2.9-0.4-4.4c0.5-1.5,1.7-2.6,3.4-3.2
					c1.6-0.6,3.2-0.5,4.8,0.2c5.7,2.5,9.3,12.4,9.5,12.9l0,0.1L92.7,42.5z M83.3,26.3c-0.7,0-1.3,0.1-2,0.4c-1.9,0.7-2.8,2-3.1,3
					c-0.5,1.3-0.4,2.8,0.3,4c0.7,1.2,3.5,4.4,14,8.4l2.3-2.7c-0.4-1.1-4-10.2-9.2-12.5C84.9,26.5,84.1,26.3,83.3,26.3z"/>
			</g>
			<g>
				<path class="st4" d="M93.3,40.9c0,0,10.2,0.7,14.4-6.2c1.8-3.1-0.6-8.1-5.5-6.8c-2.3,0.6-5.4,1.4-10.9,9.7L93.3,40.9z"/>
				<path class="st5" d="M93.1,41.1l-2.2-3.5l0.1-0.1c5.4-8.4,8.6-9.2,11-9.8c2.2-0.6,4.2,0,5.4,1.6c1.3,1.6,1.5,3.9,0.5,5.6
					c-4.2,7-14.5,6.3-14.6,6.3L93.1,41.1z M91.5,37.6l1.9,3.1c1.2,0,10.2,0.2,14-6.1c0.9-1.5,0.7-3.6-0.4-5.1
					c-1.1-1.4-2.9-1.9-4.8-1.4C99.8,28.6,96.8,29.4,91.5,37.6z"/>
			</g>
			<g>
				<path class="st4" d="M89.9,38.5c0,0-15.3,2.9-12.8,10.5c0.7,2.2,3.1,4.5,6.5,3.7c2.3-0.5,4.3-3.1,9-11.5L89.9,38.5z"/>
				<path class="st5" d="M83.6,53C83.6,53,83.6,53,83.6,53c-3.5,0.8-6-1.5-6.8-3.9c-0.5-1.6-0.4-3,0.5-4.4
					c2.8-4.5,12.1-6.3,12.5-6.4l0.1,0l2.9,2.9l-0.1,0.1C88,50,86,52.5,83.6,53z M89.4,38.9c-2,0.4-9.3,2.3-11.7,6.1
					c-0.8,1.2-0.9,2.6-0.4,4c0.7,2.2,3,4.3,6.2,3.6c0,0,0,0,0,0c2.2-0.5,4.1-2.9,8.8-11.2l-2.5-2.5C89.7,38.8,89.6,38.8,89.4,38.9z"
					/>
			</g>
			<g>
				<path class="st4" d="M92.1,39.2c0,0-0.5,8.7,6.4,14c2.9,2.2,6.8,0.3,7.4-3c0.6-3.7-3.3-7.3-10.7-12.4L92.1,39.2z"/>
				<path class="st5" d="M96.3,51.4c-4.7-5.3-4.4-12.2-4.4-12.3l0-0.1l3.3-1.5l0.1,0.1c7.3,5.1,11.4,8.8,10.7,12.6
					c-0.3,1.7-1.5,3.2-3.1,3.8c-1.6,0.6-3.2,0.4-4.6-0.7C97.6,52.7,96.9,52.1,96.3,51.4z M92.3,39.3c0,1.1,0,8.9,6.3,13.7
					c1.2,1,2.8,1.2,4.2,0.6c1.5-0.6,2.6-1.9,2.9-3.5c0.6-3.6-3.4-7.2-10.5-12.1L92.3,39.3z"/>
			</g>
		</g>
		<g>
			<ellipse class="st6" cx="92.4" cy="40.5" rx="4.5" ry="4.3"/>
			<path class="st7" d="M90.9,40.3c0,0-2.9-3.1-3.3-2C87.1,39.3,90.9,40.3,90.9,40.3z"/>
			<path class="st7" d="M90.9,40.4c0,0-4.2-0.9-3.9,0.2C87.2,41.7,90.9,40.4,90.9,40.4z"/>
			<path class="st7" d="M91.3,41.4c0,0-4.8,0-3.9,1.1C88.3,43.7,91.3,41.4,91.3,41.4z"/>
			<path class="st7" d="M91.4,41.5c0,0-3.2,2.7-1.8,3.3C90.9,45.4,91.4,41.5,91.4,41.5z"/>
			<path class="st7" d="M94.3,40.6c0,0,2.5,3.3,3.1,2.3C98,42,94.3,40.6,94.3,40.6z"/>
			<path class="st7" d="M94.4,40.5c0,0,4.1,1.3,3.9,0.1C98.2,39.5,94.4,40.5,94.4,40.5z"/>
			<path class="st7" d="M94.1,39.5c0,0,4.8,0.5,4-0.8S94.1,39.5,94.1,39.5z"/>
			<path class="st7" d="M94.1,39.3c0,0,3.4-2.4,2.1-3.1C94.9,35.5,94.1,39.3,94.1,39.3z"/>
			<path class="st7" d="M92.9,38.8c0,0,1.6-3.8,0.4-3.7C92.2,35.1,92.9,38.8,92.9,38.8z"/>
			<path class="st7" d="M91.8,39.1c0,0,0.8-4.6-0.5-3.9C90,35.8,91.8,39.1,91.8,39.1z"/>
			<path class="st7" d="M91.6,39.1c0,0-2.2-3.4-3.1-2.3C87.7,38,91.6,39.1,91.6,39.1z"/>
			<path class="st7" d="M91.9,42.2c0,0-1.1,4,0.1,3.8S91.9,42.2,91.9,42.2z"/>
			<path class="st7" d="M93,41.8c0,0-0.2,4.6,1,3.8C95.3,44.8,93,41.8,93,41.8z"/>
			<path class="st7" d="M93.6,41.8c0,0,2,3.6,2.9,2.4C97.5,43.2,93.6,41.8,93.6,41.8z"/>
			<path class="st8" d="M92.2,41c0,0-1.3,2.1-0.6,2.2C92.3,43.2,92.2,41,92.2,41z"/>
			<path class="st8" d="M92.4,40.7c0,0-0.3,1.2,0,1.1C92.8,41.7,92.4,40.7,92.4,40.7z"/>
			<path class="st8" d="M92.3,40.5c0,0-1.3,0.2-1.1,0.5C91.5,41.3,92.3,40.5,92.3,40.5z"/>
			<path class="st8" d="M92.2,40.4c0,0-0.8-0.9-1-0.6C91.1,40,92.2,40.4,92.2,40.4z"/>
			<path class="st8" d="M92.6,40.4c0,0,1.2,0.4,1.2,0.1S92.6,40.4,92.6,40.4z"/>
			<path class="st8" d="M92.4,40.3c0,0,0-0.9-0.2-0.8S92.4,40.3,92.4,40.3z"/>
			<path class="st8" d="M92.5,40.3c0,0,0.2,0.8,0.4,0.7C93.1,40.9,92.5,40.3,92.5,40.3z"/>
			<path class="st8" d="M92.7,40.2c0,0,0.9-0.2,0.7-0.3S92.7,40.2,92.7,40.2z"/>
			<path class="st8" d="M92.4,40.4c0,0-0.9-0.1-0.8,0.1C91.7,40.7,92.4,40.4,92.4,40.4z"/>
			<path class="st8" d="M92.6,40.2c0,0,0.7-1,0.4-1.1C92.6,39.1,92.6,40.2,92.6,40.2z"/>
			<path class="st8" d="M92.7,40.8c0,0-0.1,2.7,0.6,2.3C94.1,42.6,92.7,40.8,92.7,40.8z"/>
			<path class="st8" d="M93,40.6c0,0,1.2,2.1,1.7,1.4C95.2,41.4,93,40.6,93,40.6z"/>
			<path class="st8" d="M91.6,40c0,0-1.8-1.7-2.1-1S91.6,40,91.6,40z"/>
			<path class="st8" d="M91.8,40.3c0,0-2.8-0.6-2.4,0.1S91.8,40.3,91.8,40.3z"/>
			<path class="st8" d="M91.9,40.8c0,0-2.4,0.5-1.9,1.2C90.4,42.7,91.9,40.8,91.9,40.8z"/>
			<path class="st8" d="M92.9,40.1c0,0,1.6-1.9,0.9-2C93.2,37.9,92.9,40.1,92.9,40.1z"/>
			<path class="st8" d="M93.1,40.2c0,0,2.5-0.4,2.1-1S93.1,40.2,93.1,40.2z"/>
			<path class="st8" d="M93.4,40.6c0,0,2.4,0.7,2.3,0C95.7,40,93.4,40.6,93.4,40.6z"/>
			<path class="st8" d="M92.5,39.9c0,0,0.6-2.7-0.2-2.3S92.5,39.9,92.5,39.9z"/>
			<path class="st8" d="M92.1,40.1c0,0-0.4-2.4-1.2-1.9C90.2,38.6,92.1,40.1,92.1,40.1z"/>
		</g>
	</g>
	<g>
		<g>
			<path class="st4" d="M115.2,51.4c0,0,5.1-10,0.7-12.1c-2.3-1.1-4.3,0-4.9,1.5c-0.5,1.4-0.4,4.6,1.7,10.5L115.2,51.4z"/>
			<path class="st9" d="M112.5,51.4l0-0.1c-2.3-6.7-2.1-9.2-1.7-10.2c0.3-0.9,1.1-1.8,2-2.2c1-0.3,2.1-0.4,3.1,0.2
				c1,0.5,1.6,1.3,1.8,2.4c0.8,3.7-2.3,9.6-2.4,9.9l0,0.1L112.5,51.4z M116.8,40.2c-0.3-0.3-0.6-0.6-1-0.8c-1.2-0.7-2.2-0.4-2.8-0.2
				c-0.9,0.3-1.6,1.2-1.8,2c-0.3,0.8-0.7,3.1,1.6,9.9l2.3,0.1c0.4-0.7,3-6.1,2.4-9.6C117.3,41.1,117.1,40.6,116.8,40.2z"/>
			<path class="st4" d="M113.3,49.5c0,0-5.1,10-0.7,12.1c2.3,1.1,4.3,0,4.9-1.5c0.5-1.4,0.4-4.6-1.7-10.5L113.3,49.5z"/>
			<path class="st9" d="M115.9,49.4l0,0.1c2.3,6.7,2.1,9.2,1.7,10.2c-0.3,0.9-1.1,1.8-2,2.2c-1,0.3-2.1,0.4-3.1-0.2
				c-1-0.5-1.6-1.3-1.8-2.4c-0.8-3.7,2.3-9.6,2.4-9.9l0-0.1L115.9,49.4z M111.7,60.6c0.3,0.3,0.6,0.6,1,0.8c1.2,0.7,2.2,0.4,2.8,0.2
				c0.9-0.3,1.6-1.2,1.8-2c0.3-0.8,0.7-3.1-1.6-9.9l-2.3-0.1c-0.4,0.7-3,6.1-2.4,9.6C111.1,59.8,111.3,60.2,111.7,60.6z"/>
		</g>
		<g>
			<path class="st4" d="M113.1,52c0,0,10,5.1,12.1,0.7c1.1-2.3,0-4.3-1.5-4.9c-1.4-0.5-4.6-0.4-10.5,1.7L113.1,52z"/>
			<path class="st9" d="M113.1,49.3l0.1,0c6.7-2.3,9.2-2.1,10.2-1.7c0.9,0.3,1.8,1.1,2.2,2c0.3,1,0.4,2.1-0.2,3.1
				c-0.5,1-1.3,1.6-2.4,1.8c-3.7,0.8-9.6-2.3-9.9-2.4l-0.1,0L113.1,49.3z M124.3,53.6c0.3-0.3,0.6-0.6,0.8-1
				c0.7-1.2,0.4-2.2,0.2-2.8c-0.3-0.9-1.2-1.6-2-1.8c-0.8-0.3-3.1-0.7-9.9,1.6l-0.1,2.3c0.7,0.4,6.1,3,9.6,2.4
				C123.4,54.1,123.9,53.9,124.3,53.6z"/>
			<path class="st4" d="M115.3,50c0,0-10-5.1-12.1-0.7c-1.1,2.3,0,4.3,1.5,4.9c1.4,0.5,4.6,0.4,10.5-1.7L115.3,50z"/>
			<path class="st9" d="M115.4,52.7l-0.1,0c-6.7,2.3-9.2,2.1-10.2,1.7c-0.9-0.3-1.8-1.1-2.2-2c-0.3-1-0.4-2.1,0.2-3.1
				c0.5-1,1.3-1.6,2.4-1.8c3.7-0.8,9.6,2.3,9.9,2.4l0.1,0L115.4,52.7z M104.2,48.4c-0.3,0.3-0.6,0.6-0.8,1c-0.7,1.2-0.4,2.2-0.2,2.8
				c0.3,0.9,1.2,1.6,2,1.8c0.8,0.3,3.1,0.7,9.9-1.6l0.1-2.3c-0.7-0.4-6.1-3-9.6-2.4C105.1,47.9,104.6,48.1,104.2,48.4z"/>
		</g>
		<g>
			
				<ellipse transform="matrix(0.6626 -0.7489 0.7489 0.6626 0.1473 102.7815)" class="st6" cx="114.2" cy="51.2" rx="3.4" ry="3.6"/>
			<path class="st7" d="M113.4,50.3c0,0-0.1-3.3-0.9-3S113.4,50.3,113.4,50.3z"/>
			<path class="st7" d="M113.3,50.4c0,0-2-2.7-2.5-1.9C110.4,49.2,113.3,50.4,113.3,50.4z"/>
			<path class="st7" d="M113,51.2c0,0-2.9-2.6-3-1.4C110,51,113,51.2,113,51.2z"/>
			<path class="st7" d="M113,51.3c0,0-3.3-0.1-2.8,1C110.6,53.4,113,51.3,113,51.3z"/>
			<path class="st7" d="M115.2,52.4c0,0-0.2,3.3,0.6,3S115.2,52.4,115.2,52.4z"/>
			<path class="st7" d="M115.3,52.3c0,0,1.8,2.9,2.3,2.2S115.3,52.3,115.3,52.3z"/>
			<path class="st7" d="M115.7,51.5c0,0,2.6,2.8,2.8,1.7C118.7,52.1,115.7,51.5,115.7,51.5z"/>
			<path class="st7" d="M115.7,51.4c0,0,3.3,0.4,2.9-0.7C118.3,49.6,115.7,51.4,115.7,51.4z"/>
			<path class="st7" d="M115.3,50.5c0,0,3-1.4,2.2-2C116.8,47.9,115.3,50.5,115.3,50.5z"/>
			<path class="st7" d="M114.5,50.1c0,0,2.9-2.3,1.8-2.6C115.2,47.1,114.5,50.1,114.5,50.1z"/>
			<path class="st7" d="M114.4,50c0,0,0.5-3.2-0.6-3S114.4,50,114.4,50z"/>
			<path class="st7" d="M113,52c0,0-2.7,1.8-1.9,2.3C111.9,54.8,113,52,113,52z"/>
			<path class="st7" d="M113.8,52.3c0,0-2.6,2.7-1.4,2.8S113.8,52.3,113.8,52.3z"/>
			<path class="st7" d="M114.2,52.7c0,0-0.7,3.2,0.5,3S114.2,52.7,114.2,52.7z"/>
			<path class="st8" d="M113.8,51.4c0,0-1.9,0.6-1.5,1C112.7,52.8,113.8,51.4,113.8,51.4z"/>
			<path class="st8" d="M114.1,51.3c0,0-0.8,0.5-0.6,0.7C113.7,52.2,114.1,51.3,114.1,51.3z"/>
			<path class="st8" d="M114.1,51.2c0,0-0.9-0.5-0.9-0.2C113.2,51.2,114.1,51.2,114.1,51.2z"/>
			<path class="st8" d="M114.1,51c0,0,0-1-0.3-0.9C113.6,50.3,114.1,51,114.1,51z"/>
			<path class="st8" d="M114.3,51.3c0,0,0.5,0.9,0.7,0.7C115.1,51.8,114.3,51.3,114.3,51.3z"/>
			<path class="st8" d="M114.2,51.1c0,0,0.5-0.5,0.3-0.6C114.3,50.5,114.2,51.1,114.2,51.1z"/>
			<path class="st8" d="M114.3,51.2c0,0-0.3,0.6-0.1,0.6C114.4,51.8,114.3,51.2,114.3,51.2z"/>
			<path class="st8" d="M114.5,51.2c0,0,0.6,0.4,0.6,0.2S114.5,51.2,114.5,51.2z"/>
			<path class="st8" d="M114.2,51.2c0,0-0.5-0.5-0.6-0.3C113.6,51,114.2,51.2,114.2,51.2z"/>
			<path class="st8" d="M114.4,51.2c0,0,1-0.2,0.8-0.4S114.4,51.2,114.4,51.2z"/>
			<path class="st8" d="M114.2,51.6c0,0-1.5,1.6-0.8,1.7C114,53.4,114.2,51.6,114.2,51.6z"/>
			<path class="st8" d="M114.4,51.6c0,0-0.4,1.9,0.3,1.8C115.4,53.3,114.4,51.6,114.4,51.6z"/>
			<path class="st8" d="M113.9,50.5c0,0-0.2-2-0.7-1.7C112.8,49,113.9,50.5,113.9,50.5z"/>
			<path class="st8" d="M113.9,50.8c0,0-1.3-1.9-1.5-1.2C112.2,50.2,113.9,50.8,113.9,50.8z"/>
			<path class="st8" d="M113.7,51.1c0,0-1.7-1-1.8-0.3C111.8,51.5,113.7,51.1,113.7,51.1z"/>
			<path class="st8" d="M114.7,51.3c0,0,2-0.3,1.6-0.7S114.7,51.3,114.7,51.3z"/>
			<path class="st8" d="M114.7,51.4c0,0,1.7,1.1,1.8,0.5C116.5,51.4,114.7,51.4,114.7,51.4z"/>
			<path class="st8" d="M114.7,51.9c0,0,1.1,1.7,1.4,1.2S114.7,51.9,114.7,51.9z"/>
			<path class="st8" d="M114.5,51c0,0,1.8-1.3,1.1-1.5S114.5,51,114.5,51z"/>
			<path class="st8" d="M114.2,50.8c0,0,1-1.6,0.3-1.7C113.8,48.9,114.2,50.8,114.2,50.8z"/>
		</g>
	</g>
	<g>
		<g>
			<path class="st4" d="M101.7,71.1c0,0,5.1-10,0.7-12.1c-2.3-1.1-4.3,0-4.9,1.5c-0.5,1.4-0.4,4.6,1.7,10.5L101.7,71.1z"/>
			<path class="st9" d="M99.1,71.2l0-0.1c-2.3-6.7-2.1-9.2-1.7-10.2c0.3-0.9,1.1-1.8,2-2.2c1-0.3,2.1-0.4,3.1,0.2
				c1,0.5,1.6,1.3,1.8,2.4c0.8,3.7-2.3,9.6-2.4,9.9l0,0.1L99.1,71.2z M103.3,59.9c-0.3-0.3-0.6-0.6-1-0.8c-1.2-0.7-2.2-0.4-2.8-0.2
				c-0.9,0.3-1.6,1.2-1.8,2c-0.3,0.8-0.7,3.1,1.6,9.9l2.3,0.1c0.4-0.7,3-6.1,2.4-9.6C103.9,60.8,103.7,60.3,103.3,59.9z"/>
			<path class="st4" d="M99.8,69.2c0,0-5.1,10-0.7,12.1c2.3,1.1,4.3,0,4.9-1.5c0.5-1.4,0.4-4.6-1.7-10.5L99.8,69.2z"/>
			<path class="st9" d="M102.5,69.1l0,0.1c2.3,6.7,2.1,9.2,1.7,10.2c-0.3,0.9-1.1,1.8-2,2.2c-1,0.3-2.1,0.4-3.1-0.2
				c-1-0.5-1.6-1.3-1.8-2.4c-0.8-3.7,2.3-9.6,2.4-9.9l0-0.1L102.5,69.1z M98.2,80.3c0.3,0.3,0.6,0.6,1,0.8c1.2,0.7,2.2,0.4,2.8,0.2
				c0.9-0.3,1.6-1.2,1.8-2c0.3-0.8,0.7-3.1-1.6-9.9l-2.3-0.1c-0.4,0.7-3,6.1-2.4,9.6C97.7,79.5,97.9,79.9,98.2,80.3z"/>
		</g>
		<g>
			<path class="st4" d="M99.7,71.7c0,0,10,5.1,12.1,0.7c1.1-2.3,0-4.3-1.5-4.9c-1.4-0.5-4.6-0.4-10.5,1.7L99.7,71.7z"/>
			<path class="st9" d="M99.6,69l0.1,0c6.7-2.3,9.2-2.1,10.2-1.7c0.9,0.3,1.8,1.1,2.2,2c0.3,1,0.4,2.1-0.2,3.1
				c-0.5,1-1.3,1.6-2.4,1.8c-3.7,0.8-9.6-2.3-9.9-2.4l-0.1,0L99.6,69z M110.8,73.3c0.3-0.3,0.6-0.6,0.8-1c0.7-1.2,0.4-2.2,0.2-2.8
				c-0.3-0.9-1.2-1.6-2-1.8c-0.8-0.3-3.1-0.7-9.9,1.6l-0.1,2.3c0.7,0.4,6.1,3,9.6,2.4C110,73.8,110.4,73.6,110.8,73.3z"/>
			<path class="st4" d="M101.9,69.7c0,0-10-5.1-12.1-0.7c-1.1,2.3,0,4.3,1.5,4.9c1.4,0.5,4.6,0.4,10.5-1.7L101.9,69.7z"/>
			<path class="st9" d="M102,72.4l-0.1,0c-6.7,2.3-9.2,2.1-10.2,1.7c-0.9-0.3-1.8-1.1-2.2-2c-0.3-1-0.4-2.1,0.2-3.1
				c0.5-1,1.3-1.6,2.4-1.8c3.7-0.8,9.6,2.3,9.9,2.4l0.1,0L102,72.4z M90.8,68.1c-0.3,0.3-0.6,0.6-0.8,1c-0.7,1.2-0.4,2.2-0.2,2.8
				c0.3,0.9,1.2,1.6,2,1.8c0.8,0.3,3.1,0.7,9.9-1.6l0.1-2.3c-0.7-0.4-6.1-3-9.6-2.4C91.6,67.6,91.2,67.8,90.8,68.1z"/>
		</g>
		<g>
			
				<ellipse transform="matrix(0.6626 -0.7489 0.7489 0.6626 -19.1506 99.354)" class="st6" cx="100.7" cy="70.9" rx="3.4" ry="3.6"/>
			<path class="st7" d="M99.9,70c0,0-0.1-3.3-0.9-3S99.9,70,99.9,70z"/>
			<path class="st7" d="M99.8,70.1c0,0-2-2.7-2.5-1.9C96.9,68.9,99.8,70.1,99.8,70.1z"/>
			<path class="st7" d="M99.6,70.9c0,0-2.9-2.6-3-1.4C96.5,70.7,99.6,70.9,99.6,70.9z"/>
			<path class="st7" d="M99.5,71c0,0-3.3-0.1-2.8,1C97.2,73.1,99.5,71,99.5,71z"/>
			<path class="st7" d="M101.8,72.1c0,0-0.2,3.3,0.6,3C103.3,74.8,101.8,72.1,101.8,72.1z"/>
			<path class="st7" d="M101.9,72c0,0,1.8,2.9,2.3,2.2C104.7,73.4,101.9,72,101.9,72z"/>
			<path class="st7" d="M102.2,71.2c0,0,2.6,2.8,2.8,1.7C105.2,71.8,102.2,71.2,102.2,71.2z"/>
			<path class="st7" d="M102.3,71.1c0,0,3.3,0.4,2.9-0.7C104.8,69.3,102.3,71.1,102.3,71.1z"/>
			<path class="st7" d="M101.9,70.2c0,0,3-1.4,2.2-2C103.4,67.6,101.9,70.2,101.9,70.2z"/>
			<path class="st7" d="M101.1,69.8c0,0,2.9-2.3,1.8-2.6S101.1,69.8,101.1,69.8z"/>
			<path class="st7" d="M101,69.7c0,0,0.5-3.2-0.6-3C99.2,67,101,69.7,101,69.7z"/>
			<path class="st7" d="M99.5,71.7c0,0-2.7,1.8-1.9,2.3S99.5,71.7,99.5,71.7z"/>
			<path class="st7" d="M100.4,72.1c0,0-2.6,2.7-1.4,2.8C100.1,75,100.4,72.1,100.4,72.1z"/>
			<path class="st7" d="M100.7,72.4c0,0-0.7,3.2,0.5,3S100.7,72.4,100.7,72.4z"/>
			<path class="st8" d="M100.3,71.1c0,0-1.9,0.6-1.5,1S100.3,71.1,100.3,71.1z"/>
			<path class="st8" d="M100.6,71c0,0-0.8,0.5-0.6,0.7C100.3,71.9,100.6,71,100.6,71z"/>
			<path class="st8" d="M100.6,70.9c0,0-0.9-0.5-0.9-0.2C99.7,70.9,100.6,70.9,100.6,70.9z"/>
			<path class="st8" d="M100.6,70.7c0,0,0-1-0.3-0.9C100.1,70,100.6,70.7,100.6,70.7z"/>
			<path class="st8" d="M100.9,71c0,0,0.5,0.9,0.7,0.7C101.7,71.5,100.9,71,100.9,71z"/>
			<path class="st8" d="M100.8,70.8c0,0,0.5-0.5,0.3-0.6C100.9,70.2,100.8,70.8,100.8,70.8z"/>
			<path class="st8" d="M100.8,70.9c0,0-0.3,0.6-0.1,0.6C100.9,71.5,100.8,70.9,100.8,70.9z"/>
			<path class="st8" d="M101,70.9c0,0,0.6,0.4,0.6,0.2C101.6,70.9,101,70.9,101,70.9z"/>
			<path class="st8" d="M100.8,70.9c0,0-0.5-0.5-0.6-0.3S100.8,70.9,100.8,70.9z"/>
			<path class="st8" d="M101,70.9c0,0,1-0.2,0.8-0.4C101.6,70.2,101,70.9,101,70.9z"/>
			<path class="st8" d="M100.7,71.3c0,0-1.5,1.6-0.8,1.7C100.6,73.1,100.7,71.3,100.7,71.3z"/>
			<path class="st8" d="M101,71.3c0,0-0.4,1.9,0.3,1.8S101,71.3,101,71.3z"/>
			<path class="st8" d="M100.5,70.2c0,0-0.2-2-0.7-1.7C99.3,68.8,100.5,70.2,100.5,70.2z"/>
			<path class="st8" d="M100.4,70.5c0,0-1.3-1.9-1.5-1.2C98.7,69.9,100.4,70.5,100.4,70.5z"/>
			<path class="st8" d="M100.2,70.8c0,0-1.7-1-1.8-0.3C98.4,71.2,100.2,70.8,100.2,70.8z"/>
			<path class="st8" d="M101.2,71c0,0,2-0.3,1.6-0.7S101.2,71,101.2,71z"/>
			<path class="st8" d="M101.2,71.1c0,0,1.7,1.1,1.8,0.5S101.2,71.1,101.2,71.1z"/>
			<path class="st8" d="M101.2,71.6c0,0,1.1,1.7,1.4,1.2S101.2,71.6,101.2,71.6z"/>
			<path class="st8" d="M101.1,70.7c0,0,1.8-1.3,1.1-1.5S101.1,70.7,101.1,70.7z"/>
			<path class="st8" d="M100.7,70.5c0,0,1-1.6,0.3-1.7C100.3,68.6,100.7,70.5,100.7,70.5z"/>
		</g>
	</g>
</g>
</svg>
