<?xml version="1.0" encoding="utf-8"?>
<!-- Generator: Adobe Illustrator 24.0.1, SVG Export Plug-In . SVG Version: 6.00 Build 0)  -->
<svg version="1.1" id="图层_1" xmlns="http://www.w3.org/2000/svg" xmlns:xlink="http://www.w3.org/1999/xlink" x="0px" y="0px"
	 viewBox="0 0 200 200" style="enable-background:new 0 0 200 200;" xml:space="preserve">
<style type="text/css">
	.st0{fill:#995E5E;}
	.st1{fill:#2C9A5C;}
	.st2{fill:#FFFFFF;}
	.st3{fill:#A59D92;}
	.st4{fill:#FFFAD2;}
	.st5{fill:#FFE600;}
	.st6{fill:#FFEC64;}
	.st7{fill:#97CCA1;}
	.st8{fill:#52AF78;}
	.st9{opacity:0.15;fill:#E7F2E9;}
	.st10{fill:#5FC187;}
	.st11{fill:#97B7A2;}
	.st12{opacity:0.15;fill:#D8EFDF;}
	.st13{fill:#FFDC97;}
	.st14{opacity:0.19;fill:#E27C37;}
	.st15{opacity:0.6;fill:#DD7F3E;}
	.st16{fill:#DD9A68;}
	.st17{fill:#9B2C00;}
	.st18{fill:#DDAD6F;}
	.st19{fill:#DDA036;}
	.st20{fill:#E8D7B8;}
	.st21{fill:#FFD400;}
	.st22{fill:#52A072;}
	.st23{fill:#C0DB4B;}
	.st24{fill:#FFC94F;}
	.st25{fill:#B59B78;}
	.st26{fill:#9BD359;}
	.st27{fill:#8FD16B;}
	.st28{fill:#66C66D;}
	.st29{fill:#FFDA00;}
	.st30{fill:none;stroke:#C0DB4B;stroke-width:0.25;stroke-miterlimit:10;}
	.st31{fill:#969696;}
	.st32{fill:#3B7251;}
	.st33{fill:#E03854;}
	.st34{opacity:0.5;fill:#F797A8;}
	.st35{opacity:0.3;fill:#F797A8;}
	.st36{fill:#5CC686;}
	.st37{fill:#AF9579;}
	.st38{fill:#EABE7F;}
	.st39{fill:#D8B280;}
	.st40{fill:#C69A6A;}
	.st41{fill:#9B9FA5;}
	.st42{fill:#DBCFBD;}
	.st43{fill:#BFB5AF;}
	.st44{fill:#E0D489;}
	.st45{fill:#F2CE8F;}
	.st46{fill:#DDA68C;}
	.st47{fill:url(#SVGID_1_);}
	.st48{fill:#98D0E2;}
	.st49{fill:#C4BCCE;}
	.st50{fill:#DCD6E5;}
	.st51{fill:#C1D5E5;}
	.st52{fill:#BABBBC;}
	.st53{fill:#89CCC4;}
	.st54{opacity:0.41;fill:#99E0C3;}
	.st55{fill:url(#SVGID_2_);}
	.st56{fill:url(#SVGID_3_);}
	.st57{opacity:0.57;fill:#FFFFFF;}
	.st58{fill:url(#SVGID_4_);}
	.st59{fill:url(#SVGID_5_);}
	.st60{fill:url(#SVGID_6_);}
	.st61{fill:url(#SVGID_7_);}
	.st62{fill:url(#SVGID_8_);}
	.st63{fill:url(#SVGID_9_);}
	.st64{fill:url(#SVGID_10_);}
	.st65{fill:url(#SVGID_11_);}
	.st66{fill:url(#SVGID_12_);}
	.st67{fill:url(#SVGID_13_);}
	.st68{fill:url(#SVGID_14_);}
	.st69{fill:url(#SVGID_15_);}
	.st70{fill:url(#SVGID_16_);}
	.st71{fill:url(#SVGID_17_);}
	.st72{fill:url(#SVGID_18_);}
	.st73{fill:url(#SVGID_19_);}
	.st74{fill:url(#SVGID_20_);}
	.st75{fill:url(#SVGID_21_);}
	.st76{fill:url(#SVGID_22_);}
	.st77{fill:url(#SVGID_23_);}
	.st78{fill:url(#SVGID_24_);}
	.st79{fill:url(#SVGID_25_);}
	.st80{fill:url(#SVGID_26_);}
	.st81{fill:url(#SVGID_27_);}
	.st82{fill:url(#SVGID_28_);}
	.st83{fill:#B186B2;}
	.st84{fill:#DDC3DC;stroke:#C18DC9;stroke-miterlimit:10;}
	.st85{opacity:0.3;fill:#FFFFFF;}
	.st86{fill:url(#SVGID_29_);}
	.st87{fill:url(#SVGID_30_);}
</style>
<g>
	<path class="st1" d="M62,45.5c0-0.6,1.5-14,4.2-19.7l0.9,0.8c-2.2,5-3.9,18.8-3.9,18.9L62,45.5z"/>
	<g>
		<g>
			<path class="st21" d="M66.2,23.1c0,0-5-1.7-5.9-1.7s-1.9,3.4-0.7,5.4c1.1,2,7.2-1.8,7.2-1.8L66.2,23.1z"/>
			<path class="st21" d="M67.8,24.6c0,0,2.2-4.3,2.2-5.2c0-0.8-3.8-1.8-6.2-0.9c-2.3,0.9,1.8,6.4,1.8,6.4L67.8,24.6z"/>
			<path class="st21" d="M65.3,23.6c0,0-2.3,4.3-2.3,5.1c0,0.8,3.8,1.9,6.1,1c2.4-0.9-1.6-6.4-1.6-6.4L65.3,23.6z"/>
			<path class="st21" d="M66.5,23.2c0,0,4.7-2.4,5.6-2.4s2.4,3.1,1.7,5.3c-0.8,2.1-7.4-0.9-7.4-0.9L66.5,23.2z"/>
		</g>
		<g>
			<ellipse class="st4" cx="66.1" cy="24.4" rx="1.8" ry="1.6"/>
			<path class="st5" d="M65.5,24.5c0,0-1.7-0.4-1.6,0.1C64,24.9,65.5,24.5,65.5,24.5z"/>
			<path class="st5" d="M65.5,24.5c0,0-1.6,0.6-1.3,0.9C64.6,25.7,65.5,24.5,65.5,24.5z"/>
			<path class="st5" d="M65.9,24.7c0,0-1.6,1-1,1.2S65.9,24.7,65.9,24.7z"/>
			<path class="st5" d="M66,24.8c0,0-0.4,1.5,0.2,1.4C66.8,26.1,66,24.8,66,24.8z"/>
			<path class="st5" d="M66.8,23.9c0,0,1.7,0.5,1.6,0.1C68.3,23.5,66.8,23.9,66.8,23.9z"/>
			<path class="st5" d="M66.8,23.8c0,0,1.7-0.5,1.3-0.8C67.8,22.7,66.8,23.8,66.8,23.8z"/>
			<path class="st5" d="M66.4,23.6c0,0,1.7-0.8,1.2-1.1C67,22.3,66.4,23.6,66.4,23.6z"/>
			<path class="st5" d="M66.3,23.5c0,0,0.6-1.4,0-1.4S66.3,23.5,66.3,23.5z"/>
			<path class="st5" d="M65.8,23.6c0,0-0.4-1.5-0.8-1.2C64.7,22.6,65.8,23.6,65.8,23.6z"/>
			<path class="st5" d="M65.5,23.9c0,0-0.8-1.6-1.1-1.1S65.5,23.9,65.5,23.9z"/>
			<path class="st5" d="M65.5,24c0,0-1.6-0.6-1.6-0.1C63.9,24.4,65.5,24,65.5,24z"/>
			<path class="st5" d="M66.3,24.8c0,0,0.6,1.4,1,1.1S66.3,24.8,66.3,24.8z"/>
			<path class="st5" d="M66.6,24.5c0,0,1.1,1.5,1.3,1S66.6,24.5,66.6,24.5z"/>
			<path class="st5" d="M66.8,24.4c0,0,1.5,0.7,1.6,0.1C68.4,24,66.8,24.4,66.8,24.4z"/>
			<path class="st6" d="M66.1,24.4c0,0,0.1,0.9,0.3,0.8C66.7,25.1,66.1,24.4,66.1,24.4z"/>
			<path class="st6" d="M66.1,24.3c0,0,0.2,0.4,0.3,0.3C66.5,24.5,66.1,24.3,66.1,24.3z"/>
			<path class="st6" d="M66,24.3c0,0-0.4,0.3-0.2,0.4C66,24.7,66,24.3,66,24.3z"/>
			<path class="st6" d="M66,24.2c0,0-0.5-0.1-0.5,0C65.5,24.4,66,24.2,66,24.2z"/>
			<path class="st6" d="M66.1,24.2c0,0,0.5-0.1,0.4-0.2C66.4,23.8,66.1,24.2,66.1,24.2z"/>
			<path class="st6" d="M66,24.2c0,0-0.2-0.3-0.3-0.2C65.7,24.1,66,24.2,66,24.2z"/>
			<path class="st6" d="M66.1,24.2c0,0,0.3,0.2,0.3,0.1S66.1,24.2,66.1,24.2z"/>
			<path class="st6" d="M66.1,24.1c0,0,0.3-0.2,0.2-0.3C66.2,23.8,66.1,24.1,66.1,24.1z"/>
			<path class="st6" d="M66.1,24.2c0,0-0.3,0.2-0.2,0.2C65.9,24.4,66.1,24.2,66.1,24.2z"/>
			<path class="st6" d="M66.1,24.1c0,0,0-0.5-0.1-0.4S66.1,24.1,66.1,24.1z"/>
			<path class="st6" d="M66.3,24.3c0,0,0.6,0.9,0.8,0.6C67.1,24.5,66.3,24.3,66.3,24.3z"/>
			<path class="st6" d="M66.3,24.2c0,0,0.9,0.4,0.9,0.1S66.3,24.2,66.3,24.2z"/>
			<path class="st6" d="M65.7,24.2c0,0-1-0.1-0.9,0.1C64.8,24.6,65.7,24.2,65.7,24.2z"/>
			<path class="st6" d="M65.8,24.3c0,0-1.1,0.4-0.8,0.5C65.3,25,65.8,24.3,65.8,24.3z"/>
			<path class="st6" d="M66,24.4c0,0-0.7,0.7-0.3,0.8C66,25.3,66,24.4,66,24.4z"/>
			<path class="st6" d="M66.1,24c0,0,0.1-0.9-0.2-0.8C65.7,23.3,66.1,24,66.1,24z"/>
			<path class="st6" d="M66.2,24c0,0,0.7-0.6,0.5-0.7S66.2,24,66.2,24z"/>
			<path class="st6" d="M66.5,24.1c0,0,1-0.3,0.8-0.5C67,23.4,66.5,24.1,66.5,24.1z"/>
			<path class="st6" d="M66,24c0,0-0.4-0.9-0.6-0.7S66,24,66,24z"/>
			<path class="st6" d="M65.8,24.2c0,0-0.7-0.6-0.9-0.3C64.9,24.1,65.8,24.2,65.8,24.2z"/>
		</g>
	</g>
	<path class="st1" d="M87.3,90c-6.4-10.8-41.7-69-42-69.4l3.2-1.5c0.3,0.4,35.6,58.6,42,69.4L87.3,90z"/>
	<polygon class="st1" points="87.7,194.4 87.1,97.3 89,18.7 92.6,18.8 90.7,97.3 91.4,194.4 	"/>
	<path class="st1" d="M89.9,133.7l-3.4-1.2c0.3-0.6,34.3-62,32.3-110.1l1.9-0.1C122.7,71,90.2,133.1,89.9,133.7z"/>
	<path class="st1" d="M87.4,140.8c-0.1-0.5-13.3-48.6-8.1-90.9l3.6,0.3c-5.1,41.7,7.9,89.3,8,89.8L87.4,140.8z"/>
	<g>
		<path class="st1" d="M89.9,134c0,0,2.3-9.9,10.1-12c8.2-2.2,8.3,2.2,8.3,2.2s0-2.5-3.7-3c-5.3-0.7-13.9,3-15.3,11.2L89.9,134z"/>
		<path class="st1" d="M106.9,121.8c-0.2,0.1-0.3,0.4-0.1,0.5c0.5,0.6,1.3,2.3,3.6,3.5c3,1.6,4.4,3.7,4.4,3.7
			S110.1,119.9,106.9,121.8z"/>
	</g>
	<g>
		<path class="st1" d="M116,56.7c0,0,5.2-8.8,13.3-8.5c8.5,0.3,7.3,4.5,7.3,4.5s0.8-2.4-2.7-4c-4.8-2.2-14.2-1.3-17.9,6.1L116,56.7z
			"/>
		<path class="st1" d="M135.8,50.1c-0.2,0.1-0.4,0.3-0.3,0.5c0.3,0.7,0.6,2.6,2.4,4.4c2.4,2.4,3.1,4.9,3.1,4.9
			S139.5,49.2,135.8,50.1z"/>
	</g>
	<g>
		<path class="st1" d="M117.8,48.6c0,0,1.8-7.3-3.1-10.6c-5.2-3.4-6.7-0.4-6.7-0.4s0.8-1.7,3.7-1.2c4,0.7,9,5.2,7.1,11.2L117.8,48.6
			z"/>
		<path class="st1" d="M109.8,36.4c0.1,0.1,0.1,0.3-0.1,0.4c-0.5,0.3-1.7,1.3-3.8,1.6c-2.7,0.4-4.5,1.5-4.5,1.5
			S108.1,34.3,109.8,36.4z"/>
	</g>
	<g>
		<path class="st1" d="M83.1,113.5c0,0-1.3-11.2-10-13.8c-9.1-2.8-9.8,2.1-9.8,2.1s0.3-2.8,4.7-3.2c6.1-0.6,15.6,3.8,16,13
			L83.1,113.5z"/>
		<path class="st1" d="M65.3,99.2c0.2,0.1,0.3,0.4,0.1,0.6c-0.6,0.6-1.8,2.5-4.6,3.8c-3.6,1.6-5.6,4-5.6,4S61.9,97,65.3,99.2z"/>
	</g>
	<g>
		<path class="st1" d="M79,77c0,0-1.9-10.4-10.1-12.5c-8.7-2.2-9,2.4-9,2.4s0.1-2.6,4.2-3.2c5.7-0.8,14.8,2.9,15.7,11.4L79,77z"/>
		<path class="st1" d="M61.6,64.5c0.2,0.1,0.3,0.4,0.1,0.6c-0.5,0.6-1.6,2.4-4.1,3.7c-3.3,1.7-5,4-5,4S58.3,62.6,61.6,64.5z"/>
	</g>
	<g>
		<path class="st1" d="M69.5,55.3c0,0-6.6-7.2-5-14.7c1.7-7.8,6.3-6.1,6.3-6.1s-2.7-1.1-5.2,1.9c-3.4,4.1-3.2,13.1,3.6,19.2
			L69.5,55.3z"/>
		<path class="st1" d="M68.3,33.6c-1.8,1.2-1.4,2,0.9,1.7c1.1-0.1,2.8-0.4,4.5-1.4c3.2-1.9,6.3-2.2,6.3-2.2S71.1,31.7,68.3,33.6z"/>
	</g>
	<g>
		<path class="st1" d="M73.1,63.8c0,0-9-11.2-20.1-9.4c-11.6,1.9-9,7.4-9,7.4s-1.6-3.1,2.8-5.9c6.1-3.9,19.2-4.2,26,5.4L73.1,63.8z"
			/>
		<path class="st1" d="M44.3,57.9c0.3,0,0.6,0.3,0.5,0.6c-0.2,1-0.2,3.6-2.3,6.5c-2.8,3.7-3.2,7.2-3.2,7.2S39.2,57.4,44.3,57.9z"/>
	</g>
	<g>
		<g>
			<path class="st21" d="M80.2,44.6c0,0-7.7-1.8-9-1.5s-1.8,6.3,0.3,9.5c2.2,3.2,9.9-4.8,9.9-4.8L80.2,44.6z"/>
			<path class="st21" d="M82.9,46.9c0,0,2-7.9,1.8-9.3s-6-2.2-9.1-0.1S79.7,48,79.7,48L82.9,46.9z"/>
			<path class="st21" d="M79,45.7c0,0-2.3,7.9-2.1,9.3c0.2,1.4,5.9,2.4,9.1,0.3s-3.9-10.7-3.9-10.7L79,45.7z"/>
			<path class="st21" d="M80.7,44.7c0,0,6.1-5.2,7.5-5.5s4.3,4.8,3.7,8.7S81,48.1,81,48.1L80.7,44.7z"/>
		</g>
		<g>
			<ellipse class="st4" cx="80.7" cy="46.6" rx="2.6" ry="2.7"/>
			<path class="st5" d="M80,46.8c0,0-2.5-0.2-2.2,0.5C78,48,80,46.8,80,46.8z"/>
			<path class="st5" d="M80,46.9c0,0-2.1,1.4-1.5,1.7C79,49,80,46.9,80,46.9z"/>
			<path class="st5" d="M80.6,47.2c0,0-2,2-1.2,2.2S80.6,47.2,80.6,47.2z"/>
			<path class="st5" d="M80.7,47.2c0,0-0.2,2.5,0.6,2.2C82.1,49.2,80.7,47.2,80.7,47.2z"/>
			<path class="st5" d="M81.5,45.6c0,0,2.4,0.5,2.3-0.2C83.6,44.6,81.5,45.6,81.5,45.6z"/>
			<path class="st5" d="M81.5,45.5c0,0,2.2-1.1,1.7-1.6C82.7,43.5,81.5,45.5,81.5,45.5z"/>
			<path class="st5" d="M80.9,45.1c0,0,2.2-1.8,1.4-2C81.5,42.9,80.9,45.1,80.9,45.1z"/>
			<path class="st5" d="M80.9,45.1c0,0,0.4-2.5-0.4-2.3S80.9,45.1,80.9,45.1z"/>
			<path class="st5" d="M80.2,45.3c0,0-0.9-2.4-1.4-1.9S80.2,45.3,80.2,45.3z"/>
			<path class="st5" d="M79.8,45.9c0,0-1.5-2.4-1.8-1.6C77.7,45.2,79.8,45.9,79.8,45.9z"/>
			<path class="st5" d="M79.8,46c0,0-2.3-0.6-2.2,0.2C77.7,47.1,79.8,46,79.8,46z"/>
			<path class="st5" d="M81.2,47.3c0,0,1.2,2.2,1.6,1.7C83.2,48.3,81.2,47.3,81.2,47.3z"/>
			<path class="st5" d="M81.5,46.6c0,0,1.8,2.2,2,1.3C83.7,47,81.5,46.6,81.5,46.6z"/>
			<path class="st5" d="M81.7,46.4c0,0,2.3,0.8,2.2-0.1C83.9,45.4,81.7,46.4,81.7,46.4z"/>
			<path class="st6" d="M80.8,46.6c0,0,0.3,1.5,0.6,1.2C81.7,47.6,80.8,46.6,80.8,46.6z"/>
			<path class="st6" d="M80.7,46.4c0,0,0.4,0.7,0.5,0.5S80.7,46.4,80.7,46.4z"/>
			<path class="st6" d="M80.6,46.4c0,0-0.4,0.6-0.2,0.7S80.6,46.4,80.6,46.4z"/>
			<path class="st6" d="M80.5,46.3c0,0-0.7-0.1-0.7,0.1C79.9,46.7,80.5,46.3,80.5,46.3z"/>
			<path class="st6" d="M80.7,46.2c0,0,0.7-0.3,0.5-0.5S80.7,46.2,80.7,46.2z"/>
			<path class="st6" d="M80.6,46.2c0,0-0.3-0.4-0.4-0.3C80.1,46.1,80.6,46.2,80.6,46.2z"/>
			<path class="st6" d="M80.6,46.2c0,0,0.4,0.3,0.5,0.1C81.1,46.2,80.6,46.2,80.6,46.2z"/>
			<path class="st6" d="M80.7,46.1c0,0,0.3-0.4,0.2-0.5S80.7,46.1,80.7,46.1z"/>
			<path class="st6" d="M80.6,46.2c0,0-0.4,0.3-0.3,0.4C80.5,46.7,80.6,46.2,80.6,46.2z"/>
			<path class="st6" d="M80.6,46.1c0,0-0.1-0.8-0.3-0.6C80.2,45.6,80.6,46.1,80.6,46.1z"/>
			<path class="st6" d="M80.9,46.3c0,0,1.1,1.3,1.2,0.8C82.2,46.6,80.9,46.3,80.9,46.3z"/>
			<path class="st6" d="M81,46.1c0,0,1.4,0.5,1.3-0.1C82.2,45.5,81,46.1,81,46.1z"/>
			<path class="st6" d="M80.1,46.4c0,0-1.5,0-1.3,0.4C79,47.2,80.1,46.4,80.1,46.4z"/>
			<path class="st6" d="M80.3,46.5c0,0-1.4,0.9-1,1.1C79.8,47.8,80.3,46.5,80.3,46.5z"/>
			<path class="st6" d="M80.6,46.7c0,0-0.8,1.2-0.3,1.3S80.6,46.7,80.6,46.7z"/>
			<path class="st6" d="M80.7,45.9c0,0-0.1-1.5-0.5-1.3C79.9,44.8,80.7,45.9,80.7,45.9z"/>
			<path class="st6" d="M80.8,45.9c0,0,0.9-1.2,0.5-1.3S80.8,45.9,80.8,45.9z"/>
			<path class="st6" d="M81.2,45.9c0,0,1.3-0.7,1-1C81.8,44.7,81.2,45.9,81.2,45.9z"/>
			<path class="st6" d="M80.5,46c0,0-0.8-1.5-1-1C79.3,45.5,80.5,46,80.5,46z"/>
			<path class="st6" d="M80.3,46.2c0,0-1.2-0.9-1.3-0.4C78.9,46.4,80.3,46.2,80.3,46.2z"/>
		</g>
	</g>
	<g>
		<g>
			<path class="st21" d="M63.7,44.6c0,0-3.7-0.4-4.3-0.3c-0.6,0.2-0.6,2.6,0.5,3.8c1.1,1.2,4.5-2.3,4.5-2.3L63.7,44.6z"/>
			<path class="st21" d="M65,45.4c0,0,0.6-3.2,0.5-3.8c-0.2-0.5-2.9-0.6-4.3,0.3s2.4,4,2.4,4L65,45.4z"/>
			<path class="st21" d="M63.1,45c0,0-0.7,3.2-0.6,3.8c0.1,0.5,2.9,0.7,4.3-0.2s-2.3-4.1-2.3-4.1L63.1,45z"/>
			<path class="st21" d="M63.9,44.6c0,0,2.7-2.3,3.3-2.5c0.6-0.2,2.2,1.8,2.1,3.3c-0.1,1.6-5.1,0.5-5.1,0.5L63.9,44.6z"/>
		</g>
		<g>
			<ellipse class="st4" cx="63.9" cy="45.5" rx="1.4" ry="1.2"/>
			<path class="st5" d="M63.5,45.6c0,0-1.3,0-1.2,0.3C62.5,46.2,63.5,45.6,63.5,45.6z"/>
			<path class="st5" d="M63.5,45.7c0,0-1.1,0.7-0.8,0.9C63.1,46.7,63.5,45.7,63.5,45.7z"/>
			<path class="st5" d="M63.8,45.8c0,0-1,1-0.5,1C63.8,46.8,63.8,45.8,63.8,45.8z"/>
			<path class="st5" d="M63.9,45.8c0,0,0,1.2,0.4,1C64.8,46.6,63.9,45.8,63.9,45.8z"/>
			<path class="st5" d="M64.3,45c0,0,1.3,0.1,1.2-0.2C65.4,44.5,64.3,45,64.3,45z"/>
			<path class="st5" d="M64.3,45c0,0,1.2-0.6,0.8-0.8C64.8,44,64.3,45,64.3,45z"/>
			<path class="st5" d="M63.9,44.8c0,0,1.1-0.9,0.6-1C64.1,43.8,63.9,44.8,63.9,44.8z"/>
			<path class="st5" d="M63.9,44.8c0,0,0.1-1.2-0.3-1C63.1,43.9,63.9,44.8,63.9,44.8z"/>
			<path class="st5" d="M63.5,44.9c0,0-0.6-1.1-0.8-0.8C62.5,44.4,63.5,44.9,63.5,44.9z"/>
			<path class="st5" d="M63.4,45.2c0,0-0.9-1-1.1-0.6C62.2,45,63.4,45.2,63.4,45.2z"/>
			<path class="st5" d="M63.3,45.3c0,0-1.3-0.2-1.2,0.2C62.3,45.9,63.3,45.3,63.3,45.3z"/>
			<path class="st5" d="M64.2,45.8c0,0,0.8,1,1,0.7C65.3,46.2,64.2,45.8,64.2,45.8z"/>
			<path class="st5" d="M64.3,45.5c0,0,1.1,0.9,1.2,0.5S64.3,45.5,64.3,45.5z"/>
			<path class="st5" d="M64.4,45.4c0,0,1.3,0.3,1.2-0.1C65.6,44.8,64.4,45.4,64.4,45.4z"/>
			<path class="st6" d="M63.9,45.5c0,0,0.2,0.7,0.4,0.5C64.5,45.9,63.9,45.5,63.9,45.5z"/>
			<path class="st6" d="M63.9,45.4c0,0,0.2,0.3,0.3,0.2C64.2,45.5,63.9,45.4,63.9,45.4z"/>
			<path class="st6" d="M63.8,45.4c0,0-0.2,0.3-0.1,0.3C63.8,45.7,63.8,45.4,63.8,45.4z"/>
			<path class="st6" d="M63.8,45.4c0,0-0.4,0-0.4,0.1C63.4,45.6,63.8,45.4,63.8,45.4z"/>
			<path class="st6" d="M63.9,45.3c0,0,0.4-0.2,0.3-0.2C64,45,63.9,45.3,63.9,45.3z"/>
			<path class="st6" d="M63.8,45.3c0,0-0.2-0.2-0.2-0.1C63.5,45.3,63.8,45.3,63.8,45.3z"/>
			<path class="st6" d="M63.8,45.3c0,0,0.3,0.1,0.3,0C64.1,45.3,63.8,45.3,63.8,45.3z"/>
			<path class="st6" d="M63.8,45.3c0,0,0.1-0.2,0.1-0.2C63.8,45,63.8,45.3,63.8,45.3z"/>
			<path class="st6" d="M63.8,45.3c0,0-0.2,0.2-0.1,0.2C63.8,45.6,63.8,45.3,63.8,45.3z"/>
			<path class="st6" d="M63.8,45.3c0,0-0.1-0.3-0.2-0.3C63.5,45.1,63.8,45.3,63.8,45.3z"/>
			<path class="st6" d="M64,45.4c0,0,0.7,0.5,0.7,0.3C64.7,45.4,64,45.4,64,45.4z"/>
			<path class="st6" d="M64,45.3c0,0,0.8,0.2,0.7-0.1C64.7,45,64,45.3,64,45.3z"/>
			<path class="st6" d="M63.5,45.4c0,0-0.8,0.1-0.7,0.2S63.5,45.4,63.5,45.4z"/>
			<path class="st6" d="M63.7,45.5c0,0-0.7,0.5-0.5,0.5C63.5,46.1,63.7,45.5,63.7,45.5z"/>
			<path class="st6" d="M63.8,45.5c0,0-0.4,0.6-0.1,0.6C64,46.2,63.8,45.5,63.8,45.5z"/>
			<path class="st6" d="M63.8,45.2c0,0-0.1-0.7-0.3-0.6C63.4,44.7,63.8,45.2,63.8,45.2z"/>
			<path class="st6" d="M63.9,45.2c0,0,0.4-0.6,0.2-0.6C63.9,44.5,63.9,45.2,63.9,45.2z"/>
			<path class="st6" d="M64.1,45.2c0,0,0.7-0.4,0.5-0.5C64.4,44.6,64.1,45.2,64.1,45.2z"/>
			<path class="st6" d="M63.7,45.2c0,0-0.5-0.6-0.6-0.4C63,45.1,63.7,45.2,63.7,45.2z"/>
			<path class="st6" d="M63.7,45.4c0,0-0.7-0.4-0.7-0.1C62.9,45.5,63.7,45.4,63.7,45.4z"/>
		</g>
	</g>
	<g>
		<g>
			<path class="st21" d="M118.2,41.9c0,0-2.6-0.5-3-0.4c-0.4,0.1-0.6,1.8,0.1,2.7c0.7,0.9,3.3-1.4,3.3-1.4L118.2,41.9z"/>
			<path class="st21" d="M119,42.5c0,0,0.7-2.2,0.6-2.6c-0.1-0.4-2-0.6-3.1,0c-1.1,0.6,1.4,3,1.4,3L119,42.5z"/>
			<path class="st21" d="M117.8,42.2c0,0-0.8,2.2-0.7,2.6c0.1,0.4,2,0.7,3,0.1c1.1-0.6-1.3-3-1.3-3L117.8,42.2z"/>
			<path class="st21" d="M118.3,41.9c0,0,2.1-1.5,2.5-1.5c0.4-0.1,1.4,1.4,1.2,2.4c-0.2,1.1-3.7,0.1-3.7,0.1L118.3,41.9z"/>
		</g>
		<g>
			<ellipse class="st4" cx="118.2" cy="42.5" rx="0.9" ry="0.8"/>
			<path class="st5" d="M117.9,42.6c0,0-0.9-0.1-0.8,0.1C117.3,42.9,117.9,42.6,117.9,42.6z"/>
			<path class="st5" d="M118,42.6c0,0-0.7,0.4-0.5,0.5C117.6,43.2,118,42.6,118,42.6z"/>
			<path class="st5" d="M118.2,42.7c0,0-0.7,0.6-0.4,0.6C118.1,43.3,118.2,42.7,118.2,42.7z"/>
			<path class="st5" d="M118.2,42.7c0,0-0.1,0.7,0.2,0.7C118.7,43.3,118.2,42.7,118.2,42.7z"/>
			<path class="st5" d="M118.5,42.2c0,0,0.8,0.1,0.8-0.1C119.2,41.9,118.5,42.2,118.5,42.2z"/>
			<path class="st5" d="M118.5,42.2c0,0,0.8-0.3,0.6-0.5C118.9,41.6,118.5,42.2,118.5,42.2z"/>
			<path class="st5" d="M118.3,42.1c0,0,0.8-0.5,0.5-0.6C118.5,41.4,118.3,42.1,118.3,42.1z"/>
			<path class="st5" d="M118.3,42.1c0,0,0.2-0.7-0.1-0.7C117.8,41.5,118.3,42.1,118.3,42.1z"/>
			<path class="st5" d="M118,42.1c0,0-0.3-0.7-0.5-0.5S118,42.1,118,42.1z"/>
			<path class="st5" d="M117.9,42.3c0,0-0.5-0.7-0.6-0.5C117.2,42.1,117.9,42.3,117.9,42.3z"/>
			<path class="st5" d="M117.9,42.3c0,0-0.8-0.2-0.8,0.1S117.9,42.3,117.9,42.3z"/>
			<path class="st5" d="M118.4,42.7c0,0,0.4,0.7,0.6,0.5C119.1,43,118.4,42.7,118.4,42.7z"/>
			<path class="st5" d="M118.5,42.5c0,0,0.6,0.6,0.7,0.4C119.2,42.6,118.5,42.5,118.5,42.5z"/>
			<path class="st5" d="M118.6,42.4c0,0,0.8,0.2,0.8,0C119.3,42.2,118.6,42.4,118.6,42.4z"/>
			<path class="st6" d="M118.2,42.5c0,0,0.1,0.4,0.2,0.4C118.6,42.8,118.2,42.5,118.2,42.5z"/>
			<path class="st6" d="M118.2,42.4c0,0,0.1,0.2,0.2,0.1C118.4,42.5,118.2,42.4,118.2,42.4z"/>
			<path class="st6" d="M118.2,42.4c0,0-0.1,0.2-0.1,0.2C118.2,42.6,118.2,42.4,118.2,42.4z"/>
			<path class="st6" d="M118.1,42.4c0,0-0.3,0-0.2,0C117.9,42.5,118.1,42.4,118.1,42.4z"/>
			<path class="st6" d="M118.2,42.4c0,0,0.2-0.1,0.2-0.1C118.3,42.2,118.2,42.4,118.2,42.4z"/>
			<path class="st6" d="M118.2,42.4c0,0-0.1-0.1-0.1-0.1C118,42.4,118.2,42.4,118.2,42.4z"/>
			<path class="st6" d="M118.2,42.4c0,0,0.2,0.1,0.2,0S118.2,42.4,118.2,42.4z"/>
			<path class="st6" d="M118.2,42.4c0,0,0.1-0.1,0.1-0.1C118.2,42.2,118.2,42.4,118.2,42.4z"/>
			<path class="st6" d="M118.2,42.4c0,0-0.1,0.1-0.1,0.1C118.1,42.5,118.2,42.4,118.2,42.4z"/>
			<path class="st6" d="M118.2,42.4c0,0,0-0.2-0.1-0.2C118,42.2,118.2,42.4,118.2,42.4z"/>
			<path class="st6" d="M118.3,42.4c0,0,0.4,0.4,0.4,0.2C118.7,42.5,118.3,42.4,118.3,42.4z"/>
			<path class="st6" d="M118.3,42.4c0,0,0.5,0.1,0.5,0C118.7,42.2,118.3,42.4,118.3,42.4z"/>
			<path class="st6" d="M118,42.5c0,0-0.5,0-0.4,0.1S118,42.5,118,42.5z"/>
			<path class="st6" d="M118.1,42.5c0,0-0.5,0.3-0.3,0.3C117.9,42.8,118.1,42.5,118.1,42.5z"/>
			<path class="st6" d="M118.2,42.5c0,0-0.3,0.4-0.1,0.4S118.2,42.5,118.2,42.5z"/>
			<path class="st6" d="M118.2,42.3c0,0,0-0.4-0.2-0.4C117.9,42,118.2,42.3,118.2,42.3z"/>
			<path class="st6" d="M118.2,42.3c0,0,0.3-0.4,0.2-0.4S118.2,42.3,118.2,42.3z"/>
			<path class="st6" d="M118.4,42.3c0,0,0.4-0.2,0.3-0.3C118.6,42,118.4,42.3,118.4,42.3z"/>
			<path class="st6" d="M118.1,42.3c0,0-0.3-0.4-0.4-0.3S118.1,42.3,118.1,42.3z"/>
			<path class="st6" d="M118.1,42.4c0,0-0.4-0.3-0.4-0.1S118.1,42.4,118.1,42.4z"/>
		</g>
	</g>
	<g>
		<g>
			<path class="st21" d="M116.8,54.3c0,0-3.6-0.9-4.3-0.7s-0.9,3,0.1,4.6c1,1.5,4.7-2.3,4.7-2.3L116.8,54.3z"/>
			<path class="st21" d="M118.1,55.4c0,0,1-3.8,0.9-4.5c-0.1-0.7-2.8-1-4.3,0c-1.5,1,2,5,2,5L118.1,55.4z"/>
			<path class="st21" d="M116.3,54.8c0,0-1.1,3.8-1,4.4c0.1,0.7,2.8,1.1,4.3,0.2c1.5-1-1.8-5.1-1.8-5.1L116.3,54.8z"/>
			<path class="st21" d="M117.1,54.3c0,0,2.9-2.5,3.5-2.6c0.6-0.2,2,2.3,1.8,4.2c-0.3,1.9-5.2,0.1-5.2,0.1L117.1,54.3z"/>
		</g>
		<g>
			<ellipse class="st4" cx="117" cy="55.4" rx="1.4" ry="1.5"/>
			<path class="st5" d="M116.5,55.6c0,0-1.3-0.1-1.2,0.3S116.5,55.6,116.5,55.6z"/>
			<path class="st5" d="M116.6,55.6c0,0-1.1,0.7-0.8,1C116,56.8,116.6,55.6,116.6,55.6z"/>
			<path class="st5" d="M116.9,55.8c0,0-1.1,1.1-0.6,1.2C116.7,57,116.9,55.8,116.9,55.8z"/>
			<path class="st5" d="M116.9,55.8c0,0-0.1,1.4,0.3,1.2C117.7,56.9,116.9,55.8,116.9,55.8z"/>
			<path class="st5" d="M117.4,54.9c0,0,1.3,0.3,1.2-0.1C118.5,54.3,117.4,54.9,117.4,54.9z"/>
			<path class="st5" d="M117.4,54.8c0,0,1.2-0.6,0.9-0.9C118,53.7,117.4,54.8,117.4,54.8z"/>
			<path class="st5" d="M117.1,54.6c0,0,1.2-1,0.7-1.1C117.4,53.4,117.1,54.6,117.1,54.6z"/>
			<path class="st5" d="M117,54.6c0,0,0.2-1.4-0.2-1.3C116.4,53.5,117,54.6,117,54.6z"/>
			<path class="st5" d="M116.7,54.7c0,0-0.5-1.3-0.8-1C115.7,54,116.7,54.7,116.7,54.7z"/>
			<path class="st5" d="M116.5,55.1c0,0-0.8-1.3-1-0.9C115.3,54.7,116.5,55.1,116.5,55.1z"/>
			<path class="st5" d="M116.4,55.1c0,0-1.3-0.4-1.2,0.1C115.3,55.7,116.4,55.1,116.4,55.1z"/>
			<path class="st5" d="M117.2,55.8c0,0,0.7,1.2,0.9,0.9S117.2,55.8,117.2,55.8z"/>
			<path class="st5" d="M117.4,55.5c0,0,1,1.2,1.1,0.7C118.6,55.7,117.4,55.5,117.4,55.5z"/>
			<path class="st5" d="M117.5,55.3c0,0,1.3,0.4,1.2-0.1S117.5,55.3,117.5,55.3z"/>
			<path class="st6" d="M117,55.4c0,0,0.2,0.8,0.4,0.7C117.5,56,117,55.4,117,55.4z"/>
			<path class="st6" d="M117,55.3c0,0,0.2,0.4,0.3,0.3S117,55.3,117,55.3z"/>
			<path class="st6" d="M116.9,55.3c0,0-0.2,0.4-0.1,0.4C116.9,55.7,116.9,55.3,116.9,55.3z"/>
			<path class="st6" d="M116.8,55.3c0,0-0.4,0-0.4,0.1C116.5,55.5,116.8,55.3,116.8,55.3z"/>
			<path class="st6" d="M117,55.2c0,0,0.4-0.2,0.3-0.2C117.2,54.9,117,55.2,117,55.2z"/>
			<path class="st6" d="M116.9,55.2c0,0-0.2-0.2-0.2-0.1C116.6,55.2,116.9,55.2,116.9,55.2z"/>
			<path class="st6" d="M116.9,55.2c0,0,0.2,0.2,0.2,0.1C117.2,55.2,116.9,55.2,116.9,55.2z"/>
			<path class="st6" d="M116.9,55.1c0,0,0.2-0.2,0.1-0.3C116.9,54.9,116.9,55.1,116.9,55.1z"/>
			<path class="st6" d="M116.9,55.2c0,0-0.2,0.2-0.1,0.2C116.8,55.5,116.9,55.2,116.9,55.2z"/>
			<path class="st6" d="M116.9,55.2c0,0-0.1-0.4-0.2-0.4C116.7,54.9,116.9,55.2,116.9,55.2z"/>
			<path class="st6" d="M117.1,55.3c0,0,0.6,0.7,0.7,0.4C117.8,55.4,117.1,55.3,117.1,55.3z"/>
			<path class="st6" d="M117.1,55.2c0,0,0.7,0.3,0.7,0C117.8,54.9,117.1,55.2,117.1,55.2z"/>
			<path class="st6" d="M116.6,55.3c0,0-0.8,0-0.7,0.2C116,55.8,116.6,55.3,116.6,55.3z"/>
			<path class="st6" d="M116.7,55.4c0,0-0.8,0.5-0.5,0.6C116.5,56.1,116.7,55.4,116.7,55.4z"/>
			<path class="st6" d="M116.9,55.5c0,0-0.4,0.7-0.2,0.7C117,56.3,116.9,55.5,116.9,55.5z"/>
			<path class="st6" d="M116.9,55c0,0-0.1-0.8-0.2-0.7C116.5,54.4,116.9,55,116.9,55z"/>
			<path class="st6" d="M117,55.1c0,0,0.5-0.7,0.2-0.7S117,55.1,117,55.1z"/>
			<path class="st6" d="M117.2,55.1c0,0,0.7-0.4,0.5-0.5S117.2,55.1,117.2,55.1z"/>
			<path class="st6" d="M116.8,55.1c0,0-0.5-0.8-0.6-0.5C116.2,54.8,116.8,55.1,116.8,55.1z"/>
			<path class="st6" d="M116.7,55.2c0,0-0.6-0.5-0.7-0.2C116,55.3,116.7,55.2,116.7,55.2z"/>
		</g>
	</g>
	<g>
		<g>
			<path class="st21" d="M89.2,13.3c0,0-9.4-2.1-11-1.8c-1.6,0.4-2.3,7.4,0.4,11.2s12.1-5.6,12.1-5.6L89.2,13.3z"/>
			<path class="st21" d="M92.5,16c0,0,2.5-9.3,2.2-11C94.4,3.4,87.4,2.5,83.5,5s5.1,12.4,5.1,12.4L92.5,16z"/>
			<path class="st21" d="M87.8,14.7c0,0-2.8,9.3-2.5,10.9c0.2,1.6,7.2,2.8,11.1,0.4s-4.8-12.5-4.8-12.5L87.8,14.7z"/>
			<path class="st21" d="M89.8,13.4c0,0,7.5-6.1,9.1-6.4c1.6-0.4,5.3,5.7,4.6,10.2c-0.7,4.5-13.4,0.3-13.4,0.3L89.8,13.4z"/>
		</g>
		<g>
			<ellipse class="st4" cx="89.9" cy="15.7" rx="3.2" ry="3.2"/>
			<path class="st5" d="M88.9,15.9c0,0-3-0.2-2.7,0.6S88.9,15.9,88.9,15.9z"/>
			<path class="st5" d="M89,16c0,0-2.6,1.6-1.9,2C87.8,18.5,89,16,89,16z"/>
			<path class="st5" d="M89.7,16.3c0,0-2.5,2.4-1.4,2.5C89.3,19.1,89.7,16.3,89.7,16.3z"/>
			<path class="st5" d="M89.8,16.4c0,0-0.2,3,0.8,2.6C91.5,18.7,89.8,16.4,89.8,16.4z"/>
			<path class="st5" d="M90.9,14.5c0,0,3,0.5,2.8-0.3C93.4,13.4,90.9,14.5,90.9,14.5z"/>
			<path class="st5" d="M90.8,14.4c0,0,2.7-1.3,2.1-1.9C92.2,12,90.8,14.4,90.8,14.4z"/>
			<path class="st5" d="M90.1,14c0,0,2.7-2.1,1.7-2.4C90.8,11.3,90.1,14,90.1,14z"/>
			<path class="st5" d="M90,13.9c0,0,0.5-2.9-0.5-2.7C88.5,11.4,90,13.9,90,13.9z"/>
			<path class="st5" d="M89.2,14.2c0,0-1.1-2.8-1.7-2.2C86.9,12.6,89.2,14.2,89.2,14.2z"/>
			<path class="st5" d="M88.7,14.9c0,0-1.9-2.8-2.2-1.8C86.2,14,88.7,14.9,88.7,14.9z"/>
			<path class="st5" d="M88.7,14.9c0,0-2.9-0.8-2.7,0.3C86.1,16.3,88.7,14.9,88.7,14.9z"/>
			<path class="st5" d="M90.4,16.4c0,0,1.5,2.6,2,2C92.9,17.7,90.4,16.4,90.4,16.4z"/>
			<path class="st5" d="M90.8,15.7c0,0,2.3,2.6,2.5,1.5C93.4,16.2,90.8,15.7,90.8,15.7z"/>
			<path class="st5" d="M91.1,15.4c0,0,2.8,0.9,2.7-0.1S91.1,15.4,91.1,15.4z"/>
			<path class="st6" d="M89.9,15.7c0,0,0.4,1.7,0.8,1.4C91.1,16.8,89.9,15.7,89.9,15.7z"/>
			<path class="st6" d="M89.9,15.4c0,0,0.4,0.8,0.6,0.6C90.6,15.8,89.9,15.4,89.9,15.4z"/>
			<path class="st6" d="M89.7,15.4c0,0-0.5,0.7-0.3,0.8C89.7,16.2,89.7,15.4,89.7,15.4z"/>
			<path class="st6" d="M89.6,15.4c0,0-0.9-0.1-0.8,0.1C88.9,15.7,89.6,15.4,89.6,15.4z"/>
			<path class="st6" d="M89.9,15.2c0,0,0.8-0.4,0.6-0.5C90.3,14.5,89.9,15.2,89.9,15.2z"/>
			<path class="st6" d="M89.7,15.2c0,0-0.4-0.5-0.5-0.3C89.1,15.1,89.7,15.2,89.7,15.2z"/>
			<path class="st6" d="M89.7,15.2c0,0,0.5,0.3,0.6,0.2C90.3,15.2,89.7,15.2,89.7,15.2z"/>
			<path class="st6" d="M89.8,15.1c0,0,0.4-0.5,0.2-0.5C89.8,14.5,89.8,15.1,89.8,15.1z"/>
			<path class="st6" d="M89.7,15.2c0,0-0.5,0.4-0.3,0.5C89.6,15.8,89.7,15.2,89.7,15.2z"/>
			<path class="st6" d="M89.7,15.1c0,0-0.1-0.9-0.4-0.8C89.2,14.5,89.7,15.1,89.7,15.1z"/>
			<path class="st6" d="M90.1,15.3c0,0,1.3,1.5,1.5,0.9C91.7,15.6,90.1,15.3,90.1,15.3z"/>
			<path class="st6" d="M90.2,15.1c0,0,1.7,0.5,1.6-0.1C91.7,14.4,90.2,15.1,90.2,15.1z"/>
			<path class="st6" d="M89.1,15.5c0,0-1.8,0-1.6,0.4C87.7,16.4,89.1,15.5,89.1,15.5z"/>
			<path class="st6" d="M89.4,15.5c0,0-1.7,1-1.2,1.3S89.4,15.5,89.4,15.5z"/>
			<path class="st6" d="M89.7,15.8c0,0-1,1.5-0.4,1.6S89.7,15.8,89.7,15.8z"/>
			<path class="st6" d="M89.8,14.8c0,0-0.1-1.8-0.6-1.5S89.8,14.8,89.8,14.8z"/>
			<path class="st6" d="M90,14.9c0,0,1-1.5,0.6-1.5S90,14.9,90,14.9z"/>
			<path class="st6" d="M90.4,14.9c0,0,1.6-0.8,1.2-1.1S90.4,14.9,90.4,14.9z"/>
			<path class="st6" d="M89.6,15c0,0-1-1.7-1.3-1.2C88.1,14.4,89.6,15,89.6,15z"/>
			<path class="st6" d="M89.4,15.3c0,0-1.4-1-1.6-0.4C87.7,15.4,89.4,15.3,89.4,15.3z"/>
		</g>
	</g>
	<g>
		<g>
			<path class="st21" d="M118.8,21.6c0,0-9.4-1.9-11.1-1.6c-1.6,0.3-2.3,6.5,0.4,9.8c2.6,3.3,12.2-5,12.2-5L118.8,21.6z"/>
			<path class="st21" d="M122.1,24c0,0,2.5-8.2,2.2-9.7s-7.3-2.3-11.2-0.1c-3.9,2.2,5.2,10.9,5.2,10.9L122.1,24z"/>
			<path class="st21" d="M117.4,22.8c0,0-2.8,8.1-2.5,9.6c0.2,1.5,7.2,2.4,11.2,0.4s-4.8-11-4.8-11L117.4,22.8z"/>
			<path class="st21" d="M119.4,21.7c0,0,7.5-5.3,9.2-5.7c1.6-0.3,5.3,5,4.6,9s-13.4,0.2-13.4,0.2L119.4,21.7z"/>
		</g>
		<g>
			<ellipse class="st4" cx="119.5" cy="23.7" rx="3.2" ry="2.8"/>
			<path class="st5" d="M118.6,23.9c0,0-3-0.2-2.7,0.5S118.6,23.9,118.6,23.9z"/>
			<path class="st5" d="M118.6,24c0,0-2.6,1.4-1.9,1.8C117.4,26.2,118.6,24,118.6,24z"/>
			<path class="st5" d="M119.3,24.3c0,0-2.5,2.1-1.4,2.2S119.3,24.3,119.3,24.3z"/>
			<path class="st5" d="M119.4,24.3c0,0-0.2,2.6,0.8,2.3C121.2,26.3,119.4,24.3,119.4,24.3z"/>
			<path class="st5" d="M120.5,22.6c0,0,3,0.5,2.8-0.2S120.5,22.6,120.5,22.6z"/>
			<path class="st5" d="M120.5,22.5c0,0,2.7-1.2,2.1-1.6C121.9,20.4,120.5,22.5,120.5,22.5z"/>
			<path class="st5" d="M119.8,22.2c0,0,2.7-1.9,1.7-2.1C120.4,19.8,119.8,22.2,119.8,22.2z"/>
			<path class="st5" d="M119.7,22.1c0,0,0.5-2.6-0.5-2.4C118.2,19.9,119.7,22.1,119.7,22.1z"/>
			<path class="st5" d="M118.8,22.4c0,0-1.1-2.5-1.7-1.9C116.6,21,118.8,22.4,118.8,22.4z"/>
			<path class="st5" d="M118.4,22.9c0,0-1.9-2.5-2.2-1.6S118.4,22.9,118.4,22.9z"/>
			<path class="st5" d="M118.3,23c0,0-2.9-0.7-2.7,0.3C115.7,24.2,118.3,23,118.3,23z"/>
			<path class="st5" d="M120,24.3c0,0,1.5,2.3,2,1.7C122.5,25.5,120,24.3,120,24.3z"/>
			<path class="st5" d="M120.4,23.7c0,0,2.3,2.2,2.5,1.3C123.1,24.1,120.4,23.7,120.4,23.7z"/>
			<path class="st5" d="M120.7,23.5c0,0,2.8,0.8,2.7-0.1C123.4,22.4,120.7,23.5,120.7,23.5z"/>
			<path class="st6" d="M119.5,23.7c0,0,0.4,1.5,0.8,1.3S119.5,23.7,119.5,23.7z"/>
			<path class="st6" d="M119.5,23.4c0,0,0.4,0.7,0.6,0.5S119.5,23.4,119.5,23.4z"/>
			<path class="st6" d="M119.4,23.4c0,0-0.5,0.7-0.3,0.7S119.4,23.4,119.4,23.4z"/>
			<path class="st6" d="M119.2,23.4c0,0-0.9-0.1-0.8,0.1C118.5,23.7,119.2,23.4,119.2,23.4z"/>
			<path class="st6" d="M119.5,23.2c0,0,0.8-0.3,0.6-0.5S119.5,23.2,119.5,23.2z"/>
			<path class="st6" d="M119.3,23.3c0,0-0.4-0.4-0.5-0.3S119.3,23.3,119.3,23.3z"/>
			<path class="st6" d="M119.4,23.3c0,0,0.5,0.3,0.6,0.1C120,23.2,119.4,23.3,119.4,23.3z"/>
			<path class="st6" d="M119.4,23.1c0,0,0.4-0.5,0.2-0.5S119.4,23.1,119.4,23.1z"/>
			<path class="st6" d="M119.4,23.3c0,0-0.5,0.3-0.3,0.4C119.2,23.8,119.4,23.3,119.4,23.3z"/>
			<path class="st6" d="M119.4,23.1c0,0-0.1-0.8-0.4-0.7C118.8,22.6,119.4,23.1,119.4,23.1z"/>
			<path class="st6" d="M119.7,23.4c0,0,1.3,1.3,1.5,0.8C121.3,23.6,119.7,23.4,119.7,23.4z"/>
			<path class="st6" d="M119.8,23.2c0,0,1.7,0.5,1.6-0.1S119.8,23.2,119.8,23.2z"/>
			<path class="st6" d="M118.7,23.5c0,0-1.8,0-1.6,0.4C117.4,24.3,118.7,23.5,118.7,23.5z"/>
			<path class="st6" d="M119,23.5c0,0-1.7,0.9-1.2,1.1S119,23.5,119,23.5z"/>
			<path class="st6" d="M119.3,23.7c0,0-1,1.3-0.4,1.4C119.5,25.2,119.3,23.7,119.3,23.7z"/>
			<path class="st6" d="M119.5,22.9c0,0-0.1-1.6-0.6-1.4S119.5,22.9,119.5,22.9z"/>
			<path class="st6" d="M119.6,22.9c0,0,1-1.3,0.6-1.4C119.7,21.5,119.6,22.9,119.6,22.9z"/>
			<path class="st6" d="M120,23c0,0,1.6-0.7,1.2-1C120.8,21.7,120,23,120,23z"/>
			<path class="st6" d="M119.2,23.1c0,0-1-1.5-1.3-1S119.2,23.1,119.2,23.1z"/>
			<path class="st6" d="M119,23.3c0,0-1.4-0.9-1.6-0.4S119,23.3,119,23.3z"/>
		</g>
	</g>
	<path class="st1" d="M101.4,60.8l-0.1,0.5c-0.1,0.3-7,31.8-12.9,48.8l-0.2,0.5l2.1,0.6l0.2-0.4c5.9-16.9,12.7-47.7,13-49l0.1-0.5
		L101.4,60.8z"/>
	<path class="st1" d="M81.7,97.1c-8.1-4.7-21.2-14.5-21.3-14.6l0.8-0.9c0.1,0.1,13.2,9.9,21.2,14.5L81.7,97.1z"/>
	<g>
		<g>
			<path class="st21" d="M100.1,65.4c0,0-8.3-1.8-9.7-1.5c-1.4,0.3-2,6.5,0.3,9.7s10.7-4.9,10.7-4.9L100.1,65.4z"/>
			<path class="st21" d="M103,67.7c0,0,2.2-8.1,1.9-9.5c-0.3-1.4-6.4-2.2-9.8-0.1s4.5,10.8,4.5,10.8L103,67.7z"/>
			<path class="st21" d="M98.8,66.5c0,0-2.4,8.1-2.2,9.5s6.4,2.4,9.8,0.3s-4.2-10.9-4.2-10.9L98.8,66.5z"/>
			<path class="st21" d="M100.6,65.4c0,0,6.6-5.3,8-5.6c1.4-0.3,4.7,4.9,4,8.9c-0.6,4-11.8,0.2-11.8,0.2L100.6,65.4z"/>
		</g>
		<g>
			<ellipse class="st4" cx="100.4" cy="67.8" rx="3.2" ry="3.2"/>
			<path class="st5" d="M99.5,68.1c0,0-3.1-0.2-2.8,0.6C97,69.4,99.5,68.1,99.5,68.1z"/>
			<path class="st5" d="M99.5,68.2c0,0-2.6,1.6-1.9,2.1C98.3,70.7,99.5,68.2,99.5,68.2z"/>
			<path class="st5" d="M100.2,68.5c0,0-2.5,2.4-1.4,2.5C99.9,71.2,100.2,68.5,100.2,68.5z"/>
			<path class="st5" d="M100.3,68.6c0,0-0.2,3,0.8,2.6C102.1,70.9,100.3,68.6,100.3,68.6z"/>
			<path class="st5" d="M101.4,66.6c0,0,3,0.5,2.8-0.3C104,65.5,101.4,66.6,101.4,66.6z"/>
			<path class="st5" d="M101.4,66.5c0,0,2.8-1.3,2.1-1.9C102.8,64.1,101.4,66.5,101.4,66.5z"/>
			<path class="st5" d="M100.7,66.1c0,0,2.7-2.1,1.7-2.4C101.4,63.5,100.7,66.1,100.7,66.1z"/>
			<path class="st5" d="M100.6,66.1c0,0,0.5-2.9-0.5-2.7C99.1,63.6,100.6,66.1,100.6,66.1z"/>
			<path class="st5" d="M99.7,66.3c0,0-1.1-2.8-1.7-2.2C97.5,64.8,99.7,66.3,99.7,66.3z"/>
			<path class="st5" d="M99.3,67c0,0-1.9-2.8-2.3-1.9C96.7,66.2,99.3,67,99.3,67z"/>
			<path class="st5" d="M99.2,67.1c0,0-2.9-0.8-2.8,0.3C96.6,68.4,99.2,67.1,99.2,67.1z"/>
			<path class="st5" d="M101,68.6c0,0,1.5,2.6,2,2S101,68.6,101,68.6z"/>
			<path class="st5" d="M101.3,67.9c0,0,2.3,2.6,2.5,1.5C104.1,68.4,101.3,67.9,101.3,67.9z"/>
			<path class="st5" d="M101.7,67.6c0,0,2.9,0.9,2.8-0.1C104.4,66.4,101.7,67.6,101.7,67.6z"/>
			<path class="st6" d="M100.5,67.8c0,0,0.4,1.7,0.8,1.4C101.7,69,100.5,67.8,100.5,67.8z"/>
			<path class="st6" d="M100.4,67.6c0,0,0.5,0.8,0.6,0.6S100.4,67.6,100.4,67.6z"/>
			<path class="st6" d="M100.3,67.5c0,0-0.5,0.8-0.3,0.8C100.3,68.4,100.3,67.5,100.3,67.5z"/>
			<path class="st6" d="M100.2,67.5c0,0-0.9-0.1-0.8,0.1C99.4,67.9,100.2,67.5,100.2,67.5z"/>
			<path class="st6" d="M100.4,67.3c0,0,0.8-0.4,0.7-0.5C100.9,66.6,100.4,67.3,100.4,67.3z"/>
			<path class="st6" d="M100.2,67.4c0,0-0.4-0.5-0.5-0.3S100.2,67.4,100.2,67.4z"/>
			<path class="st6" d="M100.3,67.4c0,0,0.5,0.3,0.6,0.2C100.9,67.4,100.3,67.4,100.3,67.4z"/>
			<path class="st6" d="M100.4,67.2c0,0,0.4-0.5,0.2-0.5C100.4,66.6,100.4,67.2,100.4,67.2z"/>
			<path class="st6" d="M100.3,67.4c0,0-0.5,0.4-0.3,0.5S100.3,67.4,100.3,67.4z"/>
			<path class="st6" d="M100.3,67.2c0,0-0.1-0.9-0.4-0.8C99.7,66.6,100.3,67.2,100.3,67.2z"/>
			<path class="st6" d="M100.7,67.5c0,0,1.4,1.5,1.5,0.9C102.3,67.8,100.7,67.5,100.7,67.5z"/>
			<path class="st6" d="M100.7,67.3c0,0,1.7,0.5,1.6-0.1S100.7,67.3,100.7,67.3z"/>
			<path class="st6" d="M99.6,67.6c0,0-1.8,0-1.6,0.4S99.6,67.6,99.6,67.6z"/>
			<path class="st6" d="M99.9,67.7c0,0-1.8,1-1.2,1.3C99.3,69.2,99.9,67.7,99.9,67.7z"/>
			<path class="st6" d="M100.2,67.9c0,0-1,1.5-0.4,1.6C100.5,69.6,100.2,67.9,100.2,67.9z"/>
			<path class="st6" d="M100.4,67c0,0-0.1-1.8-0.6-1.5C99.4,65.7,100.4,67,100.4,67z"/>
			<path class="st6" d="M100.6,67c0,0,1.1-1.5,0.6-1.5C100.6,65.4,100.6,67,100.6,67z"/>
			<path class="st6" d="M101,67.1c0,0,1.6-0.8,1.2-1.1S101,67.1,101,67.1z"/>
			<path class="st6" d="M100.1,67.1c0,0-1-1.7-1.3-1.2S100.1,67.1,100.1,67.1z"/>
			<path class="st6" d="M99.9,67.4c0,0-1.4-1-1.6-0.4C98.2,67.6,99.9,67.4,99.9,67.4z"/>
		</g>
	</g>
	<g>
		<g>
			<path class="st21" d="M61.5,82.1c0,0-4.3,2.5-4.8,3.1c-0.5,0.7,1.5,3.1,3.7,3.5c2.2,0.3,2.8-5.9,2.8-5.9L61.5,82.1z"/>
			<path class="st21" d="M63.6,81.8c0,0-2-3.8-2.6-4.3c-0.6-0.4-3.6,1.6-4.3,3.7c-0.7,2.1,5.9,2.3,5.9,2.3L63.6,81.8z"/>
			<path class="st21" d="M61.4,83c0,0,1.9,3.9,2.5,4.3c0.6,0.4,3.6-1.5,4.4-3.6c0.7-2.1-5.8-2.4-5.8-2.4L61.4,83z"/>
			<path class="st21" d="M61.7,81.9c0,0,0.9-4.5,1.4-5.1c0.5-0.7,3.8,0.1,5,1.8c1.2,1.7-5,4.5-5,4.5L61.7,81.9z"/>
		</g>
		<g>
			
				<ellipse transform="matrix(0.8786 -0.4775 0.4775 0.8786 -31.7704 39.8862)" class="st4" cx="62.6" cy="82.4" rx="1.8" ry="1.6"/>
			<path class="st5" d="M62.3,82.9c0,0-1.3,1-0.9,1.2C61.7,84.2,62.3,82.9,62.3,82.9z"/>
			<path class="st5" d="M62.3,82.9c0,0-0.5,1.5-0.1,1.4S62.3,82.9,62.3,82.9z"/>
			<path class="st5" d="M62.7,82.8c0,0-0.2,1.7,0.3,1.4C63.5,83.8,62.7,82.8,62.7,82.8z"/>
			<path class="st5" d="M62.8,82.7c0,0,0.9,1.1,1.2,0.6C64.3,82.9,62.8,82.7,62.8,82.7z"/>
			<path class="st5" d="M62.6,81.7c0,0,1.4-0.9,1-1.1C63.2,80.4,62.6,81.7,62.6,81.7z"/>
			<path class="st5" d="M62.5,81.6c0,0,0.7-1.5,0.2-1.4S62.5,81.6,62.5,81.6z"/>
			<path class="st5" d="M62.1,81.8c0,0,0.4-1.7-0.1-1.4C61.4,80.6,62.1,81.8,62.1,81.8z"/>
			<path class="st5" d="M62,81.8c0,0-0.8-1.2-1.1-0.8S62,81.8,62,81.8z"/>
			<path class="st5" d="M61.8,82.2c0,0-1.4-0.6-1.5-0.2C60.3,82.4,61.8,82.2,61.8,82.2z"/>
			<path class="st5" d="M61.8,82.6c0,0-1.8-0.3-1.6,0.2C60.5,83.2,61.8,82.6,61.8,82.6z"/>
			<path class="st5" d="M61.8,82.6c0,0-1.5,0.8-1,1.1C61.2,84,61.8,82.6,61.8,82.6z"/>
			<path class="st5" d="M63.1,82.5c0,0,1.5,0.4,1.5,0S63.1,82.5,63.1,82.5z"/>
			<path class="st5" d="M63,82.1c0,0,1.8,0.1,1.6-0.4S63,82.1,63,82.1z"/>
			<path class="st5" d="M63,81.9c0,0,1.5-0.7,1.1-1C63.7,80.5,63,81.9,63,81.9z"/>
			<path class="st6" d="M62.6,82.4c0,0,0.8,0.5,0.8,0.2C63.5,82.4,62.6,82.4,62.6,82.4z"/>
			<path class="st6" d="M62.5,82.4c0,0,0.5,0.1,0.5,0C62.9,82.2,62.5,82.4,62.5,82.4z"/>
			<path class="st6" d="M62.4,82.4c0,0,0,0.5,0.2,0.4C62.7,82.7,62.4,82.4,62.4,82.4z"/>
			<path class="st6" d="M62.4,82.4c0,0-0.4,0.3-0.3,0.3C62.2,82.8,62.4,82.4,62.4,82.4z"/>
			<path class="st6" d="M62.4,82.3c0,0,0.2-0.4,0.1-0.4C62.3,81.9,62.4,82.3,62.4,82.3z"/>
			<path class="st6" d="M62.3,82.4c0,0-0.3,0-0.3,0.1C62.1,82.5,62.3,82.4,62.3,82.4z"/>
			<path class="st6" d="M62.4,82.3c0,0,0.3-0.1,0.3-0.1C62.6,82.1,62.4,82.3,62.4,82.3z"/>
			<path class="st6" d="M62.3,82.3c0,0,0-0.3-0.1-0.3C62.1,82,62.3,82.3,62.3,82.3z"/>
			<path class="st6" d="M62.4,82.3c0,0-0.1,0.3,0,0.3C62.5,82.6,62.4,82.3,62.4,82.3z"/>
			<path class="st6" d="M62.3,82.3c0,0-0.4-0.3-0.4-0.1C61.9,82.3,62.3,82.3,62.3,82.3z"/>
			<path class="st6" d="M62.6,82.2c0,0,1.1,0,0.9-0.2S62.6,82.2,62.6,82.2z"/>
			<path class="st6" d="M62.5,82.2c0,0,0.9-0.4,0.6-0.6C62.9,81.3,62.5,82.2,62.5,82.2z"/>
			<path class="st6" d="M62.2,82.7c0,0-0.7,0.6-0.5,0.7C61.9,83.5,62.2,82.7,62.2,82.7z"/>
			<path class="st6" d="M62.3,82.6c0,0-0.4,1,0,0.9C62.6,83.3,62.3,82.6,62.3,82.6z"/>
			<path class="st6" d="M62.5,82.6c0,0,0.1,0.9,0.4,0.7C63.2,83.1,62.5,82.6,62.5,82.6z"/>
			<path class="st6" d="M62.3,82.2c0,0-0.7-0.6-0.8-0.3C61.4,82.1,62.3,82.2,62.3,82.2z"/>
			<path class="st6" d="M62.3,82.1c0,0-0.1-0.9-0.3-0.7C61.8,81.5,62.3,82.1,62.3,82.1z"/>
			<path class="st6" d="M62.5,82c0,0,0.4-0.9,0.1-0.8C62.4,81.2,62.5,82,62.5,82z"/>
			<path class="st6" d="M62.2,82.3c0,0-1-0.2-0.9,0.1C61.4,82.7,62.2,82.3,62.2,82.3z"/>
			<path class="st6" d="M62.2,82.5c0,0-0.9,0.1-0.8,0.4C61.6,83.2,62.2,82.5,62.2,82.5z"/>
		</g>
	</g>
	<g>
		<g>
			<path class="st21" d="M46.7,18.5c0,0-6.9-3.5-8.2-3.5c-1.3,0-2.8,5.5-1.3,9c1.5,3.5,10.1-2.2,10.1-2.2L46.7,18.5z"/>
			<path class="st21" d="M48.8,21.2c0,0,3.2-7,3.2-8.4c0-1.4-5.3-3.4-8.6-2.2c-3.3,1.3,2.2,10.9,2.2,10.9L48.8,21.2z"/>
			<path class="st21" d="M45.4,19.3c0,0-3.4,6.9-3.5,8.3c0,1.4,5.2,3.6,8.5,2.4c3.3-1.2-1.9-10.9-1.9-10.9L45.4,19.3z"/>
			<path class="st21" d="M47.1,18.7c0,0,6.6-3.4,7.9-3.5c1.3,0,3.3,5.5,2.1,9S46.8,22,46.8,22L47.1,18.7z"/>
		</g>
		<g>
			<ellipse transform="matrix(0.9325 -0.3612 0.3612 0.9325 -4.2302 18.3126)" class="st4" cx="46.9" cy="20.5" rx="2.5" ry="2.6"/>
			<path class="st5" d="M46.1,20.5c0,0-2.3-0.8-2.2-0.1S46.1,20.5,46.1,20.5z"/>
			<path class="st5" d="M46.1,20.6c0,0-2.2,0.8-1.7,1.3C44.9,22.4,46.1,20.6,46.1,20.6z"/>
			<path class="st5" d="M46.6,21c0,0-2.2,1.4-1.4,1.8C46,23.1,46.6,21,46.6,21z"/>
			<path class="st5" d="M46.7,21c0,0-0.6,2.3,0.2,2.3S46.7,21,46.7,21z"/>
			<path class="st5" d="M47.8,19.7c0,0,2.2,1,2.2,0.3C49.9,19.3,47.8,19.7,47.8,19.7z"/>
			<path class="st5" d="M47.8,19.6c0,0,2.3-0.5,1.8-1.1S47.8,19.6,47.8,19.6z"/>
			<path class="st5" d="M47.3,19.2c0,0,2.4-1.2,1.6-1.6C48.2,17.1,47.3,19.2,47.3,19.2z"/>
			<path class="st5" d="M47.2,19.1c0,0,0.8-2.3,0-2.3S47.2,19.1,47.2,19.1z"/>
			<path class="st5" d="M46.5,19.2c0,0-0.5-2.5-1-2.1S46.5,19.2,46.5,19.2z"/>
			<path class="st5" d="M46.1,19.6c0,0-1.1-2.6-1.5-1.9C44.2,18.4,46.1,19.6,46.1,19.6z"/>
			<path class="st5" d="M46,19.7c0,0-2.1-1.1-2.1-0.3C43.9,20.3,46,19.7,46,19.7z"/>
			<path class="st5" d="M47.2,21.2c0,0,0.8,2.4,1.2,1.9S47.2,21.2,47.2,21.2z"/>
			<path class="st5" d="M47.5,20.7c0,0,1.4,2.5,1.7,1.7C49.5,21.6,47.5,20.7,47.5,20.7z"/>
			<path class="st5" d="M47.8,20.5c0,0,2,1.3,2.1,0.4C50,20.1,47.8,20.5,47.8,20.5z"/>
			<path class="st6" d="M46.9,20.5c0,0,0.1,1.5,0.4,1.3C47.6,21.6,46.9,20.5,46.9,20.5z"/>
			<path class="st6" d="M46.9,20.3c0,0,0.2,0.7,0.4,0.6C47.4,20.7,46.9,20.3,46.9,20.3z"/>
			<path class="st6" d="M46.8,20.2c0,0-0.5,0.5-0.3,0.6S46.8,20.2,46.8,20.2z"/>
			<path class="st6" d="M46.7,20.2c0,0-0.7-0.2-0.7,0S46.7,20.2,46.7,20.2z"/>
			<path class="st6" d="M46.9,20.1c0,0,0.7-0.1,0.6-0.3C47.4,19.6,46.9,20.1,46.9,20.1z"/>
			<path class="st6" d="M46.8,20.1c0,0-0.3-0.5-0.3-0.3C46.4,19.9,46.8,20.1,46.8,20.1z"/>
			<path class="st6" d="M46.8,20.1c0,0,0.4,0.4,0.4,0.2S46.8,20.1,46.8,20.1z"/>
			<path class="st6" d="M46.9,20c0,0,0.4-0.3,0.2-0.4C47,19.5,46.9,20,46.9,20z"/>
			<path class="st6" d="M46.8,20.1c0,0-0.4,0.2-0.3,0.3S46.8,20.1,46.8,20.1z"/>
			<path class="st6" d="M46.8,20c0,0,0-0.8-0.2-0.7C46.5,19.4,46.8,20,46.8,20z"/>
			<path class="st6" d="M47.1,20.3c0,0,0.8,1.5,1,1C48.3,20.8,47.1,20.3,47.1,20.3z"/>
			<path class="st6" d="M47.1,20.1c0,0,1.2,0.8,1.3,0.2C48.4,19.8,47.1,20.1,47.1,20.1z"/>
			<path class="st6" d="M46.3,20.2c0,0-1.4-0.3-1.3,0.1C45.1,20.6,46.3,20.2,46.3,20.2z"/>
			<path class="st6" d="M46.5,20.3c0,0-1.5,0.5-1.1,0.8C45.8,21.4,46.5,20.3,46.5,20.3z"/>
			<path class="st6" d="M46.7,20.5c0,0-1,1-0.5,1.2S46.7,20.5,46.7,20.5z"/>
			<path class="st6" d="M46.9,19.8c0,0,0.2-1.5-0.2-1.3S46.9,19.8,46.9,19.8z"/>
			<path class="st6" d="M47.1,19.9c0,0,1-1,0.6-1.1S47.1,19.9,47.1,19.9z"/>
			<path class="st6" d="M47.4,20c0,0,1.3-0.4,1.1-0.7C48.2,19,47.4,20,47.4,20z"/>
			<path class="st6" d="M46.7,19.9c0,0-0.6-1.6-0.8-1.2C45.6,19.1,46.7,19.9,46.7,19.9z"/>
			<path class="st6" d="M46.5,20.1c0,0-0.9-1.1-1.1-0.6C45.2,19.9,46.5,20.1,46.5,20.1z"/>
		</g>
	</g>
	<path class="st1" d="M99.6,140.1c-4.5,3.3-6.2,9.1-4.6,13.4c-1.8,1.5-3.5,3.1-4.9,5l-1.7,2.3l2.1,2.1l1.7-2.3
		c1.3-1.7,2.8-3.2,4.4-4.6c0.3,0.4,0.6,0.8,1,1.1c2.3,1.8,5.2,2.4,13,0.1c12.4-3.6,22.7-24.9,22.7-24.9S110.4,132.1,99.6,140.1z"/>
	<path class="st1" d="M78,150.4c5,3.7,6.9,10.2,5.1,15c2,1.7,3.9,3.5,5.5,5.6l1.9,2.5l-2.4,2.4l-1.9-2.6c-1.4-1.9-3.1-3.6-4.9-5.1
		c-0.4,0.4-0.7,0.8-1.2,1.2c-2.6,2-5.8,2.7-14.6,0.2c-13.9-4.1-25.4-27.9-25.4-27.9S65.8,141.5,78,150.4z"/>
	<path class="st1" d="M77,120.7c5,3.2,7.2,9.3,5.8,14c2.1,1.5,3.9,3.1,5.6,5.1l2,2.3l-2.1,2.4l-2-2.4c-1.5-1.7-3.2-3.2-5-4.6
		c-0.3,0.4-0.6,0.8-1,1.2c-2.4,2-5.4,2.9-13.9,1c-13.5-3-25.9-25.1-25.9-25.1S64.8,113,77,120.7z"/>
	<path class="st1" d="M122.9,110.2c-5.1,3-11.5,2.2-15-1.2c-2.2,1.2-4.5,2.1-7,2.6l-2.9,0.7l-1.2-3l3-0.7c2.2-0.5,4.3-1.3,6.3-2.3
		c-0.2-0.5-0.5-0.9-0.6-1.5c-0.7-3-0.2-6.1,5.4-12.7c8.8-10.6,33.8-11.5,33.8-11.5S135.2,102.9,122.9,110.2z"/>
	<path class="st22" d="M107.2,107.5l-0.1-0.2c0.2-0.1,18.8-12.4,37.6-26.8l0.1,0.2C126,95.1,107.4,107.3,107.2,107.5z"/>
	<path class="st22" d="M107.3,106.5c0-0.1-0.7-5.6,1.6-9.7L109,97c-2.3,4-1.6,9.5-1.5,9.6L107.3,106.5z"/>
	<path class="st22" d="M120.3,98.5h-0.2c0-0.1,0.1-8.9,5.9-14l0.1,0.2C120.4,89.6,120.3,98.4,120.3,98.5z"/>
	<path class="st22" d="M123.2,104.1c-5.4,0-9-1.4-9-1.4l0.1-0.2c0.1,0,6.4,2.5,15.1,0.8l0,0.2C127.2,103.9,125.1,104.1,123.2,104.1z
		"/>
	<path class="st22" d="M131.8,96.3c-4,0-6.6-1-6.6-1l0.1-0.2c0,0,4.7,1.9,11.1,0.6l0,0.2C134.7,96.1,133.2,96.3,131.8,96.3z"/>
	<path class="st22" d="M138.3,88.7c-2.4,0-3.8-0.4-3.8-0.4l0.1-0.2c0,0,2.2,0.6,5.8,0.3l0,0.2C139.7,88.7,139,88.7,138.3,88.7z"/>
	<path class="st22" d="M130.2,91.4l-0.2-0.1c0.1-0.3,3.4-7.5,6.2-9.6l0.1,0.2C133.6,84,130.3,91.4,130.2,91.4z"/>
	<g>
		<path class="st22" d="M83.4,137.2c-0.2-0.1-19.7-11.4-41.2-21.7l0.1-0.2c21.5,10.4,41,21.6,41.2,21.7L83.4,137.2z"/>
		<path class="st22" d="M64.7,138.6l0-0.2c6.7,0.3,13.4-4.2,13.5-4.3l0.1,0.2C78.2,134.3,71.5,138.9,64.7,138.6z"/>
		<path class="st22" d="M57.3,131.4c-1-0.2-2-0.4-3-0.8l0.1-0.2c7.1,2.8,15.1-1,15.1-1.1l0.1,0.2C69.5,129.5,63.5,132.4,57.3,131.4z
			"/>
		<path class="st22" d="M75.8,132.9c0-0.1-0.6-6.9-6.2-14l0.2-0.1c5.6,7.2,6.2,14.1,6.2,14.1L75.8,132.9z"/>
		<path class="st22" d="M64.1,126.4c0,0-0.4-5-4.5-10.3l0.2-0.1c4.1,5.3,4.6,10.3,4.6,10.4L64.1,126.4z"/>
		<path class="st22" d="M53.6,121.1c0,0-0.5-2.2-2.4-5.3l0.2-0.1c1.9,3.1,2.4,5.4,2.4,5.4L53.6,121.1z"/>
		<path class="st22" d="M50.2,123.4c-1.2-0.2-2.2-0.5-3-0.8l0.1-0.2c3.2,1.5,11.3,1.2,11.4,1.2l0,0.2
			C58.4,123.8,53.8,123.9,50.2,123.4z"/>
	</g>
	<g>
		<path class="st22" d="M83.2,168c-0.2-0.1-19.6-12.7-41-24.3l0.1-0.2c21.4,11.7,40.8,24.2,41,24.3L83.2,168z"/>
		<path class="st22" d="M65.8,168.6c-0.4,0-0.9,0-1.4-0.1l0-0.2c0.4,0,0.9,0.1,1.3,0.1c6.2,0,12-3.8,12.1-3.8l0.1,0.1
			C78,164.8,72.1,168.6,65.8,168.6z"/>
		<path class="st22" d="M60.7,161.2c-2.1,0-4.4-0.3-6.6-1.4l0.1-0.2c7.1,3.2,15-0.4,15.1-0.4l0.1,0.2
			C69.3,159.4,65.5,161.2,60.7,161.2z"/>
		<path class="st22" d="M75.6,163.2c0-0.1-0.6-7.2-6.1-14.8l0.1-0.1c5.6,7.7,6.2,14.8,6.2,14.9L75.6,163.2z"/>
		<path class="st22" d="M64,155.9c0-0.1-0.4-5.2-4.5-10.8l0.1-0.1c4.1,5.6,4.5,10.8,4.5,10.9L64,155.9z"/>
		<path class="st22" d="M53.5,150c0,0-0.5-2.3-2.4-5.6l0.1-0.1c1.9,3.3,2.4,5.7,2.4,5.7L53.5,150z"/>
		<path class="st22" d="M58.5,152.9c-0.1,0-8.2,0-11.4-1.8l0.1-0.2c3.2,1.7,11.2,1.8,11.3,1.8V152.9z"/>
	</g>
	<g>
		<path class="st22" d="M94,156.2L94,156c0.2-0.1,18.6-10.8,37-23l0.1,0.1C112.7,145.3,94.2,156,94,156.2z"/>
		<path class="st22" d="M98.8,153.2c0-0.1-1.7-5.5,1.3-10l0.1,0.1c-2.9,4.4-1.3,9.8-1.3,9.9L98.8,153.2z"/>
		<path class="st22" d="M106.8,148.4c0-0.1-0.5-6.3,5-10.5l0.1,0.1c-5.5,4.2-5,10.3-4.9,10.4L106.8,148.4z"/>
		<path class="st22" d="M105.3,152.2c-2.7,0-4.2-0.2-4.3-0.2l0-0.1c0.1,0,6.8,1,15.8-1.2l0,0.1C112.3,151.9,108.2,152.2,105.3,152.2
			z"/>
		<path class="st22" d="M115,145.7c-1.9,0-3.1-0.2-3.1-0.2l0-0.1c0,0,5,0.8,11.6-0.9l0,0.1C120.1,145.5,117.1,145.7,115,145.7z"/>
		<path class="st22" d="M121.8,139.6c-0.5,0-0.7,0-0.7,0l0-0.1c0,0,2.3,0.1,6.1-0.5l0,0.1C124.6,139.6,122.7,139.6,121.8,139.6z"/>
		<path class="st22" d="M116.8,142.3l-0.1-0.1c0-0.1,2.9-5.6,5.7-7.4l0.1,0.1C119.7,136.8,116.8,142.3,116.8,142.3z"/>
	</g>
</g>
</svg>
