<?xml version="1.0" encoding="utf-8"?>
<!-- Generator: Adobe Illustrator 24.0.1, SVG Export Plug-In . SVG Version: 6.00 Build 0)  -->
<svg version="1.1" id="图层_1" xmlns="http://www.w3.org/2000/svg" xmlns:xlink="http://www.w3.org/1999/xlink" x="0px" y="0px"
	 viewBox="0 0 200 200" style="enable-background:new 0 0 200 200;" xml:space="preserve">
<style type="text/css">
	.st0{fill:#995E5E;}
	.st1{fill:#2C9A5C;}
	.st2{fill:#FFFFFF;}
	.st3{fill:#A59D92;}
	.st4{fill:#FFFAD2;}
	.st5{fill:#FFE600;}
	.st6{fill:#FFEC64;}
	.st7{fill:#97CCA1;}
	.st8{fill:#52AF78;}
	.st9{opacity:0.15;fill:#E7F2E9;}
	.st10{fill:#5FC187;}
	.st11{fill:#97B7A2;}
	.st12{opacity:0.15;fill:#D8EFDF;}
	.st13{fill:#FFDC97;}
	.st14{opacity:0.19;fill:#E27C37;}
	.st15{opacity:0.6;fill:#DD7F3E;}
	.st16{fill:#DD9A68;}
	.st17{fill:#9B2C00;}
	.st18{fill:#DDAD6F;}
	.st19{fill:#DDA036;}
	.st20{fill:#E8D7B8;}
	.st21{fill:#FFD400;}
	.st22{fill:#52A072;}
	.st23{fill:#C0DB4B;}
	.st24{fill:#FFC94F;}
	.st25{fill:#B59B78;}
	.st26{fill:#9BD359;}
	.st27{fill:#8FD16B;}
	.st28{fill:#66C66D;}
	.st29{fill:#FFDA00;}
	.st30{fill:none;stroke:#C0DB4B;stroke-width:0.25;stroke-miterlimit:10;}
	.st31{fill:#969696;}
	.st32{fill:#3B7251;}
	.st33{fill:#E03854;}
	.st34{opacity:0.5;fill:#F797A8;}
	.st35{opacity:0.3;fill:#F797A8;}
	.st36{fill:#5CC686;}
	.st37{fill:#AF9579;}
	.st38{fill:#EABE7F;}
	.st39{fill:#D8B280;}
	.st40{fill:#C69A6A;}
	.st41{fill:#9B9FA5;}
	.st42{fill:#DBCFBD;}
	.st43{fill:#BFB5AF;}
	.st44{fill:#E0D489;}
	.st45{fill:#F2CE8F;}
	.st46{fill:#DDA68C;}
	.st47{fill:url(#SVGID_1_);}
	.st48{fill:#98D0E2;}
	.st49{fill:#C4BCCE;}
	.st50{fill:#DCD6E5;}
	.st51{fill:#C1D5E5;}
	.st52{fill:#BABBBC;}
	.st53{fill:#89CCC4;}
	.st54{opacity:0.41;fill:#99E0C3;}
	.st55{fill:url(#SVGID_2_);}
	.st56{fill:url(#SVGID_3_);}
	.st57{opacity:0.57;fill:#FFFFFF;}
	.st58{fill:url(#SVGID_4_);}
	.st59{fill:url(#SVGID_5_);}
	.st60{fill:url(#SVGID_6_);}
	.st61{fill:url(#SVGID_7_);}
	.st62{fill:url(#SVGID_8_);}
	.st63{fill:url(#SVGID_9_);}
	.st64{fill:url(#SVGID_10_);}
	.st65{fill:url(#SVGID_11_);}
	.st66{fill:url(#SVGID_12_);}
	.st67{fill:url(#SVGID_13_);}
	.st68{fill:url(#SVGID_14_);}
	.st69{fill:url(#SVGID_15_);}
	.st70{fill:url(#SVGID_16_);}
	.st71{fill:url(#SVGID_17_);}
	.st72{fill:url(#SVGID_18_);}
	.st73{fill:url(#SVGID_19_);}
	.st74{fill:url(#SVGID_20_);}
	.st75{fill:url(#SVGID_21_);}
	.st76{fill:url(#SVGID_22_);}
	.st77{fill:url(#SVGID_23_);}
	.st78{fill:url(#SVGID_24_);}
	.st79{fill:url(#SVGID_25_);}
	.st80{fill:url(#SVGID_26_);}
	.st81{fill:url(#SVGID_27_);}
	.st82{fill:url(#SVGID_28_);}
	.st83{fill:#B186B2;}
	.st84{fill:#DDC3DC;stroke:#C18DC9;stroke-miterlimit:10;}
	.st85{opacity:0.3;fill:#FFFFFF;}
	.st86{fill:url(#SVGID_29_);}
	.st87{fill:url(#SVGID_30_);}
</style>
<g>
	<path class="st45" d="M76.4,29.5c0.8,0.4,1.6,0.7,2.5,1c2.5,0.9,8.3,3.5,9.1,8.7c1.1,6.6-0.7,10.6,6.3,17.5
		c6.9,6.9,3.9,11.4,2.3,11.4c0,0-0.4,5.1-6.7,2.9c-6.3-2.2-18.8-1.9-24-10.5c0,0-3.8,9.9,5,16.9s25.9,13.5,37.7,9.5
		s56.9-23.8,67.2-1.6c4.8,10.4,4.5,20.5,2.8,28.2c-2,8.9-8.6,16.2-17.5,19.4c-20.4,7.3-63.9,17.4-107.5-7.9
		c-42.6-24.6-2.9-82.5-2.9-82.5S61.3,22.8,76.4,29.5z"/>
	<path class="st45" d="M67.8,36.2c-2.4-4.7-6.2-8.2-11.2-11.9c-7.5-5.5-30.8-9.7-40.9,4.1C-3.5,54.3,36.3,78.9,36.3,78.9l0,0
		c0,0-21.7-21.2-10.4-38.8c7.4-11.4,25.6,4,25.6,4L67.8,36.2z"/>
	<path class="st45" d="M40.9,59.2c0,0-21.9-49.2,11.7-53.2C66.5,4.4,77,18.2,78.8,22.9c1.7,4.5,2.8,8.5,2.2,12.6l-14.6-1.3
		c0,0-1.7-14.2-14.1-13.2c-9.4,0.8-11.9,11-12.2,19.5C40.1,40.4,39.2,51.2,40.9,59.2z"/>
	<path class="st45" d="M46.5,115.5c0,0,14.4,13.6,14.6,31.1s-4.1,38.6-15,42.6l9.5,1.6c0,0,0.2-8.1,9.3-8.9l8.6-46.3
		c0,0-11.6-8.8-8.9-27.3L46.5,115.5z"/>
	<path class="st45" d="M70,126.7c0,0,14.6,12.7,15,28.7c0.5,16-3.5,35.3-14.3,38.8l9.5,1.6c0,0,0.1-7.4,9.1-8l7.9-42.3
		c0,0-11.8-8.2-9.3-25.1L70,126.7z"/>
	<path class="st45" d="M146.1,123.8c0,0,15.7,12.6,16.8,29.2c1.1,16.6-2.2,36.8-13.3,40.8l10,1.3c0,0-0.2-7.7,9.2-8.6l6.5-44.3
		c0,0-12.6-8.1-10.7-25.8L146.1,123.8z"/>
	<path class="st45" d="M130.1,118.8c0,0,12.5,15.3,10.3,32.8s-9.2,38-20.6,40.8l9.2,2.7c0,0,1.3-8.1,10.4-7.8l14.7-45.2
		c0,0-10.4-10.1-5.2-28.3L130.1,118.8z"/>
	<path class="st45" d="M173.1,85.8c0,0,23.4,13.5,13.1,27.1C186.3,112.9,183.4,104.3,173.1,85.8z"/>
</g>
</svg>
