<?xml version="1.0" encoding="utf-8"?>
<!-- Generator: Adobe Illustrator 24.0.1, SVG Export Plug-In . SVG Version: 6.00 Build 0)  -->
<svg version="1.1" id="图层_1" xmlns="http://www.w3.org/2000/svg" xmlns:xlink="http://www.w3.org/1999/xlink" x="0px" y="0px"
	 viewBox="0 0 200 200" style="enable-background:new 0 0 200 200;" xml:space="preserve">
<style type="text/css">
	.st0{fill:#A8CBEF;}
	.st1{fill:#965D5D;}
	.st2{fill:#31945A;}
	.st3{fill:#FFFFFF;}
	.st4{fill:#A59D92;}
	.st5{fill:#FCF8D1;}
	.st6{fill:#F4DE26;}
	.st7{fill:#F6E568;}
	.st8{fill:#93C59D;}
	.st9{fill:#53A875;}
	.st10{opacity:0.15;fill:#E6F1E8;}
	.st11{fill:#5EB983;}
	.st12{fill:#95B4A0;}
	.st13{opacity:0.15;fill:#D5EBDB;}
	.st14{fill:#F9D896;}
	.st15{opacity:0.19;fill:#D97938;}
	.st16{opacity:0.6;fill:#D57C40;}
	.st17{fill:#D79867;}
	.st18{fill:#943023;}
	.st19{fill:#D7A96E;}
	.st20{fill:#D69D3A;}
	.st21{fill:#E5D5B7;}
	.st22{fill:#F5CD1F;}
	.st23{fill:#529B6F;}
	.st24{fill:none;stroke:#529B6F;stroke-width:0.2;stroke-miterlimit:10;}
	.st25{fill:#979696;}
	.st26{fill:#3B7050;}
	.st27{fill:#D33A51;}
	.st28{opacity:0.5;fill:#ED93A3;}
	.st29{opacity:0.3;fill:#ED93A3;}
	.st30{fill:#5EBA81;}
	.st31{fill:#B9D24F;}
	.st32{fill:#F5C352;}
	.st33{fill:#B39977;}
	.st34{fill:#96C95B;}
	.st35{fill:#8BC66B;}
	.st36{fill:#68BB6B;}
	.st37{fill:#F4D321;}
	.st38{fill:none;stroke:#B9D24F;stroke-width:0.25;stroke-miterlimit:10;}
	.st39{fill:#D3AE7E;}
	.st40{fill:#AD9479;}
	.st41{fill:#C29869;}
	.st42{fill:#E4BA7E;}
	.st43{fill:#BEB4AE;}
	.st44{fill:#D9CDBC;}
	.st45{fill:#DACF88;}
	.st46{fill:#F0DDCB;}
	.st47{fill:url(#SVGID_1_);}
	.st48{fill:#EFD0A0;}
	.st49{fill:#DDA68C;}
	.st50{fill:#BFB5AF;}
	.st51{fill:#C4BCCE;}
	.st52{fill:#DCD6E5;}
	.st53{fill:#C1D5E5;}
	.st54{fill:#BABBBC;}
	.st55{fill:#89CCC4;}
	.st56{fill:url(#SVGID_2_);}
	.st57{fill:url(#SVGID_3_);}
	.st58{fill:#B186B2;}
	.st59{fill:#DDC3DC;stroke:#C18DC9;stroke-miterlimit:10;}
	.st60{opacity:0.3;fill:#FFFFFF;}
	.st61{fill:url(#SVGID_4_);}
	.st62{fill:url(#SVGID_5_);}
	.st63{opacity:0.57;fill:#FFFFFF;}
	.st64{fill:url(#SVGID_6_);}
	.st65{fill:url(#SVGID_7_);}
	.st66{fill:url(#SVGID_8_);}
	.st67{fill:url(#SVGID_9_);}
	.st68{fill:url(#SVGID_10_);}
	.st69{fill:url(#SVGID_11_);}
	.st70{fill:url(#SVGID_12_);}
	.st71{fill:url(#SVGID_13_);}
	.st72{fill:url(#SVGID_14_);}
	.st73{fill:url(#SVGID_15_);}
	.st74{fill:url(#SVGID_16_);}
	.st75{fill:url(#SVGID_17_);}
	.st76{fill:url(#SVGID_18_);}
	.st77{fill:url(#SVGID_19_);}
	.st78{fill:url(#SVGID_20_);}
	.st79{fill:url(#SVGID_21_);}
	.st80{fill:url(#SVGID_22_);}
	.st81{fill:url(#SVGID_23_);}
	.st82{fill:url(#SVGID_24_);}
	.st83{fill:url(#SVGID_25_);}
	.st84{fill:url(#SVGID_26_);}
	.st85{fill:url(#SVGID_27_);}
	.st86{fill:url(#SVGID_28_);}
	.st87{fill:url(#SVGID_29_);}
	.st88{fill:#AF9D95;}
	.st89{fill:#CCD6E2;}
	.st90{opacity:0.55;fill:#8DC1E2;}
</style>
<path class="st0" d="M7.4,98.8c-0.3,1.4,4.9,3.9,7.9,4.9c10.7,3.4,21.8,5.3,33,5.7c11.3,0.4,22.5-0.7,33.8-1
	c1.6,3.4,3.7,6.6,5.9,9.6c0.2,0.3,0.5,0.6,0.8,0.8c1.1,0.5,2.2-0.6,2.8-1.7c1-1.8,1.8-3.9,2.3-5.9c-2.7-0.3-5.3-1.4-7.5-3
	c5.8-0.4,18.6-1.7,32.3-3.4c1.5,1.2,2.7,2.7,3.7,4.3c0.9,1.5,1.8,3.1,3,4.4c1.3,1.2,3.1,2.1,4.8,1.6c2.1-0.6,3.2-2.9,4.4-4.7
	c3.4-4.8,12.3-4.6,17.8-2.5c-2.1-1.7-4.8-4.2-7.5-6.4c5.2-0.7,9.8-1.3,13.5-1.9c2.1-0.3,4.2-0.1,6.2-0.5c1.3,0.1,2.6,0.2,3.8,0.5
	c4.5,0.9,8.5,3.5,12.7,5.4c4.6,2.1,9.6,3.4,14.7,3.8c-0.9-5.7-4.7-10.9-9.9-13.4c-2.8-1.4-6-1.9-9.1-2.5c4.2-0.9,8.2-2.7,11.4-5.6
	c3.2-2.9,5.5-6.8,6.3-11c-7.1,0.1-13.9,3.1-20,6.7c-2.6,1.5-5.2,3.2-8,4.4c-0.6,0.3-1.2,0.5-1.8,0.7c-19.3-3.7-38.9-5.1-58.5-6
	c-0.3-1.6-1.2-3-1.9-4.5c-1.3-2.6-2.3-5.5-2.8-8.3c-0.2-1.1-0.4-2.1-0.9-3.1c-0.5-0.9-1.6-1.7-2.6-1.5c-0.9,0.1-1.6,0.8-2.2,1.5
	c-2.2,2.4-4.3,4.8-6.3,7.4c-1.8,2.3-3.5,4.7-5.2,7.1c-0.1,0.2-0.2,0.3-0.3,0.5C78,81,72.1,80.8,66.2,80.8c-5.2,0-10.3,0-15.5,0.3
	c-1.2,0.1-2.4,0.1-3.6,0.2c-0.3,0-0.7,0-1,0.1c-0.9,0.1-1.9,0.1-2.8,0.2c-0.3,0-0.6,0-0.9,0.1c-1.2,0.1-2.4,0.2-3.6,0.4
	c-0.3,0-0.6,0.1-0.9,0.1c-0.9,0.1-1.8,0.2-2.6,0.3c-0.2,0-0.4,0-0.6,0.1c0,0,0,0,0,0c-10,1.4-19.9,3.9-29,8.3
	c-0.9,0.5-2,1.3-2.1,2.2c0,0.3,0,0.6,0.2,0.9L7.4,98.8z"/>
<g>
	<g>
		<path class="st89" d="M98.8,66.1c-5.1,4-9.1,9.7-11.9,15.5c-0.1,0.2,0.3,0.4,0.4,0.1c1.4-2.9,3.1-5.7,5-8.3
			C94.3,70.8,96.5,68.5,98.8,66.1C98.8,66.1,98.8,66.1,98.8,66.1L98.8,66.1z"/>
	</g>
	<g>
		<path class="st89" d="M98.8,68.2c-2,1.3-3.7,3.7-5.1,5.6c-1.5,2-3.2,4.4-4,6.8c-0.1,0.2,0.2,0.3,0.3,0.1c0.7-1.1,1.3-2.3,1.9-3.4
			c0.6-1.1,1.3-2.1,2.1-3.1c0.7-1,1.5-2,2.3-3C97.2,70.3,98.2,69.4,98.8,68.2C98.9,68.3,98.9,68.2,98.8,68.2L98.8,68.2z"/>
	</g>
	<g>
		<path class="st89" d="M99.5,70.2c-2.2,2.6-4.2,5.8-5.2,9.1c0,0.2,0.2,0.2,0.2,0.1C96.1,76.3,97.6,73.2,99.5,70.2
			C99.6,70.2,99.6,70.2,99.5,70.2L99.5,70.2z"/>
	</g>
	<g>
		<path class="st89" d="M99.9,73.8c-1.8,1.9-3.2,4.1-3.8,6.6c0,0.1,0.2,0.2,0.2,0.1C97.2,78.1,98.3,75.8,99.9,73.8
			C100,73.8,99.9,73.7,99.9,73.8L99.9,73.8z"/>
	</g>
	<g>
		<path class="st89" d="M100.8,76.3c-1.4,1.3-2.7,2.9-3.2,4.8c0,0.1,0.2,0.3,0.2,0.1C98.8,79.6,99.6,77.9,100.8,76.3
			C100.9,76.4,100.8,76.3,100.8,76.3L100.8,76.3z"/>
	</g>
	<g>
		<path class="st89" d="M102.4,78c-0.9,1-1.8,2.3-2.1,3.7c0,0.2,0.2,0.4,0.3,0.2c0.7-1.2,1.2-2.6,1.9-3.8
			C102.6,78,102.5,77.9,102.4,78L102.4,78z"/>
	</g>
</g>
<g>
	<path class="st89" d="M130.9,112.8c-2-0.4-3.9-2-5.3-3.3c-1.3-1.2-2.5-2.5-3.7-3.8c-0.1-0.1-0.2,0-0.1,0.1c1.3,1.6,2.8,3.2,4.4,4.5
		C127.3,111.3,129.1,113,130.9,112.8C130.9,112.8,130.9,112.8,130.9,112.8L130.9,112.8z"/>
</g>
<g>
	<path class="st89" d="M131,109.9c-3.3-0.3-6.4-2.5-8.5-5c-0.1-0.1-0.2,0-0.1,0.1c2,2.6,5.2,5,8.6,5.1
		C131.1,110.1,131.1,109.9,131,109.9L131,109.9z"/>
</g>
<g>
	<path class="st89" d="M131.9,107.5c-2.3-0.1-4.5-0.8-6.4-2.1c-0.1,0-0.1,0.1-0.1,0.1c1.9,1.4,4.1,2.1,6.5,2.1
		C132,107.6,132,107.5,131.9,107.5L131.9,107.5z"/>
</g>
<g>
	<path class="st89" d="M135.4,105.5c-1.3-0.3-2.6-0.5-4-0.7c-0.1,0-0.1,0.1,0,0.2c1.3,0.3,2.6,0.5,4,0.7
		C135.4,105.6,135.5,105.5,135.4,105.5L135.4,105.5z"/>
</g>
<g>
	<path class="st89" d="M90.1,115.5c-1.4-1.3-2.8-2.4-4.1-3.8c-1.3-1.5-2.5-3.1-3.6-4.8c-0.1-0.1-0.2,0-0.1,0.1
		C84.1,110.2,86.9,113.6,90.1,115.5C90.1,115.5,90.1,115.5,90.1,115.5L90.1,115.5z"/>
</g>
<g>
	<path class="st89" d="M90.9,111.9c-3.1-0.9-5.4-2.4-7.2-5.1c-0.1-0.1-0.2,0-0.2,0.1c1.3,2.7,4.3,4.9,7.3,5.1
		C91,112.1,91,112,90.9,111.9L90.9,111.9z"/>
</g>
<g>
	<path class="st89" d="M192.3,78.4c-2,0.5-4.1,1.4-6,2.2c-2,0.8-3.9,1.7-5.8,2.7c-1.8,0.9-3.6,1.9-5.4,3c-1.7,1-3.7,2-5.1,3.4
		c0,0,0,0.1,0.1,0.1c1.8-0.8,3.4-2.1,5.1-3.2c1.8-1.1,3.6-2.1,5.4-3c1.9-1,3.9-1.9,5.9-2.8C188.3,80,190.4,79.4,192.3,78.4
		C192.4,78.4,192.3,78.4,192.3,78.4L192.3,78.4z"/>
</g>
<g>
	<path class="st89" d="M190.5,80.8c-3.8,1.2-7.4,2.9-10.9,4.7c-3.6,1.9-7.3,3.9-10.5,6.4c-0.1,0.1,0,0.3,0.1,0.2
		c3.4-2.1,6.6-4.3,10.2-6.1C183,84.1,186.8,82.5,190.5,80.8C190.5,80.9,190.5,80.8,190.5,80.8L190.5,80.8z"/>
</g>
<g>
	<path class="st89" d="M188,85.3c-6.7,1.5-13.6,4.1-19.4,7.9c-0.2,0.2,0,0.5,0.2,0.3c3.1-1.7,6.2-3.4,9.5-4.8
		C181.5,87.4,184.8,86.3,188,85.3C188.1,85.3,188.1,85.3,188,85.3L188,85.3z"/>
</g>
<g>
	<path class="st89" d="M194.4,107c-8.8-2-17.2-6-24.4-11.3c-0.1-0.1-0.3,0.1-0.1,0.2C177.2,101.3,185.4,104.9,194.4,107
		C194.4,107,194.4,107,194.4,107L194.4,107z"/>
</g>
<g>
	<path class="st89" d="M190.6,104.6c-7-2.6-13.8-5.7-20.2-9.5c-0.1-0.1-0.3,0.1-0.1,0.2C176.7,99,183.5,102.2,190.6,104.6
		C190.6,104.6,190.6,104.6,190.6,104.6L190.6,104.6z"/>
</g>
<g>
	<path class="st89" d="M185.5,99c-4.8-1.4-9.7-3-14.6-4.1c-0.2,0-0.3,0.2-0.1,0.2C175.5,96.8,180.6,97.9,185.5,99
		C185.5,99.1,185.5,99,185.5,99L185.5,99z"/>
</g>
<path class="st90" d="M144.3,86.6c1.3,0.2,1.6,0.7,0.1,0.9c-0.5,0.1-8.6-0.1-9.2-0.1c-3,0.1-6-0.1-9.1,0c-2.8,0-5.5,0.1-8.3,0.2
	c-12.6,0.4-25.7,0.3-38.6,0.2c-4.7,0-9.5-0.1-14.2-0.3C62,87.2,59,88.3,56,88.1c-5.5-0.3-10.6,0.8-16.3,0.7
	c-4.2-0.1-10.3,0.1-14.3-0.2c13.6-0.5,28.8-1.7,42.7-1.8c3.2,0,6.4-0.1,9.6-0.2c4.8,0,9.8,0.1,14.6,0c5.6-0.1,11.1-0.1,16.7-0.2
	c5-0.1,9.8-0.1,14.9,0C127.9,86.5,141,86,144.3,86.6z"/>
<path class="st90" d="M145.7,96.7c1.4,0.2,1.7,0.8,0.2,1.1c-0.6,0.1-1.3,0.2-1.9,0.2c-3.1,0.3-6.3,0.3-9.4,0.5
	c-2.9,0.2-5.8,0.5-8.6,0.8c-13.1,1.4-26.7,2-40.2,2.7c-5,0.2-9.9,0.5-14.8,0.5c-3.2,0-6.3-0.1-9.4-0.2c-5.7-0.1-11.7,0-17.7,0.3
	c-4.4,0.2-8.9,0.5-13.1,0.4c14.1-1.5,28.8-0.4,43.3-1.4c3.4-0.2,6.7-0.6,10-0.8c5-0.4,10.2-0.5,15.2-1c5.8-0.5,11.2-1.4,16.9-1.9
	c5.2-0.5,10.6-0.6,15.9-0.9C136.3,96.9,142.3,96.1,145.7,96.7z"/>
<path class="st90" d="M27.8,95.1c-1.5-0.3-1.8-0.9-0.1-1.1c0.6-0.1,1.4-0.1,2.1-0.2c3.4-0.1,6.8,0,10.2-0.1c3.2-0.1,6.2-0.3,9.3-0.5
	c14.1-0.8,28.8-0.9,43.3-1c5.3,0,10.7-0.1,15.9,0.2c3.4,0.1,6.7,0.4,10.1,0.6c6.2,0.3,12.6,0.5,19,0.5c4.7,0,9.6-0.1,14.1,0.2
	c-15.2,0.9-31-0.8-46.6-0.4c-3.6,0.1-7.2,0.3-10.8,0.4c-5.4,0.2-11,0.1-16.3,0.3c-6.2,0.3-12.1,0.9-18.3,1.2
	c-5.7,0.2-11.4,0.2-17.1,0.2C38,95.4,31.5,95.9,27.8,95.1z"/>
</svg>
