<?xml version="1.0" standalone="no"?><!DOCTYPE svg PUBLIC "-//W3C//DTD SVG 1.1//EN" "http://www.w3.org/Graphics/SVG/1.1/DTD/svg11.dtd"><svg class="icon" width="200px" height="200.00px" viewBox="0 0 1024 1024" version="1.1" xmlns="http://www.w3.org/2000/svg"><path fill="#1296db" d="M213.333333 213.333333l597.333334 0 0 597.333334-597.333334 0 0-597.333334Z"  /><path fill="#1296db" d="M830.165333 896H193.834667C157.482667 896 128 864.746667 128 826.176V197.824C128 159.253333 157.482667 128 193.834667 128h636.330666C866.517333 128 896 159.253333 896 197.824v628.352C896 864.746667 866.517333 896 830.165333 896z m21.952-674.901333c0-25.706667-19.669333-46.549333-43.882666-46.549334H215.765333c-24.213333 0-43.882667 20.842667-43.882666 46.549334v581.802666c0 25.706667 19.669333 46.549333 43.882666 46.549334h592.469334c24.213333 0 43.882667-20.842667 43.882666-46.549334V221.098667z"  /></svg>