<?xml version="1.0" standalone="no"?><!DOCTYPE svg PUBLIC "-//W3C//DTD SVG 1.1//EN" "http://www.w3.org/Graphics/SVG/1.1/DTD/svg11.dtd"><svg class="icon" width="200px" height="200.00px" viewBox="0 0 1024 1024" version="1.1" xmlns="http://www.w3.org/2000/svg"><path fill="#333333" d="M331.483429 900.242286c10.971429 0 20.333714-3.949714 28.16-11.776a38.4 38.4 0 0 0 11.776-28.16V608.402286h174.08c49.810286 0 92.306286-11.264 127.488-33.792 35.108571-22.528 61.586286-52.224 79.36-89.088a274.870857 274.870857 0 0 0 26.624-120.832c0-41.691429-10.093714-81.188571-30.208-118.784A236.836571 236.836571 0 0 0 664.795429 155.794286a219.648 219.648 0 0 0-119.296-33.792H331.483429a37.595429 37.595429 0 0 0-27.648 11.264A37.595429 37.595429 0 0 0 292.571429 160.914286v699.392c0 10.971429 3.730286 20.333714 11.264 28.16a36.790857 36.790857 0 0 0 27.648 11.776z m194.56-361.472H371.419429v-348.16h154.624c29.330286 0 57.197714 5.997714 83.456 17.92 26.331429 11.922286 47.981714 31.085714 65.024 57.344 17.042286 26.331429 25.6 59.245714 25.6 98.816 0 60.050286-15.872 104.082286-47.616 132.096-31.744 28.013714-73.874286 41.984-126.464 41.984z" /></svg>