<?xml version="1.0" standalone="no"?><!DOCTYPE svg PUBLIC "-//W3C//DTD SVG 1.1//EN" "http://www.w3.org/Graphics/SVG/1.1/DTD/svg11.dtd"><svg t="1652149237333" class="icon" viewBox="0 0 1024 1024" version="1.1" xmlns="http://www.w3.org/2000/svg" p-id="2897" xmlns:xlink="http://www.w3.org/1999/xlink" width="200" height="200"><defs><style type="text/css">@font-face { font-family: feedback-iconfont; src: url("//at.alicdn.com/t/font_1031158_u69w8yhxdu.woff2?t=1630033759944") format("woff2"), url("//at.alicdn.com/t/font_1031158_u69w8yhxdu.woff?t=1630033759944") format("woff"), url("//at.alicdn.com/t/font_1031158_u69w8yhxdu.ttf?t=1630033759944") format("truetype"); }
</style></defs><path d="M514.7136 90.4704c-232.0896 0-420.864 188.8256-420.864 420.864 0 232.0896 188.8256 420.864 420.864 420.864s420.864-188.8256 420.864-420.864-188.7744-420.864-420.864-420.864z m0 800.8192c-209.5104 0-379.904-170.4448-379.904-379.904 0-209.5104 170.4448-379.904 379.904-379.904 209.5104 0 379.904 170.4448 379.904 379.904 0 209.4592-170.4448 379.904-379.904 379.904z" fill="#00A0E9" p-id="2898"></path><path d="M750.592 391.424L634.624 275.456a41.80992 41.80992 0 0 0-59.136 0L455.8336 395.0592a18.6368 18.6368 0 0 0 0 26.4192L509.4912 475.136l55.296-55.296c10.8032-10.8032 28.3648-12.544 40.192-2.816a29.3376 29.3376 0 0 1 2.1504 43.3664L550.912 516.608l53.6576 53.6576a18.6368 18.6368 0 0 0 26.4192 0L750.592 450.56a41.80992 41.80992 0 0 0 0-59.136zM568.4736 606.2592l-53.6576-53.6576-55.296 55.296c-10.8032 10.8032-28.3648 12.544-40.192 2.816a29.3376 29.3376 0 0 1-2.1504-43.3664l56.2176-56.2176-53.6064-53.5552a18.6368 18.6368 0 0 0-26.4192 0l-119.6032 119.6032a41.80992 41.80992 0 0 0 0 59.136l115.968 115.968c16.3328 16.3328 42.8032 16.3328 59.1872 0l119.6032-119.6032a18.77504 18.77504 0 0 0-0.0512-26.4192z" fill="#00A0E9" p-id="2899"></path></svg>