<?xml version="1.0" standalone="no"?><!DOCTYPE svg PUBLIC "-//W3C//DTD SVG 1.1//EN" "http://www.w3.org/Graphics/SVG/1.1/DTD/svg11.dtd"><svg t="1653100701004" class="icon" viewBox="0 0 1024 1024" version="1.1" xmlns="http://www.w3.org/2000/svg" p-id="3419" xmlns:xlink="http://www.w3.org/1999/xlink" width="200" height="200"><defs><style type="text/css">@font-face { font-family: feedback-iconfont; src: url("//at.alicdn.com/t/font_1031158_u69w8yhxdu.woff2?t=1630033759944") format("woff2"), url("//at.alicdn.com/t/font_1031158_u69w8yhxdu.woff?t=1630033759944") format("woff"), url("//at.alicdn.com/t/font_1031158_u69w8yhxdu.ttf?t=1630033759944") format("truetype"); }
</style></defs><path d="M512 6.4C505.6 0 492.8 0 480 0s-25.6 0-32 6.4c-12.8 6.4-19.2 19.2-25.6 25.6L6.4 761.6c-12.8 19.2-12.8 44.8 0 64 6.4 12.8 12.8 12.8 25.6 19.2s19.2 6.4 32 6.4h819.2c12.8 0 25.6 0 32-6.4 12.8-6.4 19.2-12.8 25.6-19.2 12.8-19.2 12.8-44.8 0-64L537.6 32C531.2 25.6 524.8 12.8 512 6.4z" fill="#1296db" p-id="3420"></path></svg>