<?xml version="1.0" encoding="utf-8"?>
<!-- Generator: Adobe Illustrator 24.0.1, SVG Export Plug-In . SVG Version: 6.00 Build 0)  -->
<svg version="1.1" id="图层_1" xmlns="http://www.w3.org/2000/svg" xmlns:xlink="http://www.w3.org/1999/xlink" x="0px" y="0px"
	 viewBox="0 0 200 200" style="enable-background:new 0 0 200 200;" xml:space="preserve">
<style type="text/css">
	.st0{fill:#995E5E;}
	.st1{fill:#2C9A5C;}
	.st2{fill:#FFFFFF;}
	.st3{fill:#A59D92;}
	.st4{fill:#FFFAD2;}
	.st5{fill:#FFE600;}
	.st6{fill:#FFEC64;}
	.st7{fill:#97CCA1;}
	.st8{fill:#52AF78;}
	.st9{opacity:0.15;fill:#E7F2E9;}
	.st10{fill:#5FC187;}
	.st11{fill:#97B7A2;}
	.st12{opacity:0.15;fill:#D8EFDF;}
	.st13{fill:#FFDC97;}
	.st14{opacity:0.19;fill:#E27C37;}
	.st15{opacity:0.6;fill:#DD7F3E;}
	.st16{fill:#DD9A68;}
	.st17{fill:#9B2C00;}
	.st18{fill:#DDAD6F;}
	.st19{fill:#DDA036;}
	.st20{fill:#E8D7B8;}
	.st21{fill:#FFD400;}
	.st22{fill:#52A072;}
	.st23{fill:#C0DB4B;}
	.st24{fill:#FFC94F;}
	.st25{fill:#B59B78;}
	.st26{fill:#9BD359;}
	.st27{fill:#8FD16B;}
	.st28{fill:#66C66D;}
	.st29{fill:#FFDA00;}
	.st30{fill:none;stroke:#C0DB4B;stroke-width:0.25;stroke-miterlimit:10;}
	.st31{fill:#969696;}
	.st32{fill:#3B7251;}
	.st33{fill:#E03854;}
	.st34{opacity:0.5;fill:#F797A8;}
	.st35{opacity:0.3;fill:#F797A8;}
	.st36{fill:#5CC686;}
	.st37{fill:#AF9579;}
	.st38{fill:#EABE7F;}
	.st39{fill:#D8B280;}
	.st40{fill:#C69A6A;}
	.st41{fill:#9B9FA5;}
	.st42{fill:#DBCFBD;}
	.st43{fill:#BFB5AF;}
	.st44{fill:#E0D489;}
	.st45{fill:#F2CE8F;}
	.st46{fill:#DDA68C;}
	.st47{fill:url(#SVGID_1_);}
	.st48{fill:#98D0E2;}
	.st49{fill:#C4BCCE;}
	.st50{fill:#DCD6E5;}
	.st51{fill:#C1D5E5;}
	.st52{fill:#BABBBC;}
	.st53{fill:#89CCC4;}
	.st54{opacity:0.41;fill:#99E0C3;}
	.st55{fill:url(#SVGID_2_);}
	.st56{fill:url(#SVGID_3_);}
	.st57{opacity:0.57;fill:#FFFFFF;}
	.st58{fill:url(#SVGID_4_);}
	.st59{fill:url(#SVGID_5_);}
	.st60{fill:url(#SVGID_6_);}
	.st61{fill:url(#SVGID_7_);}
	.st62{fill:url(#SVGID_8_);}
	.st63{fill:url(#SVGID_9_);}
	.st64{fill:url(#SVGID_10_);}
	.st65{fill:url(#SVGID_11_);}
	.st66{fill:url(#SVGID_12_);}
	.st67{fill:url(#SVGID_13_);}
	.st68{fill:url(#SVGID_14_);}
	.st69{fill:url(#SVGID_15_);}
	.st70{fill:url(#SVGID_16_);}
	.st71{fill:url(#SVGID_17_);}
	.st72{fill:url(#SVGID_18_);}
	.st73{fill:url(#SVGID_19_);}
	.st74{fill:url(#SVGID_20_);}
	.st75{fill:url(#SVGID_21_);}
	.st76{fill:url(#SVGID_22_);}
	.st77{fill:url(#SVGID_23_);}
	.st78{fill:url(#SVGID_24_);}
	.st79{fill:url(#SVGID_25_);}
	.st80{fill:url(#SVGID_26_);}
	.st81{fill:url(#SVGID_27_);}
	.st82{fill:url(#SVGID_28_);}
	.st83{fill:#B186B2;}
	.st84{fill:#DDC3DC;stroke:#C18DC9;stroke-miterlimit:10;}
	.st85{opacity:0.3;fill:#FFFFFF;}
	.st86{fill:url(#SVGID_29_);}
	.st87{fill:url(#SVGID_30_);}
</style>
<g>
	<g>
		<path class="st1" d="M148.5,113.7c0,0-20.9-15.6-22.2,6.6l-4.5,30.8c-0.6,3.9-1.6,7.7-3.2,11.2c-4.2,9.2-9.9,11.6-21.7,10.4
			c-11.8,1.2-17.5-1.2-21.7-10.4c-1.6-3.5-2.7-7.3-3.2-11.2l-4.5-30.6c-1.4-11.3-15.1-15.5-22.1-6.7c0,0,0,0,0,0
			c-2.5-7.8-0.8-13.6,1.5-17.5c2.3-3.9,6-6.6,10.2-7.9c0,0,22.6-5,28.3,24.7c2.7,14.1,6.2,28.1,9.4,42.1c0.5,2.3,3.7,2.3,4.2,0
			c3.3-14.7,6.6-29.5,10-44.2c0,0,3.2-23.2,24-23c4,0,7.9,1.3,10.9,4C147.6,95.5,151.1,102,148.5,113.7z"/>
		<path class="st1" d="M85.2,186.2c0-4.4,0-8.3,0-12.5c8.1,0,16,0,24.2,0c0,4.1,0,8.1,0,12.5C101.4,186.2,93.5,186.2,85.2,186.2z"/>
		<path class="st29" d="M102.1,52.1c2.7-0.4,4.8,0.3,4.8,4.4c0,4-1.8,4.9-4.6,4.8c-2.6-0.1-4.7-0.3-4.7-4.6
			C97.5,52.5,99.3,51.7,102.1,52.1z"/>
		<path class="st29" d="M101.6,40.4c2.7-0.4,4.8,0.3,4.8,4.4c0,4-1.8,4.9-4.6,4.8c-2.6-0.1-4.7-0.3-4.7-4.6
			C97,40.8,98.8,40,101.6,40.4z"/>
		<path class="st29" d="M90.8,51.9c2.7-0.4,4.8,0.3,4.9,4.5c0,4-1.9,5-4.7,4.9c-2.6-0.1-4.8-0.3-4.8-4.7
			C86.1,52.4,88,51.6,90.8,51.9z"/>
		<path class="st29" d="M102,82.6c-2.9,0.4-4.5-0.9-4.5-4.9c0-4.3,2.3-4.4,4.8-4.5c2.9-0.1,4.6,1.1,4.5,5
			C106.8,82.3,104.7,82.9,102,82.6z"/>
		<path class="st29" d="M91.1,82.9c-3,0.4-4.7-1-4.6-4.9c0.1-4.2,2.2-4.5,4.9-4.6c2.9,0,4.5,1,4.5,5C95.9,82.8,93.7,83,91.1,82.9z"
			/>
		<path class="st29" d="M91,49.7c-2.8,0.4-4.6-0.8-4.5-4.8c0-4.3,2.3-4.6,4.9-4.6c2.8,0,4.6,0.9,4.6,5C95.9,49.8,93.7,49.9,91,49.7z
			"/>
		<path class="st29" d="M91.4,71.6c-2.9,0.4-4.9-0.3-4.9-4.5c0-4.2,2.1-4.6,4.8-4.6c2.6,0,4.7,0.4,4.7,4.7
			C95.9,71.6,93.9,72,91.4,71.6z"/>
		<path class="st29" d="M79.3,51.9c2.7-0.4,4.8,0.3,4.9,4.5c0,4-1.9,5-4.7,4.9c-2.6-0.1-4.8-0.3-4.8-4.7
			C74.6,52.4,76.4,51.6,79.3,51.9z"/>
		<path class="st29" d="M79.6,82.9c-3,0.4-4.7-1-4.6-4.9c0.1-4.2,2.2-4.5,4.9-4.6c2.9,0,4.5,1,4.5,5C84.4,82.8,82.2,83,79.6,82.9z"
			/>
		<path class="st29" d="M79.5,49.7c-2.8,0.4-4.6-0.8-4.5-4.8c0-4.3,2.3-4.6,4.9-4.6c2.8,0,4.6,0.9,4.6,5
			C84.4,49.8,82.2,49.9,79.5,49.7z"/>
		<path class="st29" d="M79.8,71.6C76.9,72,75,71.3,75,67.1c0-4.2,2.1-4.6,4.8-4.6c2.6,0,4.7,0.4,4.7,4.7
			C84.4,71.6,82.3,72,79.8,71.6z"/>
		<path class="st29" d="M102.8,71.5c-3,0.1-5.3,0.2-5.3-4.3c0-4.2,1.9-4.7,4.6-4.7c2.5,0,4.8,0.2,4.8,4.4
			C106.9,71,105.2,72.1,102.8,71.5z"/>
		<path class="st29" d="M113,71.6c-2.6,0.4-4.5-0.4-4.5-4.5c0-4.1,2.1-4.6,4.7-4.5c2.6,0,4.6,0.4,4.6,4.7
			C117.8,71.6,115.6,71.8,113,71.6z"/>
		<path class="st29" d="M113,82.7c-2.6,0.4-4.5-0.4-4.5-4.5c0-4.1,2.1-4.6,4.7-4.5c2.6,0,4.6,0.4,4.6,4.7
			C117.8,82.7,115.6,82.9,113,82.7z"/>
		<path class="st29" d="M102,93.4c-2.9,0.4-4.5-0.9-4.5-4.9c0-4.3,2.3-4.4,4.8-4.5c2.9-0.1,4.6,1.1,4.5,5
			C106.8,93.1,104.7,93.7,102,93.4z"/>
		<path class="st29" d="M91.1,93.7c-3,0.4-4.7-1-4.6-4.9c0.1-4.2,2.2-4.5,4.9-4.6c2.9,0,4.5,1,4.5,5C95.9,93.6,93.7,93.9,91.1,93.7z
			"/>
		<path class="st29" d="M79.6,93.7c-3,0.4-4.7-1-4.6-4.9c0.1-4.2,2.2-4.5,4.9-4.6c2.9,0,4.5,1,4.5,5C84.4,93.6,82.2,93.9,79.6,93.7z
			"/>
		<path class="st29" d="M113,93.5c-2.6,0.4-4.5-0.4-4.5-4.5c0-4.1,2.1-4.6,4.7-4.5c2.6,0,4.6,0.4,4.6,4.7
			C117.8,93.5,115.6,93.7,113,93.5z"/>
		<path class="st29" d="M102,103.7c-2.9,0.4-4.5-0.9-4.5-4.9c0-4.3,2.3-4.4,4.8-4.5c2.9-0.1,4.6,1.1,4.5,5
			C106.8,103.4,104.7,104,102,103.7z"/>
		<path class="st29" d="M91.1,104c-3,0.4-4.7-1-4.6-4.9c0.1-4.2,2.2-4.5,4.9-4.6c2.9,0,4.5,1,4.5,5C95.9,103.9,93.7,104.2,91.1,104z
			"/>
		<path class="st29" d="M78.3,95.9c3.3-2.4,4.8-0.7,6.4,1.6c1.7,2.5,1.9,4.5-1.3,6.8L78.3,95.9z"/>
		<path class="st29" d="M83.8,105.2c2.5-0.9,3.2,0.5,3.9,2.3c0.7,1.9,0.4,3.3-2,4.2L83.8,105.2z"/>
		<path class="st29" d="M107.9,110.6c-2.6-0.7-2.4-2.3-2-4.2c0.5-2,1.4-3,3.9-2.3L107.9,110.6z"/>
		<path class="st29" d="M106.8,116.8c-1.7-0.3-1.8-1.3-1.6-2.5c0.1-1.4,0.6-2.1,2.3-1.8L106.8,116.8z"/>
		<path class="st29" d="M85.9,112.4c1.8-0.2,2,0.8,2.2,2c0.2,1.4-0.1,2.2-1.8,2.4L85.9,112.4z"/>
		<path class="st29" d="M115.3,95.2c-3.3-2.3-4.8-0.6-6.4,1.7c-1.7,2.5-1.8,4.5,1.4,6.8L115.3,95.2z"/>
		<path class="st29" d="M100.3,113c-2.3,0.3-3.6-0.7-3.5-3.9c0-3.4,1.8-3.5,3.8-3.6c2.3-0.1,3.6,0.9,3.6,3.9
			C104.1,112.8,102.4,113.3,100.3,113z"/>
		<path class="st29" d="M92.7,113.3c-2.4,0.3-3.7-0.8-3.6-3.9c0.1-3.3,1.8-3.6,3.9-3.6c2.3,0,3.6,0.8,3.6,4
			C96.5,113.2,94.8,113.4,92.7,113.3z"/>
		<path class="st29" d="M101.5,124.6c-2.6,0.3-4.1-0.8-4-4.4c0-3.9,2.1-4,4.4-4.1c2.7-0.1,4.2,1,4.1,4.5
			C105.9,124.3,103.9,124.8,101.5,124.6z"/>
		<path class="st29" d="M91.6,124.8c-2.7,0.3-4.2-0.9-4.2-4.5c0.1-3.8,2-4.1,4.5-4.1c2.6,0,4.1,0.9,4.1,4.6
			C96,124.8,94,125,91.6,124.8z"/>
		<path class="st29" d="M100.7,133c-2.2,0.3-3.4-0.7-3.4-3.7c0-3.3,1.7-3.3,3.6-3.4c2.2-0.1,3.4,0.8,3.4,3.7
			C104.3,132.8,102.7,133.3,100.7,133z"/>
		<path class="st29" d="M92.5,133.2c-2.2,0.3-3.5-0.7-3.5-3.7c0.1-3.2,1.7-3.4,3.7-3.4c2.2,0,3.4,0.7,3.4,3.8
			C96.1,133.2,94.5,133.4,92.5,133.2z"/>
		<path class="st29" d="M99.5,139.3c-1.6,0.2-2.4-0.5-2.4-2.6c0-2.3,1.2-2.3,2.6-2.4c1.6-0.1,2.4,0.6,2.4,2.6
			C102.1,139.2,101,139.5,99.5,139.3z"/>
		<path class="st29" d="M93.7,139.5c-1.6,0.2-2.5-0.5-2.5-2.6c0-2.2,1.2-2.4,2.6-2.4c1.6,0,2.4,0.5,2.4,2.7
			C96.3,139.4,95.1,139.6,93.7,139.5z"/>
		<path class="st29" d="M94.2,145.6c-1.2,0.1-1.9-0.4-1.8-2c0-1.8,0.9-1.8,2-1.9c1.2-0.1,1.9,0.4,1.9,2.1
			C96.1,145.4,95.3,145.7,94.2,145.6z"/>
		<path class="st29" d="M98.8,145.6c-1.2,0.1-1.9-0.4-1.8-2c0-1.8,0.9-1.8,2-1.9c1.2-0.1,1.9,0.4,1.9,2.1
			C100.7,145.4,99.9,145.7,98.8,145.6z"/>
		<path class="st29" d="M96.6,150.6c-1.2,0.1-1.9-0.4-1.8-2c0-1.8,0.9-1.8,2-1.9c1.2-0.1,1.9,0.4,1.9,2.1
			C98.6,150.5,97.7,150.7,96.6,150.6z"/>
		<path class="st29" d="M96.6,154.9c-1,0.1-1.5-0.3-1.5-1.6c0-1.5,0.8-1.5,1.6-1.5c1,0,1.5,0.4,1.5,1.7
			C98.2,154.8,97.5,155,96.6,154.9z"/>
		<path class="st29" d="M113,60.9c-2.6,0.4-4.5-0.4-4.5-4.5c0-4.1,2.1-4.6,4.7-4.5c2.6,0,4.6,0.4,4.6,4.7
			C117.8,60.9,115.6,61.1,113,60.9z"/>
		<path class="st29" d="M113,49.4c-2.6,0.4-4.5-0.4-4.5-4.5c0-4.1,2.1-4.6,4.7-4.5c2.6,0,4.6,0.4,4.6,4.7
			C117.8,49.4,115.6,49.6,113,49.4z"/>
		<path class="st29" d="M101.6,29c2.7-0.4,4.8,0.3,4.8,4.4c0,4-1.8,4.9-4.6,4.8c-2.6-0.1-4.7-0.3-4.7-4.6
			C97,29.5,98.8,28.7,101.6,29z"/>
		<path class="st29" d="M91,38.4c-2.8,0.4-4.6-0.8-4.5-4.8c0-4.3,2.3-4.6,4.9-4.6c2.8,0,4.6,0.9,4.6,5C95.9,38.5,93.7,38.6,91,38.4z
			"/>
		<path class="st29" d="M79.5,38.4c-2.8,0.4-4.6-0.8-4.5-4.8c0-4.3,2.3-4.6,4.9-4.6c2.8,0,4.6,0.9,4.6,5
			C84.4,38.5,82.2,38.6,79.5,38.4z"/>
		<path class="st29" d="M84.5,27.8c-2.8,0.4-4.6-0.8-4.5-4.8c0-4.3,2.3-4.6,4.9-4.6c2.8,0,4.6,0.9,4.6,5
			C89.4,28,87.1,28.1,84.5,27.8z"/>
		<path class="st29" d="M96,27.4c-2.8,0.4-4.6-0.8-4.5-4.8c0-4.3,2.3-4.6,4.9-4.6c2.8,0,4.6,0.9,4.6,5C100.9,27.6,98.6,27.7,96,27.4
			z"/>
		<path class="st29" d="M102.1,17.4c-2.8,0.4-4.6-0.8-4.5-4.8c0-4.3,2.3-4.6,4.9-4.6c2.8,0,4.6,0.9,4.6,5
			C107,17.5,104.8,17.6,102.1,17.4z"/>
		<path class="st29" d="M91.3,17c-2.8,0.4-4.6-0.8-4.5-4.8c0-4.3,2.3-4.6,4.9-4.6c2.8,0,4.6,0.9,4.6,5C96.2,17.1,94,17.2,91.3,17z"
			/>
		<path class="st29" d="M108.8,27.3c-2.8,0.4-4.6-0.8-4.5-4.8c0-4.3,2.3-4.6,4.9-4.6c2.8,0,4.6,0.9,4.6,5
			C113.7,27.5,111.5,27.6,108.8,27.3z"/>
		<path class="st29" d="M113,38.1c-2.6,0.4-4.5-0.4-4.5-4.5c0-4.1,2.1-4.6,4.7-4.5c2.6,0,4.6,0.4,4.6,4.7
			C117.8,38.1,115.6,38.3,113,38.1z"/>
	</g>
	<path class="st30" d="M147,103.2c0-0.1,0-0.1-0.1-0.2c-1.3-5.3-5-9.1-9.7-10.9c-7.1-2.7-15.2,0.2-19.5,6.6
		c-4.7,6.8-7.8,20.5-13.7,48.3c-0.2,1.2-0.4,2.3-0.6,3.5c-0.5,3.1-2.2,11.6-7.4,11.5c-5.4-0.1-9-20-10.4-28.9
		c-0.6-3.6-1.3-7.1-2.1-10.6c-3.1-12.7-8.5-31-20.9-31.1c-14.7-0.1-17.3,15.2-17.3,15.2"/>
	<path class="st30" d="M144.2,107.4c0-0.1,0-0.2-0.1-0.2"/>
	<path class="st30" d="M52.4,107c0,0,8.8-11.9,16.8-2.3c9.2,11,9.7,37.1,12.5,51.5c0,0,3.7,15.8,11.7,16.3
		c9.1,0.5,15.1,1.8,18.9-16.2c3-14.4,5-39.4,12.7-51c7.9-12,19.5,2.9,19.5,2.9"/>
	<path class="st30" d="M146.6,105.5c0,0-11.4-16-22.5-6.8c-2.9,2.4-4.8,5.7-5.8,9.3l-11.8,48.2c-0.1,0.3-0.2,0.7-0.3,1
		c-0.8,3.6-4.9,11.5-10.6,11.3c-6.3-0.1-10.6-21.4-12.2-30.9c-0.6-3.8-1.5-7.6-2.5-11.4c-3.6-13.6-7.5-28.4-15.9-30.8
		C53.3,92.2,48.6,106,48.6,106"/>
</g>
</svg>
