<?xml version="1.0" encoding="utf-8"?>
<!-- Generator: Adobe Illustrator 24.0.1, SVG Export Plug-In . SVG Version: 6.00 Build 0)  -->
<svg version="1.1" id="图层_1" xmlns="http://www.w3.org/2000/svg" xmlns:xlink="http://www.w3.org/1999/xlink" x="0px" y="0px"
	 viewBox="0 0 200 200" style="enable-background:new 0 0 200 200;" xml:space="preserve">
<style type="text/css">
	.st0{fill:#995E5E;}
	.st1{fill:#2C9A5C;}
	.st2{fill:#FFFFFF;}
	.st3{fill:#A59D92;}
	.st4{fill:#FFFAD2;}
	.st5{fill:#FFE600;}
	.st6{fill:#FFEC64;}
	.st7{fill:#97CCA1;}
	.st8{fill:#52AF78;}
	.st9{opacity:0.15;fill:#E7F2E9;}
	.st10{fill:#5FC187;}
	.st11{fill:#97B7A2;}
	.st12{opacity:0.15;fill:#D8EFDF;}
	.st13{fill:#FFDC97;}
	.st14{opacity:0.19;fill:#E27C37;}
	.st15{opacity:0.6;fill:#DD7F3E;}
	.st16{fill:#DD9A68;}
	.st17{fill:#9B2C00;}
	.st18{fill:#DDAD6F;}
	.st19{fill:#DDA036;}
	.st20{fill:#E8D7B8;}
	.st21{fill:#FFD400;}
	.st22{fill:#52A072;}
	.st23{fill:#C0DB4B;}
	.st24{fill:#FFC94F;}
	.st25{fill:#B59B78;}
	.st26{fill:#9BD359;}
	.st27{fill:#8FD16B;}
	.st28{fill:#66C66D;}
	.st29{fill:#FFDA00;}
	.st30{fill:none;stroke:#C0DB4B;stroke-width:0.25;stroke-miterlimit:10;}
	.st31{fill:#969696;}
	.st32{fill:#3B7251;}
	.st33{fill:#E03854;}
	.st34{opacity:0.5;fill:#F797A8;}
	.st35{opacity:0.3;fill:#F797A8;}
	.st36{fill:#5CC686;}
	.st37{fill:#AF9579;}
	.st38{fill:#EABE7F;}
	.st39{fill:#D8B280;}
	.st40{fill:#C69A6A;}
	.st41{fill:#9B9FA5;}
	.st42{fill:#DBCFBD;}
	.st43{fill:#BFB5AF;}
	.st44{fill:#E0D489;}
	.st45{fill:#F2CE8F;}
	.st46{fill:#DDA68C;}
	.st47{fill:url(#SVGID_1_);}
	.st48{fill:#98D0E2;}
	.st49{fill:#C4BCCE;}
	.st50{fill:#DCD6E5;}
	.st51{fill:#C1D5E5;}
	.st52{fill:#BABBBC;}
	.st53{fill:#89CCC4;}
	.st54{opacity:0.41;fill:#99E0C3;}
	.st55{fill:url(#SVGID_2_);}
	.st56{fill:url(#SVGID_3_);}
	.st57{opacity:0.57;fill:#FFFFFF;}
	.st58{fill:url(#SVGID_4_);}
	.st59{fill:url(#SVGID_5_);}
	.st60{fill:url(#SVGID_6_);}
	.st61{fill:url(#SVGID_7_);}
	.st62{fill:url(#SVGID_8_);}
	.st63{fill:url(#SVGID_9_);}
	.st64{fill:url(#SVGID_10_);}
	.st65{fill:url(#SVGID_11_);}
	.st66{fill:url(#SVGID_12_);}
	.st67{fill:url(#SVGID_13_);}
	.st68{fill:url(#SVGID_14_);}
	.st69{fill:url(#SVGID_15_);}
	.st70{fill:url(#SVGID_16_);}
	.st71{fill:url(#SVGID_17_);}
	.st72{fill:url(#SVGID_18_);}
	.st73{fill:url(#SVGID_19_);}
	.st74{fill:url(#SVGID_20_);}
	.st75{fill:url(#SVGID_21_);}
	.st76{fill:url(#SVGID_22_);}
	.st77{fill:url(#SVGID_23_);}
	.st78{fill:url(#SVGID_24_);}
	.st79{fill:url(#SVGID_25_);}
	.st80{fill:url(#SVGID_26_);}
	.st81{fill:url(#SVGID_27_);}
	.st82{fill:url(#SVGID_28_);}
	.st83{fill:#B186B2;}
	.st84{fill:#DDC3DC;stroke:#C18DC9;stroke-miterlimit:10;}
	.st85{opacity:0.3;fill:#FFFFFF;}
	.st86{fill:url(#SVGID_29_);}
	.st87{fill:url(#SVGID_30_);}
</style>
<path class="st46" d="M82.7,142.7c0.2,0.2,0.4,0.4,0.4,0.6c0.7,2.1,1.3,4.1,3.9,6.9c2.7,3,3.1,2.1,3.1,2.1s0.4,0.9,0,2.5
	c-0.4,1.6-3.8,6-7.4,11.2c-3.4,5-7.9,9.6-9.6,11.1c-1.7,1.5-5.4,2.4-9.7,3.7c-4.5,1.5-8.7,2.1-10.9,2.9c-2.3,0.9-2.7,0.4-5.5,1.1
	c-2.8,0.7-4.7,1.5-2.8,1.5c1.9,0,7.8-0.1,14.7-1.7c6.9-1.6,13.8-3.8,13.8-3.8s-0.3,2.9-5.7,5.2c-5.3,2.3-6.5,2.4-6.5,2.4
	s4.1,0.3,5.9,0.1c1.8-0.2,4.6-1.7,8.3-2.7c3.7-1,5.3-6.5,5.3-6.5s0.8,2.3,2.7,6.5c1.8,4.2,2,1,2,1s-0.1-1.7-0.4-3.8
	c-0.4-2.1-1.7-6.1-1.3-7.5c0.4-1.4,9.5-9.5,12-13.8c2.5-4.3,4.2-5.3,4.9-7.3c0.7-2,0.6-4.6,0.6-4.6s0,0,0.7-0.9c0.4-0.6,1.9-2,3-3
	c0.7-0.6,1.7-0.6,2.4,0c0.6,0.6,1.6,1.4,2.8,2.5c2.7,2.3,3.9,1.7,5.3,2.9c1.4,1.2,3.7,3.5,3.9,4.1c0.2,0.6,4.7,0.3,4.5,4.9
	c-0.3,4.6,1.1,11.9-1.2,17.2c-2.3,5.3-6.8,4-9.8,5.3c-3,1.3-8,1.8-8,1.8s1.3,0.7,3.1,0.5c1.8-0.2,7.5-1.3,7.5-1.3s-1,1-2.7,1.6
	c-1.7,0.7-6.1,1.4-10.8,3.1c-4.7,1.7-10.1,4-12.1,4.7c-2,0.7,7.4-1.9,9.9-2.2c2.6-0.3,13.4-2,18.2-4c4.8-2,5.5-4.6,5.5-4.6
	s0,0,0.1,0.7c0.1,0.7-0.1,2.7-0.5,6.1c-0.4,3.4,1.1,3.2,1.1,3.2s0.7-1,0.9-2.5c0.2-1.5,4-8.1,3.7-10.3c-0.3-2.3,0.3-17.1,0.5-20.4
	c0.2-3.3-2.6-11.1-2-14.2c0.1-0.6,0.2-1.3,0.3-2c0.8-5.8,4.4-11.2,10.1-14.3c0,0,0.1,0,0.1-0.1c2.6-1.4,4-3.4,4.6-4.4
	c0.3-0.5,0.8-0.7,1.4-0.8c1.9-0.1,6.2-0.7,8.1-2.5c2.6-2.5,0.2-6.8,0.2-6.8s2.6-0.9,3.6-3.2c1-2.3-2.3-2.2-2.3-2.2s1.9-0.2,2.9-2.9
	c1.1-2.7-2.1-7.1-2.1-7.1s12.1,7.7,16.6,5.2c4.5-2.5-0.1-3.3-0.1-3.3s2,0.6,5.5-0.8c3.5-1.5,6.4-5.2,6.4-7.1
	c0.1-1.9-5.4-0.6-5.4-0.6s3.2-1.6,5.9-4.2c2.7-2.6,3.7-7.8,2.9-9.5c-0.9-1.7-8,2.9-8,2.9s3.2-3.1,3.9-6.5c0.7-3.3-1.9-4.4-1.9-4.4
	s2-0.5,3.1-1.4c1.1-1,5.1-5.3,7.1-8c2-2.8,2.9-5.3,1.4-9.5c-1-2.8-3.9-3.8-5.7-4.2c-0.8-0.2-1.4-0.9-1.2-1.7
	c0.6-2.3,1.4-6.6,0.2-9.3c-0.9-2.2-3.2-1.9-4.9-1.1c-1.1,0.4-2.3-0.3-2.3-1.4c0.2-2.1,0.2-4.9-0.5-6.4c-1.2-2.5-5.1-1.7-7.9-0.7
	c0,0,0.1-0.3,0.1-0.7c0.1-1.2,0-3.7-2.3-4.6c-3.1-1.2-4.9,2.2-5.1,0.9c-0.2-1.3-1.9-4.4-4.3-3.2c-2.5,1.2-3.3,3.5-3.7,3.2
	c-0.4-0.3,0.1-5.6,0.3-7c0.2-1.5,1.3-2.7,1-4.5c-0.3-1.8-4.1,0.2-4.6,0.5c-0.5,0.3-0.7-0.5-0.3-2.5c0.5-2,1.5-3.3,0.6-4.2
	c-0.9-0.9-3.4,1.6-6.6,5.4c-3.2,3.9-5.7,12-7.6,19c-1.9,7-0.2,18.4-0.2,20.7c0,2.3,1.4,5.9,2.8,8.8c1.4,2.9,1.8,3.4,0.9,5.6
	c-0.8,2.1-5.2,4.4-9.8,5.2c-4.6,0.7-29.8,7.8-35.5,6.8C88.4,75.1,79,75.4,75.3,74c-3.7-1.4-5-9.3-6.3-13.1c-1.2-3.7-5.5-9-11.4-17
	c-5.8-7.9-12.6-13.3-16-15.6c-3.4-2.3-6.1-3.4-6.1-3.4s0,0,0.7-0.9c0.7-0.9,2.2-0.7,2.2-1.9c0-1.2,0.2-5-0.6-6.1
	c-0.8-1.1-1-1.6-2.8-2.6c-1.8-1-2.9,1.2-3.7,1.3c-0.8,0.1-0.4-1.3-1.4-2.4c-0.9-1.1-1.5-3.6-1.9-3.9c-1.9-1.4-1.3,0.7-1.6,2.5
	c-0.4,1.7-0.1,4-1.8,3.5c-1.7-0.5-2.8-5.5-4.5-5.7c-0.6-0.1,0,2.2,0.1,3.6c0.2,1.4,0,5.1-1.4,4.3c-1.4-0.8-0.8-4-2.5-4.8
	c-1-0.5-0.7,3.2-0.9,4.4c-0.1,1.2-1.7,2.1-2,4.1c-0.3,2,0.9,5.7-1.6,7.7c-2.5,2-3.2,3.3-3,4.4c0.1,1.2,1.6,1.8,1.6,1.8
	s0.3,2.6-1.3,3.3c-1.6,0.7-0.8,2.7-0.8,2.7s2.2-0.2,3.5-0.4c1.3-0.1,2.2,0,3.2-0.3c1-0.4,1.8,1.5,1.8,1.5s-0.7,0.8-2.4,2.1
	c-1.6,1.3-0.3,2.4,0,4.7c0.3,2.3,5.7,5.8,7.5,6.7c1.1,0.5,2.4,0.5,3.3,0.4c0.6-0.1,1.2,0.2,1.6,0.7c0.6,0.9,1.5,2.6,2.3,5.4
	c1.2,4.4,0.5,5.7-0.7,12.8c-1.2,7-1.6,10.8-1.9,18.7c0,0,0,0.1,0,0.1C26.8,93.7,28.9,120,48,124c11,2.3,20.9,7.4,29.1,14.1
	L82.7,142.7z"/>
</svg>
