<?xml version="1.0" encoding="utf-8"?>
<!-- Generator: Adobe Illustrator 24.0.1, SVG Export Plug-In . SVG Version: 6.00 Build 0)  -->
<svg version="1.1" id="图层_1" xmlns="http://www.w3.org/2000/svg" xmlns:xlink="http://www.w3.org/1999/xlink" x="0px" y="0px"
	 viewBox="0 0 200 200" style="enable-background:new 0 0 200 200;" xml:space="preserve">
<style type="text/css">
	.st0{fill:#995E5E;}
	.st1{fill:#2C9A5C;}
	.st2{fill:#FFFFFF;}
	.st3{fill:#A59D92;}
	.st4{fill:#FFFAD2;}
	.st5{fill:#FFE600;}
	.st6{fill:#FFEC64;}
	.st7{fill:#97CCA1;}
	.st8{fill:#52AF78;}
	.st9{opacity:0.15;fill:#E7F2E9;}
	.st10{fill:#5FC187;}
	.st11{fill:#97B7A2;}
	.st12{opacity:0.15;fill:#D8EFDF;}
	.st13{fill:#FFDC97;}
	.st14{opacity:0.19;fill:#E27C37;}
	.st15{opacity:0.6;fill:#DD7F3E;}
	.st16{fill:#DD9A68;}
	.st17{fill:#9B2C00;}
	.st18{fill:#DDAD6F;}
	.st19{fill:#DDA036;}
	.st20{fill:#E8D7B8;}
	.st21{fill:#FFD400;}
	.st22{fill:#52A072;}
	.st23{fill:#C0DB4B;}
	.st24{fill:#FFC94F;}
	.st25{fill:#B59B78;}
	.st26{fill:#9BD359;}
	.st27{fill:#8FD16B;}
	.st28{fill:#66C66D;}
	.st29{fill:#FFDA00;}
	.st30{fill:none;stroke:#C0DB4B;stroke-width:0.25;stroke-miterlimit:10;}
	.st31{fill:#969696;}
	.st32{fill:#3B7251;}
	.st33{fill:#E03854;}
	.st34{opacity:0.5;fill:#F797A8;}
	.st35{opacity:0.3;fill:#F797A8;}
	.st36{fill:#5CC686;}
	.st37{fill:#AF9579;}
	.st38{fill:#EABE7F;}
	.st39{fill:#D8B280;}
	.st40{fill:#C69A6A;}
	.st41{fill:#9B9FA5;}
	.st42{fill:#DBCFBD;}
	.st43{fill:#BFB5AF;}
	.st44{fill:#E0D489;}
	.st45{fill:#F2CE8F;}
	.st46{fill:#DDA68C;}
	.st47{fill:url(#SVGID_1_);}
	.st48{fill:#98D0E2;}
	.st49{fill:#C4BCCE;}
	.st50{fill:#DCD6E5;}
	.st51{fill:#C1D5E5;}
	.st52{fill:#BABBBC;}
	.st53{fill:#89CCC4;}
	.st54{opacity:0.41;fill:#99E0C3;}
	.st55{fill:url(#SVGID_2_);}
	.st56{fill:url(#SVGID_3_);}
	.st57{opacity:0.57;fill:#FFFFFF;}
	.st58{fill:url(#SVGID_4_);}
	.st59{fill:url(#SVGID_5_);}
	.st60{fill:url(#SVGID_6_);}
	.st61{fill:url(#SVGID_7_);}
	.st62{fill:url(#SVGID_8_);}
	.st63{fill:url(#SVGID_9_);}
	.st64{fill:url(#SVGID_10_);}
	.st65{fill:url(#SVGID_11_);}
	.st66{fill:url(#SVGID_12_);}
	.st67{fill:url(#SVGID_13_);}
	.st68{fill:url(#SVGID_14_);}
	.st69{fill:url(#SVGID_15_);}
	.st70{fill:url(#SVGID_16_);}
	.st71{fill:url(#SVGID_17_);}
	.st72{fill:url(#SVGID_18_);}
	.st73{fill:url(#SVGID_19_);}
	.st74{fill:url(#SVGID_20_);}
	.st75{fill:url(#SVGID_21_);}
	.st76{fill:url(#SVGID_22_);}
	.st77{fill:url(#SVGID_23_);}
	.st78{fill:url(#SVGID_24_);}
	.st79{fill:url(#SVGID_25_);}
	.st80{fill:url(#SVGID_26_);}
	.st81{fill:url(#SVGID_27_);}
	.st82{fill:url(#SVGID_28_);}
	.st83{fill:#B186B2;}
	.st84{fill:#DDC3DC;stroke:#C18DC9;stroke-miterlimit:10;}
	.st85{opacity:0.3;fill:#FFFFFF;}
	.st86{fill:url(#SVGID_29_);}
	.st87{fill:url(#SVGID_30_);}
</style>
<g>
	<path class="st43" d="M126.7,54.7c0-6.3-7.2-11.7-17.5-14.1c0,0,0,0,0-0.1c0-3.5-5.5-6.4-12.2-6.4c-6.8,0-12.2,2.8-12.2,6.4
		c0,0,0,0,0,0.1c-10.3,2.4-17.5,7.8-17.5,14.1c0,5.5,5.6,10.4,13.9,13.1c0,0,0,0,0,0c0,3.2,7,5.9,15.6,5.9c8.6,0,15.5-2.6,15.6-5.8
		C121,65.2,126.7,60.3,126.7,54.7z"/>
	<path class="st43" d="M98.9,61.6c0,0-22.5-2.3-24.5,10.1c-2.1,12.4-2.1,18.7-2.1,18.7s-44.8,58.9-26.8,79.6S88,147.1,88,147.1
		s11.6,16.2,22.3,0c0,0,30,50.9,42.4,23.8c12.4-27.1-30.8-85.9-30.8-85.9s2.4-19.2-8.4-21.7C102.8,60.8,98.9,61.6,98.9,61.6z"/>
	<path class="st43" d="M139.2,44.3c-0.5-0.1-1,0.1-1.2,0.6c-1.6,3.8-8.2,18.9-12.5,21.3c-4.1,2.3-0.1,2.1,1.3,2
		c0.3,0,0.6-0.2,0.7-0.4c1.7-2.4,10.7-15.3,12.4-22.1C140.1,45.1,139.8,44.5,139.2,44.3L139.2,44.3z"/>
	<path class="st43" d="M125.2,65.3l-9.2,11l2.4,4.9c0,0,8.3-6.6,10-14.1c0.2-0.7,0-1.4-0.5-1.9v0C127.1,64.4,125.9,64.5,125.2,65.3z
		"/>
	<path class="st43" d="M132,85.9l-14.4-0.4l-2,5.4c0,0,10.5,2.6,17.2-1.1c0.6-0.3,1-1,1.1-1.8l0,0C133.9,86.9,133.1,85.9,132,85.9z"
		/>
	<path class="st43" d="M84.9,26.2c0,0,0.7,9.1,7.7,14.4"/>
	<path class="st43" d="M109.5,26.2c0,0-0.7,9.1-7.7,14.4"/>
	<path class="st43" d="M138.4,45.3c0,0,17.2-17.4,21.7-22C164,19.5,144.3,44.4,138.4,45.3z"/>
	<g>
		<path class="st43" d="M142.5,77.4c0,0,35.2-10.2,44.5-12.9C194.8,62.3,151.1,80.7,142.5,77.4z"/>
	</g>
	<path class="st43" d="M144.5,76.3c-0.4-0.3-0.9-0.3-1.2,0c-1.8,2.3-10.5,8.5-13.6,11.5c-0.7,0.6-0.3,1.6,1,2.1
		c0.3,0.1,0.5,0.1,0.7,0c1.8-1.2,11.4-7.6,13.6-12.2C145.2,77.3,145,76.7,144.5,76.3L144.5,76.3z"/>
	<g>
		<path class="st43" d="M66.8,87.6l14.4-0.4l2,5.4c0,0-10.5,2.6-17.2-1.1c-0.6-0.3-1-1-1.1-1.8v0C64.8,88.6,65.7,87.6,66.8,87.6z"/>
		<g>
			<path class="st43" d="M56.2,79.1c0,0-35.2-10.2-44.5-12.9C3.9,64,47.6,82.4,56.2,79.1z"/>
			<g>
				<path class="st43" d="M10.2,67.3c0.9-0.1,1.6-0.7,1.6-0.8c0-0.2-0.9-0.5-1.8-0.4s-1.5,0.7-1.5,0.8C8.5,67.1,9.3,67.4,10.2,67.3z
					"/>
				<path class="st43" d="M10.2,65.6c0.6,0.7,1.4,1,1.5,0.9c0.1-0.1,0-1-0.6-1.7c-0.6-0.7-1.4-1.1-1.6-1
					C9.5,63.9,9.6,64.9,10.2,65.6z"/>
			</g>
		</g>
		<path class="st43" d="M54.3,78c0.4-0.3,0.9-0.3,1.2,0c1.8,2.3,10.5,8.5,13.6,11.5c0.7,0.6,0.3,1.6-1,2.1c-0.3,0.1-0.5,0.1-0.7,0
			c-1.8-1.2-11.4-7.6-13.6-12.2C53.5,78.9,53.8,78.3,54.3,78L54.3,78z"/>
	</g>
	<g>
		<path class="st43" d="M80.4,170.2l-8.2-12.7l3.1-4.8c0,0,7.8,8,8.7,16c0.1,0.8-0.2,1.5-0.8,1.9l0,0
			C82.2,171.4,81,171.2,80.4,170.2z"/>
		<path class="st43" d="M82.8,169.2c-0.2,2.2-6.2,12.6-10.3,15.4c-0.4,0.2-1.1,1.1-1.5,0.7c-0.5-0.5,0.7-2,0.7-2
			c1.9-2.2,6.8-11.4,9.3-15.1C80.9,168.2,83.1,166.4,82.8,169.2z"/>
	</g>
	<g>
		<path class="st43" d="M115.2,171.8l8.2-12.7l-3.1-4.8c0,0-7.8,8-8.7,16c-0.1,0.8,0.2,1.5,0.8,1.9h0
			C113.4,173,114.6,172.7,115.2,171.8z"/>
		<path class="st43" d="M114.2,169.5c2,0.7,10.4,8.9,12.2,13.7c0.2,0.4,0.8,1.4,0.3,1.8c-0.5,0.4-1.7-1.1-1.7-1.1
			c-1.7-2.5-9.2-9.3-12.1-12.5C112.9,171.3,111.6,168.6,114.2,169.5z"/>
		<g>
			<path class="st43" d="M127.9,184c-0.9-0.3-1.7-0.1-1.8,0s0.6,0.9,1.5,1.2c0.9,0.3,1.6,0.1,1.7-0.1
				C129.3,184.9,128.7,184.3,127.9,184z"/>
			<path class="st43" d="M127.2,185.5c-0.3-0.9-0.9-1.5-1.1-1.5c-0.2,0-0.4,0.9-0.1,1.8c0.3,0.9,0.9,1.6,1.1,1.6
				C127.2,187.4,127.4,186.4,127.2,185.5z"/>
		</g>
	</g>
	<g>
		<path class="st43" d="M55.2,43.4c0.5-0.1,0.9,0.1,1.1,0.6c1.5,3.6,7.5,18.2,11.5,20.6c3.8,2.3,0,2-1.3,1.9c-0.3,0-0.5-0.2-0.7-0.4
			c-1.6-2.3-9.9-14.9-11.4-21.4C54.3,44.1,54.7,43.5,55.2,43.4L55.2,43.4z"/>
		<path class="st43" d="M68.2,63.7l8.6,10.7l-2.4,4.6c0,0-7.8-6.5-9.2-13.7c-0.1-0.7,0.1-1.4,0.5-1.8h0
			C66.4,62.8,67.5,62.9,68.2,63.7z"/>
		<path class="st43" d="M56,44.4c0,0-16-17-20.3-21.5C32.1,19.1,50.4,43.3,56,44.4z"/>
		<g>
			<path class="st43" d="M34,22.7c0.8,0.4,1.6,0.3,1.6,0.2c0.1-0.1-0.5-0.9-1.2-1.2c-0.8-0.4-1.5-0.2-1.5-0.1
				C32.8,21.7,33.2,22.3,34,22.7z"/>
			<path class="st43" d="M34.7,21.4c0.1,0.9,0.7,1.5,0.8,1.4c0.1,0,0.4-0.8,0.3-1.6c-0.1-0.9-0.7-1.6-0.8-1.6S34.6,20.5,34.7,21.4z"
				/>
		</g>
	</g>
	<g>
		<path class="st43" d="M160.5,21.5c-0.4,0.9-0.3,1.8-0.2,1.8c0.1,0.1,0.8-0.5,1.2-1.4s0.2-1.7,0.1-1.7
			C161.5,20.1,160.8,20.6,160.5,21.5z"/>
		<path class="st43" d="M161.7,22.4c-0.9,0.2-1.4,0.8-1.4,0.9c0,0.2,0.7,0.5,1.6,0.3s1.5-0.7,1.5-0.9
			C163.4,22.6,162.6,22.2,161.7,22.4z"/>
	</g>
	<g>
		<path class="st43" d="M188.1,62.8c-0.6,0.7-0.9,1.6-0.7,1.8c0.1,0.1,1-0.2,1.6-0.9c0.6-0.7,0.8-1.6,0.7-1.7
			C189.5,61.9,188.7,62.1,188.1,62.8z"/>
		<path class="st43" d="M189,64.2c-0.9-0.2-1.7,0.2-1.7,0.4s0.6,0.7,1.5,0.9c0.9,0.2,1.8-0.2,1.8-0.3C190.6,65,189.9,64.3,189,64.2z
			"/>
	</g>
	<g>
		<path class="st43" d="M72,186.3c0.1-1-0.2-1.9-0.4-1.9c-0.2,0-0.7,0.8-0.8,1.8c-0.1,1,0.2,1.8,0.4,1.8
			C71.4,188,71.9,187.3,72,186.3z"/>
		<path class="st43" d="M70.5,185.9c0.8-0.4,1.2-1.2,1.1-1.4c-0.1-0.2-0.9-0.2-1.7,0.2c-0.8,0.4-1.3,1.3-1.3,1.4
			C68.7,186.2,69.7,186.3,70.5,185.9z"/>
	</g>
</g>
</svg>
