<?xml version="1.0" encoding="utf-8"?>
<!-- Generator: Adobe Illustrator 24.0.1, SVG Export Plug-In . SVG Version: 6.00 Build 0)  -->
<svg version="1.1" id="图层_1" xmlns="http://www.w3.org/2000/svg" xmlns:xlink="http://www.w3.org/1999/xlink" x="0px" y="0px"
	 viewBox="0 0 200 200" style="enable-background:new 0 0 200 200;" xml:space="preserve">
<style type="text/css">
	.st0{fill:#995E5E;}
	.st1{fill:#2C9A5C;}
	.st2{fill:#FFFFFF;}
	.st3{fill:#A59D92;}
	.st4{fill:#FFFAD2;}
	.st5{fill:#FFE600;}
	.st6{fill:#FFEC64;}
	.st7{fill:#97CCA1;}
	.st8{fill:#52AF78;}
	.st9{opacity:0.15;fill:#E7F2E9;}
	.st10{fill:#5FC187;}
	.st11{fill:#97B7A2;}
	.st12{opacity:0.15;fill:#D8EFDF;}
	.st13{fill:#FFDC97;}
	.st14{opacity:0.19;fill:#E27C37;}
	.st15{opacity:0.6;fill:#DD7F3E;}
	.st16{fill:#DD9A68;}
	.st17{fill:#9B2C00;}
	.st18{fill:#DDAD6F;}
	.st19{fill:#DDA036;}
	.st20{fill:#E8D7B8;}
	.st21{fill:#FFD400;}
	.st22{fill:#52A072;}
	.st23{fill:#C0DB4B;}
	.st24{fill:#FFC94F;}
	.st25{fill:#B59B78;}
	.st26{fill:#9BD359;}
	.st27{fill:#8FD16B;}
	.st28{fill:#66C66D;}
	.st29{fill:#FFDA00;}
	.st30{fill:none;stroke:#C0DB4B;stroke-width:0.25;stroke-miterlimit:10;}
	.st31{fill:#969696;}
	.st32{fill:#3B7251;}
	.st33{fill:#E03854;}
	.st34{opacity:0.5;fill:#F797A8;}
	.st35{opacity:0.3;fill:#F797A8;}
	.st36{fill:#5CC686;}
	.st37{fill:#AF9579;}
	.st38{fill:#EABE7F;}
	.st39{fill:#D8B280;}
	.st40{fill:#C69A6A;}
	.st41{fill:#9B9FA5;}
	.st42{fill:#DBCFBD;}
	.st43{fill:#BFB5AF;}
	.st44{fill:#E0D489;}
	.st45{fill:#F2CE8F;}
	.st46{fill:#DDA68C;}
	.st47{fill:url(#SVGID_1_);}
	.st48{fill:#98D0E2;}
	.st49{fill:#C4BCCE;}
	.st50{fill:#DCD6E5;}
	.st51{fill:#C1D5E5;}
	.st52{fill:#BABBBC;}
	.st53{fill:#89CCC4;}
	.st54{opacity:0.41;fill:#99E0C3;}
	.st55{fill:url(#SVGID_2_);}
	.st56{fill:url(#SVGID_3_);}
	.st57{opacity:0.57;fill:#FFFFFF;}
	.st58{fill:url(#SVGID_4_);}
	.st59{fill:url(#SVGID_5_);}
	.st60{fill:url(#SVGID_6_);}
	.st61{fill:url(#SVGID_7_);}
	.st62{fill:url(#SVGID_8_);}
	.st63{fill:url(#SVGID_9_);}
	.st64{fill:url(#SVGID_10_);}
	.st65{fill:url(#SVGID_11_);}
	.st66{fill:url(#SVGID_12_);}
	.st67{fill:url(#SVGID_13_);}
	.st68{fill:url(#SVGID_14_);}
	.st69{fill:url(#SVGID_15_);}
	.st70{fill:url(#SVGID_16_);}
	.st71{fill:url(#SVGID_17_);}
	.st72{fill:url(#SVGID_18_);}
	.st73{fill:url(#SVGID_19_);}
	.st74{fill:url(#SVGID_20_);}
	.st75{fill:url(#SVGID_21_);}
	.st76{fill:url(#SVGID_22_);}
	.st77{fill:url(#SVGID_23_);}
	.st78{fill:url(#SVGID_24_);}
	.st79{fill:url(#SVGID_25_);}
	.st80{fill:url(#SVGID_26_);}
	.st81{fill:url(#SVGID_27_);}
	.st82{fill:url(#SVGID_28_);}
	.st83{fill:#B186B2;}
	.st84{fill:#DDC3DC;stroke:#C18DC9;stroke-miterlimit:10;}
	.st85{opacity:0.3;fill:#FFFFFF;}
	.st86{fill:url(#SVGID_29_);}
	.st87{fill:url(#SVGID_30_);}
</style>
<g>
	<path class="st1" d="M96,160c-5.7,1.5-14-3.3-14.2-8.3c-0.2-2.9,0.7-5.6,1.2-8.3c0.5-2.9,0.6-5.7-0.9-8.7
		C82.1,134.7,101.5,150.9,96,160z"/>
	<path class="st1" d="M103.9,158.8c-1.5-3.2-1.6-5.5,8-14.6c9.3-1,18.1-20.4,18.1-20.4c-2.4,2.2-5.2,2.9-8.1,3.2
		c-2.8,0.3-5.6,0.2-8.4,1.1c-4,1.4-6.3,8.4-5,13.6l-6.9,7.8c-0.7-3.4-0.4-3.7-0.4-7.2l0.1-26.9l-3.7,0l-0.1,26.9
		c0,5.7,0.9,11.3,2.6,16.6l0.2,0.7c2.1,6.2,5.2,12.1,9.4,17.2l7.7,9.5l2.9-2.3l-7.7-9.5C108.7,169.8,105.8,164.5,103.9,158.8z"/>
	<g>
		<path class="st31" d="M145,57l-4.5-0.6l4.2,1.8c11.6,5,17.9,12.6,19.1,23.3c1.3,11.5-3,20.6-12.8,26.8l-4.4,2.8l4.9-1.7
			c12.5-4.3,18.8-14.7,17.2-28.5C167.2,67.3,155.4,58.4,145,57z"/>
		<path class="st31" d="M127.5,103c-3.9,4.6-8.8,7.5-15,8.8c-5.4,1.2-11.4,1.4-18.9,0.8c-9.1-0.8-15.7-3.7-20.9-9.3l-0.9,0.8
			l0.2,0.4c0.2,0.3,0.4,0.6,0.6,0.8c4.3,5.7,10.4,9.2,18.7,10.7c3,0.5,6.1,0.8,9.3,0.8c1.8,0,3.5-0.1,5.3-0.2
			c5.5-0.5,9.6-1.6,13.3-3.5c4-2.1,7.2-5.1,9.7-9.4l0.8-1.3l-1.6,0.5C127.9,102.8,127.7,102.9,127.5,103z"/>
		<path class="st31" d="M101.4,47.4l-5-3.2c-6.3-4-12.4-5.5-18.7-4.4c-7.1,1.2-12.6,7-14.3,12.2l-1.2,3.6l2.3-3.1
			c6.9-9.3,19-12,31.4-7.3L101.4,47.4z"/>
		<path class="st31" d="M122.5,48.9l3.3,4.9l-2.2-5.5c-2.8-6.9-7-11.6-12.7-14.4c-6.5-3.1-14.3-1.5-18.8,1.7L89,37.9l3.7-1.2
			C103.6,33.1,115.1,37.8,122.5,48.9z"/>
		<path class="st31" d="M125.3,73.4l1.2,0c0.7-7.1-1.5-12.9-6.5-17.2l-3.7-3.1l2.8,3.9C123,62.4,125,67.8,125.3,73.4z"/>
		<path class="st31" d="M128.6,39.6l-1.9-0.5l1.2,1.5c0.5,0.6,1.1,1.3,1.6,1.9c1.2,1.4,2.5,2.9,3.6,4.5c1.1,1.6,1.9,3.4,2.8,5.1
			c0.4,0.7,0.7,1.5,1.1,2.2l1.5,2.9l-0.4-3.3C137.5,48.1,132.6,40.7,128.6,39.6z"/>
		<path class="st31" d="M83.3,66.1l0.7,5.7l0.5-5.7c0.4-4.3,1.9-8.1,4.6-11.6l-0.9-0.8C84.4,57.1,82.8,61.3,83.3,66.1z"/>
		<path class="st32" d="M54.1,83.3c1.5,3,1.4,6,0.9,9c-0.5,2.9-1.4,5.7-1.2,8.6c0.3,5.1,8.9,10.1,14.7,8.6
			C74.2,100.1,54.1,83.3,54.1,83.3z"/>
		<path class="st32" d="M148.1,90.7c-0.7-3.8-0.8-7.4,1.1-11.2c0,0-25.2,21-18,32.7c7.4,1.9,18.1-4.3,18.4-10.7
			C149.8,97.8,148.7,94.2,148.1,90.7z"/>
		<path class="st31" d="M174.2,55.4C173,48.2,167,43,162.4,41.5c9.4,7.1,12.3,19.2,7.3,32.2C173.3,68.1,175.2,62,174.2,55.4z"/>
		<path class="st31" d="M47.5,97.1c-0.3-0.1-0.5-0.3-0.8-0.4c-4.8-1.8-8.8-4.3-12.3-7.7c-6.5-6.2-9.6-13.9-9.3-23.2
			c0.3-8.6,4.5-15.6,12.9-21.4c1-0.7,2-1.3,3-1.9l5.9-3.8l-5,1.8c-10.9,3.9-22,13.8-20.6,29.5c1.3,15,11.4,25.8,26.2,28.3l4.3,0.7
			l-3.9-1.9L47.5,97.1z"/>
		<path class="st31" d="M83.2,21.8l0.6,0.2c-0.3,0.3-0.6,0.4-0.9,0.7c-1.6,1.5-3.4,3.3-4.3,5.9l-0.8,2.5l1.8-1.8
			c2.3-2.3,4.8-4.2,7.5-5.9l0.3,0.1l-0.3-0.2c5.5-3.3,11.7-5.2,18.4-5.5c10.2-0.4,18.6,3.4,25.7,11.8l1.8,2.1l-0.7-2.6l0-0.2
			c0-0.2-0.1-0.4-0.2-0.7c-0.7-1.3-1.5-2.5-2.3-3.7l1.2,0c0.1,0,0.1,0,0.2,0c17.4,0,27.8,9.5,29.3,26.7l0.3,3.4l0.9-3.3
			c2.3-8.5-0.3-17.8-6.6-23.5c-7-6.4-17.5-7.1-24.3-4.5l-1.5,0.6c-5.9-7.8-14.3-11.6-24.6-10.8c-7.6,0.6-14.3,3.4-20.1,8.2l-1.2-0.9
			c-0.7-0.6-1.5-1.1-2.4-1.5c-9.1-3.9-18.2-4-27.1-0.3C45.8,22,40.7,28,38.7,36.4l-1.2,5.4l2.4-5C46,23.9,65.3,14.6,83.2,21.8z"/>
	</g>
</g>
</svg>
