<?xml version="1.0" encoding="utf-8"?>
<!-- Generator: Adobe Illustrator 24.0.1, SVG Export Plug-In . SVG Version: 6.00 Build 0)  -->
<svg version="1.1" id="图层_1" xmlns="http://www.w3.org/2000/svg" xmlns:xlink="http://www.w3.org/1999/xlink" x="0px" y="0px"
	 viewBox="0 0 200 200" style="enable-background:new 0 0 200 200;" xml:space="preserve">
<style type="text/css">
	.st0{fill:#A8CBEF;}
	.st1{fill:#965D5D;}
	.st2{fill:#31945A;}
	.st3{fill:#FFFFFF;}
	.st4{fill:#A59D92;}
	.st5{fill:#FCF8D1;}
	.st6{fill:#F4DE26;}
	.st7{fill:#F6E568;}
	.st8{fill:#93C59D;}
	.st9{fill:#53A875;}
	.st10{opacity:0.15;fill:#E6F1E8;}
	.st11{fill:#5EB983;}
	.st12{fill:#95B4A0;}
	.st13{opacity:0.15;fill:#D5EBDB;}
	.st14{fill:#F9D896;}
	.st15{opacity:0.19;fill:#D97938;}
	.st16{opacity:0.6;fill:#D57C40;}
	.st17{fill:#D79867;}
	.st18{fill:#943023;}
	.st19{fill:#D7A96E;}
	.st20{fill:#D69D3A;}
	.st21{fill:#E5D5B7;}
	.st22{fill:#F5CD1F;}
	.st23{fill:#529B6F;}
	.st24{fill:none;stroke:#529B6F;stroke-width:0.2;stroke-miterlimit:10;}
	.st25{fill:#979696;}
	.st26{fill:#3B7050;}
	.st27{fill:#D33A51;}
	.st28{opacity:0.5;fill:#ED93A3;}
	.st29{opacity:0.3;fill:#ED93A3;}
	.st30{fill:#5EBA81;}
	.st31{fill:#B9D24F;}
	.st32{fill:#F5C352;}
	.st33{fill:#B39977;}
	.st34{fill:#96C95B;}
	.st35{fill:#8BC66B;}
	.st36{fill:#68BB6B;}
	.st37{fill:#F4D321;}
	.st38{fill:none;stroke:#B9D24F;stroke-width:0.25;stroke-miterlimit:10;}
	.st39{fill:#D3AE7E;}
	.st40{fill:#AD9479;}
	.st41{fill:#C29869;}
	.st42{fill:#E4BA7E;}
	.st43{fill:#BEB4AE;}
	.st44{fill:#D9CDBC;}
	.st45{fill:#DACF88;}
	.st46{fill:#F0DDCB;}
	.st47{fill:url(#SVGID_1_);}
	.st48{fill:#EFD0A0;}
	.st49{fill:#DDA68C;}
	.st50{fill:#BFB5AF;}
	.st51{fill:#C4BCCE;}
	.st52{fill:#DCD6E5;}
	.st53{fill:#C1D5E5;}
	.st54{fill:#BABBBC;}
	.st55{fill:#89CCC4;}
	.st56{fill:url(#SVGID_2_);}
	.st57{fill:url(#SVGID_3_);}
	.st58{fill:#B186B2;}
	.st59{fill:#DDC3DC;stroke:#C18DC9;stroke-miterlimit:10;}
	.st60{opacity:0.3;fill:#FFFFFF;}
	.st61{fill:url(#SVGID_4_);}
	.st62{fill:url(#SVGID_5_);}
	.st63{opacity:0.57;fill:#FFFFFF;}
	.st64{fill:url(#SVGID_6_);}
	.st65{fill:url(#SVGID_7_);}
	.st66{fill:url(#SVGID_8_);}
	.st67{fill:url(#SVGID_9_);}
	.st68{fill:url(#SVGID_10_);}
	.st69{fill:url(#SVGID_11_);}
	.st70{fill:url(#SVGID_12_);}
	.st71{fill:url(#SVGID_13_);}
	.st72{fill:url(#SVGID_14_);}
	.st73{fill:url(#SVGID_15_);}
	.st74{fill:url(#SVGID_16_);}
	.st75{fill:url(#SVGID_17_);}
	.st76{fill:url(#SVGID_18_);}
	.st77{fill:url(#SVGID_19_);}
	.st78{fill:url(#SVGID_20_);}
	.st79{fill:url(#SVGID_21_);}
	.st80{fill:url(#SVGID_22_);}
	.st81{fill:url(#SVGID_23_);}
	.st82{fill:url(#SVGID_24_);}
	.st83{fill:url(#SVGID_25_);}
	.st84{fill:url(#SVGID_26_);}
	.st85{fill:url(#SVGID_27_);}
	.st86{fill:url(#SVGID_28_);}
	.st87{fill:url(#SVGID_29_);}
	.st88{fill:#AF9D95;}
	.st89{fill:#CCD6E2;}
	.st90{opacity:0.55;fill:#8DC1E2;}
</style>
<g>
	<g>
		<path class="st46" d="M109.7,16.2c-0.5,1.6-0.1,2.7-1.7,3.3c-0.4,2.5-1.3,3.5-2.5,5.4c-0.2,0.3-0.9,0.8-0.9,1.1l0.3,3.9
			c0,0.3,0.3,0.8,0.6,0.9l9.4,2.1c0.3,0.1,0.7,0.3,1,0.4c2,0.4,9.8,5.3,10.6,14c0.4,4.8,0.9,9.5,2,14.2l2.3,14.3l2.1,24.4
			c0,0,0.1,0.6,0,1.7h0c0,1.7-0.1,7.1,0,8c0.1,1-1.9,2.8-1.9,3.8c0,0-4.9,4-5.9,4.3c0,0-0.9-1.2,0-1.9c0,0-0.3-0.8,0.2-1.2
			c0,0,2.2-1.6,3.5-3.7c0,0-0.4-2.2,0-3.1l-0.6-0.7l-1,3.6c0,0-1.1,1.9-1.9-0.1c0,0,0.1-2.9,0.7-4.3c0,0-0.5-4.1,1.5-5.8
			c0.1-0.4,0.1-0.8,0.1-1.1c-0.4-2.8-4.4-9.8-5.3-14c0,0-1.2-3.6-0.6-7.9c0.3-1.7,0.3-4.2-0.2-5.8c-0.8-2.6-5.5-17.2-5.8-19.5
			c0,0-3.1,26.2-0.5,30.7c1,1.8,2,9,2.2,18.8c0.3,14-0.5,30.8-4.9,46.6c-0.5,1.7-0.7,4.6-0.6,6.5c0,0.4,0,0.8,0,1.4
			c-0.2,3.5-1.1,10.8-2.5,18c-0.4,2.1-0.7,4.2-1.2,6.2c-0.4,1.5-0.5,2.8-0.4,4.4c0.1,0.6,0.2,1.2,0.4,1.8c0.3,0.9,0.5,1.6,1.1,2.3
			c0.7,0.9,1,2.1,1.8,2.9c0.9,0.9,2.1,1.7,3.2,2.4c0.3,0.2,2.1,0.7,2.3,1.7l0.1,1.5c0,0.4-0.2,0.7-0.5,0.8l-6.5,0.8
			c-0.9,0.1-1.8,0-2.6-0.4c-1.1-0.5-2.5-1.5-3.8-3.4c0,0-4-0.2-1.5-4.8c0.2-0.3,0.2-1,0.3-1.3c0.1-0.8-0.4-1.1-0.7-1.7
			c-0.4-0.7,0.1-1.3,0.3-1.9c0.1-0.4,0-0.8,0-1.3c0,0-0.7-17.3-0.7-17.3s-0.2-5.7,0.2-10.7c0.1-1.5,0.4-2.9,0.6-4.1
			c0.3-1.7,0.4-3.4,0.1-5.1c-1.1-8.1-3.8-29.6-2.8-39.1h-1.5c1,9.5-1.6,31.3-2.7,39.2c-0.2,1.7,0.1,4.3,0.3,5.9c0.2,1,0.3,2,0.4,3.2
			c0.4,5,0.2,10.7,0.2,10.7S95,184.2,95,184.3c0,0.4-0.1,0.9,0,1.3c0.2,0.6,0.7,1.3,0.3,1.9c-0.3,0.6-0.8,0.9-0.7,1.7
			c0.1,0.3,0.1,1,0.3,1.3c2.5,4.7-1.5,4.8-1.5,4.8c-2.4,3.5-5,3.9-5,3.9c-3.3,0.1-7.5-1.6-7.5-1.6c-0.3,0-0.5-0.4-0.5-0.8v-1.2
			c0.1-0.4,1-0.9,1.3-1.1c1.1-0.7,2.9-1.6,3.8-2.5c0.8-0.8,1.1-2,1.8-2.9c0.5-0.8,0.8-1.5,1.1-2.3c0.2-0.6,0.4-1.2,0.4-1.8
			c0.2-1.6,0.1-2.9-0.4-4.4c-0.6-2-0.8-4.2-1.2-6.2c-1.4-7.2-2.4-14.5-2.7-18c0-0.5-0.1-1-0.1-1.3c0-1.7-0.1-4.3-0.5-5.9
			c-4.1-14.6-5.2-33.3-4.9-47.2c0.2-9.7,1.1-17,2.2-18.8c2.6-4.4,0.4-32.1,0.4-32.1c-0.3,2.3-3.5,16.7-4.3,19.3
			c-0.5,1.6-2.6,3.8-2.4,5.5c0.7,4.5-0.7,9.8-0.7,9.8c-0.9,4.2-4.9,11.2-5.3,14c0,0.1,0,0.3,0,0.4l0,0.3c0,0.1,0,0.1,0,0.2
			c2.2,1.6,1.6,5.9,1.6,5.9c0.6,1.4,0.7,4.3,0.7,4.3c-0.8,2-1.9,0.1-1.9,0.1l-1-3.6l-0.6,0.7c0.4,0.9,0,3.1,0,3.1
			c1.3,2.2,3.5,3.7,3.5,3.7c0.5,0.4,0.2,1.2,0.2,1.2c0.9,0.7,0,1.9,0,1.9c-1.1-0.4-5.9-4.3-5.9-4.3c0-1-2.1-2.8-1.9-3.8
			c0.1-0.9,0-6.3,0-8h0c-0.1-1,0-1.7,0-1.7l3.1-24.9l3.3-21.9c0-0.4,0-0.9,0-1.3c0.4-16.8,8-18.3,10.4-18.8c0.4-0.1,0.7-0.3,1-0.4
			l9.6-2.2c0.3-0.2,0.6-0.6,0.6-0.9l0.4-3.9c0-0.3-1-0.8-1.2-1.1c-1.2-1.8-2.1-2.9-2.5-5.4c-1.2-0.7-1.2-2-1.8-3.5
			c-1-2.9,1.7-4.3,1.7-4.3c0.6-4.5,0.6-10.9,9.9-10.9c8.5,0,9.4,6.2,9.9,10.9C108.2,11.6,111.3,11.4,109.7,16.2z"/>
	</g>
</g>
</svg>
