<?xml version="1.0" encoding="utf-8"?>
<!-- Generator: Adobe Illustrator 24.0.1, SVG Export Plug-In . SVG Version: 6.00 Build 0)  -->
<svg version="1.1" id="图层_1" xmlns="http://www.w3.org/2000/svg" xmlns:xlink="http://www.w3.org/1999/xlink" x="0px" y="0px"
	 viewBox="0 0 200 200" style="enable-background:new 0 0 200 200;" xml:space="preserve">
<style type="text/css">
	.st0{fill:#995E5E;}
	.st1{fill:#2C9A5C;}
	.st2{fill:#FFFFFF;}
	.st3{fill:#A59D92;}
	.st4{fill:#FFFAD2;}
	.st5{fill:#FFE600;}
	.st6{fill:#FFEC64;}
	.st7{fill:#97CCA1;}
	.st8{fill:#52AF78;}
	.st9{opacity:0.15;fill:#E7F2E9;}
	.st10{fill:#5FC187;}
	.st11{fill:#97B7A2;}
	.st12{opacity:0.15;fill:#D8EFDF;}
	.st13{fill:#FFDC97;}
	.st14{opacity:0.19;fill:#E27C37;}
	.st15{opacity:0.6;fill:#DD7F3E;}
	.st16{fill:#DD9A68;}
	.st17{fill:#9B2C00;}
	.st18{fill:#DDAD6F;}
	.st19{fill:#DDA036;}
	.st20{fill:#E8D7B8;}
	.st21{fill:#FFD400;}
	.st22{fill:#52A072;}
	.st23{fill:#C0DB4B;}
	.st24{fill:#FFC94F;}
	.st25{fill:#B59B78;}
	.st26{fill:#9BD359;}
	.st27{fill:#8FD16B;}
	.st28{fill:#66C66D;}
	.st29{fill:#FFDA00;}
	.st30{fill:none;stroke:#C0DB4B;stroke-width:0.25;stroke-miterlimit:10;}
	.st31{fill:#969696;}
	.st32{fill:#3B7251;}
	.st33{fill:#E03854;}
	.st34{opacity:0.5;fill:#F797A8;}
	.st35{opacity:0.3;fill:#F797A8;}
	.st36{fill:#5CC686;}
	.st37{fill:#AF9579;}
	.st38{fill:#EABE7F;}
	.st39{fill:#D8B280;}
	.st40{fill:#C69A6A;}
	.st41{fill:#9B9FA5;}
	.st42{fill:#DBCFBD;}
	.st43{fill:#BFB5AF;}
	.st44{fill:#E0D489;}
	.st45{fill:#F2CE8F;}
	.st46{fill:#DDA68C;}
	.st47{fill:url(#SVGID_1_);}
	.st48{fill:#98D0E2;}
	.st49{fill:#C4BCCE;}
	.st50{fill:#DCD6E5;}
	.st51{fill:#C1D5E5;}
	.st52{fill:#BABBBC;}
	.st53{fill:#89CCC4;}
	.st54{opacity:0.41;fill:#99E0C3;}
	.st55{fill:url(#SVGID_2_);}
	.st56{fill:url(#SVGID_3_);}
	.st57{opacity:0.57;fill:#FFFFFF;}
	.st58{fill:url(#SVGID_4_);}
	.st59{fill:url(#SVGID_5_);}
	.st60{fill:url(#SVGID_6_);}
	.st61{fill:url(#SVGID_7_);}
	.st62{fill:url(#SVGID_8_);}
	.st63{fill:url(#SVGID_9_);}
	.st64{fill:url(#SVGID_10_);}
	.st65{fill:url(#SVGID_11_);}
	.st66{fill:url(#SVGID_12_);}
	.st67{fill:url(#SVGID_13_);}
	.st68{fill:url(#SVGID_14_);}
	.st69{fill:url(#SVGID_15_);}
	.st70{fill:url(#SVGID_16_);}
	.st71{fill:url(#SVGID_17_);}
	.st72{fill:url(#SVGID_18_);}
	.st73{fill:url(#SVGID_19_);}
	.st74{fill:url(#SVGID_20_);}
	.st75{fill:url(#SVGID_21_);}
	.st76{fill:url(#SVGID_22_);}
	.st77{fill:url(#SVGID_23_);}
	.st78{fill:url(#SVGID_24_);}
	.st79{fill:url(#SVGID_25_);}
	.st80{fill:url(#SVGID_26_);}
	.st81{fill:url(#SVGID_27_);}
	.st82{fill:url(#SVGID_28_);}
	.st83{fill:#B186B2;}
	.st84{fill:#DDC3DC;stroke:#C18DC9;stroke-miterlimit:10;}
	.st85{opacity:0.3;fill:#FFFFFF;}
	.st86{fill:url(#SVGID_29_);}
	.st87{fill:url(#SVGID_30_);}
</style>
<path class="st43" d="M195.4,143.5c-0.5-6.6-3.5-12.6-8.6-16.5c-5.6-4.3-11-9-15.9-14.3c0,0,9.6-55.2-41.2-60.9
	c-7.5-0.8-21.8,3.5-29.7,7.2c-2.1,1-4.5,1.7-6.4,3.1c-20.5,14.8-35.9,0.7-35.9,0.7l1-10.8C59,50,57.5,48,55.5,48
	c-6,0-12.1,6.2-14.3,12.6c-1,2.9-2.4,3.2-4.7,3.5c-6.3,0.6-11.2,3.7-14.1,9.8c-2.7,6-11.7,14.1-15.8,19c0,0-7.8,10.3,1.8,8.4
	c5.6,0.2,17.5-1.5,22.9-2.2c3.4-0.4,6.9-0.9,10.3-0.8c4.2,0.1,7.3,2.4,10.3,5.2c1.9,1.8,3.5,3.9,5,6.1c-0.5,3.9-2,7.4-3.6,11
	c-0.5,1.1-5.6,2.9-6.7,3.2c-1.5,0.5-3.1,0.9-4.5,1.5c-1.4,0.6-2.7,1.5-2.4,3.3c0.2,1.7,1.7,2.2,3.1,2.3c3.4,0.4,7.8-1,11.1-1.6
	c1.2-0.2,2.7-0.8,3.2-1.8c1.1-2.2,3.5-5.7,5-7.6c0,0.1,0,0.3,0,0.4c-1,3.9-2.9,7.4-4.9,10.7c-0.6,1.1-5.7,2-6.8,2.2
	c-1.5,0.3-3,0.4-4.5,0.8c-1.4,0.4-2.7,1.1-2.7,2.9c0,1.7,1.3,2.4,2.6,2.8c3.2,0.9,9.3,0.1,12.5-0.1c1.1-0.1,2.8-1.4,3.4-2.3
	c3.5-5.6,6.6-11.6,10.6-16.9c4.6-5.9,10.2-8.9,17.3-7.8l2.4,0.4c3.1,0.5,6,1.6,8.6,3.4l23.3,16.2c0.1,1.8-1,3.4-2.5,3.5l-12.7,1.3
	c-2,0.4-4.2,0.7-6,2.3c-0.7,0.6-1.1,1.4-1.2,2.3c-0.1,0.8,0.4,1.5,1,1.5l46.7-0.1c1.9-0.6,2.5-1.6,2-3.9l-2.4-5.2
	c-0.1-0.2-0.1-1.9,0-3.2l2.4-0.4c2.6-0.4,5-1.4,7.1-2.9c3.7-2.7,7.5-3.2,11.8-1.9c6.1,1.9,11.9,4.5,16.2,9.8
	c2.5,3.1,3.8,6.7,3.7,10.8c-0.1,3.8-2.2,6.5-5,8.5c-4.6,3.3-9.8,4.7-15.1,5.8c-12.6,2.7-25.3,2.9-38.1,2.9
	c-12.1,0-24.2-0.9-36.2-1.8c-4.2-0.3-8.3-0.8-12.5-1.2c-0.5,0-1.2-0.6-1.5,0.4c10.7,2.6,21.5,4.1,32.5,5c9.3,0.8,18.6,1.1,27.9,1
	c13-0.1,26-0.4,38.5-4.4c4.6-1.4,8.9-3.4,12.2-7.3C195.5,152,195.8,147.8,195.4,143.5z"/>
</svg>
