<?xml version="1.0" encoding="utf-8"?>
<!-- Generator: Adobe Illustrator 24.0.1, SVG Export Plug-In . SVG Version: 6.00 Build 0)  -->
<svg version="1.1" id="图层_1" xmlns="http://www.w3.org/2000/svg" xmlns:xlink="http://www.w3.org/1999/xlink" x="0px" y="0px"
	 viewBox="0 0 200 200" style="enable-background:new 0 0 200 200;" xml:space="preserve">
<style type="text/css">
	.st0{fill:#995E5E;}
	.st1{fill:#2C9A5C;}
	.st2{fill:#FFFFFF;}
	.st3{fill:#A59D92;}
	.st4{fill:#FFFAD2;}
	.st5{fill:#FFE600;}
	.st6{fill:#FFEC64;}
	.st7{fill:#97CCA1;}
	.st8{fill:#52AF78;}
	.st9{opacity:0.15;fill:#E7F2E9;}
	.st10{fill:#5FC187;}
	.st11{fill:#97B7A2;}
	.st12{opacity:0.15;fill:#D8EFDF;}
	.st13{fill:#FFDC97;}
	.st14{opacity:0.19;fill:#E27C37;}
	.st15{opacity:0.6;fill:#DD7F3E;}
	.st16{fill:#DD9A68;}
	.st17{fill:#9B2C00;}
	.st18{fill:#DDAD6F;}
	.st19{fill:#DDA036;}
	.st20{fill:#E8D7B8;}
	.st21{fill:#FFD400;}
	.st22{fill:#52A072;}
	.st23{fill:#C0DB4B;}
	.st24{fill:#FFC94F;}
	.st25{fill:#B59B78;}
	.st26{fill:#9BD359;}
	.st27{fill:#8FD16B;}
	.st28{fill:#66C66D;}
	.st29{fill:#FFDA00;}
	.st30{fill:none;stroke:#C0DB4B;stroke-width:0.25;stroke-miterlimit:10;}
	.st31{fill:#969696;}
	.st32{fill:#3B7251;}
	.st33{fill:#E03854;}
	.st34{opacity:0.5;fill:#F797A8;}
	.st35{opacity:0.3;fill:#F797A8;}
	.st36{fill:#5CC686;}
	.st37{fill:#AF9579;}
	.st38{fill:#EABE7F;}
	.st39{fill:#D8B280;}
	.st40{fill:#C69A6A;}
	.st41{fill:#9B9FA5;}
	.st42{fill:#DBCFBD;}
	.st43{fill:#BFB5AF;}
	.st44{fill:#E0D489;}
	.st45{fill:#F2CE8F;}
	.st46{fill:#DDA68C;}
	.st47{fill:url(#SVGID_1_);}
	.st48{fill:#98D0E2;}
	.st49{fill:#C4BCCE;}
	.st50{fill:#DCD6E5;}
	.st51{fill:#C1D5E5;}
	.st52{fill:#BABBBC;}
	.st53{fill:#89CCC4;}
	.st54{opacity:0.41;fill:#99E0C3;}
	.st55{fill:url(#SVGID_2_);}
	.st56{fill:url(#SVGID_3_);}
	.st57{opacity:0.57;fill:#FFFFFF;}
	.st58{fill:url(#SVGID_4_);}
	.st59{fill:url(#SVGID_5_);}
	.st60{fill:url(#SVGID_6_);}
	.st61{fill:url(#SVGID_7_);}
	.st62{fill:url(#SVGID_8_);}
	.st63{fill:url(#SVGID_9_);}
	.st64{fill:url(#SVGID_10_);}
	.st65{fill:url(#SVGID_11_);}
	.st66{fill:url(#SVGID_12_);}
	.st67{fill:url(#SVGID_13_);}
	.st68{fill:url(#SVGID_14_);}
	.st69{fill:url(#SVGID_15_);}
	.st70{fill:url(#SVGID_16_);}
	.st71{fill:url(#SVGID_17_);}
	.st72{fill:url(#SVGID_18_);}
	.st73{fill:url(#SVGID_19_);}
	.st74{fill:url(#SVGID_20_);}
	.st75{fill:url(#SVGID_21_);}
	.st76{fill:url(#SVGID_22_);}
	.st77{fill:url(#SVGID_23_);}
	.st78{fill:url(#SVGID_24_);}
	.st79{fill:url(#SVGID_25_);}
	.st80{fill:url(#SVGID_26_);}
	.st81{fill:url(#SVGID_27_);}
	.st82{fill:url(#SVGID_28_);}
	.st83{fill:#B186B2;}
	.st84{fill:#DDC3DC;stroke:#C18DC9;stroke-miterlimit:10;}
	.st85{opacity:0.3;fill:#FFFFFF;}
	.st86{fill:url(#SVGID_29_);}
	.st87{fill:url(#SVGID_30_);}
</style>
<g>
	<radialGradient id="SVGID_1_" cx="72.4442" cy="87.8705" r="66.3877" gradientUnits="userSpaceOnUse">
		<stop  offset="0" style="stop-color:#E0CAFF"/>
		<stop  offset="1" style="stop-color:#F3EAFF"/>
	</radialGradient>
	<path class="st47" d="M86.2,23.9c0,0,11.8-9.5,25.7,1.6s35.2,16.9,20.6,58.3s-46.3,65-67.1,68c0,0-4.9,8.6-19.7,0.2
		c0,0-20.8-3.9-28-23.8c0,0-17.1-16.9-7.2-30.1c0,0,0.9-19,26.1-40S51.3,39.1,86.2,23.9z"/>
	<ellipse class="st83" cx="97.9" cy="28.3" rx="12.3" ry="7.6"/>
	<ellipse class="st84" cx="97.9" cy="28.2" rx="9.5" ry="5.4"/>
	
		<ellipse transform="matrix(0.2127 -0.9771 0.9771 0.2127 32.9971 140.6357)" class="st83" cx="103.8" cy="49.8" rx="7.6" ry="9.2"/>
	<ellipse transform="matrix(0.2127 -0.9771 0.9771 0.2127 33.0789 140.8548)" class="st84" cx="103.9" cy="49.9" rx="5" ry="6.6"/>
	
		<ellipse transform="matrix(0.9475 -0.3197 0.3197 0.9475 -10.7195 44.2021)" class="st83" cx="129.3" cy="54.8" rx="6.4" ry="9.6"/>
	<ellipse transform="matrix(0.9475 -0.3197 0.3197 0.9475 -10.719 44.2721)" class="st84" cx="129.5" cy="54.8" rx="4.2" ry="7"/>
	<ellipse transform="matrix(0.9944 -0.1055 0.1055 0.9944 -11.576 2.5597)" class="st83" cx="18.4" cy="110.7" rx="7.6" ry="12.3"/>
	<ellipse transform="matrix(0.9944 -0.1055 0.1055 0.9944 -11.572 2.5579)" class="st84" cx="18.4" cy="110.6" rx="5.1" ry="9.1"/>
	
		<ellipse transform="matrix(0.2127 -0.9771 0.9771 0.2127 -98.8497 169.797)" class="st83" cx="55.9" cy="146.2" rx="7.6" ry="9.2"/>
	
		<ellipse transform="matrix(0.2127 -0.9771 0.9771 0.2127 -98.8501 169.7086)" class="st84" cx="55.9" cy="146.2" rx="4.5" ry="6.5"/>
	
		<ellipse transform="matrix(0.7195 -0.6945 0.6945 0.7195 -84.8506 60.4564)" class="st83" cx="32.4" cy="135.3" rx="7.1" ry="11.1"/>
	
		<ellipse transform="matrix(0.7195 -0.6945 0.6945 0.7195 -84.9149 60.3506)" class="st84" cx="32.3" cy="135.3" rx="4.6" ry="7.8"/>
	
		<ellipse transform="matrix(0.7071 -0.7071 0.7071 0.7071 -32.8616 56.4098)" class="st85" cx="51.7" cy="67.9" rx="36.3" ry="9.2"/>
</g>
<g>
	
		<radialGradient id="SVGID_2_" cx="-346.6441" cy="100.8527" r="43.9904" gradientTransform="matrix(0.8751 -0.4839 0.4839 0.8751 412.5697 -121.5888)" gradientUnits="userSpaceOnUse">
		<stop  offset="0" style="stop-color:#E0CAFF"/>
		<stop  offset="1" style="stop-color:#F3EAFF"/>
	</radialGradient>
	<path class="st55" d="M145.5,92.9c0,0,3.8-9.3,15.4-7.3c11.6,2,25.8-1.5,30.6,27.2c4.8,28.7-6,52.5-17.1,60.9c0,0-0.1,6.5-11.3,6.4
		c0,0-13.3,4.4-23.9-4.8c0,0-15.3-4.3-13.8-15.1c0,0-5.5-11.3,2.3-31.6S130.1,112.9,145.5,92.9z"/>
	<ellipse transform="matrix(0.8751 -0.4839 0.4839 0.8751 -25.1777 85.8151)" class="st83" cx="153.7" cy="91.7" rx="8.2" ry="5"/>
	
		<ellipse transform="matrix(0.8751 -0.4839 0.4839 0.8751 -25.1523 85.7883)" class="st84" cx="153.7" cy="91.6" rx="6.3" ry="3.6"/>
	<ellipse transform="matrix(0.958 -0.2867 0.2867 0.958 -22.4453 51.301)" class="st83" cx="164" cy="102.3" rx="6.1" ry="5"/>
	<ellipse transform="matrix(0.958 -0.2867 0.2867 0.958 -22.4338 51.3349)" class="st84" cx="164.1" cy="102.3" rx="4.4" ry="3.3"/>
	<ellipse transform="matrix(0.6745 -0.7382 0.7382 0.6745 -12.892 164.6977)" class="st83" cx="180.3" cy="97" rx="4.2" ry="6.3"/>
	
		<ellipse transform="matrix(0.6745 -0.7382 0.7382 0.6745 -12.8121 164.7809)" class="st84" cx="180.5" cy="96.9" rx="2.8" ry="4.7"/>
	<ellipse transform="matrix(0.8192 -0.5735 0.5735 0.8192 -70.375 106.6568)" class="st83" cx="134" cy="164.9" rx="5" ry="8.2"/>
	
		<ellipse transform="matrix(0.8192 -0.5735 0.5735 0.8192 -70.3687 106.6413)" class="st84" cx="133.9" cy="164.9" rx="3.4" ry="6"/>
	<ellipse transform="matrix(0.958 -0.2867 0.2867 0.958 -42.7331 55.1998)" class="st83" cx="167.1" cy="173.5" rx="6.1" ry="5"/>
	<ellipse transform="matrix(0.958 -0.2867 0.2867 0.958 -42.7328 55.1863)" class="st84" cx="167.1" cy="173.5" rx="4.3" ry="3"/>
	<ellipse transform="matrix(0.2936 -0.9559 0.9559 0.2936 -61.07 266.7928)" class="st83" cx="150" cy="174.7" rx="4.7" ry="7.4"/>
	
		<ellipse transform="matrix(0.2936 -0.9559 0.9559 0.2936 -61.1955 266.7583)" class="st84" cx="149.9" cy="174.8" rx="3" ry="5.2"/>
	
		<ellipse transform="matrix(0.2767 -0.961 0.961 0.2767 -23.4789 227.7376)" class="st85" cx="139.5" cy="129.5" rx="24.1" ry="6.1"/>
</g>
</svg>
