<?xml version="1.0" encoding="utf-8"?>
<!-- Generator: Adobe Illustrator 24.0.1, SVG Export Plug-In . SVG Version: 6.00 Build 0)  -->
<svg version="1.1" id="图层_1" xmlns="http://www.w3.org/2000/svg" xmlns:xlink="http://www.w3.org/1999/xlink" x="0px" y="0px"
	 viewBox="0 0 200 200" style="enable-background:new 0 0 200 200;" xml:space="preserve">
<style type="text/css">
	.st0{fill:#995E5E;}
	.st1{fill:#2C9A5C;}
	.st2{fill:#FFFFFF;}
	.st3{fill:#A59D92;}
	.st4{fill:#FFFAD2;}
	.st5{fill:#FFE600;}
	.st6{fill:#FFEC64;}
	.st7{fill:#97CCA1;}
	.st8{fill:#52AF78;}
	.st9{opacity:0.15;fill:#E7F2E9;}
	.st10{fill:#5FC187;}
	.st11{fill:#97B7A2;}
	.st12{opacity:0.15;fill:#D8EFDF;}
	.st13{fill:#FFDC97;}
	.st14{opacity:0.19;fill:#E27C37;}
	.st15{opacity:0.6;fill:#DD7F3E;}
	.st16{fill:#DD9A68;}
	.st17{fill:#9B2C00;}
	.st18{fill:#DDAD6F;}
	.st19{fill:#DDA036;}
	.st20{fill:#E8D7B8;}
	.st21{fill:#FFD400;}
	.st22{fill:#52A072;}
	.st23{fill:#C0DB4B;}
	.st24{fill:#FFC94F;}
	.st25{fill:#B59B78;}
	.st26{fill:#9BD359;}
	.st27{fill:#8FD16B;}
	.st28{fill:#66C66D;}
	.st29{fill:#FFDA00;}
	.st30{fill:none;stroke:#C0DB4B;stroke-width:0.25;stroke-miterlimit:10;}
	.st31{fill:#969696;}
	.st32{fill:#3B7251;}
	.st33{fill:#E03854;}
	.st34{opacity:0.5;fill:#F797A8;}
	.st35{opacity:0.3;fill:#F797A8;}
	.st36{fill:#5CC686;}
	.st37{fill:#AF9579;}
	.st38{fill:#EABE7F;}
	.st39{fill:#D8B280;}
	.st40{fill:#C69A6A;}
	.st41{fill:#9B9FA5;}
	.st42{fill:#DBCFBD;}
	.st43{fill:#BFB5AF;}
	.st44{fill:#E0D489;}
	.st45{fill:#F2CE8F;}
	.st46{fill:#DDA68C;}
	.st47{fill:url(#SVGID_1_);}
	.st48{fill:#98D0E2;}
	.st49{fill:#C4BCCE;}
	.st50{fill:#DCD6E5;}
	.st51{fill:#C1D5E5;}
	.st52{fill:#BABBBC;}
	.st53{fill:#89CCC4;}
	.st54{opacity:0.41;fill:#99E0C3;}
	.st55{fill:url(#SVGID_2_);}
	.st56{fill:url(#SVGID_3_);}
	.st57{opacity:0.57;fill:#FFFFFF;}
	.st58{fill:url(#SVGID_4_);}
	.st59{fill:url(#SVGID_5_);}
	.st60{fill:url(#SVGID_6_);}
	.st61{fill:url(#SVGID_7_);}
	.st62{fill:url(#SVGID_8_);}
	.st63{fill:url(#SVGID_9_);}
	.st64{fill:url(#SVGID_10_);}
	.st65{fill:url(#SVGID_11_);}
	.st66{fill:url(#SVGID_12_);}
	.st67{fill:url(#SVGID_13_);}
	.st68{fill:url(#SVGID_14_);}
	.st69{fill:url(#SVGID_15_);}
	.st70{fill:url(#SVGID_16_);}
	.st71{fill:url(#SVGID_17_);}
	.st72{fill:url(#SVGID_18_);}
	.st73{fill:url(#SVGID_19_);}
	.st74{fill:url(#SVGID_20_);}
	.st75{fill:url(#SVGID_21_);}
	.st76{fill:url(#SVGID_22_);}
	.st77{fill:url(#SVGID_23_);}
	.st78{fill:url(#SVGID_24_);}
	.st79{fill:url(#SVGID_25_);}
	.st80{fill:url(#SVGID_26_);}
	.st81{fill:url(#SVGID_27_);}
	.st82{fill:url(#SVGID_28_);}
	.st83{fill:#B186B2;}
	.st84{fill:#DDC3DC;stroke:#C18DC9;stroke-miterlimit:10;}
	.st85{opacity:0.3;fill:#FFFFFF;}
	.st86{fill:url(#SVGID_29_);}
	.st87{fill:url(#SVGID_30_);}
</style>
<g>
	<g>
		<path class="st19" d="M73.6,37.9c1.3-1,1.9-2.4,2.2-3.9c0.1-1.4-0.1-2.7-0.3-4c-1.4-5.6-6.7-9.4-13.3-9.6c-0.5,0-1.1,0-1.6,0
			c-0.5-0.1-0.8,0.1-0.8,0.6c-0.1,0.5-0.3,1-0.4,1.5c-1.1,5.6,0,10.6,5,14.2C64.4,36.6,69.9,39.8,73.6,37.9z"/>
		<path class="st20" d="M70.8,38.9c-3.2,0-6.5-1.8-6.6-1.9c-4.7-3.4-6.4-8.2-5.2-14.6l0.4-1.5c0-0.3,0.2-0.6,0.4-0.7
			c0.2-0.2,0.5-0.2,0.9-0.1l1.5,0c6.8,0.2,12.3,4.1,13.7,9.9l0.1,0.4c0.2,1.2,0.4,2.5,0.3,3.7c-0.2,1.2-0.8,3-2.4,4.2l-0.1,0
			C72.9,38.7,71.8,38.9,70.8,38.9z M60.3,20.8C60.2,20.8,60.2,20.8,60.3,20.8c-0.1,0-0.1,0.1-0.2,0.2l-0.4,1.5
			c-1.2,6,0.4,10.6,4.9,13.8c0,0,5.3,3,8.8,1.2c1.1-0.8,1.7-1.9,2-3.6c0.1-1.1-0.1-2.3-0.3-3.5L75.1,30c-1.4-5.4-6.6-9.1-12.9-9.2
			l-1.6,0C60.4,20.8,60.4,20.8,60.3,20.8z"/>
	</g>
	<g>
		<path class="st19" d="M75,52c1.1-1.1,1.3-2.5,1.3-4c-0.1-1.3-0.6-2.5-1.1-3.7c-2.3-5-8-7.6-14.2-6.6c-0.5,0.1-1,0.2-1.5,0.3
			c-0.5,0-0.7,0.2-0.6,0.7c0,0.5-0.1,1-0.1,1.4c0,5.4,1.9,9.8,7.3,12.4C66.2,52.4,71.9,54.4,75,52z"/>
		<path class="st20" d="M70.8,53.6c-2.4,0-4.6-0.8-4.8-0.8c-5.1-2.4-7.5-6.6-7.6-12.8l0.1-1.5c0-0.3,0-0.6,0.2-0.7s0.5-0.3,0.8-0.3
			l1.4-0.3c6.3-1,12.2,1.8,14.6,6.9l0.1,0.4c0.4,1.1,0.8,2.2,1,3.4c0,1.2-0.2,2.9-1.4,4.3l0,0C74,53.3,72.4,53.6,70.8,53.6z
			 M63.6,37.8c-0.8,0-1.6,0.1-2.4,0.2l-1.5,0.3c-0.2,0-0.3,0-0.3,0c0,0,0,0.1,0,0.2L59.3,40c0,5.8,2.3,9.8,7.1,12
			c0,0,5.5,1.9,8.4-0.4c0.8-0.9,1.2-2.1,1.2-3.7c-0.1-1.1-0.5-2.1-0.9-3.2l-0.1-0.3C73,40.3,68.6,37.8,63.6,37.8z"/>
	</g>
	<g>
		<path class="st19" d="M77.9,64.9c0.8-1.3,0.8-2.6,0.5-4c-0.4-1.2-1-2.2-1.7-3.3c-3.1-4.3-8.9-5.8-14.6-3.8
			c-0.5,0.2-0.9,0.3-1.4,0.5c-0.5,0.1-0.6,0.3-0.5,0.7c0.1,0.5,0.1,0.9,0.2,1.4c1,5.1,3.7,8.9,9.2,10.4
			C69.6,66.8,75.4,67.7,77.9,64.9z"/>
		<path class="st20" d="M71.7,67.4c-1.2,0-2.1-0.1-2.2-0.1c-5.2-1.4-8.3-4.9-9.5-10.7l-0.2-1.4c-0.1-0.3-0.1-0.5,0.1-0.8
			c0.1-0.2,0.4-0.4,0.7-0.4l1.3-0.5c5.8-2,11.8-0.4,15.1,4l0.2,0.3c0.6,1,1.2,2,1.5,3.1c0.2,1.1,0.4,2.8-0.6,4.3l0,0.1
			C76.6,67,73.7,67.4,71.7,67.4z M69.7,66.5c0,0,5.5,0.8,7.8-1.8c0.6-1,0.8-2.2,0.5-3.7c-0.3-1-0.9-1.9-1.5-2.9l-0.2-0.3
			c-3-4.1-8.7-5.6-14.1-3.7l-1.4,0.5c-0.2,0-0.3,0.1-0.3,0.1s0,0,0,0.2l0.2,1.4C62,61.9,64.9,65.2,69.7,66.5L69.7,66.5z"/>
	</g>
	<g>
		<path class="st19" d="M80.1,79.3c0.8-1.3,0.8-2.6,0.5-4c-0.4-1.2-1-2.2-1.7-3.3c-3.1-4.3-8.9-5.8-14.6-3.8
			c-0.5,0.2-0.9,0.3-1.4,0.5c-0.5,0.1-0.6,0.3-0.5,0.7c0.1,0.5,0.1,0.9,0.2,1.4c1,5.1,3.7,8.9,9.2,10.4
			C71.8,81.2,77.6,82.1,80.1,79.3z"/>
		<path class="st20" d="M73.9,81.7c-1.2,0-2.1-0.1-2.2-0.1c-5.2-1.4-8.3-4.9-9.5-10.7l-0.2-1.4c-0.1-0.3-0.1-0.5,0.1-0.8
			c0.1-0.2,0.4-0.4,0.7-0.4l1.3-0.5c5.8-2,11.8-0.4,15.1,4l0.2,0.3c0.6,1,1.2,2,1.5,3.1c0.2,1.1,0.4,2.8-0.6,4.3l0,0.1
			C78.7,81.4,75.9,81.7,73.9,81.7z M71.9,80.8c0,0,5.5,0.8,7.8-1.8c0.6-1,0.8-2.2,0.5-3.7c-0.3-1-0.9-1.9-1.5-2.9l-0.2-0.3
			c-3-4.1-8.7-5.6-14.1-3.7L63.1,69c-0.2,0-0.3,0.1-0.3,0.1c0,0,0,0.1,0,0.2l0.2,1.4C64.1,76.2,67,79.5,71.9,80.8L71.9,80.8z"/>
	</g>
	<g>
		<path class="st19" d="M80.5,93.5c0.8-1.3,0.8-2.6,0.5-4c-0.4-1.2-1-2.2-1.7-3.3c-3.1-4.3-8.9-5.8-14.6-3.8
			c-0.5,0.2-0.9,0.3-1.4,0.5c-0.5,0.1-0.6,0.3-0.5,0.7c0.1,0.5,0.1,0.9,0.2,1.4c1,5.1,3.7,8.9,9.2,10.4C72.2,95.4,78,96.3,80.5,93.5
			z"/>
		<path class="st20" d="M74.3,95.9c-1.2,0-2.1-0.1-2.2-0.1c-5.2-1.4-8.3-4.9-9.5-10.7l-0.2-1.4c-0.1-0.3-0.1-0.5,0.1-0.8
			c0.1-0.2,0.4-0.4,0.7-0.4l1.3-0.5c5.8-2,11.8-0.4,15,4l0.2,0.3c0.6,1,1.2,1.9,1.5,3.1c0.2,1.1,0.4,2.8-0.6,4.3l0,0.1
			C79.2,95.6,76.3,95.9,74.3,95.9z M72.3,95c0,0,5.5,0.8,7.8-1.8c0.6-1,0.8-2.2,0.5-3.7c-0.3-1-0.9-1.9-1.4-2.9L79,86.4
			c-3-4.1-8.7-5.6-14.1-3.7l-1.4,0.5c-0.2,0-0.3,0.1-0.3,0.1l0,0c0,0,0,0,0,0.2l0.2,1.4C64.6,90.4,67.5,93.7,72.3,95L72.3,95z"/>
	</g>
	<g>
		<path class="st19" d="M77.9,50.7c1.1,1.1,2.6,1.4,4.1,1.5c1.3,0,2.6-0.5,3.9-0.8c5.3-2,8.3-7.3,7.6-13.3c-0.1-0.5-0.1-1-0.2-1.5
			c0-0.5-0.2-0.7-0.7-0.7c-0.5-0.1-1-0.1-1.5-0.2c-5.6-0.3-10.3,1.4-13.2,6.4C77.9,42.2,75.5,47.6,77.9,50.7z"/>
		<path class="st20" d="M82,52.6c-1.2-0.1-3-0.3-4.4-1.6l0,0c-2.5-3.3-0.1-8.7,0-8.9c2.8-4.7,7.3-6.9,13.6-6.6l1.5,0.2
			c0.3,0,0.6,0.1,0.8,0.3c0.2,0.2,0.3,0.5,0.2,0.8l0.2,1.4c0.7,6.1-2.5,11.6-7.9,13.7l-0.4,0.1C84.5,52.2,83.3,52.5,82,52.6z
			 M78.2,50.4c0.9,0.9,2.1,1.3,3.8,1.4c1.1,0,2.2-0.4,3.4-0.7l0.4-0.1c5.1-1.9,8-7.1,7.4-12.8l-0.2-1.5c0-0.2,0-0.3,0-0.3
			c0,0-0.1,0-0.2,0l-1.6-0.2c-6.1-0.3-10.3,1.7-12.8,6.2C78.3,42.4,76,47.5,78.2,50.4z"/>
	</g>
	<g>
		<path class="st19" d="M79.5,64.8c1.1,1.1,2.5,1.6,4,1.8c1.3,0,2.6-0.3,3.9-0.6c5.4-1.6,8.8-6.7,8.6-12.7c0-0.5-0.1-1-0.1-1.5
			c0.1-0.5-0.1-0.7-0.6-0.7c-0.5-0.1-1-0.2-1.5-0.3c-5.6-0.6-10.4,0.7-13.7,5.5C80.1,56.3,77.4,61.5,79.5,64.8z"/>
		<path class="st20" d="M83.7,67c-0.1,0-0.2,0-0.2,0c-1.2-0.1-3-0.5-4.3-1.9l0-0.1c-2.2-3.4,0.5-8.7,0.6-8.9
			c3.1-4.6,7.7-6.4,14.1-5.7l1.5,0.3l0,0c0.3,0,0.6,0.1,0.7,0.3s0.2,0.5,0.2,0.8l0.1,1.4c0.3,6.2-3.3,11.4-8.8,13.1l-0.4,0.1
			C86.1,66.7,84.9,67,83.7,67z M79.9,64.6c0.9,0.9,2,1.4,3.7,1.6c1.1,0,2.3-0.2,3.4-0.5l0.3-0.1c5.2-1.6,8.5-6.5,8.2-12.3l-0.1-1.5
			c0-0.2,0-0.3,0-0.3c0,0-0.1,0-0.2,0l-1.5-0.3c-6-0.7-10.4,1.1-13.2,5.3C80.5,56.5,77.9,61.5,79.9,64.6z"/>
	</g>
	<g>
		<path class="st19" d="M81.6,80c1.1,1.1,2.5,1.6,4,1.8c1.3,0,2.6-0.3,3.9-0.6c5.4-1.6,8.8-6.7,8.6-12.7c0-0.5-0.1-1-0.1-1.5
			c0.1-0.5-0.1-0.7-0.6-0.7c-0.5-0.1-1-0.2-1.5-0.3c-5.6-0.6-10.4,0.7-13.7,5.5C82.2,71.5,79.5,76.7,81.6,80z"/>
		<path class="st20" d="M85.8,82.2c-0.1,0-0.2,0-0.2,0c-1.2-0.1-3-0.5-4.3-1.9l0-0.1c-2.2-3.4,0.5-8.7,0.6-8.9
			c3.1-4.6,7.7-6.4,14.1-5.7l1.5,0.3c0.3,0,0.6,0.1,0.7,0.3c0.2,0.2,0.2,0.5,0.2,0.8l0.1,1.4c0.3,6.2-3.3,11.4-8.8,13.1l-0.4,0.1
			C88.1,81.9,87,82.2,85.8,82.2z M81.9,79.8c0.9,0.9,2,1.4,3.7,1.6c1.1,0,2.2-0.2,3.4-0.5l0.4-0.1c5.2-1.6,8.5-6.5,8.2-12.3L97.6,67
			c0-0.2,0-0.3,0-0.3c0,0-0.1,0-0.2,0l-1.5-0.3c-6-0.7-10.4,1.1-13.2,5.3C82.6,71.7,80,76.7,81.9,79.8z"/>
	</g>
	<g>
		<path class="st19" d="M82.1,95.4c1.1,1.1,2.5,1.6,4,1.8c1.3,0,2.6-0.3,3.9-0.6c5.4-1.6,8.8-6.7,8.6-12.7c0-0.5-0.1-1-0.1-1.5
			c0.1-0.5-0.1-0.7-0.6-0.7c-0.5-0.1-1-0.2-1.5-0.3c-5.6-0.6-10.4,0.7-13.7,5.5C82.7,86.9,80,92.1,82.1,95.4z"/>
		<path class="st20" d="M86.3,97.5c-0.1,0-0.2,0-0.2,0c-1.2-0.1-3-0.5-4.3-1.9l0-0.1c-2.2-3.4,0.5-8.7,0.6-8.9
			c3.1-4.6,7.7-6.4,14.1-5.7l1.5,0.3c0.3,0,0.6,0.1,0.7,0.3c0.2,0.2,0.2,0.5,0.2,0.8l0.1,1.4c0.3,6.2-3.3,11.4-8.8,13.1L89.7,97
			C88.6,97.3,87.5,97.5,86.3,97.5z M82.4,95.2c0.9,0.9,2,1.4,3.7,1.6c1.1,0,2.2-0.2,3.4-0.5l0.4-0.1c5.2-1.6,8.5-6.5,8.2-12.3
			l-0.1-1.5c0-0.2,0-0.3,0-0.3s-0.1,0-0.2,0l-1.5-0.3c-6-0.7-10.4,1.1-13.2,5.3C83.1,87.1,80.5,92.1,82.4,95.2z"/>
	</g>
	<g>
		<path class="st19" d="M68.2,11.9c-2.7,4-1.1,8.7,4.2,12c2.5,1.6,4.8,0.7,7.8-3.1c3.8-6,0.6-11-2.5-15.9c-0.1-0.2-0.3-0.3-0.4-0.4
			c-1.2-1.1-3.1-0.8-3.7,0.6c0,0,0,0,0,0L68.2,11.9z"/>
		<path class="st20" d="M74.6,25c-0.8,0-1.7-0.3-2.5-0.8c-5.4-3.4-7.1-8.3-4.3-12.5l0,0l5.3-6.8c0.3-0.8,1-1.3,1.8-1.4
			c0.9-0.2,1.9,0.1,2.5,0.7c0.2,0.2,0.3,0.3,0.5,0.5l0.2,0.3c3,4.9,6.2,10.1,2.4,16.1C78.3,23.7,76.5,25,74.6,25z M68.5,12.1
			c-2.6,3.9-1,8.2,4.1,11.4c1.9,1.2,3.9,1.2,7.3-3c3.6-5.7,0.7-10.4-2.4-15.3L77.3,5c-0.1-0.1-0.2-0.2-0.4-0.4
			c-0.5-0.4-1.2-0.6-1.8-0.5c-0.6,0.1-1,0.5-1.3,1l-0.1,0.1L68.5,12.1z"/>
	</g>
	<g>
		<path class="st19" d="M91.3,27.5c-1.6,5.7-4.8,8-7.5,8.9c-3.7,1.2-7.7-1.3-7.9-5.1c0,0,0-0.1,0-0.1c-0.1-2.2,0.8-4.3,2.2-6
			c2.2-2.5,6.6-6.7,12-6.1C90.1,18.9,92.7,23,91.3,27.5z"/>
		<path class="st20" d="M81.9,37c-1.3,0-2.5-0.4-3.6-1.1c-1.6-1.1-2.6-2.8-2.7-4.7l0-0.1c-0.1-2.2,0.8-4.5,2.3-6.3
			c2.2-2.6,6.7-6.8,12.3-6.3l0.2,0l0.1,0.2c0.1,0.2,2.6,4.3,1.3,8.8c-1.7,6-5.2,8.3-7.8,9.1C83.2,36.9,82.6,37,81.9,37z M76.3,31.2
			c0.1,1.6,0.9,3.1,2.4,4.1c1.5,1,3.3,1.2,5,0.7c2.5-0.8,5.7-2.9,7.3-8.6l0,0c1.1-3.7-0.6-7.2-1.1-8c-5.2-0.4-9.3,3.6-11.4,6
			c-1.4,1.7-2.2,3.7-2.1,5.8l-0.4,0.1L76.3,31.2z"/>
	</g>
	<g>
		<path class="st19" d="M127.8,39.5c1.6-0.5,2.6-1.7,3.4-3c0.6-1.3,0.7-2.6,1-3.9c0.5-5.7-3.4-10.9-9.6-13.1c-0.5-0.2-1-0.3-1.5-0.5
			c-0.4-0.2-0.8-0.1-1,0.3c-0.3,0.4-0.6,0.9-0.9,1.3c-2.8,5-3.4,10,0.2,15C119.4,35.6,123.7,40.2,127.8,39.5z"/>
		<path class="st20" d="M126.9,40c-4,0-7.6-4-7.8-4.1c-3.4-4.7-3.5-9.7-0.3-15.4l0.9-1.3c0.1-0.3,0.3-0.5,0.6-0.6
			c0.3-0.1,0.6,0,0.9,0.1l1.5,0.4c6.4,2.2,10.3,7.6,9.9,13.5l-0.1,0.4c-0.2,1.2-0.4,2.5-0.9,3.7c-0.6,1.1-1.7,2.6-3.6,3.3l-0.1,0
			C127.6,39.9,127.3,40,126.9,40z M120.6,19.3C120.6,19.3,120.6,19.3,120.6,19.3c0,0-0.1,0.1-0.2,0.2l-0.9,1.3
			c-3.1,5.4-3,10.2,0.2,14.6c0,0,4.1,4.4,8,3.8c1.3-0.4,2.2-1.3,3.1-2.9c0.5-1.1,0.7-2.2,0.9-3.4l0.1-0.4c0.4-5.5-3.3-10.6-9.3-12.6
			l-1.5-0.5C120.7,19.3,120.7,19.3,120.6,19.3z"/>
	</g>
	<g>
		<path class="st19" d="M124.3,54.1c1.4-0.8,2.1-2,2.6-3.4c0.3-1.3,0.2-2.5,0.2-3.8c-0.6-5.4-5.2-9.6-11.3-10.5
			c-0.5-0.1-1-0.1-1.5-0.2c-0.5-0.2-0.7,0-0.8,0.4c-0.2,0.4-0.4,0.9-0.6,1.3c-1.7,5.2-1.3,9.9,2.9,13.9
			C115.8,51.8,120.6,55.4,124.3,54.1z"/>
		<path class="st20" d="M122.5,54.8c-3.4,0-6.8-2.5-6.9-2.6c-4-3.8-5-8.5-3.1-14.4l0.6-1.4c0.1-0.3,0.2-0.5,0.5-0.6
			c0.2-0.1,0.5-0.1,0.9,0l1.4,0.2c6.4,0.9,11,5.3,11.7,10.9l0,0.4c0,1.2,0.1,2.4-0.2,3.6c-0.4,1.1-1.1,2.7-2.8,3.7l-0.1,0
			C123.8,54.7,123.2,54.8,122.5,54.8z M113.9,36.4C113.9,36.4,113.9,36.4,113.9,36.4c0,0-0.1,0.1-0.1,0.2l-0.6,1.4
			c-1.9,5.5-0.9,10,2.8,13.5c0,0,4.6,3.4,8.1,2.2c1.1-0.6,1.8-1.6,2.4-3.2c0.3-1.1,0.2-2.2,0.2-3.3l0-0.3c-0.6-5.2-5-9.3-11-10.2
			l-1.5-0.2C114,36.4,114,36.4,113.9,36.4z"/>
	</g>
	<g>
		<path class="st19" d="M122.1,67.7c1.1-1,1.6-2.3,1.8-3.7c0.1-1.2-0.3-2.4-0.5-3.6c-1.6-5-6.6-8.2-12.6-8c-0.5,0-1,0.1-1.5,0.1
			c-0.5-0.1-0.7,0.1-0.7,0.6c-0.1,0.5-0.2,0.9-0.3,1.4c-0.7,5.2,0.6,9.6,5.3,12.6C113.6,67,118.8,69.6,122.1,67.7z"/>
		<path class="st20" d="M119.1,68.8c-2.8,0-5.5-1.3-5.7-1.4c-4.5-2.9-6.3-7.1-5.6-13l0.3-1.4c0-0.3,0.1-0.5,0.3-0.7
			c0.2-0.2,0.5-0.2,0.8-0.2l1.4-0.1c6.2-0.2,11.4,3.1,13,8.3l0.1,0.4c0.3,1.1,0.5,2.2,0.5,3.4c-0.2,1.1-0.5,2.7-1.9,3.9l-0.1,0
			C121.3,68.6,120.2,68.8,119.1,68.8z M109,52.9c0,0,0,0,0,0.2l-0.3,1.4c-0.7,5.5,1,9.5,5.2,12.2c0,0,5,2.4,8,0.6
			c0.9-0.8,1.4-1.8,1.6-3.4c0-1-0.2-2.1-0.5-3.2l-0.1-0.3c-1.5-4.6-6.1-7.7-11.7-7.7c-0.2,0-0.3,0-0.5,0l-1.5,0.1
			C109,52.9,109,52.9,109,52.9L109,52.9z"/>
	</g>
	<g>
		<path class="st19" d="M119.4,82c1.1-1,1.6-2.3,1.8-3.7c0.1-1.2-0.3-2.4-0.5-3.6c-1.6-5-6.6-8.2-12.6-8c-0.5,0-1,0.1-1.5,0.1
			c-0.5-0.1-0.7,0.1-0.7,0.6c-0.1,0.5-0.2,0.9-0.3,1.4c-0.7,5.2,0.6,9.6,5.3,12.6C110.9,81.4,116.1,84,119.4,82z"/>
		<path class="st20" d="M116.4,83.2c-2.8,0-5.5-1.3-5.7-1.4c-4.5-2.9-6.3-7.1-5.6-13l0.3-1.4c0-0.3,0.1-0.5,0.3-0.7
			c0.2-0.2,0.5-0.2,0.8-0.2l1.4-0.1c6.2-0.2,11.4,3.1,13,8.3l0.1,0.4c0.3,1.1,0.5,2.2,0.5,3.4c-0.2,1.1-0.5,2.7-1.9,3.9l-0.1,0
			C118.6,83,117.5,83.2,116.4,83.2z M106.3,67.3c0,0,0,0,0,0.2l-0.3,1.4c-0.7,5.5,1,9.5,5.2,12.2c0,0,5,2.4,8,0.6
			c0.9-0.8,1.4-1.8,1.6-3.4c0-1-0.2-2.1-0.5-3.2l-0.1-0.3c-1.5-4.8-6.4-7.9-12.2-7.7l-1.5,0.1C106.3,67.2,106.3,67.3,106.3,67.3
			L106.3,67.3z"/>
	</g>
	<g>
		<path class="st19" d="M116.1,96.6c1.1-1,1.6-2.3,1.8-3.7c0.1-1.2-0.3-2.4-0.5-3.6c-1.6-5-6.6-8.2-12.6-8c-0.5,0-1,0.1-1.5,0.1
			c-0.5-0.1-0.7,0.1-0.7,0.6c-0.1,0.5-0.2,0.9-0.3,1.4c-0.7,5.2,0.6,9.6,5.3,12.6C107.6,95.9,112.8,98.5,116.1,96.6z"/>
		<path class="st20" d="M113.1,97.7c-2.8,0-5.5-1.3-5.7-1.4c-4.5-2.9-6.3-7.1-5.6-13l0.3-1.4c0-0.3,0.1-0.5,0.3-0.7
			c0.2-0.2,0.5-0.2,0.8-0.2l1.4-0.1c6.2-0.2,11.4,3.1,13,8.3l0.1,0.3c0.3,1.1,0.5,2.2,0.5,3.4c-0.2,1.1-0.5,2.7-1.9,3.9l-0.1,0
			C115.3,97.5,114.2,97.7,113.1,97.7z M103.1,81.8C103,81.8,103,81.8,103.1,81.8c-0.1,0-0.1,0.1-0.1,0.2l-0.3,1.4
			c-0.7,5.5,1,9.5,5.2,12.2c0,0,5,2.4,8,0.6c0.9-0.8,1.4-1.8,1.6-3.4c0-1-0.2-2.1-0.5-3.2l-0.1-0.3c-1.5-4.8-6.5-7.9-12.2-7.7
			l-1.5,0.1C103.2,81.8,103.1,81.8,103.1,81.8z"/>
	</g>
	<g>
		<path class="st19" d="M128.1,54.7c0.6,1.4,1.8,2.2,3.2,2.9c1.3,0.4,2.6,0.5,3.9,0.6c5.7,0.1,10.6-3.8,12.2-9.6
			c0.1-0.5,0.2-1,0.4-1.4c0.2-0.4,0.1-0.7-0.4-0.8c-0.4-0.2-0.9-0.5-1.3-0.7c-5.1-2.3-10.1-2.5-14.8,1.1
			C131.5,46.8,127.2,50.9,128.1,54.7z"/>
		<path class="st20" d="M135.4,58.5c0,0-0.1,0-0.1,0l-0.4,0c-1.2-0.1-2.5-0.2-3.7-0.6c-1.1-0.5-2.7-1.4-3.4-3.1l0-0.1
			c-1-3.9,3.3-8.1,3.4-8.3c4.4-3.4,9.4-3.8,15.2-1.2l1.3,0.7c0.3,0.1,0.5,0.3,0.6,0.5c0.1,0.2,0.1,0.5-0.1,0.8l-0.3,1.4
			C146.2,54.6,141.2,58.5,135.4,58.5z M128.5,54.5c0.5,1.1,1.4,1.9,3,2.6c1.1,0.4,2.2,0.5,3.4,0.6l0.4,0c0,0,0.1,0,0.1,0
			c5.4,0,10.1-3.7,11.7-9.3l0.4-1.4c0.1-0.2,0.1-0.3,0.1-0.3c0,0-0.1-0.1-0.2-0.1L146,46c-5.5-2.4-10.2-2.1-14.3,1.1
			C131.7,47.1,127.6,51.1,128.5,54.5z"/>
	</g>
	<g>
		<path class="st19" d="M124.9,68.9c0.6,1.4,1.8,2.2,3.2,2.9c1.3,0.4,2.6,0.5,3.9,0.6c5.7,0.1,10.6-3.8,12.2-9.6
			c0.1-0.5,0.2-1,0.4-1.4c0.2-0.4,0.1-0.7-0.4-0.8c-0.4-0.2-0.9-0.5-1.3-0.7c-5.1-2.3-10.1-2.5-14.8,1.1
			C128.2,61,123.9,65.1,124.9,68.9z"/>
		<path class="st20" d="M132.2,72.7c0,0-0.1,0-0.1,0l-0.4,0c-1.2-0.1-2.5-0.2-3.7-0.6c-1.1-0.5-2.7-1.4-3.4-3.1l0-0.1
			c-1-3.9,3.2-8.1,3.4-8.3c4.4-3.4,9.4-3.8,15.2-1.2l1.3,0.7c0.3,0.1,0.5,0.3,0.6,0.5s0.1,0.5-0.1,0.8l-0.3,1.4
			C142.9,68.8,137.9,72.7,132.2,72.7z M125.3,68.7c0.5,1.1,1.4,1.9,3,2.6c1.1,0.4,2.2,0.5,3.4,0.6l0.4,0c0,0,0.1,0,0.1,0
			c5.4,0,10.1-3.7,11.7-9.3l0.4-1.4c0.1-0.2,0.1-0.3,0.1-0.3c0,0-0.1-0.1-0.2-0.1l-1.4-0.7c-5.5-2.4-10.2-2.1-14.3,1.1
			C128.5,61.3,124.4,65.3,125.3,68.7z"/>
	</g>
	<g>
		<path class="st19" d="M122.5,83.7c0.6,1.4,1.8,2.2,3.2,2.9c1.3,0.4,2.6,0.5,3.9,0.6c5.7,0.1,10.6-3.8,12.2-9.6
			c0.1-0.5,0.2-1,0.4-1.4c0.2-0.4,0.1-0.7-0.4-0.8c-0.4-0.2-0.9-0.5-1.3-0.7c-5.1-2.3-10.1-2.5-14.8,1.1
			C125.8,75.8,121.5,80,122.5,83.7z"/>
		<path class="st20" d="M129.7,87.6c0,0-0.1,0-0.1,0l-0.4,0c-1.2-0.1-2.5-0.2-3.7-0.6c-1.1-0.5-2.7-1.4-3.4-3.1l0-0.1
			c-1-3.9,3.3-8.1,3.4-8.3c4.4-3.4,9.4-3.8,15.2-1.2l1.3,0.7c0.3,0.1,0.5,0.3,0.6,0.5c0.1,0.2,0.1,0.5-0.1,0.8l-0.3,1.4
			C140.5,83.7,135.5,87.6,129.7,87.6z M122.8,83.6c0.5,1.1,1.4,1.9,3,2.6c1.1,0.4,2.2,0.5,3.4,0.6l0.4,0c0,0,0.1,0,0.1,0
			c5.4,0,10.1-3.7,11.7-9.3l0.4-1.4c0.1-0.2,0.1-0.3,0.1-0.3c0,0-0.1-0.1-0.2-0.1l-1.4-0.7c-5.5-2.4-10.2-2.1-14.3,1.1
			C126,76.2,122,80.1,122.8,83.6z"/>
	</g>
	<g>
		<path class="st19" d="M117.3,97.4c0.4,1.5,1.5,2.5,2.7,3.3c1.2,0.6,2.5,0.9,3.8,1.2c5.6,0.9,11-2.2,13.6-7.6
			c0.2-0.5,0.4-0.9,0.6-1.4c0.3-0.4,0.2-0.7-0.2-0.9c-0.4-0.3-0.8-0.6-1.2-0.9c-4.7-3-9.6-3.9-14.8-1
			C121.9,90.1,117,93.6,117.3,97.4z"/>
		<path class="st20" d="M123.9,102.3c0,0-0.1,0-0.1,0l-0.4-0.1c-1.2-0.3-2.4-0.6-3.5-1.1c-1-0.7-2.4-1.7-2.9-3.5l0-0.1
			c-0.4-4,4.5-7.5,4.7-7.7c4.9-2.7,9.9-2.4,15.2,1l1.2,0.9c0.3,0.1,0.5,0.3,0.5,0.6c0.1,0.3,0,0.5-0.2,0.8l-0.6,1.3
			C135.2,100,129.6,103.2,123.9,102.3z M117.7,97.3c0.3,1.2,1.1,2.1,2.5,3.1c1,0.5,2.1,0.8,3.3,1.1l0.4,0.1c0,0,0.1,0,0.1,0
			c5.3,0.8,10.6-2.2,13-7.4l0.6-1.3c0.1-0.2,0.1-0.3,0.1-0.3c0,0,0-0.1-0.2-0.1l-1.2-0.9c-5.1-3.2-9.7-3.5-14.3-1
			C122.1,90.4,117.4,93.8,117.7,97.3z"/>
	</g>
	<g>
		<path class="st19" d="M134.3,14.1c-3.8,3-3.8,7.9,0.1,12.6c1.9,2.3,4.3,2.1,8.4-0.7c5.5-4.6,4.1-10.2,2.8-15.9
			c-0.1-0.2-0.2-0.4-0.3-0.6c-0.8-1.3-2.7-1.7-3.7-0.5c0,0,0,0,0,0L134.3,14.1z"/>
		<path class="st20" d="M137.5,28.7c-1.3,0-2.4-0.6-3.3-1.7c-4-4.9-4.1-10-0.1-13.2l0,0l7.3-4.9c0.5-0.6,1.3-0.9,2.2-0.8
			c0.9,0.1,1.7,0.6,2.2,1.4c0.1,0.2,0.2,0.4,0.3,0.6l0.1,0.3c1.3,5.6,2.6,11.4-3,16.1C140.8,27.9,139,28.7,137.5,28.7z M134.6,14.4
			c-3.7,2.9-3.6,7.5,0.2,12.1c1.4,1.7,3.3,2.3,7.9-0.7c5.2-4.3,4-9.6,2.7-15.3l-0.1-0.2c-0.1-0.1-0.1-0.3-0.2-0.5
			c-0.3-0.6-0.9-0.9-1.6-1c-0.6-0.1-1.1,0.2-1.5,0.6l-0.1,0.1L134.6,14.4z"/>
	</g>
	<g>
		<path class="st19" d="M149,37c-3.3,4.9-7.1,6.1-10,6.2c-3.9,0-6.9-3.5-5.8-7.2c0,0,0-0.1,0-0.1c0.6-2.1,2.1-3.9,4.1-5.1
			c2.9-1.8,8.4-4.4,13.3-2.3C150.6,28.5,151.7,33.1,149,37z"/>
		<path class="st20" d="M138.9,43.5c-2,0-3.8-0.9-5.1-2.4c-1.2-1.5-1.6-3.4-1.1-5.3l0-0.1c0.7-2.1,2.2-4,4.2-5.3
			c2.9-1.8,8.6-4.5,13.7-2.3l0.2,0.1l0,0.2c0,0.2,1.1,4.8-1.6,8.8C145.9,42.4,141.8,43.5,138.9,43.5C139,43.5,138.9,43.5,138.9,43.5
			z M146.6,28.1c-3.6,0-7.1,1.7-9.1,3c-1.9,1.2-3.3,2.9-3.9,4.9l0,0.1c-0.5,1.6-0.1,3.2,0.9,4.6c1.1,1.3,2.7,2.1,4.4,2.1
			c0,0,0,0,0.1,0c2.6,0,6.4-1.1,9.7-6l0,0c2.3-3.2,1.7-7.1,1.6-8C149,28.3,147.8,28.1,146.6,28.1z"/>
	</g>
	<g>
		<polygon class="st19" points="87.1,193.2 77.9,100.5 81.2,100.2 90.3,192.9 		"/>
		<path class="st19" d="M84.1,148.2c0,0-17.1-41.4-32.2-39.4c-15.8,2.1-12.6,10.4-12.6,10.4s-2.4-5.6,4.2-8.5
			c25-10.9,31.3,13.1,39.7,27.5L84.1,148.2z"/>
		<path class="st19" d="M85,150.5c0,0,8-32.1,20.9-32.8c13.6-0.7,12.4,6.8,12.4,6.8s1.1-5.1-5-6.5c-22.9-5.3-24.6,11.4-29.2,24.9
			L85,150.5z"/>
		<path class="st19" d="M86.1,165.6c0,0-15.9-28.6-38.6-25.6c-23.9,3.1-20.8,15.4-20.8,15.4s-2.9-7.1,6.4-12.9
			c12.9-8.1,39.4-6.7,52.5,14.4L86.1,165.6z"/>
		<path class="st19" d="M88.7,187c0,0-15.8-27.7-38.6-24.7c-23.9,3.1-20.8,15.4-20.8,15.4s-2.9-7.1,6.4-12.9
			c12.9-8.1,39.4-6.7,52.5,14.4L88.7,187z"/>
	</g>
	<g>
		<path class="st19" d="M104.3,153.3c0,0-3.9-40.9-17.8-42.9c-14.5-2.1-14,6.1-14,6.1s-0.6-5.6,6-6.5c25.1-3.4,24.1,19.4,27.7,34.3
			L104.3,153.3z"/>
		<path class="st19" d="M107.2,142c0,0,15.8-26.4,27.4-23.8c12.2,2.8,9.1,9.1,9.1,9.1s2.4-4.2-2.6-7c-18.8-10.4-24.8,3.9-32.6,14.7
			L107.2,142z"/>
		<path class="st19" d="M103.8,158.3c0,0,18.2-22.3,38.9-17.6c21.7,4.9,16.1,16.2,16.1,16.2s3.3-6.3-4.7-12.4
			c-11.1-8.6-35.3-12.3-49.1,6.7L103.8,158.3z"/>
		<path class="st19" d="M100,177.8c0,0,18.6-24.3,39.3-19.6c21.7,4.9,16.1,16.2,16.1,16.2s3.3-6.3-4.7-12.4
			c-11.1-8.6-35.7-10.4-49.5,8.7L100,177.8z"/>
		<path class="st19" d="M101.3,169.2c0,0-6.3-29.3-27.3-32.3c-22-3.2-22.6,8.4-22.6,8.4s-0.6-7,9.2-9.8c13.6-3.9,36.7,3.9,42.5,25.9
			L101.3,169.2z"/>
		<path class="st19" d="M97.8,188.8c0,0-6.4-28.5-27.4-31.6c-22-3.2-22.6,8.4-22.6,8.4s-0.6-7,9.2-9.8c13.6-3.9,36.7,3.9,42.5,25.9
			L97.8,188.8z"/>
		<polygon class="st19" points="97.8,194.4 94.6,193.8 113.4,99.7 116.6,100.3 		"/>
	</g>
</g>
</svg>
