<?xml version="1.0" standalone="no"?><!DOCTYPE svg PUBLIC "-//W3C//DTD SVG 1.1//EN" "http://www.w3.org/Graphics/SVG/1.1/DTD/svg11.dtd"><svg t="1659928558513" class="icon" viewBox="0 0 1024 1024" version="1.1" xmlns="http://www.w3.org/2000/svg" p-id="2482" xmlns:xlink="http://www.w3.org/1999/xlink" width="200" height="200"><defs><style type="text/css">@font-face { font-family: feedback-iconfont; src: url("//at.alicdn.com/t/font_1031158_u69w8yhxdu.woff2?t=1630033759944") format("woff2"), url("//at.alicdn.com/t/font_1031158_u69w8yhxdu.woff?t=1630033759944") format("woff"), url("//at.alicdn.com/t/font_1031158_u69w8yhxdu.ttf?t=1630033759944") format("truetype"); }
</style></defs><path d="M927.171186 66.020646 94.780155 66.020646c-16.415878 0-29.728068 13.311167-29.728068 29.728068l0 416.196027 59.45716 0L124.509247 125.477806l772.933871 0 0 772.938987L510.976182 898.416793l0 59.45716 416.195004 0c16.416901 0 29.729092-13.310144 29.729092-29.729092L956.900278 95.748714C956.899254 79.331813 943.588087 66.020646 927.171186 66.020646L927.171186 66.020646zM65.051063 957.873953l356.73682 0L421.787884 601.13611 65.051063 601.13611 65.051063 957.873953 65.051063 957.873953zM124.508223 660.59327l237.8225 0 0 237.823524L124.508223 898.416793 124.508223 660.59327 124.508223 660.59327zM778.532891 452.487581l59.453067 0L837.985958 184.934966 570.432319 184.934966l0 59.45716 166.05292 0L460.224288 520.651031l42.043558 42.048675 276.265044-276.264021L778.532891 452.487581 778.532891 452.487581zM778.532891 452.487581" p-id="2483" fill="#17abe3"></path></svg>