<?xml version="1.0" standalone="no"?><!DOCTYPE svg PUBLIC "-//W3C//DTD SVG 1.1//EN" "http://www.w3.org/Graphics/SVG/1.1/DTD/svg11.dtd"><svg t="1653206525873" class="icon" viewBox="0 0 1024 1024" version="1.1" xmlns="http://www.w3.org/2000/svg" p-id="3193" xmlns:xlink="http://www.w3.org/1999/xlink" width="200" height="200"><defs><style type="text/css">@font-face { font-family: feedback-iconfont; src: url("//at.alicdn.com/t/font_1031158_u69w8yhxdu.woff2?t=1630033759944") format("woff2"), url("//at.alicdn.com/t/font_1031158_u69w8yhxdu.woff?t=1630033759944") format("woff"), url("//at.alicdn.com/t/font_1031158_u69w8yhxdu.ttf?t=1630033759944") format("truetype"); }
</style></defs><path d="M916.238694 290.722314 138.030703 290.722314c-11.30344 0-20.466124-9.162684-20.466124-20.466124s9.162684-20.466124 20.466124-20.466124L916.238694 249.790066c11.30344 0 20.466124 9.162684 20.466124 20.466124S927.542134 290.722314 916.238694 290.722314z" p-id="3194" fill="#1296db"></path><path d="M936.702772 495.52477c0 11.307533-9.15859 20.466124-20.466124 20.466124l-778.203898 0c-11.307533 0-20.466124-9.15859-20.466124-20.466124 0-11.2973 9.15859-20.466124 20.466124-20.466124l778.203898 0C927.544181 475.058646 936.702772 484.22747 936.702772 495.52477z" p-id="3195" fill="#1296db"></path><path d="M916.238694 741.263567 138.030703 741.263567c-11.30344 0-20.466124-9.162684-20.466124-20.466124s9.162684-20.466124 20.466124-20.466124L916.238694 700.331319c11.30344 0 20.466124 9.162684 20.466124 20.466124S927.542134 741.263567 916.238694 741.263567z" p-id="3196" fill="#1296db"></path></svg>