<?xml version="1.0" encoding="utf-8"?>
<!-- Generator: Adobe Illustrator 24.0.1, SVG Export Plug-In . SVG Version: 6.00 Build 0)  -->
<svg version="1.1" id="图层_1" xmlns="http://www.w3.org/2000/svg" xmlns:xlink="http://www.w3.org/1999/xlink" x="0px" y="0px"
	 viewBox="0 0 200 200" style="enable-background:new 0 0 200 200;" xml:space="preserve">
<style type="text/css">
	.st0{fill:#995E5E;}
	.st1{fill:#2C9A5C;}
	.st2{fill:#FFFFFF;}
	.st3{fill:#A59D92;}
	.st4{fill:#FFFAD2;}
	.st5{fill:#FFE600;}
	.st6{fill:#FFEC64;}
	.st7{fill:#97CCA1;}
	.st8{fill:#52AF78;}
	.st9{opacity:0.15;fill:#E7F2E9;}
	.st10{fill:#5FC187;}
	.st11{fill:#97B7A2;}
	.st12{opacity:0.15;fill:#D8EFDF;}
	.st13{fill:#FFDC97;}
	.st14{opacity:0.19;fill:#E27C37;}
	.st15{opacity:0.6;fill:#DD7F3E;}
	.st16{fill:#DD9A68;}
	.st17{fill:#9B2C00;}
	.st18{fill:#DDAD6F;}
	.st19{fill:#DDA036;}
	.st20{fill:#E8D7B8;}
	.st21{fill:#FFD400;}
	.st22{fill:#52A072;}
	.st23{fill:#C0DB4B;}
	.st24{fill:#FFC94F;}
	.st25{fill:#B59B78;}
	.st26{fill:#9BD359;}
	.st27{fill:#8FD16B;}
	.st28{fill:#66C66D;}
	.st29{fill:#FFDA00;}
	.st30{fill:none;stroke:#C0DB4B;stroke-width:0.25;stroke-miterlimit:10;}
	.st31{fill:#969696;}
	.st32{fill:#3B7251;}
	.st33{fill:#E03854;}
	.st34{opacity:0.5;fill:#F797A8;}
	.st35{opacity:0.3;fill:#F797A8;}
	.st36{fill:#5CC686;}
	.st37{fill:#AF9579;}
	.st38{fill:#EABE7F;}
	.st39{fill:#D8B280;}
	.st40{fill:#C69A6A;}
	.st41{fill:#9B9FA5;}
	.st42{fill:#DBCFBD;}
	.st43{fill:#BFB5AF;}
	.st44{fill:#E0D489;}
	.st45{fill:#F2CE8F;}
	.st46{fill:#DDA68C;}
	.st47{fill:url(#SVGID_1_);}
	.st48{fill:#98D0E2;}
	.st49{fill:#C4BCCE;}
	.st50{fill:#DCD6E5;}
	.st51{fill:#C1D5E5;}
	.st52{fill:#BABBBC;}
	.st53{fill:#89CCC4;}
	.st54{opacity:0.41;fill:#99E0C3;}
	.st55{fill:url(#SVGID_2_);}
	.st56{fill:url(#SVGID_3_);}
	.st57{opacity:0.57;fill:#FFFFFF;}
	.st58{fill:url(#SVGID_4_);}
	.st59{fill:url(#SVGID_5_);}
	.st60{fill:url(#SVGID_6_);}
	.st61{fill:url(#SVGID_7_);}
	.st62{fill:url(#SVGID_8_);}
	.st63{fill:url(#SVGID_9_);}
	.st64{fill:url(#SVGID_10_);}
	.st65{fill:url(#SVGID_11_);}
	.st66{fill:url(#SVGID_12_);}
	.st67{fill:url(#SVGID_13_);}
	.st68{fill:url(#SVGID_14_);}
	.st69{fill:url(#SVGID_15_);}
	.st70{fill:url(#SVGID_16_);}
	.st71{fill:url(#SVGID_17_);}
	.st72{fill:url(#SVGID_18_);}
	.st73{fill:url(#SVGID_19_);}
	.st74{fill:url(#SVGID_20_);}
	.st75{fill:url(#SVGID_21_);}
	.st76{fill:url(#SVGID_22_);}
	.st77{fill:url(#SVGID_23_);}
	.st78{fill:url(#SVGID_24_);}
	.st79{fill:url(#SVGID_25_);}
	.st80{fill:url(#SVGID_26_);}
	.st81{fill:url(#SVGID_27_);}
	.st82{fill:url(#SVGID_28_);}
	.st83{fill:#B186B2;}
	.st84{fill:#DDC3DC;stroke:#C18DC9;stroke-miterlimit:10;}
	.st85{opacity:0.3;fill:#FFFFFF;}
	.st86{fill:url(#SVGID_29_);}
	.st87{fill:url(#SVGID_30_);}
</style>
<radialGradient id="SVGID_1_" cx="-60.1897" cy="108.7973" r="68.6754" gradientTransform="matrix(1.1868 0 0 1 171.6501 0)" gradientUnits="userSpaceOnUse">
	<stop  offset="0.246" style="stop-color:#EFC5B5"/>
	<stop  offset="0.6151" style="stop-color:#EDBDAB"/>
	<stop  offset="1" style="stop-color:#EAB19C"/>
</radialGradient>
<path class="st47" d="M28.2,82.5c0.9,6.4-5.7,4.7-9.2,9.7c-3.6,5.1-13.5,1.4-13.5,1.4c-1.1,0.2-1.8,1-1.6,1.9l4.3,19.4
	c0.4,1.3,1.7,2.3,3.3,2.6c1.9,0.3,3.5,3.2,4,4.1c0,0,2.4,5.3,10.2,4.4c8.7-1,5.1,10.6,22.1,7.9c6.1-0.9,11.3,2.5,11.5,7.7
	c0.3,6.1-2.4,12.3-1.8,18.4c0.1,0.8,6.2-5.3,7-4.9c4,1.9,5.1,7.1,6.9,3.5l0,0c2.8-3.6,6.1-6.8,9.8-9.6c5.4-4.1,11.1-7.1,17-8.7
	c13.9-3.8,28.5,5.1,31.9,19.1c0.2,0.8,0.3,1.4,0.4,2c0.1,0.7,8.3-5.2,9-4.8c2.1,1.4,2.9,7.1,3.9,5c3.2-6.8,7.6-15.1,10.5-21.9
	c0.8-1.8,1.2-4.3,2.8-5.2c16.3-9.9,20.2-32,12.5-47.2c-0.2-0.4-0.4-0.9-0.6-1.3c-0.4-1,0.7-1.9,1.8-1.5c0,0,0.1,0,0.1,0.1
	c9.4,3.5,14.4,12.3,12.2,20.7c-0.1,0.4-0.2,0.8-0.3,1.2c-1.1,4.3,8.7,9.9,13.1,4.1c1.9-2.6,0.7-6.2-2.8-6.9c-0.9-0.2-3.8-1-4,0.6
	c0,0-0.7,2.3,3.1,1.5c1.6-0.3,4.4,3.9,0.8,5c0,0-7.5,2.8-8-4.3c-0.3-4.1,1.8-6.4-0.4-12.3c-2.2-6.1-7.6-11.1-15-12.1
	c-0.1,0-0.1,0-0.2,0c-1.4-0.2-3.4-0.6-4-1.6C143.8,46.9,79.8,62.6,60,68.4c-1.6-2.5-3.6-8.8-9.2-13c0,0-5,10.3-6.6,16.2l-12-11.6
	C32.2,60.1,26.5,70.3,28.2,82.5z"/>
</svg>
