<?xml version="1.0" encoding="utf-8"?>
<!-- Generator: Adobe Illustrator 24.0.1, SVG Export Plug-In . SVG Version: 6.00 Build 0)  -->
<svg version="1.1" id="图层_1" xmlns="http://www.w3.org/2000/svg" xmlns:xlink="http://www.w3.org/1999/xlink" x="0px" y="0px"
	 viewBox="0 0 200 200" style="enable-background:new 0 0 200 200;" xml:space="preserve">
<style type="text/css">
	.st0{fill:#995E5E;}
	.st1{fill:#2C9A5C;}
	.st2{fill:#FFFFFF;}
	.st3{fill:#A59D92;}
	.st4{fill:#FFFAD2;}
	.st5{fill:#FFE600;}
	.st6{fill:#FFEC64;}
	.st7{fill:#97CCA1;}
	.st8{fill:#52AF78;}
	.st9{opacity:0.15;fill:#E7F2E9;}
	.st10{fill:#5FC187;}
	.st11{fill:#97B7A2;}
	.st12{opacity:0.15;fill:#D8EFDF;}
	.st13{fill:#FFDC97;}
	.st14{opacity:0.19;fill:#E27C37;}
	.st15{opacity:0.6;fill:#DD7F3E;}
	.st16{fill:#DD9A68;}
	.st17{fill:#9B2C00;}
	.st18{fill:#DDAD6F;}
	.st19{fill:#DDA036;}
	.st20{fill:#E8D7B8;}
	.st21{fill:#FFD400;}
	.st22{fill:#52A072;}
	.st23{fill:#C0DB4B;}
	.st24{fill:#FFC94F;}
	.st25{fill:#B59B78;}
	.st26{fill:#9BD359;}
	.st27{fill:#8FD16B;}
	.st28{fill:#66C66D;}
	.st29{fill:#FFDA00;}
	.st30{fill:none;stroke:#C0DB4B;stroke-width:0.25;stroke-miterlimit:10;}
	.st31{fill:#969696;}
	.st32{fill:#3B7251;}
	.st33{fill:#E03854;}
	.st34{opacity:0.5;fill:#F797A8;}
	.st35{opacity:0.3;fill:#F797A8;}
	.st36{fill:#5CC686;}
	.st37{fill:#AF9579;}
	.st38{fill:#EABE7F;}
	.st39{fill:#D8B280;}
	.st40{fill:#C69A6A;}
	.st41{fill:#9B9FA5;}
	.st42{fill:#DBCFBD;}
	.st43{fill:#BFB5AF;}
	.st44{fill:#E0D489;}
	.st45{fill:#F2CE8F;}
	.st46{fill:#DDA68C;}
	.st47{fill:url(#SVGID_1_);}
	.st48{fill:#98D0E2;}
	.st49{fill:#C4BCCE;}
	.st50{fill:#DCD6E5;}
	.st51{fill:#C1D5E5;}
	.st52{fill:#BABBBC;}
	.st53{fill:#89CCC4;}
	.st54{opacity:0.41;fill:#99E0C3;}
	.st55{fill:url(#SVGID_2_);}
	.st56{fill:url(#SVGID_3_);}
	.st57{opacity:0.57;fill:#FFFFFF;}
	.st58{fill:url(#SVGID_4_);}
	.st59{fill:url(#SVGID_5_);}
	.st60{fill:url(#SVGID_6_);}
	.st61{fill:url(#SVGID_7_);}
	.st62{fill:url(#SVGID_8_);}
	.st63{fill:url(#SVGID_9_);}
	.st64{fill:url(#SVGID_10_);}
	.st65{fill:url(#SVGID_11_);}
	.st66{fill:url(#SVGID_12_);}
	.st67{fill:url(#SVGID_13_);}
	.st68{fill:url(#SVGID_14_);}
	.st69{fill:url(#SVGID_15_);}
	.st70{fill:url(#SVGID_16_);}
	.st71{fill:url(#SVGID_17_);}
	.st72{fill:url(#SVGID_18_);}
	.st73{fill:url(#SVGID_19_);}
	.st74{fill:url(#SVGID_20_);}
	.st75{fill:url(#SVGID_21_);}
	.st76{fill:url(#SVGID_22_);}
	.st77{fill:url(#SVGID_23_);}
	.st78{fill:url(#SVGID_24_);}
	.st79{fill:url(#SVGID_25_);}
	.st80{fill:url(#SVGID_26_);}
	.st81{fill:url(#SVGID_27_);}
	.st82{fill:url(#SVGID_28_);}
	.st83{fill:#B186B2;}
	.st84{fill:#DDC3DC;stroke:#C18DC9;stroke-miterlimit:10;}
	.st85{opacity:0.3;fill:#FFFFFF;}
	.st86{fill:url(#SVGID_29_);}
	.st87{fill:url(#SVGID_30_);}
</style>
<path class="st37" d="M175.1,172l-2.2-23.2c-2.8-16-2.3-34.4,0.6-50.4c3.6-20.3-3.1-35.9-3.1-35.9c2.8,2.7,4.1,4.8,5,8
	c1,3.3,1.4,6.8,1.4,10.3c0.1,10,1.4,35.5,12.4,29.2c13.7-7.8,8.8-9.1,8.8-9.1c-16.6,19.2-17-5.1-17-5.1c-2.1-6.5-1.7-24.1-4.1-29.6
	c-7.8-18-39.8-11.2-39.8-11.2c-7.9,0.4-23.8-3.1-31.6-2c-9.1,1.2-13.5,3.1-21.9,0.7c-5.8-1.6-16.8-2.1-24.3-0.5l-7.3,0
	c-2,0-3.4-2.3-2.7-4.5c0.5-1.4-0.2-3-1.4-3.6c-1.5-0.8-3.8-1.4-6.5,0.2c-1.4,0.9-3,0.3-3.8-1.3c-0.6-1.2-1.9-2.4-4.1-3.1
	c-0.4-0.1-0.7-0.3-1-0.6c-1-1-2.8-3.2-3-6.1c0,0-2.6,0.9-1.6,5.4c0.3,1.5-0.3,3.2-1.7,3.7c-0.2,0.1-0.5,0.2-0.7,0.3
	c-2.9,1.5-4.5-4.2-5.7-8.2c0,0-3.7,5.9,0.4,11.1c0.7,0.9,0.6,2.2-0.1,3c-1.7,1.9-4.1,5.2-5.5,9.7c-0.6,2-1.6,3.8-2.9,5.4
	c-2,2.6-4.8,6.9-6.8,7c-3.6,0.2-3.5,3.5-2.8,6.4c0,0-0.8,3.9,2.4,5c0.5,0.2,0.8,0.7,1.1,1.2c0.5,1,0.4,2.9,2.9,2.5c0,0,0.5,2.1,3,0
	c1.8-1.5,7.6-1.4,10.1-0.1c2.1,1.1,6.8,0.5,8.2,0.3c13.2-1.9,12,14,12,14c0.6,7.6,1.1,15.8,2.8,18.9c3.6,6.9,10.5-1.7,14.2,5.1
	c1.7,3,2.6,6.7,3.3,10.2c1.2,5.9-0.5,14.6-0.6,20.8c0,2.3-0.6,4.5-1.6,6.5h0c-0.3,0.5-1.3,1.1-2.2,1.6c-1.2,0.6-2,1.9-2.1,3.6
	l-0.2,2.1c-0.1,0.8,0.5,1.5,1.2,1.6c3.4,0.2,8.3,0.4,10,0.5c0.5,0,1-0.4,1-1c0-1.2,1.1-2.4,0.9-4.1c-1-10.2,2.8-27.8,5.2-30.3
	c0.3-0.3,0.8-0.1,1,0.3c3.3,9.3,2.8,24-1,33c-0.5,1.2-0.9,4.3,1.5,4.2l6.1,0.3c0.7,0,1.3-0.2,1.8-0.7l0,0c0.7-0.7,1.1-1.7,1-2.7
	c-0.2-1.6-0.2-3.2-0.1-4.8c1-9.3-1.9-19-0.7-28.6l0,0c0.2-1.9,1.8-3.3,3.5-3.1c4.5,0.5,8.8,1.1,13,1.4c0,0,0.1,0,0.1,0
	c6.5,0.5,13-1.4,18.5-5.3c3-2.1,6.3-3.3,9.8-3.6l5-0.4l0.2-0.1c6.5-2.1,12.8,3.7,12.5,11.3l-1,22.6c0.2,3.6-3.2,6.1-3.2,9.7
	c0,3.2,0.6,4.1,2.3,4.1l8.8,0.3c1.6,0,1.8-2.1,1.7-3.9l-0.5-3.1c-0.2-1.6-0.3-3.2-0.2-4.7l2-28.8c0.7-4.5,6.2-4.5,7.5-0.6l1.8,23.4
	c0.1,1.7,0.3,3.3,0.6,5c0.5,2.6,1.2,5.7-1.2,7.5c-0.1,0.1-0.2,0.2-0.3,0.4l-0.8,3.3c-0.1,0.5,0.2,1,0.7,1h10.9L175.1,172z"/>
</svg>
