<?xml version="1.0" encoding="utf-8"?>
<!-- Generator: Adobe Illustrator 24.0.1, SVG Export Plug-In . SVG Version: 6.00 Build 0)  -->
<svg version="1.1" id="图层_1" xmlns="http://www.w3.org/2000/svg" xmlns:xlink="http://www.w3.org/1999/xlink" x="0px" y="0px"
	 viewBox="0 0 200 200" style="enable-background:new 0 0 200 200;" xml:space="preserve">
<style type="text/css">
	.st0{fill:#995E5E;}
	.st1{fill:#2C9A5C;}
	.st2{fill:#FFFFFF;}
	.st3{fill:#A59D92;}
	.st4{fill:#FFFAD2;}
	.st5{fill:#FFE600;}
	.st6{fill:#FFEC64;}
	.st7{fill:#97CCA1;}
	.st8{fill:#52AF78;}
	.st9{opacity:0.15;fill:#E7F2E9;}
	.st10{fill:#5FC187;}
	.st11{fill:#97B7A2;}
	.st12{opacity:0.15;fill:#D8EFDF;}
	.st13{fill:#FFDC97;}
	.st14{opacity:0.19;fill:#E27C37;}
	.st15{opacity:0.6;fill:#DD7F3E;}
	.st16{fill:#DD9A68;}
	.st17{fill:#9B2C00;}
	.st18{fill:#DDAD6F;}
	.st19{fill:#DDA036;}
	.st20{fill:#E8D7B8;}
	.st21{fill:#FFD400;}
	.st22{fill:#52A072;}
	.st23{fill:#C0DB4B;}
	.st24{fill:#FFC94F;}
	.st25{fill:#B59B78;}
	.st26{fill:#9BD359;}
	.st27{fill:#8FD16B;}
	.st28{fill:#66C66D;}
	.st29{fill:#FFDA00;}
	.st30{fill:none;stroke:#C0DB4B;stroke-width:0.25;stroke-miterlimit:10;}
	.st31{fill:#969696;}
	.st32{fill:#3B7251;}
	.st33{fill:#E03854;}
	.st34{opacity:0.5;fill:#F797A8;}
	.st35{opacity:0.3;fill:#F797A8;}
	.st36{fill:#5CC686;}
	.st37{fill:#AF9579;}
	.st38{fill:#EABE7F;}
	.st39{fill:#D8B280;}
	.st40{fill:#C69A6A;}
	.st41{fill:#9B9FA5;}
	.st42{fill:#DBCFBD;}
	.st43{fill:#BFB5AF;}
	.st44{fill:#E0D489;}
	.st45{fill:#F2CE8F;}
	.st46{fill:#DDA68C;}
	.st47{fill:url(#SVGID_1_);}
	.st48{fill:#98D0E2;}
	.st49{fill:#C4BCCE;}
	.st50{fill:#DCD6E5;}
	.st51{fill:#C1D5E5;}
	.st52{fill:#BABBBC;}
	.st53{fill:#89CCC4;}
	.st54{opacity:0.41;fill:#99E0C3;}
	.st55{fill:url(#SVGID_2_);}
	.st56{fill:url(#SVGID_3_);}
	.st57{opacity:0.57;fill:#FFFFFF;}
	.st58{fill:url(#SVGID_4_);}
	.st59{fill:url(#SVGID_5_);}
	.st60{fill:url(#SVGID_6_);}
	.st61{fill:url(#SVGID_7_);}
	.st62{fill:url(#SVGID_8_);}
	.st63{fill:url(#SVGID_9_);}
	.st64{fill:url(#SVGID_10_);}
	.st65{fill:url(#SVGID_11_);}
	.st66{fill:url(#SVGID_12_);}
	.st67{fill:url(#SVGID_13_);}
	.st68{fill:url(#SVGID_14_);}
	.st69{fill:url(#SVGID_15_);}
	.st70{fill:url(#SVGID_16_);}
	.st71{fill:url(#SVGID_17_);}
	.st72{fill:url(#SVGID_18_);}
	.st73{fill:url(#SVGID_19_);}
	.st74{fill:url(#SVGID_20_);}
	.st75{fill:url(#SVGID_21_);}
	.st76{fill:url(#SVGID_22_);}
	.st77{fill:url(#SVGID_23_);}
	.st78{fill:url(#SVGID_24_);}
	.st79{fill:url(#SVGID_25_);}
	.st80{fill:url(#SVGID_26_);}
	.st81{fill:url(#SVGID_27_);}
	.st82{fill:url(#SVGID_28_);}
	.st83{fill:#B186B2;}
	.st84{fill:#DDC3DC;stroke:#C18DC9;stroke-miterlimit:10;}
	.st85{opacity:0.3;fill:#FFFFFF;}
	.st86{fill:url(#SVGID_29_);}
	.st87{fill:url(#SVGID_30_);}
</style>
<g>
	<path class="st23" d="M179.3,59.6c-0.3-0.4-26.5-43.5-62.1-49c-15-2.3-29.6,2.3-43.3,13.7c-50.3,42-19.9,160-19.6,161.1l0.2,0.6
		l3.2-0.7l-0.2-0.6c-0.1-0.4-3.6-14-6.3-33.5l3-0.5l-0.1-0.6c-0.1-0.8-13.5-76.3,42.3-96.9c15-5.5,32.2-2.4,43.9,7.9
		c0.8,0.7,19.7,16.7,23.2,32.5l0.1,0.6l3.2-0.6l-0.1-0.6c-3.8-17-23.3-33.3-24.2-34.1c-12.6-11.1-31.2-14.5-47.4-8.5
		c-43.2,16-46.8,62.9-45.7,86.4C46,99.5,47.8,50.3,76.2,26.6c12.9-10.8,26.5-15.1,40.5-13c34,5.2,59.5,47.1,59.7,47.5l0.3,0.6
		l2.9-1.5L179.3,59.6z"/>
	<g>
		<path class="st24" d="M168.3,89.9c0.6-2.4-1.1-4.3-4.3-5c-1.5-0.3-2.5,0.5-3.3,2.8c-0.7,3.5,1.7,5.3,4.2,7.2
			c0.1,0.1,0.2,0.1,0.3,0.1c0.8,0.3,1.7-0.1,1.7-0.9c0,0,0,0,0,0L168.3,89.9z"/>
		<path class="st25" d="M165.8,95.5c-0.2,0-0.5,0-0.7-0.1c-0.1,0-0.2-0.1-0.3-0.2l-0.2-0.1c-2.5-1.9-5-3.8-4.2-7.5
			c0.6-1.9,1.6-3.6,3.8-3.1c3.4,0.8,5.3,2.9,4.6,5.5l0,0l-1.3,4.1c0,0.5-0.3,0.9-0.8,1.1C166.4,95.4,166.1,95.5,165.8,95.5z
			 M165.2,94.5c0,0,0.1,0,0.2,0.1c0.2,0.1,0.5,0.1,0.7-0.1c0.1-0.1,0.3-0.2,0.3-0.5l0-0.1l1.3-4.1c0.5-2.1-1-3.8-3.9-4.5
			c-1.1-0.2-1.9,0.1-2.7,2.5c-0.7,3.1,1.6,4.8,3.9,6.6L165.2,94.5C165.2,94.5,165.2,94.5,165.2,94.5z"/>
	</g>
	<g>
		<path class="st26" d="M51.3,135.4c0,0-11.5-65.6-2.7-118.4c0,0-11,18.7-16.4,53.6c-3.9,25.4-3.4,51.3,1.2,76.6l3.4,18.4
			L51.3,135.4z"/>
		<path class="st27" d="M61.3,171.8c0,0-7.2-58.8,19.8-64.1c22.2-4.4,66.7,39.3,66.7,39.3s-49.4-73.6-80-54.2
			c-27.1,17.1-20.2,77.5-20.2,77.5L61.3,171.8z"/>
		<path class="st28" d="M16.9,13.1c0,0,4.7,132.9,29.6,180.9h25.2C71.7,194,32.4,102.5,16.9,13.1z"/>
	</g>
	<g>
		<path class="st24" d="M170.5,48.7c-0.2,0.8,0,1.5,0.4,2.2c0.4,0.6,0.9,1,1.5,1.5c2.4,1.8,5.9,1.7,8.7-0.2c0.2-0.2,0.4-0.3,0.7-0.5
			c0.2-0.1,0.3-0.3,0.1-0.5c-0.1-0.2-0.2-0.5-0.3-0.7c-1.4-2.6-3.5-4.2-6.8-4.2C174.7,46.4,171.3,46.8,170.5,48.7z"/>
		<path class="st25" d="M176.4,54.1c-1.6,0-3.1-0.5-4.4-1.4l-0.2-0.2c-0.5-0.4-1-0.9-1.4-1.4c-0.3-0.6-0.7-1.5-0.4-2.6l0-0.1
			c1-2.1,4.5-2.5,4.6-2.5c0.1,0,0.1,0,0.2,0c3.2,0,5.5,1.4,7.1,4.4l0.3,0.7c0.1,0.2,0.1,0.4,0.1,0.6c0,0.1-0.2,0.3-0.5,0.5l-0.6,0.4
			C179.8,53.6,178.1,54.1,176.4,54.1z M170.9,48.8c-0.1,0.6,0,1.1,0.4,1.9c0.3,0.4,0.7,0.8,1.2,1.2l0.2,0.1c2.2,1.6,5.5,1.6,8.1-0.2
			l0.6-0.5l-0.3-0.7c-1.5-2.6-3.5-3.9-6.2-3.9c0,0-0.1,0-0.1,0C174.7,46.8,171.7,47.2,170.9,48.8z"/>
	</g>
	<g>
		<path class="st24" d="M166.2,57.1c-1.2-2.7-0.7-4.6,0.2-5.8c1.1-1.6,3.6-1.8,4.9-0.3c0,0,0,0,0,0c0.8,0.9,1.1,2,1.1,3.1
			c0,1.7-0.5,4.6-2.9,6C169.6,60.1,167.2,59.2,166.2,57.1z"/>
		<path class="st25" d="M169.6,60.6l-0.2-0.1c-0.1,0-2.6-1-3.6-3.3c-1.4-3-0.6-5,0.2-6.2c0.6-0.9,1.7-1.4,2.8-1.5
			c1.1,0,2.2,0.4,2.9,1.1c0.9,1,1.3,2.2,1.3,3.4c0,1.7-0.5,4.9-3.1,6.4L169.6,60.6z M169,50.4c-0.1,0-0.1,0-0.2,0
			c-0.8,0-1.6,0.5-2.1,1.1c-1,1.5-1.1,3.3-0.1,5.4l0,0c0.7,1.6,2.3,2.4,2.9,2.7c2-1.3,2.4-4,2.4-5.5c0-1-0.3-2-1-2.8
			C170.5,50.7,169.8,50.4,169,50.4z"/>
	</g>
	<g>
		<path class="st24" d="M165.7,42.8c-0.2,0.8,0,1.5,0.4,2.2c0.4,0.6,0.9,1,1.5,1.5c2.4,1.8,5.9,1.7,8.7-0.2c0.2-0.2,0.4-0.3,0.7-0.5
			c0.2-0.1,0.3-0.3,0.1-0.5c-0.1-0.2-0.2-0.5-0.3-0.7c-1.4-2.6-3.5-4.2-6.8-4.2C170,40.5,166.6,40.9,165.7,42.8z"/>
		<path class="st25" d="M171.7,48.3c-1.6,0-3.1-0.5-4.4-1.4l-0.2-0.2c-0.5-0.4-1-0.9-1.4-1.4c-0.3-0.6-0.7-1.5-0.4-2.6l0-0.1
			c1-2.1,4.5-2.5,4.6-2.5c3.2,0,5.6,1.4,7.3,4.4l0.3,0.7c0.1,0.2,0.1,0.4,0.1,0.6c0,0.1-0.2,0.3-0.5,0.5l-0.6,0.4
			C175.1,47.7,173.4,48.3,171.7,48.3z M166.2,43c-0.1,0.6,0,1.1,0.4,1.9c0.3,0.4,0.7,0.8,1.2,1.2l0.2,0.1c2.2,1.6,5.5,1.6,8.1-0.2
			l0.6-0.5l-0.3-0.7c-1.5-2.6-3.5-3.9-6.2-3.9c0,0-0.1,0-0.1,0C170,41,167,41.3,166.2,43z"/>
	</g>
	<g>
		<path class="st24" d="M161.5,51.2c-1.2-2.7-0.7-4.6,0.2-5.8c1.1-1.6,3.6-1.8,4.9-0.3c0,0,0,0,0,0c0.8,0.9,1.1,2,1.1,3.1
			c0,1.7-0.5,4.6-2.9,6C164.9,54.2,162.5,53.4,161.5,51.2z"/>
		<path class="st25" d="M164.9,54.7l-0.2-0.1c-0.1,0-2.6-1-3.6-3.3c-1.4-3-0.6-5,0.2-6.2c0.6-0.9,1.7-1.4,2.8-1.5
			c1.1-0.1,2.2,0.4,2.9,1.1c0.9,1,1.3,2.2,1.3,3.4c0,1.7-0.5,4.9-3.1,6.4L164.9,54.7z M164.3,44.6c-0.1,0-0.1,0-0.2,0
			c-0.8,0-1.6,0.5-2.1,1.1c-1,1.5-1.1,3.3-0.1,5.4l0,0c0.7,1.6,2.3,2.4,2.9,2.7c2-1.3,2.4-4,2.4-5.5c0-1-0.3-2-1-2.8
			C165.8,44.9,165.1,44.6,164.3,44.6z"/>
	</g>
	<g>
		<path class="st24" d="M161.3,37.6c-0.1,0.8,0.2,1.5,0.7,2.1c0.5,0.5,1.1,0.9,1.7,1.3c2.7,1.5,6.1,1,8.6-1.2
			c0.2-0.2,0.4-0.4,0.6-0.6c0.2-0.1,0.2-0.3,0.1-0.5c-0.1-0.2-0.3-0.4-0.4-0.7c-1.8-2.4-4.1-3.7-7.4-3.3
			C165.2,34.8,161.9,35.6,161.3,37.6z"/>
		<path class="st25" d="M167,42.3c-1.2,0-2.5-0.3-3.6-0.9l-0.2-0.1c-0.6-0.4-1.1-0.7-1.6-1.3c-0.4-0.6-0.9-1.4-0.8-2.5l0-0.1
			c0.7-2.2,4.1-3.1,4.2-3.1c3.2-0.5,5.8,0.7,7.9,3.5l0.4,0.7c0.2,0.2,0.2,0.4,0.2,0.6s-0.1,0.4-0.4,0.5l-0.5,0.5
			C171,41.5,169,42.3,167,42.3z M161.8,37.7c-0.1,0.6,0.1,1.1,0.6,1.8c0.4,0.4,0.9,0.7,1.4,1.1l0.2,0.1c2.5,1.4,5.7,0.9,8-1.2
			l0.6-0.5l-0.4-0.6c-1.9-2.5-4.1-3.5-6.9-3.1l0,0C165.3,35.2,162.4,36,161.8,37.7z"/>
	</g>
	<g>
		<path class="st24" d="M156.6,46.2c-1.2-2.7-0.7-4.6,0.2-5.8c1.1-1.6,3.6-1.8,4.9-0.3c0,0,0,0,0,0c0.8,0.9,1.1,2,1.1,3.1
			c0,1.7-0.5,4.6-2.9,6C160,49.2,157.6,48.4,156.6,46.2z"/>
		<path class="st25" d="M160,49.7l-0.2-0.1c-0.1,0-2.6-1-3.6-3.3c-1.4-3-0.6-5,0.2-6.2c0.6-0.9,1.7-1.4,2.8-1.5
			c1.1,0,2.2,0.4,2.9,1.1c0.9,1,1.3,2.2,1.3,3.4c0,1.7-0.5,4.9-3.1,6.4L160,49.7z M159.4,39.5c-0.1,0-0.1,0-0.2,0
			c-0.8,0-1.6,0.5-2.1,1.1c-1,1.5-1.1,3.3-0.1,5.4l0,0c0.7,1.6,2.3,2.4,2.9,2.7c2-1.3,2.4-4,2.4-5.5c0-1-0.3-2-1-2.8
			C160.9,39.8,160.1,39.5,159.4,39.5z"/>
	</g>
	<g>
		<path class="st24" d="M155.6,31.9c-0.1,0.8,0.2,1.5,0.7,2.2c0.5,0.5,1.1,0.9,1.7,1.3c2.7,1.5,6.1,1,8.6-1.2
			c0.2-0.2,0.4-0.4,0.6-0.6c0.2-0.1,0.2-0.3,0.1-0.5c-0.1-0.2-0.3-0.4-0.4-0.7c-1.8-2.4-4.1-3.7-7.3-3.3
			C159.5,29.1,156.2,29.9,155.6,31.9z"/>
		<path class="st25" d="M161.3,36.7c-1.2,0-2.5-0.3-3.6-0.9l-0.2-0.1c-0.6-0.4-1.1-0.7-1.6-1.3c-0.4-0.6-0.9-1.4-0.8-2.5l0-0.1
			c0.7-2.2,4.1-3,4.2-3.1c3.2-0.4,5.8,0.7,7.9,3.5l0.4,0.7c0.2,0.2,0.2,0.4,0.2,0.6c0,0.1-0.1,0.4-0.4,0.5l-0.5,0.5
			C165.3,35.9,163.3,36.7,161.3,36.7z M156.1,32c-0.1,0.6,0.1,1.1,0.6,1.8c0.4,0.4,0.9,0.7,1.4,1.1l0.2,0.1c2.4,1.4,5.7,0.9,8-1.2
			l0.6-0.5l-0.4-0.6c-1.9-2.5-4.1-3.5-6.9-3.1l0,0C159.6,29.6,156.6,30.3,156.1,32z"/>
	</g>
	<g>
		<path class="st24" d="M152.5,40.9c-1.6-2.6-1.3-4.5-0.7-5.8c0.9-1.7,3.3-2.2,4.9-0.9c0,0,0,0,0.1,0c0.9,0.8,1.4,1.8,1.5,2.9
			c0.2,1.7,0.2,4.6-2,6.3C156.3,43.5,153.8,42.9,152.5,40.9z"/>
		<path class="st25" d="M156.4,43.9l-0.2-0.1c-0.1,0-2.7-0.6-4.1-2.8c-1.8-2.8-1.3-4.9-0.7-6.2c0.5-1,1.4-1.6,2.6-1.8
			c1.1-0.2,2.2,0.1,3,0.8c1,0.9,1.6,2,1.7,3.2c0.2,1.7,0.2,4.9-2.2,6.7L156.4,43.9z M154.7,33.9c-0.2,0-0.3,0-0.5,0
			c-0.8,0.1-1.5,0.6-1.9,1.3c-0.8,1.6-0.6,3.4,0.6,5.3l0,0c0.9,1.5,2.6,2.1,3.2,2.3c1.8-1.6,1.8-4.3,1.7-5.8c-0.1-1-0.6-2-1.4-2.6
			C155.9,34.1,155.3,33.9,154.7,33.9z"/>
	</g>
	<g>
		<path class="st24" d="M139.7,29.9c-1.6-2.6-1.2-4.5-0.5-5.8c0.9-1.7,3.4-2.1,4.9-0.8c0,0,0,0,0,0c0.9,0.8,1.3,1.8,1.4,2.9
			c0.2,1.7,0.1,4.6-2.2,6.3C143.4,32.6,140.9,32,139.7,29.9z"/>
		<path class="st25" d="M143.5,33.1l-0.2-0.1c-0.1,0-2.7-0.7-4-2.9c-1.7-2.8-1.2-4.9-0.5-6.2c0.5-0.9,1.5-1.6,2.6-1.8
			c1.1-0.2,2.2,0.1,3,0.9c1,0.9,1.5,2,1.6,3.3c0.2,1.7,0.1,4.9-2.3,6.7L143.5,33.1z M142,23c-0.1,0-0.3,0-0.4,0
			c-0.8,0.1-1.5,0.6-1.9,1.3c-0.9,1.6-0.7,3.4,0.5,5.4l0,0c0.9,1.5,2.5,2.2,3.2,2.4c1.9-1.5,1.9-4.2,1.8-5.7c-0.1-1-0.6-2-1.3-2.7
			C143.2,23.2,142.6,23,142,23z"/>
	</g>
	<g>
		<path class="st24" d="M134.6,15c-0.1,0.8,0.3,1.5,0.8,2.1c0.5,0.5,1.1,0.9,1.8,1.2c2.8,1.3,6.2,0.7,8.5-1.7
			c0.2-0.2,0.4-0.4,0.6-0.6c0.2-0.1,0.2-0.3,0-0.5c-0.2-0.2-0.3-0.4-0.5-0.6c-1.9-2.3-4.3-3.5-7.5-2.9C138.3,12,135.1,13,134.6,15z"
			/>
		<path class="st25" d="M140.2,19.4c-1.1,0-2.2-0.2-3.2-0.7l-0.2-0.1c-0.6-0.3-1.2-0.7-1.7-1.2c-0.5-0.6-1-1.4-1-2.4l0-0.1
			c0.6-2.2,3.9-3.3,4-3.3c3.2-0.6,5.8,0.4,8.1,3.1l0.5,0.7c0.2,0.2,0.2,0.4,0.2,0.5c0,0.1-0.1,0.4-0.4,0.5l-0.5,0.5
			C144.4,18.6,142.3,19.4,140.2,19.4z M135.1,15c0,0.6,0.2,1.1,0.7,1.8c0.4,0.4,0.9,0.7,1.5,1l0.2,0.1c2.5,1.2,5.7,0.6,7.9-1.6
			l0.5-0.6l-0.4-0.6c-2-2.4-4.3-3.3-7-2.7l0,0C138.4,12.4,135.5,13.3,135.1,15z"/>
	</g>
	<g>
		<path class="st24" d="M132.9,24.7c-1.8-2.5-1.6-4.4-1-5.7c0.8-1.8,3.2-2.4,4.8-1.2c0,0,0,0,0.1,0c0.9,0.7,1.5,1.7,1.7,2.8
			c0.3,1.6,0.5,4.6-1.6,6.4C136.8,27.1,134.3,26.7,132.9,24.7z"/>
		<path class="st25" d="M137,27.6l-0.2,0c-0.1,0-2.8-0.5-4.2-2.6c-1.9-2.7-1.6-4.8-1-6.1c0.4-1,1.3-1.7,2.5-2c1.1-0.3,2.2,0,3.1,0.6
			c1,0.8,1.7,1.9,1.9,3.1c0.3,1.7,0.5,4.9-1.8,6.8L137,27.6z M134.8,17.7c-0.2,0-0.4,0-0.6,0.1c-0.8,0.2-1.5,0.7-1.8,1.4
			c-0.7,1.6-0.4,3.4,1,5.3l0,0c1,1.4,2.7,2,3.4,2.2c1.7-1.7,1.6-4.4,1.3-5.8c-0.2-1-0.7-1.9-1.5-2.6
			C135.9,17.9,135.4,17.7,134.8,17.7z"/>
	</g>
	<g>
		<path class="st24" d="M125.3,13.2c0.2,0.8,0.8,1.3,1.5,1.8c0.6,0.3,1.4,0.5,2.1,0.7c3.1,0.5,6.1-1.1,7.5-4
			c0.1-0.2,0.2-0.5,0.3-0.7c0.2-0.2,0.1-0.4-0.1-0.5c-0.2-0.2-0.4-0.3-0.6-0.5c-2.6-1.6-5.3-2.1-8.1-0.6
			C127.9,9.3,125.1,11.1,125.3,13.2z"/>
		<path class="st25" d="M130,16.1c-0.4,0-0.8,0-1.2-0.1l-0.2-0.1c-0.7-0.2-1.3-0.3-2-0.6c-0.6-0.4-1.4-1-1.7-2l0-0.1
			c-0.2-2.3,2.6-4.2,2.7-4.3c2.8-1.5,5.6-1.3,8.7,0.6L137,10c0.2,0.1,0.3,0.3,0.4,0.5c0,0.1,0,0.4-0.2,0.6l-0.3,0.6
			C135.5,14.5,132.9,16.1,130,16.1z M125.8,13.1c0.2,0.6,0.6,1,1.3,1.5c0.5,0.3,1.1,0.4,1.7,0.5l0.2,0.1c2.8,0.4,5.6-1.1,7-3.8
			l0.3-0.7l-0.6-0.4c-2.7-1.7-5.1-1.9-7.6-0.6l0,0C128.1,9.7,125.7,11.3,125.8,13.1z"/>
	</g>
	<g>
		<path class="st24" d="M126.3,22.8c-2.5-1.8-3-3.7-2.9-5.2c0.2-1.9,2.3-3.2,4.2-2.5c0,0,0,0,0.1,0c1.1,0.4,2,1.2,2.5,2.2
			c0.8,1.5,2,4.3,0.6,6.6C130.8,24,128.3,24.3,126.3,22.8z"/>
		<path class="st25" d="M130.2,24.5c-1,0-2.7-0.2-4.2-1.3c-2.7-2-3.2-4.1-3-5.5c0.1-1.1,0.7-2,1.7-2.6c1-0.6,2.1-0.7,3.1-0.3
			c1.2,0.5,2.2,1.3,2.9,2.4c0.9,1.5,2.1,4.5,0.6,7l-0.1,0.2l-0.2,0C130.8,24.4,130.6,24.5,130.2,24.5z M126.5,15.4
			c-0.5,0-0.9,0.1-1.4,0.4c-0.7,0.4-1.2,1.1-1.2,1.9c-0.2,1.7,0.7,3.4,2.7,4.8l0,0c1.4,1.1,3.2,1.1,3.9,1.1c1.1-2.1,0-4.6-0.7-5.9
			c-0.5-0.9-1.3-1.6-2.3-2C127.2,15.5,126.9,15.4,126.5,15.4z"/>
	</g>
	<g>
		<path class="st24" d="M116,11c0.3,0.8,1,1.2,1.8,1.5c0.7,0.2,1.4,0.3,2.2,0.4c3.1,0.1,5.8-2,6.8-5c0.1-0.3,0.1-0.5,0.2-0.8
			c0.1-0.2,0.1-0.4-0.2-0.5c-0.2-0.1-0.5-0.3-0.7-0.4c-2.8-1.2-5.6-1.4-8.1,0.5C117.9,6.8,115.5,9,116,11z"/>
		<path class="st25" d="M120.1,13.3c0,0-0.1,0-0.1,0l-0.2,0c-0.7-0.1-1.4-0.1-2.1-0.4c-0.7-0.3-1.6-0.8-2-1.8l0-0.1
			c-0.6-2.2,1.9-4.5,2-4.6c2.6-1.9,5.4-2.1,8.7-0.6l0.8,0.4c0.2,0.1,0.4,0.3,0.4,0.4c0.1,0.1,0.1,0.4-0.1,0.6l-0.2,0.7
			C126.2,11.2,123.3,13.3,120.1,13.3z M116.5,10.8c0.3,0.5,0.7,0.9,1.5,1.3c0.5,0.2,1.1,0.2,1.8,0.3l0.2,0c0,0,0.1,0,0.1,0
			c2.8,0,5.3-1.9,6.2-4.7l0.2-0.7l-0.7-0.4c-2.9-1.3-5.4-1.1-7.6,0.5l0,0C118.2,7.1,116.1,9.1,116.5,10.8z"/>
	</g>
	<g>
		<path class="st24" d="M118.6,20.4c-2.8-1.5-3.6-3.3-3.7-4.7c-0.1-1.9,1.7-3.4,3.7-3c0,0,0,0,0.1,0c1.2,0.3,2.2,0.9,2.9,1.8
			c1.1,1.3,2.6,3.9,1.6,6.4C123.2,20.9,120.7,21.6,118.6,20.4z"/>
		<path class="st25" d="M121.5,21.5c-0.9,0-2.1-0.2-3.2-0.8c-3-1.6-3.8-3.6-3.9-5c-0.1-1.1,0.4-2.1,1.2-2.8c0.9-0.7,2-1,3.1-0.7
			c1.3,0.3,2.4,1,3.2,2c1.1,1.4,2.8,4.2,1.7,6.8l-0.1,0.2l-0.2,0.1C123.3,21.3,122.5,21.5,121.5,21.5z M118,13
			c-0.6,0-1.2,0.2-1.7,0.6c-0.6,0.5-1,1.3-0.9,2c0.1,1.7,1.3,3.2,3.4,4.3l0,0c1.6,0.9,3.4,0.6,4,0.5c0.7-2.2-0.7-4.6-1.7-5.8
			c-0.7-0.8-1.6-1.4-2.6-1.7C118.4,13,118.2,13,118,13z"/>
	</g>
	<g>
		<path class="st24" d="M105.3,10.2c0.5,0.7,1.2,1.1,2,1.3c0.7,0.1,1.5,0.1,2.2,0.1c3.1-0.3,5.5-2.7,6-5.9c0-0.3,0.1-0.5,0.1-0.8
			c0.1-0.2,0-0.4-0.3-0.4c-0.3-0.1-0.5-0.2-0.8-0.3c-3-0.9-5.7-0.6-8,1.6C106.5,5.8,104.5,8.3,105.3,10.2z"/>
		<path class="st25" d="M108.4,12.1c-0.4,0-0.8,0-1.3-0.1c-0.7-0.2-1.7-0.6-2.3-1.5l0-0.1c-0.9-2.1,1.2-4.7,1.3-4.8
			c2.3-2.2,5-2.7,8.5-1.7l0.8,0.3c0.3,0,0.4,0.2,0.5,0.3c0.1,0.1,0.1,0.3,0,0.6l-0.1,0.7c-0.5,3.4-3.1,5.9-6.4,6.2l-0.2,0
			C109,12,108.7,12.1,108.4,12.1z M105.7,10c0.3,0.5,0.9,0.8,1.7,1.1c0.6,0.1,1.2,0.1,1.8,0.1l0.2,0c2.8-0.3,5.1-2.5,5.5-5.5
			l0.1-0.8l-0.7-0.3c-3.1-0.9-5.5-0.4-7.5,1.5l0,0C106.9,6.1,105.1,8.4,105.7,10z"/>
	</g>
	<g>
		<path class="st24" d="M109.2,19.2c-3-1.1-4-2.8-4.3-4.2c-0.4-1.9,1.2-3.6,3.2-3.5c0,0,0,0,0.1,0c1.2,0.1,2.3,0.6,3.1,1.4
			c1.2,1.2,3.2,3.6,2.6,6.1C113.9,19.1,111.5,20.1,109.2,19.2z"/>
		<path class="st25" d="M111.3,20c-0.7,0-1.5-0.1-2.3-0.4c-3.2-1.2-4.3-3.1-4.6-4.5c-0.2-1,0.1-2.1,0.8-2.9c0.7-0.8,1.8-1.2,2.9-1.1
			c1.3,0.1,2.6,0.7,3.5,1.6c1.3,1.3,3.4,3.8,2.7,6.5l-0.1,0.2l-0.2,0.1C114,19.5,112.8,20,111.3,20z M107.9,12c-0.8,0-1.5,0.3-2,0.8
			c-0.6,0.6-0.8,1.4-0.6,2.1c0.4,1.7,1.7,3,4,3.9l0,0c1.7,0.7,3.5,0.2,4.1,0c0.4-2.3-1.4-4.4-2.5-5.5c-0.8-0.8-1.8-1.2-2.8-1.3
			C108.1,12,108,12,107.9,12z"/>
	</g>
	<g>
		<path class="st24" d="M95,11.7c0.6,0.6,1.3,0.9,2.2,1c0.7,0,1.5-0.1,2.2-0.3c3-0.8,4.9-3.5,4.9-6.7c0-0.3,0-0.5,0-0.8
			c0-0.2-0.1-0.4-0.3-0.4c-0.3-0.1-0.5-0.1-0.8-0.2c-3.1-0.4-5.7,0.3-7.6,2.8C95.4,7.1,93.8,9.9,95,11.7z"/>
		<path class="st25" d="M97.4,13.1c-0.1,0-0.2,0-0.2,0c-0.7-0.1-1.8-0.3-2.5-1.1l0-0.1c-1.3-2,0.4-4.8,0.4-5c1.8-2.5,4.5-3.5,8.1-3
			l0.8,0.2c0.3,0,0.5,0.1,0.6,0.3c0.1,0.1,0.2,0.3,0.1,0.6l0,0.7c0.1,3.4-2,6.3-5.2,7.1l-0.2,0C98.6,13,98,13.1,97.4,13.1z
			 M95.4,11.4c0.4,0.4,1,0.7,1.9,0.8c0.6,0,1.2-0.1,1.8-0.2l0.2,0c2.7-0.8,4.6-3.3,4.5-6.3l0-0.8l-0.8-0.1c-3.2-0.4-5.5,0.4-7.1,2.6
			l0,0C95.8,7.4,94.4,9.9,95.4,11.4z"/>
	</g>
	<g>
		<path class="st24" d="M100.4,19.9c-3.1-0.6-4.4-2.1-5-3.5c-0.8-1.8,0.5-3.8,2.6-3.9c0,0,0,0,0.1,0c1.2-0.1,2.4,0.3,3.3,0.9
			c1.4,1,3.8,3,3.6,5.7C105,19.1,102.9,20.5,100.4,19.9z"/>
		<path class="st25" d="M101.6,20.5c-0.4,0-0.9,0-1.3-0.1c-3.4-0.7-4.8-2.4-5.3-3.7c-0.4-1-0.3-2.1,0.3-3c0.6-0.9,1.6-1.5,2.7-1.5
			c1.3-0.1,2.6,0.3,3.7,1c1.5,1,4,3.2,3.8,6l0,0.2l-0.2,0.1C105.2,19.5,103.6,20.5,101.6,20.5z M98.4,13c-0.1,0-0.2,0-0.3,0
			c-0.9,0.1-1.6,0.5-2,1.1c-0.4,0.7-0.5,1.5-0.2,2.2c0.7,1.6,2.3,2.7,4.7,3.2l0,0c1.8,0.4,3.4-0.3,4-0.6c0-2.3-2.1-4.1-3.4-5
			C100.3,13.3,99.3,13,98.4,13z"/>
	</g>
	<g>
		<path class="st24" d="M85.4,15c0.7,0.5,1.5,0.6,2.3,0.6c0.7-0.1,1.4-0.4,2.1-0.6c2.8-1.3,4.2-4.2,3.6-7.4
			c-0.1-0.3-0.1-0.5-0.2-0.8c0-0.2-0.1-0.4-0.4-0.3c-0.3,0-0.6,0-0.8,0c-3.1,0.1-5.6,1.2-7,3.9C85,10.4,83.9,13.4,85.4,15z"/>
		<path class="st25" d="M87.5,16c-0.7,0-1.7-0.1-2.5-0.7L85,15.3c-1.6-1.7-0.5-4.8-0.5-5c1.3-2.7,3.8-4.1,7.4-4.2l0.9,0
			c0.3,0,0.5,0.1,0.6,0.2c0.1,0.1,0.3,0.3,0.3,0.6l0.2,0.7c0.7,3.3-0.8,6.5-3.8,7.9l-0.2,0.1c-0.6,0.2-1.3,0.5-2,0.6
			C87.7,16,87.6,16,87.5,16z M85.7,14.7c0.5,0.4,1,0.5,2,0.5c0.6-0.1,1.1-0.3,1.7-0.5l0.2-0.1c2.6-1.2,3.9-3.9,3.3-6.9L92.7,7
			l-0.8,0c-3.3,0.1-5.3,1.3-6.5,3.7l0,0C85.4,10.6,84.5,13.3,85.7,14.7z"/>
	</g>
	<g>
		<path class="st24" d="M92.3,22.3c-3.2-0.1-4.8-1.4-5.6-2.6c-1.1-1.6-0.2-3.8,1.8-4.3c0,0,0,0,0.1,0c1.2-0.3,2.4-0.1,3.5,0.4
			c1.6,0.7,4.3,2.4,4.6,5C96.6,20.7,94.8,22.4,92.3,22.3z"/>
		<path class="st25" d="M92.6,22.7c-0.1,0-0.2,0-0.3,0c-3.5-0.1-5.2-1.6-5.9-2.8c-0.6-0.9-0.7-2-0.3-3c0.4-1,1.3-1.7,2.4-1.9
			c1.3-0.3,2.7-0.2,3.9,0.4c1.7,0.8,4.5,2.5,4.9,5.3l0,0.2L97,21.1C96.9,21.1,95.1,22.7,92.6,22.7z M89.7,15.7c-0.3,0-0.7,0-1,0.1
			c-0.8,0.2-1.5,0.7-1.8,1.4c-0.3,0.7-0.2,1.5,0.2,2.2c1,1.5,2.7,2.3,5.2,2.4h0c1.9,0.1,3.3-0.9,3.8-1.2c-0.4-2.3-2.9-3.8-4.3-4.4
			C91.1,15.8,90.4,15.7,89.7,15.7z"/>
	</g>
	<g>
		<path class="st24" d="M97.7,49.2c0.6,0.6,1.3,0.9,2.2,1c0.7,0,1.5-0.1,2.2-0.3c3-0.8,4.9-3.5,4.9-6.7c0-0.3,0-0.5,0-0.8
			c0-0.2-0.1-0.4-0.3-0.4c-0.3-0.1-0.5-0.1-0.8-0.2c-3.1-0.4-5.7,0.3-7.6,2.8C98.1,44.6,96.6,47.4,97.7,49.2z"/>
		<path class="st25" d="M100.1,50.6c-0.1,0-0.2,0-0.2,0c-0.7-0.1-1.8-0.3-2.5-1.1l0-0.1c-1.3-2,0.4-4.8,0.4-5c1.8-2.5,4.5-3.5,8.1-3
			l0.8,0.2c0.3,0,0.5,0.1,0.6,0.3c0.1,0.1,0.2,0.3,0.1,0.6l0,0.7c0.1,3.4-2,6.3-5.2,7.1l-0.2,0C101.4,50.5,100.7,50.6,100.1,50.6z
			 M98.1,48.9c0.4,0.4,1,0.7,1.9,0.8c0.6,0,1.2-0.1,1.8-0.2l0.2,0c2.7-0.8,4.6-3.3,4.5-6.3l0-0.8l-0.8-0.1c-3.2-0.4-5.5,0.4-7.1,2.6
			l0,0C98.5,44.9,97.2,47.4,98.1,48.9z"/>
	</g>
	<g>
		<path class="st24" d="M103.1,57.4c-3.1-0.6-4.4-2.1-5-3.5c-0.8-1.8,0.5-3.8,2.6-3.9c0,0,0,0,0.1,0c1.2-0.1,2.4,0.3,3.3,0.9
			c1.4,1,3.8,3,3.6,5.7C107.7,56.6,105.6,58,103.1,57.4z"/>
		<path class="st25" d="M104.4,58c-0.4,0-0.9,0-1.3-0.1c-3.4-0.7-4.8-2.4-5.3-3.7c-0.4-1-0.3-2.1,0.3-3c0.6-0.9,1.6-1.5,2.7-1.5
			c1.4-0.1,2.6,0.3,3.7,1c1.5,1,4,3.2,3.8,6l0,0.2L108,57C107.9,57.1,106.4,58,104.4,58z M101.1,50.5c-0.1,0-0.2,0-0.3,0
			c-0.9,0.1-1.6,0.5-2,1.1c-0.4,0.7-0.5,1.5-0.2,2.2c0.7,1.6,2.3,2.7,4.7,3.2l0,0c1.8,0.4,3.5-0.3,4-0.6c0-2.3-2.1-4.1-3.4-5
			C103,50.8,102.1,50.5,101.1,50.5z"/>
	</g>
	<g>
		<path class="st24" d="M87,52.8c0.7,0.5,1.5,0.6,2.3,0.5c0.7-0.1,1.4-0.4,2.1-0.7c2.7-1.4,4.1-4.4,3.3-7.5
			c-0.1-0.3-0.1-0.5-0.2-0.8c0-0.2-0.1-0.3-0.4-0.3c-0.3,0-0.6,0-0.8,0c-3.1,0.2-5.6,1.4-6.8,4.2C86.4,48.3,85.5,51.3,87,52.8z"/>
		<path class="st25" d="M89,53.8c-0.7,0-1.5-0.1-2.3-0.6l-0.1,0c-1.7-1.7-0.7-4.8-0.7-4.9c1.2-2.8,3.6-4.3,7.2-4.5l0.5,0l0.4,0
			c0.3-0.1,0.5,0.1,0.6,0.1c0.1,0.1,0.3,0.3,0.3,0.6l0.2,0.7c0.8,3.3-0.6,6.5-3.5,8l-0.2,0.1c-0.6,0.3-1.3,0.5-2,0.6
			C89.3,53.8,89.1,53.8,89,53.8z M87.3,52.5c0.5,0.3,1.1,0.5,2,0.4c0.6-0.1,1.1-0.3,1.7-0.6l0.2-0.1c2.5-1.3,3.7-4.1,3-7L94,44.6
			l-0.8,0c-3.2,0.2-5.3,1.5-6.4,3.9l0,0C86.9,48.5,86.1,51.2,87.3,52.5z"/>
	</g>
	<g>
		<path class="st24" d="M94.2,59.8c-3.2,0-4.8-1.2-5.7-2.4c-1.1-1.6-0.3-3.8,1.6-4.3c0,0,0,0,0.1,0c1.1-0.3,2.4-0.2,3.5,0.3
			c1.6,0.7,4.4,2.2,4.8,4.8C98.5,58.2,96.7,59.9,94.2,59.8z"/>
		<path class="st25" d="M94.3,60.3c0,0-0.1,0-0.1,0c-3.5,0-5.2-1.4-6.1-2.6c-0.6-0.9-0.8-2-0.4-3c0.4-1,1.2-1.7,2.3-2
			c1.3-0.3,2.6-0.2,3.9,0.3c1.7,0.7,4.6,2.4,5.1,5.2l0,0.2l-0.2,0.2C98.7,58.6,96.9,60.3,94.3,60.3z M91.5,53.3
			c-0.4,0-0.8,0.1-1.2,0.2c-0.8,0.2-1.4,0.8-1.7,1.5c-0.3,0.7-0.2,1.5,0.3,2.2c1,1.5,2.8,2.2,5.3,2.2h0c0,0,0.1,0,0.1,0
			c1.8,0,3.2-1,3.7-1.4c-0.5-2.3-3-3.6-4.5-4.3C92.8,53.5,92.2,53.3,91.5,53.3z"/>
	</g>
	<g>
		<path class="st24" d="M179.7,56.6c-0.2-2.4-2.5-3.8-5.7-3.5c-1.6,0.1-2.2,1.2-2.2,3.6c0.4,3.5,3.4,4.5,6.4,5.6c0.1,0,0.2,0,0.3,0
			c0.8,0.1,1.5-0.6,1.3-1.4c0,0,0,0,0,0L179.7,56.6z"/>
		<path class="st25" d="M178.6,62.7c-0.1,0-0.1,0-0.2,0c-0.1,0-0.3,0-0.4-0.1l-0.2-0.1c-3-1.1-6.1-2.2-6.5-5.9
			c0-1.9,0.3-3.9,2.6-4.1c3.5-0.3,6,1.3,6.2,3.9l0,0l0.1,4.3c0.1,0.5,0,0.9-0.3,1.3C179.6,62.5,179.1,62.7,178.6,62.7z M178.3,61.8
			c0,0,0.1,0,0.2,0c0.3,0,0.5-0.1,0.7-0.3c0.1-0.1,0.2-0.3,0.1-0.5l0-0.1l-0.1-4.3c-0.2-2.1-2.2-3.3-5.2-3.1
			c-1.1,0.1-1.8,0.6-1.7,3.1c0.4,3.1,3.1,4.1,5.9,5.2L178.3,61.8C178.3,61.8,178.3,61.8,178.3,61.8z"/>
	</g>
	<g>
		<path class="st24" d="M161.4,81.2c-0.4,0.7-0.3,1.5-0.1,2.2c0.3,0.6,0.7,1.2,1.1,1.7c2,2.2,5.4,2.8,8.5,1.5
			c0.3-0.1,0.5-0.2,0.8-0.3c0.3-0.1,0.3-0.2,0.2-0.4c-0.1-0.3-0.1-0.5-0.2-0.8c-0.8-2.8-2.5-4.8-5.8-5.4
			C166.1,79.8,162.7,79.5,161.4,81.2z"/>
		<path class="st25" d="M167.6,87.8c-2.2,0-4.2-0.8-5.5-2.4l-0.1-0.2c-0.4-0.5-0.8-1.1-1.1-1.7c-0.2-0.7-0.4-1.6,0.1-2.6l0-0.1
			c1.4-1.9,4.9-1.6,5.1-1.6c3.2,0.6,5.2,2.4,6.2,5.7l0.2,0.8c0.1,0.2,0,0.4,0,0.6s-0.2,0.3-0.6,0.4l-0.7,0.3
			C170,87.6,168.8,87.8,167.6,87.8z M161.8,81.4c-0.3,0.5-0.3,1.1-0.1,1.9c0.2,0.5,0.6,1,0.9,1.5l0.1,0.2c1.8,2,5,2.6,8,1.3l0.7-0.3
			l-0.2-0.7c-0.9-2.9-2.6-4.5-5.4-5l0,0C165.9,80.2,163,80,161.8,81.4z"/>
	</g>
	<g>
		<path class="st24" d="M155.5,88.6c-0.6-2.9,0.3-4.6,1.4-5.6c1.5-1.3,3.9-1,4.9,0.6c0,0,0,0,0,0.1c0.6,1,0.7,2.1,0.4,3.2
			c-0.4,1.6-1.5,4.4-4.1,5.3C158.1,92.2,155.9,90.9,155.5,88.6z"/>
		<path class="st25" d="M158,92.7l-0.2-0.1c-0.1-0.1-2.3-1.4-2.8-3.9c-0.7-3.2,0.5-5,1.6-6c0.8-0.8,1.9-1.1,3.1-0.9
			c1.1,0.2,2.1,0.8,2.6,1.7c0.6,1.1,0.8,2.4,0.5,3.6c-0.4,1.7-1.6,4.7-4.4,5.7L158,92.7z M159.1,82.6c-0.7,0-1.4,0.3-1.9,0.7
			c-1.3,1.2-1.8,3-1.3,5.2l0,0c0.3,1.7,1.7,2.8,2.2,3.2c2.3-0.9,3.2-3.5,3.6-4.9c0.3-1,0.1-2.1-0.4-2.9c-0.4-0.7-1.1-1.2-1.9-1.3
			C159.3,82.6,159.2,82.6,159.1,82.6z"/>
	</g>
	<g>
		<path class="st24" d="M157,75.2c-0.3,0.8-0.2,1.5,0.1,2.2c0.3,0.6,0.8,1.1,1.3,1.6c2.2,2,5.7,2.3,8.7,0.6c0.2-0.1,0.5-0.3,0.7-0.4
			c0.2-0.1,0.3-0.2,0.2-0.5c-0.1-0.2-0.2-0.5-0.2-0.7c-1.2-2.7-3.1-4.5-6.3-4.8C161.5,73.4,158.1,73.4,157,75.2z"/>
		<path class="st25" d="M163.1,81.3c-1.8,0-3.6-0.6-5-1.8l-0.2-0.2c-0.5-0.5-0.9-1-1.2-1.6c-0.3-0.7-0.6-1.6-0.2-2.6l0-0.1
			c1.2-2,4.7-2.1,4.9-2.1c3.2,0.3,5.4,1.9,6.8,5.1l0.3,0.8c0.1,0.2,0.1,0.4,0,0.6c-0.1,0.1-0.2,0.3-0.5,0.4l-0.6,0.4
			C166,80.9,164.6,81.3,163.1,81.3z M157.5,75.4c-0.2,0.6-0.2,1.1,0.2,1.9c0.3,0.5,0.7,0.9,1.1,1.3l0.1,0.1c2.1,1.8,5.3,2.1,8.1,0.6
			l0.7-0.4l-0.2-0.7c-1.2-2.8-3.1-4.2-5.9-4.5C161.5,73.8,158.4,73.9,157.5,75.4z"/>
	</g>
	<g>
		<path class="st24" d="M151.9,83.2c-0.9-2.8-0.2-4.7,0.8-5.7c1.3-1.5,3.8-1.4,5,0.1c0,0,0,0,0,0.1c0.7,0.9,0.9,2.1,0.8,3.2
			c-0.2,1.7-1,4.6-3.5,5.7C154.9,86.5,152.6,85.4,151.9,83.2z"/>
		<path class="st25" d="M154.9,87l-0.2-0.1c-0.1,0-2.5-1.2-3.3-3.6c-1-3.1-0.1-5.1,0.9-6.2c0.7-0.8,1.8-1.3,2.9-1.2
			c1.1,0,2.1,0.6,2.8,1.4c0.7,1,1,2.3,0.9,3.5c-0.2,1.7-1,4.8-3.8,6.1L154.9,87z M155.1,76.8c-0.8,0-1.6,0.3-2.1,0.9
			c-1.2,1.4-1.4,3.2-0.7,5.3l0,0c0.5,1.6,2,2.6,2.6,2.9c2.2-1.1,2.8-3.8,3-5.3c0.1-1-0.1-2.1-0.7-2.9c-0.5-0.7-1.2-1-2.1-1.1
			C155.2,76.8,155.2,76.8,155.1,76.8z"/>
	</g>
	<g>
		<path class="st24" d="M152.2,69.1c-0.2,0.8,0,1.5,0.4,2.2c0.4,0.6,0.9,1,1.5,1.5c2.4,1.8,5.9,1.8,8.7-0.1c0.2-0.2,0.4-0.3,0.7-0.5
			c0.2-0.1,0.3-0.3,0.1-0.5c-0.1-0.2-0.2-0.5-0.3-0.7c-1.4-2.6-3.5-4.2-6.8-4.2C156.5,66.8,153.1,67.2,152.2,69.1z"/>
		<path class="st25" d="M158.2,74.6c-1.6,0-3.2-0.5-4.4-1.4l-0.2-0.2c-0.5-0.4-1-0.9-1.4-1.5c-0.3-0.6-0.7-1.5-0.4-2.6l0-0.1
			c1-2.1,4.5-2.5,4.6-2.5c0,0,0,0,0.1,0c3.2,0,5.6,1.5,7.2,4.5l0.3,0.7c0.1,0.2,0.1,0.4,0.1,0.6c0,0.1-0.2,0.3-0.5,0.5L163,73
			C161.5,74.1,159.8,74.6,158.2,74.6z M152.7,69.2c-0.1,0.6,0,1.1,0.3,1.9c0.3,0.4,0.7,0.8,1.2,1.2l0.2,0.1c2.2,1.7,5.5,1.6,8.1-0.1
			l0.6-0.5l-0.3-0.7c-1.5-2.7-3.5-3.9-6.3-3.9c0,0,0,0-0.1,0C156.5,67.3,153.5,67.6,152.7,69.2z"/>
	</g>
	<g>
		<path class="st24" d="M147.9,77.4c-1.2-2.7-0.6-4.6,0.2-5.8c1.1-1.6,3.6-1.7,4.9-0.3c0,0,0,0,0,0c0.8,0.9,1.1,2,1.1,3.1
			c-0.1,1.7-0.5,4.6-2.9,6C151.2,80.5,148.8,79.6,147.9,77.4z"/>
		<path class="st25" d="M151.3,81l-0.2-0.1c-0.1,0-2.6-1-3.6-3.3c-1.3-3-0.6-5,0.3-6.2c0.6-0.9,1.7-1.4,2.8-1.5
			c1.1-0.1,2.2,0.4,2.9,1.2c0.8,1,1.3,2.2,1.2,3.4c-0.1,1.7-0.6,4.9-3.2,6.4L151.3,81z M150.7,70.8c0,0-0.1,0-0.1,0
			c-0.8,0-1.6,0.4-2.1,1.1c-1.1,1.5-1.1,3.3-0.2,5.4l0,0c0.7,1.6,2.3,2.5,2.8,2.7c2.1-1.3,2.5-4,2.5-5.5c0-1-0.3-2-1-2.8
			C152.2,71.1,151.5,70.8,150.7,70.8z"/>
	</g>
	<g>
		<path class="st24" d="M148.6,65c-0.2,0.8,0,1.5,0.4,2.2c0.4,0.6,0.9,1,1.5,1.5c2.4,1.8,5.9,1.8,8.7-0.1c0.2-0.2,0.4-0.3,0.7-0.5
			c0.2-0.1,0.3-0.3,0.1-0.5c-0.1-0.2-0.2-0.5-0.3-0.7c-1.4-2.6-3.5-4.2-6.8-4.2C152.9,62.7,149.5,63.1,148.6,65z"/>
		<path class="st25" d="M154.6,70.5c-1.6,0-3.2-0.5-4.4-1.4l-0.2-0.2c-0.5-0.4-1-0.9-1.4-1.5c-0.3-0.6-0.7-1.5-0.4-2.6l0-0.1
			c1-2.1,4.5-2.5,4.6-2.5c0,0,0,0,0.1,0c3.2,0,5.6,1.5,7.2,4.5l0.3,0.7c0.1,0.2,0.1,0.4,0.1,0.6c0,0.1-0.2,0.3-0.5,0.5l-0.6,0.4
			C158,70,156.3,70.5,154.6,70.5z M149.1,65.1c-0.1,0.6,0,1.1,0.3,1.9c0.3,0.4,0.7,0.8,1.2,1.3l0.2,0.1c2.2,1.7,5.5,1.6,8.1-0.1
			l0.6-0.5l-0.3-0.7c-1.5-2.7-3.5-4-6.3-4c0,0,0,0-0.1,0C152.9,63.2,149.9,63.5,149.1,65.1z"/>
	</g>
	<g>
		<path class="st24" d="M144.3,73.3c-1.2-2.7-0.6-4.6,0.2-5.8c1.1-1.6,3.6-1.7,4.9-0.3c0,0,0,0,0,0c0.8,0.9,1.1,2,1.1,3.1
			c-0.1,1.7-0.5,4.6-2.9,6C147.7,76.4,145.3,75.5,144.3,73.3z"/>
		<path class="st25" d="M147.7,76.9l-0.2-0.1c-0.1,0-2.6-1-3.6-3.3c-1.3-3-0.6-5,0.3-6.2c0.6-0.9,1.7-1.4,2.8-1.5
			c1.1-0.1,2.2,0.4,2.9,1.2c0.8,1,1.3,2.2,1.2,3.4c-0.1,1.7-0.6,4.9-3.2,6.4L147.7,76.9z M147.2,66.7c0,0-0.1,0-0.1,0
			c-0.8,0-1.6,0.4-2.1,1.1c-1.1,1.5-1.1,3.3-0.2,5.4l0,0c0.7,1.6,2.3,2.5,2.8,2.7c2.1-1.3,2.5-4,2.5-5.5c0-1-0.3-2-1-2.8
			C148.6,67,147.9,66.7,147.2,66.7z"/>
	</g>
	<g>
		<path class="st24" d="M143.6,59.8c-0.2,0.8,0,1.5,0.4,2.2c0.4,0.6,0.9,1,1.5,1.5c2.4,1.8,5.9,1.8,8.7-0.1c0.2-0.2,0.4-0.3,0.7-0.5
			c0.2-0.1,0.3-0.3,0.1-0.5c-0.1-0.2-0.2-0.5-0.3-0.7c-1.4-2.6-3.5-4.2-6.8-4.2C147.9,57.5,144.5,57.9,143.6,59.8z"/>
		<path class="st25" d="M149.6,65.3c-1.6,0-3.2-0.5-4.4-1.4l-0.2-0.1c-0.5-0.4-1-0.9-1.4-1.5c-0.3-0.6-0.7-1.5-0.4-2.6l0-0.1
			c1-2.1,4.5-2.5,4.6-2.5c0,0,0,0,0.1,0c3.2,0,5.6,1.5,7.2,4.5l0.3,0.7c0.1,0.2,0.1,0.4,0.1,0.6c0,0.1-0.2,0.3-0.5,0.5l-0.6,0.4
			C152.9,64.8,151.2,65.3,149.6,65.3z M144.1,59.9c-0.1,0.6,0,1.1,0.3,1.9c0.3,0.5,0.8,0.8,1.2,1.3l0.1,0.1c2.2,1.7,5.5,1.6,8.1-0.1
			l0.6-0.5l-0.3-0.7c-1.5-2.7-3.5-4-6.3-4c0,0,0,0-0.1,0C147.9,58,144.9,58.3,144.1,59.9z"/>
	</g>
	<g>
		<path class="st24" d="M139.3,68.1c-1.2-2.7-0.6-4.6,0.2-5.8c1.1-1.6,3.6-1.7,4.9-0.3c0,0,0,0,0,0c0.8,0.9,1.1,2,1.1,3.1
			c-0.1,1.7-0.5,4.6-2.9,6C142.6,71.2,140.2,70.3,139.3,68.1z"/>
		<path class="st25" d="M142.7,71.7l-0.2-0.1c-0.1,0-2.6-1-3.6-3.3c-1.3-3-0.6-5,0.3-6.2c0.6-0.9,1.7-1.4,2.8-1.5
			c1.1-0.1,2.2,0.4,2.9,1.2c0.8,1,1.3,2.2,1.2,3.4c-0.1,1.7-0.6,4.9-3.2,6.4L142.7,71.7z M142.1,61.5c0,0-0.1,0-0.1,0
			c-0.8,0-1.6,0.4-2.1,1.1c-1.1,1.5-1.1,3.3-0.2,5.4l0,0c0.7,1.6,2.3,2.5,2.8,2.7c2.1-1.3,2.5-4,2.5-5.5c0-1.1-0.3-2-1-2.8
			C143.6,61.8,142.9,61.5,142.1,61.5z"/>
	</g>
	<g>
		<path class="st24" d="M136.4,54.4c-0.1,0.8,0.2,1.5,0.7,2.1c0.5,0.5,1.1,0.9,1.7,1.3c2.6,1.5,6.1,1.1,8.6-1
			c0.2-0.2,0.4-0.4,0.6-0.5c0.2-0.1,0.3-0.3,0.1-0.5c-0.1-0.2-0.3-0.4-0.4-0.7c-1.7-2.4-4-3.8-7.2-3.4
			C140.3,51.7,137,52.5,136.4,54.4z"/>
		<path class="st25" d="M142.1,59.2c-1.3,0-2.6-0.3-3.7-1l-0.2-0.1c-0.6-0.4-1.1-0.8-1.6-1.3c-0.4-0.6-0.9-1.4-0.8-2.5l0-0.1
			c0.7-2.1,4.1-2.9,4.2-3c3.2-0.4,5.7,0.8,7.8,3.6l0.4,0.7c0.2,0.2,0.2,0.4,0.2,0.6c0,0.1-0.1,0.4-0.4,0.5l-0.5,0.5
			C146,58.5,144,59.2,142.1,59.2z M136.8,54.5c-0.1,0.6,0.1,1.1,0.6,1.8c0.4,0.4,0.9,0.7,1.4,1.1l0.2,0.1c2.4,1.4,5.6,1,8-1l0.6-0.5
			l-0.4-0.6c-1.8-2.5-4-3.5-6.8-3.2l0,0C140.4,52.2,137.4,52.9,136.8,54.5z"/>
	</g>
	<g>
		<path class="st24" d="M134.1,63.9c-1.6-2.6-1.2-4.5-0.5-5.8c0.9-1.7,3.4-2.1,4.9-0.8c0,0,0,0,0,0c0.9,0.8,1.4,1.8,1.5,2.9
			c0.2,1.7,0.1,4.6-2.1,6.3C137.8,66.5,135.3,65.9,134.1,63.9z"/>
		<path class="st25" d="M137.9,67l-0.2-0.1c-0.1,0-2.7-0.7-4-2.9c-1.7-2.8-1.2-4.9-0.6-6.2c0.5-1,1.5-1.6,2.6-1.8
			c1.1-0.2,2.2,0.1,3,0.8c1,0.9,1.5,2,1.7,3.3c0.2,1.7,0.1,4.9-2.3,6.7L137.9,67z M136.4,57c-0.2,0-0.3,0-0.5,0
			c-0.8,0.1-1.5,0.6-1.9,1.3c-0.9,1.6-0.7,3.4,0.5,5.4l0,0c0.9,1.5,2.6,2.2,3.2,2.4c1.9-1.5,1.9-4.2,1.8-5.7c-0.1-1-0.6-2-1.3-2.7
			C137.7,57.2,137,57,136.4,57z"/>
	</g>
	<g>
		<path class="st24" d="M128.5,50.7c0.1,0.8,0.5,1.4,1.1,2c0.6,0.4,1.3,0.7,1.9,1c2.9,1,6.2-0.1,8.2-2.8c0.2-0.2,0.3-0.4,0.5-0.7
			c0.2-0.2,0.2-0.3,0-0.5c-0.2-0.2-0.4-0.4-0.6-0.6c-2.3-2-4.8-2.9-7.9-1.9C131.7,47.3,128.7,48.7,128.5,50.7z"/>
		<path class="st25" d="M133.7,54.5c-0.8,0-1.6-0.1-2.3-0.4l-0.2-0.1c-0.6-0.3-1.3-0.5-1.8-0.9c-0.5-0.5-1.2-1.2-1.3-2.3l0,0l0,0
			c0.2-2.3,3.3-3.7,3.5-3.8c3.1-1,5.8-0.4,8.4,2l0.6,0.6c0.2,0.1,0.3,0.4,0.3,0.5c0,0.1,0,0.4-0.3,0.6l-0.4,0.6
			C138.5,53.3,136.1,54.5,133.7,54.5z M129,50.7c0.1,0.6,0.4,1.1,1,1.7c0.4,0.3,1,0.6,1.6,0.8l0.2,0.1c2.7,0.9,5.7-0.2,7.6-2.6
			l0.4-0.6l-0.5-0.5c-2.4-2.1-4.7-2.7-7.4-1.8l0,0C131.9,47.7,129.1,49,129,50.7z"/>
	</g>
	<g>
		<path class="st24" d="M128.1,61.2c-2.1-2.2-2.3-4.2-1.9-5.5c0.5-1.9,2.8-2.8,4.6-1.8c0,0,0,0,0.1,0c1,0.6,1.7,1.5,2.1,2.6
			c0.5,1.6,1.2,4.5-0.6,6.6C132.3,63.1,129.7,63,128.1,61.2z"/>
		<path class="st25" d="M132.5,63.5l-0.2,0c-0.1,0-2.8-0.1-4.6-2c-2.3-2.4-2.4-4.6-2-5.9c0.3-1,1.1-1.9,2.1-2.3
			c1-0.4,2.2-0.3,3.2,0.2c1.1,0.7,2,1.7,2.4,2.9c0.6,1.7,1.2,4.8-0.7,7L132.5,63.5z M129.2,54c-0.3,0-0.7,0.1-1,0.2
			c-0.8,0.3-1.4,0.9-1.6,1.7c-0.5,1.7,0.1,3.4,1.8,5.1l0,0c1.2,1.3,3,1.6,3.6,1.7c1.5-1.9,0.9-4.5,0.4-6c-0.3-1-1-1.8-1.9-2.3
			C130.1,54.1,129.7,54,129.2,54z"/>
	</g>
	<g>
		<path class="st24" d="M119.1,47.2c0.1,0.8,0.7,1.4,1.3,1.9c0.6,0.4,1.3,0.6,2,0.8c3,0.7,6.2-0.6,7.9-3.4c0.1-0.2,0.3-0.5,0.4-0.7
			c0.2-0.2,0.1-0.3-0.1-0.5c-0.2-0.2-0.4-0.4-0.6-0.5c-2.4-1.8-5.1-2.5-8-1.3C122,43.5,119.1,45.2,119.1,47.2z"/>
		<path class="st25" d="M124.1,50.5c-0.6,0-1.2-0.1-1.8-0.2l-0.2-0.1c-0.6-0.2-1.3-0.4-1.9-0.8c-0.6-0.4-1.3-1.1-1.5-2.2l0-0.1
			c0-2.3,3-4,3.1-4.1c3-1.3,5.8-0.8,8.6,1.3L131,45c0.2,0.1,0.3,0.3,0.3,0.5c0,0.1,0,0.4-0.2,0.6l-0.3,0.6
			C129.3,49.1,126.7,50.5,124.1,50.5z M119.6,47.2c0.1,0.6,0.5,1.1,1.1,1.6c0.5,0.3,1,0.5,1.7,0.7l0.2,0.1c2.8,0.7,5.7-0.6,7.3-3.2
			l0.4-0.7l-0.6-0.5c-2.5-1.9-4.9-2.3-7.5-1.2l0,0C122.2,43.9,119.6,45.4,119.6,47.2z"/>
	</g>
	<g>
		<path class="st24" d="M119.8,57.7c-2.3-2-2.6-4-2.4-5.4c0.3-1.9,2.5-3,4.4-2.1c0,0,0,0,0.1,0c1.1,0.5,1.9,1.4,2.3,2.4
			c0.7,1.5,1.6,4.4,0,6.6C124.2,59.2,121.6,59.3,119.8,57.7z"/>
		<path class="st25" d="M124,59.6c-0.6,0-2.9-0.1-4.6-1.7c-2.5-2.2-2.8-4.4-2.5-5.8c0.2-1.1,0.9-1.9,1.9-2.4c1-0.5,2.2-0.5,3.2,0
			c1.2,0.6,2.1,1.5,2.6,2.7c0.7,1.6,1.6,4.6-0.1,7l-0.1,0.2l-0.2,0C124.2,59.6,124.1,59.6,124,59.6z M120.5,50.3
			c-0.4,0-0.8,0.1-1.2,0.3c-0.8,0.4-1.3,1-1.4,1.8c-0.3,1.7,0.4,3.4,2.2,5l0,0c1.3,1.2,3.1,1.4,3.8,1.4c1.3-2,0.5-4.6-0.2-6
			c-0.4-1-1.2-1.7-2.1-2.2C121.2,50.4,120.8,50.3,120.5,50.3z"/>
	</g>
	<g>
		<path class="st24" d="M108.4,47c0.4,0.7,1.1,1.1,1.9,1.4c0.7,0.2,1.4,0.2,2.2,0.2c3.1-0.1,5.7-2.3,6.4-5.4
			c0.1-0.3,0.1-0.5,0.2-0.8c0.1-0.2,0-0.4-0.2-0.4c-0.2-0.1-0.5-0.2-0.7-0.3c-2.9-1.1-5.6-1-8.1,1C109.9,42.7,107.7,45.1,108.4,47z"
			/>
		<path class="st25" d="M112.4,49.1l-0.2,0c-0.7,0-1.4,0-2.1-0.2c-0.7-0.3-1.6-0.7-2.2-1.7l0-0.1c-0.7-2.2,1.6-4.6,1.7-4.7
			c2.4-2,5.2-2.4,8.6-1.2l0.8,0.3c0.3,0.1,0.4,0.2,0.5,0.4c0.1,0.1,0.1,0.4,0,0.6l-0.1,0.7C118.5,46.6,115.7,49,112.4,49.1z
			 M108.8,46.9c0.3,0.5,0.8,0.9,1.6,1.2c0.5,0.1,1.2,0.2,1.8,0.2l0.2,0c2.9-0.1,5.3-2.2,5.9-5.1l0.2-0.7l-0.7-0.3
			c-3-1.1-5.4-0.8-7.6,1c0,0,0,0,0,0C110.3,43.1,108.3,45.2,108.8,46.9z"/>
	</g>
	<g>
		<path class="st24" d="M111.8,56.9c-2.9-1.3-3.8-3.1-4-4.5c-0.3-1.9,1.5-3.5,3.5-3.3c0,0,0,0,0.1,0c1.2,0.2,2.2,0.8,3,1.6
			c1.1,1.3,2.9,3.8,2.1,6.3C116.5,57.2,114.1,58,111.8,56.9z"/>
		<path class="st25" d="M114.4,57.9c-0.8,0-1.8-0.1-2.8-0.6c-3.1-1.4-4-3.4-4.2-4.8c-0.2-1.1,0.2-2.1,1-2.8c0.8-0.7,1.9-1.1,3-0.9
			c1.3,0.2,2.5,0.8,3.4,1.8c1.2,1.3,3.1,4,2.2,6.7l-0.1,0.2l-0.2,0.1C116.6,57.6,115.7,57.9,114.4,57.9z M110.9,49.6
			c-0.7,0-1.3,0.2-1.8,0.7c-0.6,0.6-0.9,1.3-0.8,2.1c0.3,1.7,1.5,3.1,3.7,4.1l0,0c1.6,0.8,3.4,0.4,4.1,0.3c0.6-2.3-1-4.5-2.1-5.7
			c-0.7-0.8-1.7-1.3-2.7-1.5C111.2,49.6,111.1,49.6,110.9,49.6z"/>
	</g>
	<g>
		<path class="st24" d="M142.3,20.3c-0.1,0.8,0.2,1.5,0.6,2.2c0.5,0.5,1.1,0.9,1.7,1.3c2.6,1.5,6.1,1.1,8.6-1
			c0.2-0.2,0.4-0.4,0.6-0.5c0.2-0.1,0.3-0.3,0.1-0.5c-0.1-0.2-0.3-0.4-0.4-0.7c-1.7-2.4-4-3.8-7.3-3.5
			C146.3,17.6,143,18.3,142.3,20.3z"/>
		<path class="st25" d="M148.1,25.1c-1.3,0-2.6-0.3-3.7-1l-0.2-0.1c-0.6-0.4-1.1-0.8-1.6-1.3c-0.4-0.6-0.9-1.4-0.7-2.5l0-0.1
			c0.7-2.2,4.1-3,4.3-3c3.2-0.4,5.7,0.8,7.8,3.6l0.4,0.7c0.2,0.2,0.2,0.4,0.2,0.6c0,0.1-0.1,0.4-0.4,0.5l-0.5,0.5
			C152,24.4,150,25.1,148.1,25.1z M142.8,20.4c-0.1,0.6,0.1,1.1,0.6,1.8c0.4,0.4,0.9,0.8,1.4,1.1l0.2,0.1c2.4,1.4,5.6,1,8-1l0.6-0.5
			l-0.4-0.6c-1.8-2.5-4-3.5-6.8-3.2l0,0C146.3,18,143.4,18.7,142.8,20.4z"/>
	</g>
	<g>
		<path class="st24" d="M149.7,26c-0.2,0.8,0.1,1.5,0.5,2.2c0.4,0.6,1,1,1.5,1.4c2.5,1.7,6,1.5,8.7-0.5c0.2-0.2,0.4-0.3,0.6-0.5
			c0.2-0.1,0.3-0.3,0.1-0.5c-0.1-0.2-0.2-0.5-0.4-0.7c-1.5-2.5-3.7-4.1-7-3.9C153.9,23.6,150.5,24.1,149.7,26z"/>
		<path class="st25" d="M155.6,31.3c-1.5,0-2.9-0.4-4.1-1.2l-0.2-0.1c-0.5-0.4-1.1-0.8-1.5-1.4c-0.4-0.6-0.8-1.5-0.6-2.5l0-0.1
			c0.9-2.1,4.4-2.7,4.5-2.7c3.2-0.2,5.7,1.2,7.5,4.1l0.4,0.7c0.2,0.2,0.2,0.4,0.1,0.6c0,0.1-0.1,0.3-0.5,0.5l-0.6,0.5
			C159.2,30.7,157.4,31.3,155.6,31.3z M150.2,26.1c-0.1,0.6,0,1.1,0.4,1.9c0.3,0.4,0.8,0.8,1.3,1.2l0.2,0.1c2.3,1.6,5.6,1.4,8.1-0.5
			l0.6-0.5l-0.3-0.6c-1.6-2.6-3.7-3.8-6.5-3.7l0,0C153.9,24,150.9,24.5,150.2,26.1z"/>
	</g>
	<g>
		<path class="st24" d="M146,34.8c-1.4-2.7-0.9-4.6-0.1-5.8c1.1-1.6,3.5-1.9,4.9-0.5c0,0,0,0,0,0c0.8,0.8,1.2,1.9,1.2,3
			c0,1.7-0.3,4.6-2.6,6.1C149.4,37.7,147,36.9,146,34.8z"/>
		<path class="st25" d="M149.5,38.2l-0.2-0.1c-0.1,0-2.7-0.9-3.8-3.1c-1.5-2.9-0.9-5-0.1-6.2c0.6-0.9,1.6-1.5,2.7-1.6
			c1.1-0.1,2.2,0.3,3,1c0.9,0.9,1.4,2.1,1.4,3.4c0,1.7-0.3,4.9-2.8,6.5L149.5,38.2z M148.6,28c-0.1,0-0.2,0-0.3,0
			c-0.8,0.1-1.6,0.5-2,1.2c-1,1.5-0.9,3.3,0.1,5.4l0,0c0.8,1.6,2.4,2.3,3,2.6c2-1.4,2.2-4.1,2.2-5.6c0-1.1-0.4-2-1.1-2.7
			C150,28.3,149.3,28,148.6,28z"/>
	</g>
</g>
</svg>
