<?xml version="1.0" encoding="utf-8"?>
<!-- Generator: Adobe Illustrator 24.0.1, SVG Export Plug-In . SVG Version: 6.00 Build 0)  -->
<svg version="1.1" id="图层_1" xmlns="http://www.w3.org/2000/svg" xmlns:xlink="http://www.w3.org/1999/xlink" x="0px" y="0px"
	 viewBox="0 0 200 200" style="enable-background:new 0 0 200 200;" xml:space="preserve">
<style type="text/css">
	.st0{fill:#995E5E;}
	.st1{fill:#2C9A5C;}
	.st2{fill:#FFFFFF;}
	.st3{fill:#A59D92;}
	.st4{fill:#FFFAD2;}
	.st5{fill:#FFE600;}
	.st6{fill:#FFEC64;}
	.st7{fill:#97CCA1;}
	.st8{fill:#52AF78;}
	.st9{opacity:0.15;fill:#E7F2E9;}
	.st10{fill:#5FC187;}
	.st11{fill:#97B7A2;}
	.st12{opacity:0.15;fill:#D8EFDF;}
	.st13{fill:#FFDC97;}
	.st14{opacity:0.19;fill:#E27C37;}
	.st15{opacity:0.6;fill:#DD7F3E;}
	.st16{fill:#DD9A68;}
	.st17{fill:#9B2C00;}
	.st18{fill:#DDAD6F;}
	.st19{fill:#DDA036;}
	.st20{fill:#E8D7B8;}
	.st21{fill:#FFD400;}
	.st22{fill:#52A072;}
	.st23{fill:#C0DB4B;}
	.st24{fill:#FFC94F;}
	.st25{fill:#B59B78;}
	.st26{fill:#9BD359;}
	.st27{fill:#8FD16B;}
	.st28{fill:#66C66D;}
	.st29{fill:#FFDA00;}
	.st30{fill:none;stroke:#C0DB4B;stroke-width:0.25;stroke-miterlimit:10;}
	.st31{fill:#969696;}
	.st32{fill:#3B7251;}
	.st33{fill:#E03854;}
	.st34{opacity:0.5;fill:#F797A8;}
	.st35{opacity:0.3;fill:#F797A8;}
	.st36{fill:#5CC686;}
	.st37{fill:#AF9579;}
	.st38{fill:#EABE7F;}
	.st39{fill:#D8B280;}
	.st40{fill:#C69A6A;}
	.st41{fill:#9B9FA5;}
	.st42{fill:#DBCFBD;}
	.st43{fill:#BFB5AF;}
	.st44{fill:#E0D489;}
	.st45{fill:#F2CE8F;}
	.st46{fill:#DDA68C;}
	.st47{fill:url(#SVGID_1_);}
	.st48{fill:#98D0E2;}
	.st49{fill:#C4BCCE;}
	.st50{fill:#DCD6E5;}
	.st51{fill:#C1D5E5;}
	.st52{fill:#BABBBC;}
	.st53{fill:#89CCC4;}
	.st54{opacity:0.41;fill:#99E0C3;}
	.st55{fill:url(#SVGID_2_);}
	.st56{fill:url(#SVGID_3_);}
	.st57{opacity:0.57;fill:#FFFFFF;}
	.st58{fill:url(#SVGID_4_);}
	.st59{fill:url(#SVGID_5_);}
	.st60{fill:url(#SVGID_6_);}
	.st61{fill:url(#SVGID_7_);}
	.st62{fill:url(#SVGID_8_);}
	.st63{fill:url(#SVGID_9_);}
	.st64{fill:url(#SVGID_10_);}
	.st65{fill:url(#SVGID_11_);}
	.st66{fill:url(#SVGID_12_);}
	.st67{fill:url(#SVGID_13_);}
	.st68{fill:url(#SVGID_14_);}
	.st69{fill:url(#SVGID_15_);}
	.st70{fill:url(#SVGID_16_);}
	.st71{fill:url(#SVGID_17_);}
	.st72{fill:url(#SVGID_18_);}
	.st73{fill:url(#SVGID_19_);}
	.st74{fill:url(#SVGID_20_);}
	.st75{fill:url(#SVGID_21_);}
	.st76{fill:url(#SVGID_22_);}
	.st77{fill:url(#SVGID_23_);}
	.st78{fill:url(#SVGID_24_);}
	.st79{fill:url(#SVGID_25_);}
	.st80{fill:url(#SVGID_26_);}
	.st81{fill:url(#SVGID_27_);}
	.st82{fill:url(#SVGID_28_);}
	.st83{fill:#B186B2;}
	.st84{fill:#DDC3DC;stroke:#C18DC9;stroke-miterlimit:10;}
	.st85{opacity:0.3;fill:#FFFFFF;}
	.st86{fill:url(#SVGID_29_);}
	.st87{fill:url(#SVGID_30_);}
</style>
<path class="st38" d="M179.7,48.5c-10.7-27-44.8-21.4-46.5-1c-0.4,4.5,0.1,7.7,1,10c2.5,6.1,11.7,4.2,11.6-2.4
	c-0.1-3.6,0.8-7.3,4.8-8c6.3-1.2,16.8,4.3,14.1,13.2c-1.5,4.9-6.2,8.1-11.3,8c-8.9-0.2-27.2-0.2-45.6,2.6
	c-20.5,3.1-24.8-1.9-26.5-5.1c-0.7-1.2-1.2-2.5-1.5-3.8C75.5,46.2,64.8,38,64.8,38c-4.6-12.3-9.4-13.4-9.4-13.4
	c0.4,1.7-1.7,6.2-2.8,8.4c-2-0.2-3.9-0.2-5.7,0c-1.8-4.8-5.5-7.8-5.5-7.8c0.2,1.1-1.3,2.3-2.9,7c-0.5,1.4-1,2.4-1.5,3
	c-4,2.1-11.4,7.2-9.1,14.6c0,0-2.6,3.1-7.8,3.6c-5.2,0.5-5.7,2.3-5.5,3.4c0,0,0.3,4.4,3.4,6.1c0.6,0.3,0.7,1.1,0.3,1.6
	c-0.5,0.5-0.8,1.3-0.5,2.6c0.2,0.7,0.6,1.2,1.2,1.6c1.1,0.7,3.5,1.9,8.7,2.9c0,0,8.9,2,12,7.6c0.5,0.8,0.6,1.8,0.6,2.7
	c-0.4,5.5-0.5,15.6,2.4,22.3c3.2,7.4,20.6,40.9,19.9,60.1c0,0-0.2,4-5.5,7.2c0,0-1.5,3,2.2,2.9c0,0-2,2.9,3,3.1
	c5,0.2,12.5,0.7,12.2-4.7c-0.2-3.7,0.3-25.5,0.7-39.2c0.1-5,5-8.5,9.7-7c11.9,3.8,22.2,1.1,29.4-2.3c4.6-2.2,9.9,1.2,9.9,6.3
	c-0.1,4.5,1.5,9.8,7.6,15.8c15.2,14.8,6.8,20,2.4,21.6c-1.3,0.5-2.1,1.7-2.1,3.1l0,0.1c0.1,1.6,1.4,2.9,3.1,2.9l11.4,0
	c2,0,3.5-1.8,3.2-3.7l2.3-19.4l7.9,9.9c1.1,1.4,1.6,3.2,1.3,4.9c-0.3,1.8-1.5,3.6-4.8,3.9c0,0-2.6,0-3.1,2.2
	c-0.3,1.4,0.9,2.8,2.3,2.9l11,0c2.6,0.3,4.9-1.9,4.6-4.6l-0.4-4.5c0,0-4.7-30.9-5.6-45.4c1.5-1.3,2.7-2.6,3.4-4
	c3.8-7.4,5.3-21.1,0.8-30.7c-1.7-3.7-0.4-8.1,3.2-10.1C179.3,72.2,186.1,64.5,179.7,48.5z"/>
</svg>
