<?xml version="1.0" encoding="utf-8"?>
<!-- Generator: Adobe Illustrator 24.0.1, SVG Export Plug-In . SVG Version: 6.00 Build 0)  -->
<svg version="1.1" id="图层_1" xmlns="http://www.w3.org/2000/svg" xmlns:xlink="http://www.w3.org/1999/xlink" x="0px" y="0px"
	 viewBox="0 0 200 200" style="enable-background:new 0 0 200 200;" xml:space="preserve">
<style type="text/css">
	.st0{fill:#995E5E;}
	.st1{fill:#2C9A5C;}
	.st2{fill:#FFFFFF;}
	.st3{fill:#A59D92;}
	.st4{fill:#FFFAD2;}
	.st5{fill:#FFE600;}
	.st6{fill:#FFEC64;}
	.st7{fill:#97CCA1;}
	.st8{fill:#52AF78;}
	.st9{opacity:0.15;fill:#E7F2E9;}
	.st10{fill:#5FC187;}
	.st11{fill:#97B7A2;}
	.st12{opacity:0.15;fill:#D8EFDF;}
	.st13{fill:#FFDC97;}
	.st14{opacity:0.19;fill:#E27C37;}
	.st15{opacity:0.6;fill:#DD7F3E;}
	.st16{fill:#DD9A68;}
	.st17{fill:#9B2C00;}
	.st18{fill:#DDAD6F;}
	.st19{fill:#DDA036;}
	.st20{fill:#E8D7B8;}
	.st21{fill:#FFD400;}
	.st22{fill:#52A072;}
	.st23{fill:#C0DB4B;}
	.st24{fill:#FFC94F;}
	.st25{fill:#B59B78;}
	.st26{fill:#9BD359;}
	.st27{fill:#8FD16B;}
	.st28{fill:#66C66D;}
	.st29{fill:#FFDA00;}
	.st30{fill:none;stroke:#C0DB4B;stroke-width:0.25;stroke-miterlimit:10;}
	.st31{fill:#969696;}
	.st32{fill:#3B7251;}
	.st33{fill:#E03854;}
	.st34{opacity:0.5;fill:#F797A8;}
	.st35{opacity:0.3;fill:#F797A8;}
	.st36{fill:#5CC686;}
	.st37{fill:#AF9579;}
	.st38{fill:#EABE7F;}
	.st39{fill:#D8B280;}
	.st40{fill:#C69A6A;}
	.st41{fill:#9B9FA5;}
	.st42{fill:#DBCFBD;}
	.st43{fill:#BFB5AF;}
	.st44{fill:#E0D489;}
	.st45{fill:#F2CE8F;}
	.st46{fill:#DDA68C;}
	.st47{fill:url(#SVGID_1_);}
	.st48{fill:#98D0E2;}
	.st49{fill:#C4BCCE;}
	.st50{fill:#DCD6E5;}
	.st51{fill:#C1D5E5;}
	.st52{fill:#BABBBC;}
	.st53{fill:#89CCC4;}
	.st54{opacity:0.41;fill:#99E0C3;}
	.st55{fill:url(#SVGID_2_);}
	.st56{fill:url(#SVGID_3_);}
	.st57{opacity:0.57;fill:#FFFFFF;}
	.st58{fill:url(#SVGID_4_);}
	.st59{fill:url(#SVGID_5_);}
	.st60{fill:url(#SVGID_6_);}
	.st61{fill:url(#SVGID_7_);}
	.st62{fill:url(#SVGID_8_);}
	.st63{fill:url(#SVGID_9_);}
	.st64{fill:url(#SVGID_10_);}
	.st65{fill:url(#SVGID_11_);}
	.st66{fill:url(#SVGID_12_);}
	.st67{fill:url(#SVGID_13_);}
	.st68{fill:url(#SVGID_14_);}
	.st69{fill:url(#SVGID_15_);}
	.st70{fill:url(#SVGID_16_);}
	.st71{fill:url(#SVGID_17_);}
	.st72{fill:url(#SVGID_18_);}
	.st73{fill:url(#SVGID_19_);}
	.st74{fill:url(#SVGID_20_);}
	.st75{fill:url(#SVGID_21_);}
	.st76{fill:url(#SVGID_22_);}
	.st77{fill:url(#SVGID_23_);}
	.st78{fill:url(#SVGID_24_);}
	.st79{fill:url(#SVGID_25_);}
	.st80{fill:url(#SVGID_26_);}
	.st81{fill:url(#SVGID_27_);}
	.st82{fill:url(#SVGID_28_);}
	.st83{fill:#B186B2;}
	.st84{fill:#DDC3DC;stroke:#C18DC9;stroke-miterlimit:10;}
	.st85{opacity:0.3;fill:#FFFFFF;}
	.st86{fill:url(#SVGID_29_);}
	.st87{fill:url(#SVGID_30_);}
</style>
<g>
	<g>
		<path class="st13" d="M126.2,84c0,0-28.3-18.7-37.7-29.6C65.7,28,3,38.9,19.1,99.3c18.9,71.3,89.4,70.6,106.4,61.4
			C144,150.8,167.4,114.8,126.2,84z"/>
		<path class="st14" d="M17.7,93c0,0,11,78.3,96.6,71.2C114.3,164.2,59.3,171.9,17.7,93z"/>
		<path class="st15" d="M110.5,86.5c-0.9,3.1-4.3,3.5-8,2.9c-4.6-0.8-8.2-2.1-12-4.8c-3.8-2.7-7.1-6.1-9.2-10.4l0,0
			c-0.9-1.8-1.2-3.4-0.8-5.4c0.3-1.8,1.5-3.3,2.9-4.3c1.4-1,3.5-1.3,5.1-0.9c1.5,0.4,3,1.4,4.1,3.1l1.4,2c0.2,0.3,0.3,0.5,0.5,0.7
			c2,3,4.5,5.6,7.5,7.5C105.9,79.5,111.4,83.6,110.5,86.5z"/>
	</g>
	<g>
		<path class="st13" d="M166.9,54c0,0-12.9-1.3-17.9-3.4c-12.3-5-32.2,10.3-16.7,28.3c18.3,21.3,42.6,8.1,47,1.8
			C184,74,186.2,57.2,166.9,54z"/>
		<path class="st14" d="M130.7,77c0,0,16.7,25.2,45.2,7C175.9,84,158.1,96.8,130.7,77z"/>
		<path class="st15" d="M161.8,57.8c0.2,1.3-0.9,2-2.3,2.5c-1.7,0.6-3.2,0.8-5,0.5c-1.8-0.2-3.5-0.8-4.9-1.9l0,0
			c-0.6-0.5-1-1-1.2-1.7c-0.2-0.7,0-1.4,0.3-2c0.3-0.6,1-1.1,1.6-1.2c0.6-0.1,1.3,0,1.9,0.3l0.8,0.4c0.1,0.1,0.2,0.1,0.3,0.2
			c1.2,0.7,2.5,1.1,3.8,1.2C159.1,56.2,161.7,56.6,161.8,57.8z"/>
	</g>
</g>
</svg>
