<?xml version="1.0" encoding="utf-8"?>
<!-- Generator: Adobe Illustrator 24.0.1, SVG Export Plug-In . SVG Version: 6.00 Build 0)  -->
<svg version="1.1" id="图层_1" xmlns="http://www.w3.org/2000/svg" xmlns:xlink="http://www.w3.org/1999/xlink" x="0px" y="0px"
	 viewBox="0 0 200 200" style="enable-background:new 0 0 200 200;" xml:space="preserve">
<style type="text/css">
	.st0{fill:#995E5E;}
	.st1{fill:#2C9A5C;}
	.st2{fill:#FFFFFF;}
	.st3{fill:#A59D92;}
	.st4{fill:#FFFAD2;}
	.st5{fill:#FFE600;}
	.st6{fill:#FFEC64;}
	.st7{fill:#97CCA1;}
	.st8{fill:#52AF78;}
	.st9{opacity:0.15;fill:#E7F2E9;}
	.st10{fill:#5FC187;}
	.st11{fill:#97B7A2;}
	.st12{opacity:0.15;fill:#D8EFDF;}
	.st13{fill:#FFDC97;}
	.st14{opacity:0.19;fill:#E27C37;}
	.st15{opacity:0.6;fill:#DD7F3E;}
	.st16{fill:#DD9A68;}
	.st17{fill:#9B2C00;}
	.st18{fill:#DDAD6F;}
	.st19{fill:#DDA036;}
	.st20{fill:#E8D7B8;}
	.st21{fill:#FFD400;}
	.st22{fill:#52A072;}
	.st23{fill:#C0DB4B;}
	.st24{fill:#FFC94F;}
	.st25{fill:#B59B78;}
	.st26{fill:#9BD359;}
	.st27{fill:#8FD16B;}
	.st28{fill:#66C66D;}
	.st29{fill:#FFDA00;}
	.st30{fill:none;stroke:#C0DB4B;stroke-width:0.25;stroke-miterlimit:10;}
	.st31{fill:#969696;}
	.st32{fill:#3B7251;}
	.st33{fill:#E03854;}
	.st34{opacity:0.5;fill:#F797A8;}
	.st35{opacity:0.3;fill:#F797A8;}
	.st36{fill:#5CC686;}
	.st37{fill:#AF9579;}
	.st38{fill:#EABE7F;}
	.st39{fill:#D8B280;}
	.st40{fill:#C69A6A;}
	.st41{fill:#9B9FA5;}
	.st42{fill:#DBCFBD;}
	.st43{fill:#BFB5AF;}
	.st44{fill:#E0D489;}
	.st45{fill:#F2CE8F;}
	.st46{fill:#DDA68C;}
	.st47{fill:url(#SVGID_1_);}
	.st48{fill:#98D0E2;}
	.st49{fill:#C4BCCE;}
	.st50{fill:#DCD6E5;}
	.st51{fill:#C1D5E5;}
	.st52{fill:#BABBBC;}
	.st53{fill:#89CCC4;}
	.st54{opacity:0.41;fill:#99E0C3;}
	.st55{fill:url(#SVGID_2_);}
	.st56{fill:url(#SVGID_3_);}
	.st57{opacity:0.57;fill:#FFFFFF;}
	.st58{fill:url(#SVGID_4_);}
	.st59{fill:url(#SVGID_5_);}
	.st60{fill:url(#SVGID_6_);}
	.st61{fill:url(#SVGID_7_);}
	.st62{fill:url(#SVGID_8_);}
	.st63{fill:url(#SVGID_9_);}
	.st64{fill:url(#SVGID_10_);}
	.st65{fill:url(#SVGID_11_);}
	.st66{fill:url(#SVGID_12_);}
	.st67{fill:url(#SVGID_13_);}
	.st68{fill:url(#SVGID_14_);}
	.st69{fill:url(#SVGID_15_);}
	.st70{fill:url(#SVGID_16_);}
	.st71{fill:url(#SVGID_17_);}
	.st72{fill:url(#SVGID_18_);}
	.st73{fill:url(#SVGID_19_);}
	.st74{fill:url(#SVGID_20_);}
	.st75{fill:url(#SVGID_21_);}
	.st76{fill:url(#SVGID_22_);}
	.st77{fill:url(#SVGID_23_);}
	.st78{fill:url(#SVGID_24_);}
	.st79{fill:url(#SVGID_25_);}
	.st80{fill:url(#SVGID_26_);}
	.st81{fill:url(#SVGID_27_);}
	.st82{fill:url(#SVGID_28_);}
	.st83{fill:#B186B2;}
	.st84{fill:#DDC3DC;stroke:#C18DC9;stroke-miterlimit:10;}
	.st85{opacity:0.3;fill:#FFFFFF;}
	.st86{fill:url(#SVGID_29_);}
	.st87{fill:url(#SVGID_30_);}
</style>
<path class="st40" d="M185.9,56.3c1.5,0.9,3.6,0.4,4.8-1.2c0.8-0.9,1.1-2.1,0.9-3.3c-0.2-1-0.7-1.8-1.5-2.4
	c-10.9-6.8-26.4-2.6-35.4,9.7c-8.7,11.9-7.6,27.6,2.3,35.8l14.4,11.9c6,4.8,9.6,12.3,9.7,20.8c0.1,7.9-3.1,16.5-9.2,24.9
	c-5,6.9-14.8,11.4-23.8,13.2c11.2-10.7,13-24.6,5.6-53c-8-30.8-19.5-23.9-35.3-39.4C102.9,58,86.1,62.6,86.1,62.6
	C90.8,48.8,79,50.8,79,50.8C68.6,24.5,42.2,40,42.2,40c-9.4-2.4-15.7,11.9-6.6,17.1c0,0-5.6,18.5,0.4,20.3c3.9,1.2-0.1,2.4,4.6,6.3
	c2.1,1.8,10.5,0.3,14.8-0.2c1.2-0.2,2.5,0.1,3.6,0.8c0,0-3.2,2.1-3.1,9.8l-2.3,25c-4.8,0.1-10.8-2.1-15.3,8.9
	c-3.8,9.3,0.8,11.5,7.6,15.8l1,0.7c-0.7,1.2-1.4,2.3-2.1,3.4c-4.3,5.6-8.8,15.3-13.4,17.5l-3.1,0.6c-2.9,0.2-5.6-0.1-8.4,1
	c-8.2,2.1-11.8,5-11.3,5.9c0.5,0.5,5.2-1.2,6.2-1.5c1.5-0.4,4.7-1.1,4.1-0.5c-0.3,0.3-1,0.4-1.7,0.9c-1.3,0.8-3.8,1.9-4.5,2.8
	c-0.4,0.5-2.1,1.6-1.6,2.3c0.5,0.6,2.1-0.6,3.9-1.4c2-0.9,4.9-2.2,5.3-2.3c0.6-0.2-1.6,1.2-3.2,2.9c-2.7,2.6-2,4.3-0.3,2.7
	c0.5-0.4,0.7-0.6,1.7-1.6c1.6-1.5,4.5-2.8,4.5-2.4c0,0.1-2.5,2.2-2.9,2.6c-1.4,1-2.5,2.4-1.6,2.7c0.7,0.4,5.3-1.6,7.6-2.9
	c3.6-2.1,7.7-2,9.6-2.1c6.2-0.2,12.6-6.9,19.4-11.7c2.6-1.8,5-3.9,7.1-6.2c0.4-0.5,0.9-1,1.3-1.5c8.6,6.5,16.6,11,16.6,11H70
	c-7.7,0.8-12,3.8-14.3,6.7c-1.9,2.3-0.3,5.9,2.7,5.9h17.1c13.6,0,23.2,0.6,29.6,1.2c7.4,0.7,14.9,0.2,22.1-1.6l1.7-0.4
	c2.9-1.5,5.5-2.9,8-4.4c1.5,0.2,3,0.3,4.5,0.3c13.2,0,27.2-6.2,36.5-17.4c7.3-8.8,11.3-19.9,11.2-30.4c-0.2-10.6-4.7-20.1-12.3-26.1
	l-15-12.4c-6.6-6-6.4-17.3,0.5-25.6C168.6,54.9,178.8,52.1,185.9,56.3z"/>
</svg>
