<?xml version="1.0" encoding="utf-8"?>
<!-- Generator: Adobe Illustrator 24.0.1, SVG Export Plug-In . SVG Version: 6.00 Build 0)  -->
<svg version="1.1" id="图层_1" xmlns="http://www.w3.org/2000/svg" xmlns:xlink="http://www.w3.org/1999/xlink" x="0px" y="0px"
	 viewBox="0 0 200 200" style="enable-background:new 0 0 200 200;" xml:space="preserve">
<style type="text/css">
	.st0{fill:#995E5E;}
	.st1{fill:#2C9A5C;}
	.st2{fill:#FFFFFF;}
	.st3{fill:#A59D92;}
	.st4{fill:#FFFAD2;}
	.st5{fill:#FFE600;}
	.st6{fill:#FFEC64;}
	.st7{fill:#97CCA1;}
	.st8{fill:#52AF78;}
	.st9{opacity:0.15;fill:#E7F2E9;}
	.st10{fill:#5FC187;}
	.st11{fill:#97B7A2;}
	.st12{opacity:0.15;fill:#D8EFDF;}
	.st13{fill:#FFDC97;}
	.st14{opacity:0.19;fill:#E27C37;}
	.st15{opacity:0.6;fill:#DD7F3E;}
	.st16{fill:#DD9A68;}
	.st17{fill:#9B2C00;}
	.st18{fill:#DDAD6F;}
	.st19{fill:#DDA036;}
	.st20{fill:#E8D7B8;}
	.st21{fill:#FFD400;}
	.st22{fill:#52A072;}
	.st23{fill:#C0DB4B;}
	.st24{fill:#FFC94F;}
	.st25{fill:#B59B78;}
	.st26{fill:#9BD359;}
	.st27{fill:#8FD16B;}
	.st28{fill:#66C66D;}
	.st29{fill:#FFDA00;}
	.st30{fill:none;stroke:#C0DB4B;stroke-width:0.25;stroke-miterlimit:10;}
	.st31{fill:#969696;}
	.st32{fill:#3B7251;}
	.st33{fill:#E03854;}
	.st34{opacity:0.5;fill:#F797A8;}
	.st35{opacity:0.3;fill:#F797A8;}
	.st36{fill:#5CC686;}
	.st37{fill:#AF9579;}
	.st38{fill:#EABE7F;}
	.st39{fill:#D8B280;}
	.st40{fill:#C69A6A;}
	.st41{fill:#9B9FA5;}
	.st42{fill:#DBCFBD;}
	.st43{fill:#BFB5AF;}
	.st44{fill:#E0D489;}
	.st45{fill:#F2CE8F;}
	.st46{fill:#DDA68C;}
	.st47{fill:url(#SVGID_1_);}
	.st48{fill:#98D0E2;}
	.st49{fill:#C4BCCE;}
	.st50{fill:#DCD6E5;}
	.st51{fill:#C1D5E5;}
	.st52{fill:#BABBBC;}
	.st53{fill:#89CCC4;}
	.st54{opacity:0.41;fill:#99E0C3;}
	.st55{fill:url(#SVGID_2_);}
	.st56{fill:url(#SVGID_3_);}
	.st57{opacity:0.57;fill:#FFFFFF;}
	.st58{fill:url(#SVGID_4_);}
	.st59{fill:url(#SVGID_5_);}
	.st60{fill:url(#SVGID_6_);}
	.st61{fill:url(#SVGID_7_);}
	.st62{fill:url(#SVGID_8_);}
	.st63{fill:url(#SVGID_9_);}
	.st64{fill:url(#SVGID_10_);}
	.st65{fill:url(#SVGID_11_);}
	.st66{fill:url(#SVGID_12_);}
	.st67{fill:url(#SVGID_13_);}
	.st68{fill:url(#SVGID_14_);}
	.st69{fill:url(#SVGID_15_);}
	.st70{fill:url(#SVGID_16_);}
	.st71{fill:url(#SVGID_17_);}
	.st72{fill:url(#SVGID_18_);}
	.st73{fill:url(#SVGID_19_);}
	.st74{fill:url(#SVGID_20_);}
	.st75{fill:url(#SVGID_21_);}
	.st76{fill:url(#SVGID_22_);}
	.st77{fill:url(#SVGID_23_);}
	.st78{fill:url(#SVGID_24_);}
	.st79{fill:url(#SVGID_25_);}
	.st80{fill:url(#SVGID_26_);}
	.st81{fill:url(#SVGID_27_);}
	.st82{fill:url(#SVGID_28_);}
	.st83{fill:#B186B2;}
	.st84{fill:#DDC3DC;stroke:#C18DC9;stroke-miterlimit:10;}
	.st85{opacity:0.3;fill:#FFFFFF;}
	.st86{fill:url(#SVGID_29_);}
	.st87{fill:url(#SVGID_30_);}
</style>
<g>
	<g>
		<g>
			<g>
				<path class="st33" d="M93.9,110.9c0,0-20.8,28.2,2.7,55.3s51.8,13.6,66.2,3.5c14.4-10.1,39.8-34.6,11.9-69.2
					S105.3,97.4,93.9,110.9z"/>
				<path class="st34" d="M94.1,137.5c-0.5-1.3-2-0.4-2.3,1c-1.7,7.8,15.9,40.1,34.5,32.8C130.5,169.7,107.7,169.8,94.1,137.5z"/>
				<path class="st35" d="M99.7,106.8c0,0-11.9,7.9-12.1,30.8c0,0,9.5-23.9,18.6-26.7c0,0-5.8,18.3,7.5,25.1c0,0-6.9-24,3-30.8
					c0,0,7.8,19.4,15.7,19.2c0,0-4.7-18.8-11.5-25.9c0,0,20.2-5.9,33.7-1.2c0,0-9.9-12.7-23.5-9.8S99.7,106.8,99.7,106.8z"/>
				<path class="st36" d="M101.9,61.7C95.2,51.1,90.1,43.3,87.3,38c-2-3.9,0.3-14.3,4.2-10.9l0,0c-2.1,7.4,2.2,13.4,5.8,21.8
					c1.1,2.6,3.4,6.5,5.9,9.8c4.1,5.3,6.7,11.5,7.8,18c1.2,7,3.6,14.6,7,13.3c23.4-8.9,36.3-3.8,36.3-3.8c-12.5,2.5-21.7,0.2-22.7,3
					c-0.6,1.7,2.7,3.1,5.3,3.9c0.4,0.1,0.3,0.7-0.1,0.7c-3.5,0-8.8,0.2-10.8,2c-2,1.7,2.1,5.4,5.3,7.8c0.9,0.6,0.1,2-0.9,1.6
					c-3.5-1.4-8-4.1-11-6.1c-2.7-1.7-4.2,6.1-5,12.8c-0.1,1.1-1.7,1.1-1.8,0c-0.3-2.4-0.6-5-1-7.7c-1.1-8.2-0.2-2.3-12.3,3.3
					c-3.7,1.8-6.5,4.8-8.4,8.2c-0.4,0.8-1.6,0.2-1.3-0.6c2.4-5.5,6.3-10.8,12.6-14.2c10.2-5.6,8.7-13.2,8.7-13.2l-3.5-13.2
					C106.2,70,104.3,65.7,101.9,61.7z"/>
			</g>
			<g>
				<path class="st33" d="M46.7,79.6c0,0-24.6-1.6-31.7,22.7s11.7,35.9,23.1,40.6s35.7,10.4,45.5-19.2S59.1,81.3,46.7,79.6z"/>
				<path class="st34" d="M26.2,96.3c0.4-0.4-0.2-0.8-0.7-0.7c-3.2,0.7-12.5,12.7-6.7,18.5C20,115.4,16.2,106.8,26.2,96.3z"/>
				<path class="st35" d="M51.3,81.5c0,0-9.2-4-22.9,4.5c0,0,17.8-3.5,22.9,0.8c0,0-13.1,3.5-12,14c0,0,11.6-13.2,19.4-9.9
					c0,0-8.5,12-5.4,16.6c0,0,9.4-9.9,10.9-16.7c0,0,11.2,9.7,13.5,19.6c0,0,3.7-10.7-3.1-17.7S51.3,81.5,51.3,81.5z"/>
				<path class="st36" d="M78.9,65.7c3.8-8,7.8-13.3,8.9-17.4c1.5-5.3,5-3.6,7.6-1.9v0c-7.4-1-7.1,6.4-10.7,11.8
					c-1.1,1.7-2.6,4.5-3.6,7.3c-1.6,4.4-4.3,8.3-7.7,11.5c-3.7,3.4-7.3,7.7-5.2,9.2c14.1,10.5,16.1,20.1,16.1,20.1
					c-6.2-6.5-8.4-12.8-10.4-12.3c-1.3,0.3-0.8,2.8-0.3,4.6c0.1,0.3-0.3,0.4-0.4,0.2c-1.3-2.1-3.5-5.1-5.3-5.6
					c-1.8-0.5-2.4,3.3-2.6,6.1c-0.1,0.7-1.1,0.8-1.3,0.1c-0.5-2.6-0.6-6.3-0.6-8.8c0-2.3-5.2-0.2-9.5,1.9c-0.7,0.3-1.3-0.6-0.7-1.1
					c1.3-1.1,2.7-2.3,4.2-3.5c4.5-3.8,1.3-1-6.7-6c-2.5-1.5-5.3-2-8.1-1.9c-0.6,0-0.7-0.9-0.1-1c4.1-0.7,8.8-0.4,13.2,2.1
					C63,84.8,66.9,81,66.9,81l6.5-7.1C75.6,71.4,77.5,68.7,78.9,65.7z"/>
			</g>
		</g>
		<circle class="st34" cx="20.2" cy="117.6" r="1.8"/>
		<circle class="st34" cx="135.5" cy="179" r="3.8"/>
	</g>
	<path class="st36" d="M119.2,32.1C99,36,76,19,69.2,15.7c-0.8-0.4-1.1-1.4-0.7-2.2l0,0c0.3-0.5,0.9-0.9,1.5-0.8
		c2.8,0.4,4.8,2.8,7.6,4.1c9.1,4.1,29.4,12.6,41.7,12.4c1.6,0,3,1.1,3.3,2.7v0C121.5,32,120.4,32.1,119.2,32.1z"/>
</g>
</svg>
