<?xml version="1.0" encoding="utf-8"?>
<!-- Generator: Adobe Illustrator 24.0.1, SVG Export Plug-In . SVG Version: 6.00 Build 0)  -->
<svg version="1.1" id="图层_1" xmlns="http://www.w3.org/2000/svg" xmlns:xlink="http://www.w3.org/1999/xlink" x="0px" y="0px"
	 viewBox="0 0 200 200" style="enable-background:new 0 0 200 200;" xml:space="preserve">
<style type="text/css">
	.st0{fill:#995E5E;}
	.st1{fill:#2C9A5C;}
	.st2{fill:#FFFFFF;}
	.st3{fill:#A59D92;}
	.st4{fill:#FFFAD2;}
	.st5{fill:#FFE600;}
	.st6{fill:#FFEC64;}
	.st7{fill:#97CCA1;}
	.st8{fill:#52AF78;}
	.st9{opacity:0.15;fill:#E7F2E9;}
	.st10{fill:#5FC187;}
	.st11{fill:#97B7A2;}
	.st12{opacity:0.15;fill:#D8EFDF;}
	.st13{fill:#FFDC97;}
	.st14{opacity:0.19;fill:#E27C37;}
	.st15{opacity:0.6;fill:#DD7F3E;}
	.st16{fill:#DD9A68;}
	.st17{fill:#9B2C00;}
	.st18{fill:#DDAD6F;}
	.st19{fill:#DDA036;}
	.st20{fill:#E8D7B8;}
	.st21{fill:#FFD400;}
	.st22{fill:#52A072;}
	.st23{fill:#C0DB4B;}
	.st24{fill:#FFC94F;}
	.st25{fill:#B59B78;}
	.st26{fill:#9BD359;}
	.st27{fill:#8FD16B;}
	.st28{fill:#66C66D;}
	.st29{fill:#FFDA00;}
	.st30{fill:none;stroke:#C0DB4B;stroke-width:0.25;stroke-miterlimit:10;}
	.st31{fill:#969696;}
	.st32{fill:#3B7251;}
	.st33{fill:#E03854;}
	.st34{opacity:0.5;fill:#F797A8;}
	.st35{opacity:0.3;fill:#F797A8;}
	.st36{fill:#5CC686;}
	.st37{fill:#AF9579;}
	.st38{fill:#EABE7F;}
	.st39{fill:#D8B280;}
	.st40{fill:#C69A6A;}
	.st41{fill:#9B9FA5;}
	.st42{fill:#DBCFBD;}
	.st43{fill:#BFB5AF;}
	.st44{fill:#E0D489;}
	.st45{fill:#F2CE8F;}
	.st46{fill:#DDA68C;}
	.st47{fill:url(#SVGID_1_);}
	.st48{fill:#98D0E2;}
	.st49{fill:#C4BCCE;}
	.st50{fill:#DCD6E5;}
	.st51{fill:#C1D5E5;}
	.st52{fill:#BABBBC;}
	.st53{fill:#89CCC4;}
	.st54{opacity:0.41;fill:#99E0C3;}
	.st55{fill:url(#SVGID_2_);}
	.st56{fill:url(#SVGID_3_);}
	.st57{opacity:0.57;fill:#FFFFFF;}
	.st58{fill:url(#SVGID_4_);}
	.st59{fill:url(#SVGID_5_);}
	.st60{fill:url(#SVGID_6_);}
	.st61{fill:url(#SVGID_7_);}
	.st62{fill:url(#SVGID_8_);}
	.st63{fill:url(#SVGID_9_);}
	.st64{fill:url(#SVGID_10_);}
	.st65{fill:url(#SVGID_11_);}
	.st66{fill:url(#SVGID_12_);}
	.st67{fill:url(#SVGID_13_);}
	.st68{fill:url(#SVGID_14_);}
	.st69{fill:url(#SVGID_15_);}
	.st70{fill:url(#SVGID_16_);}
	.st71{fill:url(#SVGID_17_);}
	.st72{fill:url(#SVGID_18_);}
	.st73{fill:url(#SVGID_19_);}
	.st74{fill:url(#SVGID_20_);}
	.st75{fill:url(#SVGID_21_);}
	.st76{fill:url(#SVGID_22_);}
	.st77{fill:url(#SVGID_23_);}
	.st78{fill:url(#SVGID_24_);}
	.st79{fill:url(#SVGID_25_);}
	.st80{fill:url(#SVGID_26_);}
	.st81{fill:url(#SVGID_27_);}
	.st82{fill:url(#SVGID_28_);}
	.st83{fill:#B186B2;}
	.st84{fill:#DDC3DC;stroke:#C18DC9;stroke-miterlimit:10;}
	.st85{opacity:0.3;fill:#FFFFFF;}
	.st86{fill:url(#SVGID_29_);}
	.st87{fill:url(#SVGID_30_);}
</style>
<g>
	
		<rect x="37.6" y="132.4" transform="matrix(1.846552e-03 -1 1 1.846552e-03 -36.1787 231.6799)" class="st1" width="120.8" height="3.1"/>
	<path class="st1" d="M97.7,148.5c0,0-17-55.5-37-54.8c-21,0.8-18,11.9-18,11.9s-2.4-7.6,6.7-10.5C83.8,84,88.8,115.8,98,135.5
		L97.7,148.5z"/>
	<path class="st1" d="M98.7,134c0,0,14.8-40.5,31.9-39.8c18,0.7,15.3,10.3,15.3,10.3s2.1-6.5-5.7-9c-29.4-9.6-33.8,11.7-41.7,28.6
		L98.7,134z"/>
	<path class="st1" d="M98.5,153.1c0,0,19.4-35.4,49.7-34.1c31.8,1.3,27.2,18.2,27.2,18.2s2.9-9.5-10.1-16c-18-9-53.1-8.1-67.1,21.8
		L98.5,153.1z"/>
	<path class="st1" d="M98.6,170.9c0,0,19.4-38.3,49.7-37.1c31.8,1.3,27.2,18.2,27.2,18.2s2.9-9.5-10.1-16c-18-9-53.1-5.3-67.1,24.6
		L98.6,170.9z"/>
	<path class="st1" d="M98,165c0,0-17-38.9-47.4-37.7c-31.8,1.2-29.4,17.4-29.4,17.4s-2.8-9.5,10.1-15.9c18-8.9,52.6-3.9,67,24.9
		L98,165z"/>
	<path class="st1" d="M98.6,186.6c0,0-17-37.7-47.4-36.6c-31.8,1.2-29.4,17.4-29.4,17.4S19,157.9,32,151.4c18-8.9,52.6-3.9,67,24.9
		L98.6,186.6z"/>
	<g>
		<g>
			<path class="st17" d="M111.6,11.9c0,0,0.1-16.8-8-1c0,0,0.9,0.8,0.9,2.6l-0.3,1.8l2.8,1C107.1,16.4,107.3,12,111.6,11.9z"/>
			<path class="st18" d="M107.5,17l-3.8-1.4l0.3-2.1c0-1.5-0.7-2.2-0.8-2.2L103,11l0.2-0.3c2.7-5.1,4.7-7.4,6.4-7
				c2.5,0.6,2.6,6.9,2.6,8.2l0,0.4l-0.5,0c-3.8,0.1-4.1,3.9-4.1,4.1L107.5,17z M104.8,15.1l1.9,0.7c0.2-1.2,1.2-4,4.5-4.3
				c0-2.8-0.6-6.6-1.8-6.9c-0.5-0.1-2,0.3-5.1,6.3c0.3,0.4,0.8,1.3,0.8,2.7L104.8,15.1z"/>
		</g>
		<g>
			<g>
				<path class="st17" d="M77,73.6c-2-0.9-3.8-2.2-4.8-4.1c-0.8-1.4-1.1-3-0.2-4.6c2.2-3.9,6.6-1.9,8.4,0.9c1.8,2.8,3.8,9.2,3.8,9.2
					s-2.5-1.1-4.3,1.5C79.8,76.5,79.1,74.6,77,73.6z"/>
				<path class="st18" d="M79.7,77.5l-0.3-0.8c0,0-0.7-1.8-2.6-2.6l0,0c-2.4-1.1-4.1-2.5-5-4.3c-1-1.8-1.1-3.5-0.2-5
					c1.1-1.9,2.6-2.4,3.7-2.4c0,0,0.1,0,0.1,0c2,0,4.2,1.3,5.4,3.3c1.8,2.8,3.7,9,3.8,9.3l0.3,0.9l-0.9-0.4c-0.1,0-2.2-0.9-3.7,1.3
					L79.7,77.5z M75.3,63.3C75.3,63.3,75.2,63.3,75.3,63.3c-1.3,0-2.3,0.7-3,1.9c-0.7,1.2-0.6,2.6,0.3,4.2c0.9,1.6,2.4,2.9,4.6,3.9
					v0c1.4,0.7,2.3,1.7,2.7,2.5c1.2-1.3,2.6-1.4,3.5-1.2c-0.6-1.8-2.1-6.2-3.5-8.3C78.9,64.5,76.9,63.3,75.3,63.3z"/>
			</g>
			<g>
				<path class="st17" d="M121.3,73.7c2-0.9,3.8-2.2,4.8-4.1c0.8-1.4,1.1-3,0.3-4.6c-2.2-3.9-6.6-1.9-8.4,0.9
					c-1.8,2.8-3.8,9.2-3.8,9.2s2.5-1.1,4.3,1.5C118.5,76.6,119.2,74.6,121.3,73.7z"/>
				<path class="st18" d="M118.6,77.5l-0.5-0.7c-1.6-2.2-3.6-1.3-3.7-1.3l-0.9,0.4l0.3-0.9c0.1-0.3,2-6.5,3.8-9.3
					c1.3-2,3.6-3.3,5.6-3.3c1.1,0,2.6,0.5,3.7,2.4c0.8,1.5,0.8,3.2-0.3,5c-1,1.7-2.7,3.2-5.1,4.2l0,0c-1.9,0.8-2.6,2.6-2.6,2.6
					L118.6,77.5z M115.4,74.5c0.9,0,2,0.3,3,1.3c0.4-0.7,1.3-1.8,2.7-2.5l0,0c2.2-1,3.8-2.3,4.6-3.9c0.9-1.5,0.9-2.9,0.3-4.2
					c-0.7-1.3-1.7-1.9-2.9-1.9c-1.6,0-3.6,1.2-4.7,2.8c-1.4,2.1-2.9,6.6-3.5,8.3C115,74.5,115.2,74.5,115.4,74.5z"/>
			</g>
			<g>
				<path class="st17" d="M89.2,82.1c0,0-5.7-9.6-14.2-7.4s4.6,11.1,9.6,8.6C84.6,83.3,86,82.1,89.2,82.1z"/>
				<path class="st18" d="M82.5,84.1c-2.4,0-5.3-1.2-7.5-2.7c-2.3-1.6-3.5-3.4-3.2-4.8c0.2-1.1,1.3-1.9,3.1-2.4
					c8.7-2.2,14.7,7.6,14.7,7.7l0.4,0.7l-0.8,0c-2.9,0-4.3,1.1-4.3,1.1C84.2,84,83.4,84.1,82.5,84.1z M77.4,74.8
					c-0.7,0-1.5,0.1-2.3,0.3c-1,0.2-2.2,0.7-2.4,1.7c-0.2,1.1,0.9,2.6,2.8,3.9c2.6,1.9,6.6,3.3,8.8,2.2l0,0c0,0,1.2-1,4-1.2
					C87.1,79.9,83,74.8,77.4,74.8z"/>
			</g>
			<g>
				<path class="st17" d="M94,91c1.8,0.1,3-0.8,3.4-2.3c0.9-3.2-3.2-11.9-8-11.2C83.2,78.4,86.1,90.7,94,91z"/>
				<path class="st18" d="M94.2,91.4c-0.1,0-0.1,0-0.2,0c-4.9-0.2-8.1-4.7-8.4-8.9c-0.2-3,1.3-5.1,3.8-5.5c1.7-0.3,3.4,0.5,5,2.1
					c2.5,2.6,4.2,7.3,3.6,9.6C97.4,90.5,96.1,91.4,94.2,91.4z M90,77.9c-0.2,0-0.3,0-0.5,0c-3,0.4-3,3.6-3,4.6
					c0.2,3.7,3.2,7.9,7.5,8l0,0c1.5,0.1,2.6-0.6,3-2c0.5-1.8-0.9-6.1-3.4-8.8C92.8,78.9,91.5,77.9,90,77.9z"/>
			</g>
			<g>
				<path class="st17" d="M84.1,76c-2-0.9-3.8-2.2-4.8-4.1c-0.8-1.4-1.1-3-0.2-4.6c2.2-3.9,6.6-1.9,8.4,0.9c1.8,2.8,3.8,9.2,3.8,9.2
					s-2.5-1.1-4.3,1.5C86.9,78.9,86.2,77,84.1,76z"/>
				<path class="st18" d="M86.8,79.9l-0.3-0.8c0,0-0.7-1.8-2.6-2.6l0,0c-2.4-1.1-4.1-2.5-5-4.3c-1-1.8-1.1-3.5-0.2-5
					c1.1-1.9,2.6-2.4,3.7-2.4c1.9,0,4.3,1.3,5.5,3.3c1.8,2.8,3.7,9,3.8,9.3l0.3,0.9l-0.9-0.4c-0.1,0-2.1-0.9-3.7,1.3L86.8,79.9z
					 M84.3,75.6c1.4,0.7,2.3,1.7,2.7,2.5c1.2-1.3,2.6-1.4,3.5-1.2c-0.6-1.8-2.1-6.2-3.5-8.3c-1.1-1.7-3-2.8-4.6-2.8c0,0-0.1,0-0.1,0
					c-1.2,0-2.2,0.7-2.9,1.9c-0.7,1.2-0.6,2.6,0.3,4.2C80.6,73.3,82.1,74.6,84.3,75.6L84.3,75.6z"/>
			</g>
			<g>
				<path class="st17" d="M98.4,84.6c0,0-2.1-12.3,6.9-16.2s4.2,12.4-2.1,13.6C103.3,82,101.3,82.4,98.4,84.6z"/>
				<path class="st18" d="M98.1,85.4l-0.1-0.8c0-0.1-2.1-12.7,7.2-16.6c2-0.8,3.5-0.8,4.5,0c1.2,1,1.5,3.2,0.8,6
					c-1,3.7-3.8,7.9-7,8.5c0,0-2,0.4-4.7,2.5L98.1,85.4z M107.8,68.3c-0.7,0-1.6,0.3-2.2,0.5c-7.4,3.1-7,12.2-6.7,14.9
					c2.5-1.8,4.3-2.1,4.4-2.2c2.7-0.5,5.3-4.4,6.3-7.9c0.6-2.4,0.5-4.3-0.5-5C108.7,68.4,108.2,68.3,107.8,68.3z"/>
			</g>
			<g>
				<path class="st17" d="M105.2,81.6c0,0,5.8-9.5,14.2-7.4s-4.4,10.7-9.4,8.2C110,82.4,108.4,81.7,105.2,81.6z"/>
				<path class="st18" d="M112.2,83.3c-0.9,0-1.7-0.2-2.4-0.5c0,0-1.6-0.7-4.6-0.7l-0.8,0l0.4-0.7c0.1-0.1,6.1-9.8,14.8-7.6
					c1.8,0.5,2.9,1.3,3.1,2.4c0.3,1.4-0.8,3-3,4.5C117.5,82.2,114.6,83.3,112.2,83.3z M106.1,81.2c2.7,0.1,4.1,0.8,4.2,0.8
					c2.2,1.1,6.2-0.2,8.9-2.1c1.8-1.3,2.8-2.7,2.6-3.6c-0.2-0.9-1.4-1.4-2.4-1.7C112.6,73,107.5,79.1,106.1,81.2z"/>
			</g>
			<g>
				<path class="st17" d="M78.9,55.4c0,0-3.6,0-3.6,4.6c0,4.6,3.7,7.1,3.7,7.1s2.2-3.9,7.4-1C86.4,66.1,79.5,62.7,78.9,55.4z"/>
				<path class="st18" d="M79.1,67.8l-0.4-0.3c-0.2-0.1-3.9-2.6-3.9-7.5c0-5,4-5.1,4.1-5.1l0,0h0.4l0,0.4c0.6,6.3,6,9.7,7.1,10.3
					c0.1,0,0.1,0.1,0.2,0.1l-0.5,0.8c0,0-0.1-0.1-0.3-0.2c-1.5-0.8-2.9-1-4.2-0.7c-1.6,0.4-2.3,1.7-2.3,1.7L79.1,67.8z M78.5,55.9
					c-0.9,0.2-2.7,0.9-2.7,4.1c0,3.5,2.2,5.7,3.1,6.4c0.4-0.5,1.3-1.3,2.6-1.7c0.6-0.2,1.3-0.2,2-0.1C81.4,62.9,79,60.1,78.5,55.9z"
					/>
			</g>
			<g>
				<path class="st17" d="M86.1,45.9c0,0-7.9-1.7-7.2,5.9c0.7,7.6,3.7,11.7,7.8,13.4c0,0-3.9-8.6,2.7-9.3
					C89.4,56,87.5,54.4,86.1,45.9z"/>
				<path class="st18" d="M87.7,66.1l-1.1-0.5c-4.7-2-7.4-6.6-8.1-13.8c-0.2-2.4,0.3-4.2,1.7-5.3c2.3-1.9,5.9-1.2,6.1-1.1l0.3,0.1
					l0,0.3c1.3,8.1,3.2,9.8,3.2,9.8l0.8,0.7l-1.1,0.1c-1.4,0.1-2.3,0.6-2.8,1.5c-1.5,2.5,0.5,7.1,0.5,7.2L87.7,66.1z M84.4,46.2
					c-1.1,0-2.6,0.2-3.6,1.1c-1.1,0.9-1.6,2.4-1.3,4.5c0.6,6.3,2.8,10.5,6.5,12.6c-0.6-1.7-1.3-4.8-0.1-6.9c0.6-0.9,1.5-1.5,2.7-1.8
					c-0.7-1-1.9-3.6-2.9-9.4C85.4,46.2,84.9,46.2,84.4,46.2z"/>
			</g>
			<g>
				<path class="st17" d="M98.3,71.1c0,0-1.5-12,5.8-12.5c7.4-0.5,3.9,8.8,3.9,8.8s-6.1,0.5-9,7.2L98.3,71.1z"/>
				<path class="st18" d="M98.9,76.2l-1-5.1c0-0.3-0.9-7.4,2.2-11c1-1.2,2.4-1.9,4.1-2c1.9-0.1,3.3,0.4,4.2,1.4
					c2.1,2.6,0.2,7.7,0.1,8l-0.1,0.3l-0.3,0c-0.2,0-5.9,0.6-8.6,7L98.9,76.2z M98.8,71l0.4,2.2c2.7-5,7.2-6,8.4-6.2
					c0.3-1,1.5-4.9-0.1-6.9c-0.7-0.8-1.8-1.2-3.4-1.1c-1.4,0.1-2.5,0.7-3.4,1.7C98,63.9,98.8,70.7,98.8,71z"/>
			</g>
			<g>
				<path class="st17" d="M97.9,65.5c0.2-0.7,0.2-1.3,0.2-2c-0.6-4.3-2.7-17.4-6-19.5c-2.3-1.4-3.8-0.6-4.6,0.4
					c-0.6,0.7-0.9,1.7-0.9,2.6c0,2.1,0.4,6.4,3.4,9.3c1.2,1.1,2.2,2.4,3,3.8c0.9,1.7,1.9,3.6,2.3,4.9c0.2,0.8,0.6,1.5,1.2,2.1
					c0.5,0.5,1,1.2,1.2,2C97.6,69.1,97.4,66.9,97.9,65.5z"/>
				<path class="st18" d="M97.1,69.2C97,68.6,96.6,68,96,67.5c-0.6-0.6-1.1-1.4-1.3-2.3c-0.3-1-1.1-2.5-1.8-3.9l-0.5-1
					c-0.6-1.2-1.6-2.4-2.9-3.7C86.3,53.5,86,48.9,86,47c0-1.1,0.4-2.1,1-2.9c0.8-0.9,2.5-2.2,5.2-0.5c3.5,2.2,5.5,14.6,6.3,19.8
					c0.1,0.8,0,1.5-0.2,2.2v0c-0.4,1.3-0.2,3.5-0.2,3.5L97.1,69.2z M89.7,43.6c-0.7,0-1.4,0.3-1.9,1c-0.5,0.6-0.8,1.5-0.8,2.4
					c0,1.7,0.3,6.1,3.3,9c1.4,1.3,2.4,2.6,3.1,3.9l0.5,1c0.7,1.4,1.5,2.9,1.8,4c0.2,0.8,0.6,1.4,1.1,1.9c0.1,0.1,0.3,0.3,0.4,0.4
					c0-0.6,0.1-1.3,0.3-1.9l0,0c0.2-0.6,0.2-1.2,0.1-1.8c-1.1-8.2-3.3-17.6-5.8-19.2C90.9,43.9,90.3,43.6,89.7,43.6z"/>
			</g>
			<g>
				<path class="st17" d="M85,45.6c0,0-4.3-13,1.3-14.3s5.9,4.9,5.9,4.9s-3.8,2.1-1.2,7.2c0,0-3.4-1.1-4.4,2.4L85,45.6z"/>
				<path class="st18" d="M86.8,46.5L84.6,46l-0.1-0.2c-0.1-0.4-3-9.3-0.7-13.2c0.5-0.9,1.3-1.4,2.3-1.7c1.6-0.4,3-0.2,4.1,0.6
					c2.1,1.5,2.4,4.6,2.4,4.7l0,0.3l-0.2,0.1c-0.1,0.1-3.4,2-1,6.7l0.5,0.9l-1.1-0.3c0,0-1.2-0.4-2.3,0.2c-0.7,0.3-1.2,1-1.5,2
					L86.8,46.5z M85.3,45.2l0.9,0.2c0.4-1,1-1.7,1.8-2.1c0.8-0.4,1.5-0.4,2.1-0.4c-1.6-4.1,0.7-6.3,1.5-6.9c-0.1-0.7-0.5-2.8-2-3.8
					c-0.9-0.6-2-0.7-3.3-0.4c-0.7,0.2-1.3,0.6-1.7,1.2C82.7,36.2,84.9,43.7,85.3,45.2z"/>
			</g>
			<g>
				<path class="st17" d="M90.9,36.9c1.9-2.8,4.9-1.1,6.2,1.3c0,0,0,0.1,0.1,0.1c2,3.7,0.5,10-1.3,12c0,0-1.5-5.8-4.9-6.8
					C88.8,42.9,89.7,38.7,90.9,36.9z"/>
				<path class="st18" d="M95.6,51.3l-0.2-0.8c0-0.1-1.5-5.6-4.6-6.5c-0.6-0.2-1.1-0.6-1.4-1.3c-0.6-1.6,0.1-4.4,1.1-6l0,0
					c1-1.4,2.1-1.7,2.9-1.7c1.7,0.1,3.3,1.5,4.1,3l0.1,0.1c2,3.8,0.6,10.3-1.4,12.5L95.6,51.3z M93.3,35.9c-0.8,0-1.4,0.4-2,1.3l0,0
					c-0.9,1.3-1.5,3.9-1,5.2c0.2,0.4,0.4,0.7,0.8,0.8c2.8,0.8,4.3,4.5,4.9,6.2c1.5-2.5,2.4-7.7,0.7-10.8l0.4-0.3l-0.4,0.2
					C95.8,36.9,94.5,35.9,93.3,35.9C93.3,35.9,93.3,35.9,93.3,35.9z"/>
			</g>
			<g>
				<path class="st17" d="M104.5,90.2c0,0,17.4,0.8,18-8.2c0.1-2-1.6-2.1-2.4-1.8c-1.7,0.7-5.3,3.1-9.7,2.7
					C110.4,82.9,107.8,88.4,104.5,90.2z"/>
				<path class="st18" d="M105.7,90.6c-0.7,0-1.2,0-1.3,0l-1.7-0.1l1.5-0.8c3.2-1.6,5.7-7,5.7-7l0.1-0.3l0.3,0
					c3.4,0.3,6.2-1.1,8.2-2.1c0.5-0.3,0.9-0.5,1.3-0.6c0.6-0.2,1.5-0.3,2.2,0.2c0.4,0.3,0.9,0.9,0.8,2
					C122.4,90,109.8,90.6,105.7,90.6z M110.7,83.4c-0.5,1-2.3,4.4-4.7,6.3c4.1,0,15.5-0.8,16-7.8c0-0.6-0.1-1-0.4-1.3
					c-0.4-0.3-1-0.2-1.3-0.1c-0.3,0.1-0.8,0.3-1.2,0.6C117,82.2,114.2,83.6,110.7,83.4z"/>
			</g>
			<g>
				<path class="st17" d="M90.8,90.4c0,0-13.5,2.7-16.1-6c-0.2-0.7,0.7-2.3,1.5-2c1.7,0.7,7.2,2.7,9.7,0.6
					C85.9,83.1,87.4,88.1,90.8,90.4z"/>
				<path class="st18" d="M86.2,91.2c-4.3,0-10.3-1.1-12-6.7c-0.2-0.7,0.3-1.7,0.9-2.2c0.5-0.4,1-0.4,1.2-0.3c1.6,0.6,7,2.6,9.2,0.7
					l0.6-0.5l0.2,0.7c0,0,1.5,4.9,4.7,7.1l0.9,0.6l-1,0.2C90.8,90.9,88.8,91.2,86.2,91.2z M76,82.9c0,0-0.1,0-0.2,0.1
					c-0.4,0.4-0.7,1.1-0.6,1.3c2,6.8,11.4,6.2,14.5,5.8c-2.3-2-3.5-5-4-6.3C82.9,85.4,78.1,83.7,76,82.9C76,82.9,76,82.9,76,82.9z"
					/>
			</g>
			<g>
				<path class="st17" d="M108.6,66.9c0,0-1.6-12.4,6.8-17s7,8.6-0.3,12.4C115.1,62.3,111.3,64.8,108.6,66.9z"/>
				<path class="st18" d="M108.2,67.7l-0.1-0.8c-0.1-0.5-1.5-12.8,7-17.5c2.5-1.4,4-1.1,4.8-0.7c1.1,0.6,1.7,1.9,1.7,3.6
					c0,3.4-2.2,8.1-6.3,10.2c0,0-3.8,2.5-6.5,4.5L108.2,67.7z M118.5,49.3c-0.8,0-1.7,0.3-2.8,0.9c-6.8,3.7-6.8,13-6.6,15.8
					c2.6-1.9,5.8-4.1,5.9-4.1c3.6-1.9,5.8-6.4,5.8-9.5c0-1.4-0.4-2.4-1.2-2.9C119.2,49.4,118.9,49.3,118.5,49.3z"/>
			</g>
			<g>
				<path class="st17" d="M108.4,67.3c0,0,8.4-11.8,13-6.7s-12.7,16.9-12.7,16.9S113.7,70.6,108.4,67.3z"/>
				<path class="st18" d="M106.8,79.3l1.5-2.1c0,0,2.6-3.6,1.9-6.7c-0.2-1.2-1-2.2-2.1-2.9l-0.4-0.2L108,67
					c0.2-0.3,5.7-7.9,10.4-8.2c1.3,0,2.4,0.4,3.3,1.5c0.7,0.8,1,1.8,0.8,2.9c-0.8,5.8-13,14.2-13.6,14.6L106.8,79.3z M109,67.2
					c1.1,0.8,1.9,1.9,2.1,3.2c0.4,2-0.3,4.1-1,5.5c3.5-2.6,10.8-8.5,11.4-12.7c0.1-0.9-0.1-1.6-0.6-2.2c-0.7-0.8-1.5-1.2-2.5-1.1
					C114.7,59.9,110.2,65.7,109,67.2z"/>
			</g>
			<g>
				<path class="st17" d="M95.5,36.1c-1.1-0.6-2.2-1.8-2.3-3.1C93,31,93.7,28,94.8,27.4c1.5-1,4.2-2.3,6.7,3.1
					c0.3,0.8,0,1.6-0.7,2.1c-1.2,0.7-2.9,2.7-3.7,5.3C97.1,37.8,96.5,36.7,95.5,36.1z"/>
				<path class="st18" d="M97.2,39.1L96.6,38c0,0-0.5-1-1.4-1.5c-1.2-0.7-2.4-2-2.5-3.4c-0.2-2.2,0.5-5.3,1.8-6.1
					c0.9-0.6,2.2-1.3,3.6-0.9c1.4,0.4,2.7,1.8,3.7,4.2c0.4,1,0.1,2.1-0.9,2.6c-1.2,0.7-2.8,2.6-3.5,5L97.2,39.1z M97.3,26.9
					c-0.8,0-1.6,0.4-2.2,0.8c-0.8,0.5-1.6,3.2-1.4,5.3c0.1,1.1,1.1,2.2,2.1,2.7l0,0c0.5,0.3,0.9,0.7,1.2,1c0.9-2.2,2.4-3.9,3.6-4.6
					c0.6-0.3,0.8-1,0.5-1.5c-0.9-2.1-2-3.3-3.1-3.7C97.7,26.9,97.5,26.9,97.3,26.9z"/>
			</g>
			<g>
				<path class="st17" d="M89.9,31.7c-0.4-0.3-0.7-0.6-0.8-1.1c-0.4-1.5-0.9-4.8,0.5-7.4c1.9-3.4,5.2-4.6,7-1.2
					c1.8,3.5,1.8,4.5,1.8,4.5s-4.3-1.8-5.2,4.8c0,0-0.5,2.8,1.1,4l-1.9,0C92.4,35.4,91.2,32.6,89.9,31.7z"/>
				<path class="st18" d="M92.1,35.8l-0.1-0.3c0,0-1.1-2.7-2.3-3.5l0,0c-0.5-0.4-0.8-0.8-0.9-1.3c-0.4-1.7-0.9-5.1,0.5-7.7
					c1.2-2.2,2.9-3.5,4.6-3.5c0,0,0,0,0,0c1.3,0,2.5,0.8,3.2,2.3c1.8,3.4,1.8,4.6,1.8,4.7l0,0.7l-0.7-0.3c0,0-1.2-0.5-2.4,0.1
					c-1.1,0.6-1.8,2.1-2.1,4.3c0,0-0.4,2.5,0.9,3.6l0.9,0.8L92.1,35.8z M93.8,20.4c-1.3,0-2.7,1.1-3.7,3c-1.3,2.5-0.8,5.8-0.5,7.1
					c0.1,0.3,0.3,0.6,0.6,0.8l0,0c1.1,0.9,2.1,2.9,2.5,3.6l0.7,0c-0.9-1.5-0.6-3.5-0.6-3.6c0.3-2.5,1.2-4.2,2.6-5
					c0.9-0.5,1.8-0.5,2.4-0.4c-0.2-0.6-0.6-1.8-1.6-3.7C95.6,21,94.8,20.4,93.8,20.4C93.8,20.4,93.8,20.4,93.8,20.4z"/>
			</g>
			<g>
				<path class="st17" d="M108.6,47.1c0,0,1.6-10.8,6.3-11.2s0.5,14,0.5,14s-0.4,0.2-0.9,0.5c-0.4,0.3-1,0-1.1-0.5
					C113.2,48.4,112.3,46.3,108.6,47.1z"/>
				<path class="st18" d="M114.1,50.9c-0.2,0-0.4,0-0.5-0.1c-0.4-0.2-0.6-0.5-0.7-0.9c-0.1-0.7-0.4-1.7-1.2-2.2
					c-0.7-0.5-1.7-0.5-3-0.2l-0.7,0.2l0.1-0.7c0.1-0.5,1.7-11.1,6.7-11.6c0.8-0.1,1.4,0.2,1.8,0.7c2.4,2.7-0.5,12.7-0.8,13.8
					l-0.1,0.2l-0.2,0.1c0,0-0.4,0.2-0.9,0.5C114.6,50.9,114.3,50.9,114.1,50.9z M110.1,46.5c0.8,0,1.6,0.2,2.2,0.6
					c0.9,0.6,1.4,1.5,1.6,2.8c0,0.1,0.1,0.1,0.1,0.2c0.1,0,0.2,0,0.2,0c0.3-0.2,0.6-0.3,0.7-0.4c0.9-3.1,2.6-10.9,0.9-12.8
					c-0.3-0.3-0.6-0.4-1-0.4c-3.3,0.3-5.2,6.9-5.7,10.2C109.5,46.5,109.8,46.5,110.1,46.5z"/>
			</g>
			<g>
				<path class="st17" d="M98.5,26.2c0,0,1.1-11.2,5.8-10.9c4,0.3,3.5,7,3.5,7s-5.7-2.3-5.4,9.3l-0.8,0.2
					C101.5,31.9,101.3,27.8,98.5,26.2z"/>
				<path class="st18" d="M101.1,32.5l0-0.6c0,0-0.2-3.8-2.8-5.3L98,26.5l0-0.3c0-0.5,1.2-11.3,6-11.3c0.1,0,0.2,0,0.2,0
					c4.4,0.3,4,7.2,3.9,7.4l0,0.6l-0.6-0.2c-0.1,0-1.2-0.5-2.4,0.3c-1.2,0.8-2.5,2.9-2.3,8.6l0,0.3L101.1,32.5z M99,26
					c2,1.3,2.7,3.7,2.9,5c0-4.6,0.9-7.5,2.8-8.7c1-0.6,2-0.6,2.6-0.5c0-1.5-0.2-5.8-3.1-5.9C100.8,15.6,99.3,22.8,99,26z"/>
			</g>
			<g>
				<path class="st17" d="M111.4,38.1c1.5-5.2,1.2-11.6-2.1-14.9c-1.7-1.7-4.7-1.4-5.8,0.8c-0.6,1.3-1.1,3.3-0.8,6.6
					c0,0,3.9,2.6,2.5,7.1c-1,3.2,2.8,2.2,4.7,1.9C110.7,39.4,111.2,38.8,111.4,38.1z"/>
				<path class="st18" d="M106.9,40.4c-0.8,0-1.5-0.2-1.9-0.6c-0.5-0.5-0.5-1.3-0.2-2.2c1.3-4.1-2.2-6.5-2.3-6.6l-0.2-0.1l0-0.2
					c-0.2-2.9,0-5.2,0.8-6.8c0.6-1.1,1.6-1.9,2.9-2.1c1.4-0.2,2.7,0.3,3.6,1.2c3.5,3.6,3.6,10.3,2.2,15.3l0,0c-0.3,1-1,1.6-1.9,1.8
					c-0.2,0-0.4,0.1-0.6,0.1C108.6,40.2,107.7,40.4,106.9,40.4z M103.2,30.3c0.8,0.6,3.8,3.3,2.5,7.5c-0.1,0.5-0.3,1.1,0,1.4
					c0.5,0.6,2.3,0.3,3.5,0.1c0.2,0,0.5-0.1,0.7-0.1c0.7-0.1,1-0.8,1.1-1.1l0,0c1.4-4.8,1.3-11.1-2-14.5c-0.7-0.7-1.8-1.1-2.8-0.9
					c-1,0.1-1.8,0.7-2.2,1.6C103.2,25.6,103,27.6,103.2,30.3z"/>
			</g>
			<g>
				<path class="st17" d="M97.8,46c0,0,1.9-5.2-0.4-7.8c-1.4-1.6,1.8-7,4.5-7.6c2.3-0.5,4.7,3.9,3.6,6.6c-1.2,2.9-1.9,5-4.4,7.1
					C100.2,45.1,99.1,45.8,97.8,46z"/>
				<path class="st18" d="M97.1,46.6l0.3-0.7c0,0,1.8-5-0.3-7.3c-0.7-0.8-0.4-2.2-0.1-3.1c0.8-2.2,2.9-4.8,4.8-5.2
					c0.9-0.2,1.9,0.2,2.8,1.2c1.3,1.4,2.2,4.1,1.4,6l-0.3,0.8c-1,2.5-1.8,4.5-4.2,6.4c-1.2,1-2.4,1.6-3.6,1.8L97.1,46.6z
					 M102.3,31.1c-0.1,0-0.2,0-0.3,0c-1.6,0.3-3.4,2.7-4.1,4.6c-0.4,1-0.4,1.9-0.1,2.3c1.9,2.1,1.1,5.8,0.7,7.4
					c0.8-0.3,1.6-0.7,2.4-1.4c2.2-1.8,2.9-3.6,3.9-6.1l0.3-0.8c0.7-1.6-0.1-3.9-1.2-5.1C103.6,31.7,103,31.1,102.3,31.1z"/>
			</g>
			<g>
				<path class="st17" d="M108.5,46.8c0,0,5-11.8,0.6-10.9c-3.6,0.7-6.8,8.2-6.8,8.2s4.6,0.2,4.2,4.4L108.5,46.8z"/>
				<path class="st18" d="M105.9,49.6l0.1-1.1c0.1-1.1-0.2-2-0.8-2.7c-1.1-1.2-2.9-1.3-3-1.3l-0.7,0l0.2-0.6
					c0.1-0.3,3.4-7.8,7.1-8.5c1-0.2,1.5,0.2,1.8,0.5c1.8,2.1-1.5,10.1-1.8,11l-0.1,0.2L105.9,49.6z M103,43.8c0.8,0.1,2.1,0.5,3,1.5
					c0.6,0.6,0.9,1.4,1,2.3l1.2-1c1.4-3.3,3.1-8.8,2-10c-0.1-0.1-0.3-0.3-0.9-0.2C106.7,36.8,104.1,41.4,103,43.8z"/>
			</g>
			<g>
				<path class="st17" d="M104.2,15.4c0,0,2.4-4.9-3.5-5.7c-3.7-0.5-4.4,4-4.4,7.3c0,1.8,0.4,3.6,1,5.3c0.3,1,1.3,2.9,1.1,3.9
					c0,0,1-6,2.2-8.2C102.2,15.3,104.2,15.4,104.2,15.4z"/>
				<path class="st18" d="M99,26.3L98,26.2c0.1-0.7-0.4-1.9-0.8-2.8c-0.1-0.3-0.2-0.6-0.3-0.9c-0.6-1.9-1-3.7-1-5.5
					c0-3.5,0.7-5.9,2.1-7.1c0.8-0.6,1.7-0.9,2.8-0.7c1.9,0.3,3.2,1,3.9,2.1c1.1,1.9,0,4.1-0.1,4.2l-0.1,0.3l-0.3,0
					c-0.1,0-1.8,0.1-3.1,2.4C100,20.3,99,26.2,99,26.3z M100.2,10.1c-0.6,0-1.1,0.2-1.6,0.5c-1.2,1-1.8,3.2-1.8,6.4
					c0,1.6,0.3,3.4,0.9,5.2c0.1,0.2,0.2,0.5,0.3,0.8c0.1,0.3,0.2,0.6,0.3,0.8c0.4-2,1.1-4.7,1.8-6c1.3-2.2,2.9-2.7,3.6-2.9
					c0.2-0.6,0.7-2,0-3.2c-0.5-0.9-1.6-1.4-3.2-1.6C100.5,10.1,100.4,10.1,100.2,10.1z"/>
			</g>
			<g>
				<path class="st17" d="M97.9,89c0.6,1.6,1.8,2.2,3.5,2c3.5-0.4,10.3-6.6,8-10.4C106.3,75.7,95.5,82.2,97.9,89z"/>
				<path class="st18" d="M100.9,91.5c-1.7,0-2.9-0.8-3.4-2.4c-1.4-4.1,1.7-8.3,5.6-9.9c2.9-1.3,5.5-0.8,6.8,1.3
					c0.8,1.3,0.7,2.9-0.2,4.7c-1.6,3-5.5,6.1-8.1,6.4C101.2,91.5,101,91.5,100.9,91.5z M106,79.4c-0.9,0-1.8,0.2-2.6,0.6
					c-3.5,1.5-6.3,5.2-5,8.8l0,0c0.5,1.3,1.5,1.9,3,1.7c2.1-0.2,5.8-2.9,7.4-5.9c0.5-1,1-2.5,0.2-3.8
					C108.3,79.8,107.2,79.4,106,79.4z"/>
			</g>
			<g>
				<path class="st17" d="M106.4,16.3c0,0-0.5-6.7,4.9-4.7c5.3,2-1,12-1,12l-2.1-1.3C108.2,22.2,108.2,17.5,106.4,16.3z"/>
				<path class="st18" d="M110.4,24.2l-2.7-1.7v-0.2c0-1.2-0.3-4.7-1.6-5.6l-0.2-0.1l0-0.2c0-0.1-0.2-3.7,1.7-5
					c1-0.7,2.2-0.7,3.8-0.1c1.1,0.4,1.8,1.1,2.2,2.2c1.3,3.7-2.7,10.2-2.9,10.4L110.4,24.2z M108.6,22l1.5,0.9
					c0.9-1.5,3.6-6.5,2.6-9.3c-0.3-0.8-0.8-1.3-1.6-1.6c-1.2-0.5-2.2-0.5-2.8,0c-1.3,0.9-1.4,3.3-1.4,4
					C108.4,17.4,108.6,21,108.6,22z"/>
			</g>
			<g>
				<path class="st17" d="M112,20.9c0,0,5.6-2.7,4.9,4.4c-0.6,5.1-2.5,10.7-2.5,10.7l-2.1,1c0,0,0.8-9.5-1.8-12.5L112,20.9z"/>
				<path class="st18" d="M111.7,37.8l0.1-0.8c0-0.1,0.8-9.4-1.7-12.2l-0.2-0.2l1.7-3.9l0.2-0.1c0.1-0.1,2.5-1.2,4.1-0.1
					c1.2,0.8,1.7,2.4,1.4,5c-0.6,5.1-2.5,10.7-2.5,10.8l-0.1,0.2L111.7,37.8z M111,24.4c2.2,2.8,2,9.5,1.8,11.9l1.1-0.5
					c0.3-1,1.9-6,2.4-10.4c0.2-2.1-0.1-3.5-1-4.1c-1-0.7-2.5-0.1-3,0.1L111,24.4z"/>
			</g>
			<g>
				<path class="st17" d="M87.5,67.7c-1-1.6-1.8-3.3-2-5.2c-0.3-2.5-0.2-5.9,2.2-6.3c4.2-0.7,7.6,6,7.6,10.4c0,0-4.7-2.5-5.9,2.8
					c-0.1,0.4-0.7,0.5-0.9,0.1C88.2,69,87.9,68.3,87.5,67.7z"/>
				<path class="st18" d="M88.9,70.3c-0.4,0-0.7-0.2-0.9-0.5c-0.3-0.6-0.6-1.2-0.9-1.8l0,0c-1.2-1.8-1.9-3.6-2.1-5.4
					c-0.5-5.2,1.1-6.5,2.6-6.8c1.3-0.2,2.6,0.2,3.8,1.1c2.7,2.2,4.3,6.6,4.3,9.7l0,0.8L95,67.1c0,0-1.8-0.9-3.3-0.3
					c-0.9,0.4-1.6,1.3-1.9,2.8C89.7,69.9,89.4,70.2,88.9,70.3C88.9,70.3,88.9,70.3,88.9,70.3z M88.2,56.6c-0.2,0-0.4,0-0.5,0
					c-2,0.3-2,3.8-1.8,5.8c0.2,1.6,0.8,3.3,1.9,5h0c0.4,0.6,0.7,1.2,1,1.9c0.4-1.8,1.2-2.9,2.4-3.5c1.2-0.5,2.6-0.2,3.4,0
					c-0.2-2.8-1.7-6.5-4-8.3C89.9,57,89.1,56.6,88.2,56.6z"/>
			</g>
			<g>
				<path class="st17" d="M98.4,79.2c0,0,2-14.7-6.9-13.2c-6.5,1.1-1.6,8.7,1.7,12.9c1.6,2,3.2,4.2,4.2,6.5l0,0c0.1,0.2,0,0.2,0,0
					L98.4,79.2z"/>
				<path class="st18" d="M97.4,86.1l-0.3-0.1c-0.1,0-0.3-0.2-0.3-0.4c-1-2.2-2.6-4.3-4.1-6.3c-2.8-3.6-5.9-8.5-4.6-11.4
					c0.5-1.2,1.6-1.9,3.3-2.2c2-0.3,3.7,0.1,4.9,1.2c3.7,3.4,2.6,12.1,2.5,12.4l0,0l-1,6.1c0.1,0.3-0.1,0.4-0.1,0.5L97.4,86.1z
					 M92.7,66.3c-0.4,0-0.8,0-1.2,0.1c-1.4,0.2-2.2,0.8-2.6,1.6c-0.8,2,0.8,5.7,4.5,10.6c1.3,1.7,2.6,3.4,3.6,5.2l0.8-4.8
					c0-0.2,1.1-8.6-2.2-11.7C94.8,66.7,93.9,66.3,92.7,66.3z"/>
			</g>
			<g>
				<path class="st17" d="M105,58.6c0,0-0.5-12.1,4.9-11.6s5,8.1-1.2,15.6C108.7,62.5,109,58.7,105,58.6z"/>
				<path class="st18" d="M108.1,64l0.1-1.4c0,0,0.1-1.6-0.9-2.6c-0.5-0.6-1.3-0.9-2.3-0.9l-0.4,0l0-0.4c0-0.3-0.3-8.5,2.7-11.2
					c0.8-0.7,1.7-0.9,2.7-0.9c1.8,0.2,3,1,3.7,2.5c1.5,3.2-0.4,8.7-4.5,13.8L108.1,64z M105.5,58.2c1.1,0.1,1.9,0.5,2.6,1.1
					c0.6,0.6,0.9,1.4,1,2c3.9-5.2,4.7-9.7,3.7-12c-0.5-1.2-1.5-1.8-2.9-1.9c-0.8-0.1-1.4,0.1-1.9,0.6
					C105.5,50.2,105.4,56.5,105.5,58.2z"/>
			</g>
			<g>
				<path class="st17" d="M101,44.6c0,0-5.3,1.9-4.5,7.9c0.8,6.1,0.8,5.9,2,10c0,0,3-5.1,6.5-4.2c0,0-0.3-6,1-8.9
					C107.6,45.8,104.1,43.3,101,44.6z"/>
				<path class="st18" d="M98.3,63.7l-0.7-2.4c-0.8-2.8-1-3.3-1.6-8.7c-0.8-6.1,4.5-8.2,4.8-8.3c1.7-0.7,3.6-0.4,4.9,0.7
					c1.2,1.1,1.5,2.9,0.7,4.7c-1.2,2.8-0.9,8.6-0.9,8.7l0,0.6l-0.6-0.2c-3.1-0.8-6,3.9-6,4L98.3,63.7z M102.7,44.7
					c-0.5,0-1.1,0.1-1.6,0.3l0,0c-0.2,0.1-4.9,1.9-4.2,7.4c0.7,5.3,0.8,5.7,1.6,8.6l0.1,0.4c1-1.4,3.2-3.8,5.9-3.6
					c0-1.6-0.1-6,1-8.5c0.6-1.5,0.5-2.8-0.5-3.7C104.4,45,103.6,44.7,102.7,44.7z"/>
			</g>
		</g>
	</g>
</g>
</svg>
